<?xml version="1.0" encoding="UTF-8" standalone="no"?>
<svg
   xmlns:dc="http://purl.org/dc/elements/1.1/"
   xmlns:cc="http://creativecommons.org/ns#"
   xmlns:rdf="http://www.w3.org/1999/02/22-rdf-syntax-ns#"
   xmlns:svg="http://www.w3.org/2000/svg"
   xmlns="http://www.w3.org/2000/svg"
   xmlns:sodipodi="http://sodipodi.sourceforge.net/DTD/sodipodi-0.dtd"
   xmlns:inkscape="http://www.inkscape.org/namespaces/inkscape"
   width="1404"
   height="1872"
   viewBox="0 0 1404 1872"
   version="1.2"
   id="svg30"
   sodipodi:docname="centralized.svg"
   inkscape:version="0.92.5 (2060ec1f9f, 2020-04-08)"><metadata
   id="metadata36">
  <rdf:RDF>
    <cc:Work
       rdf:about="">
      <dc:format>image/svg+xml</dc:format>
      <dc:type
         rdf:resource="http://purl.org/dc/dcmitype/StillImage" />
    </cc:Work>
  </rdf:RDF>
</metadata>
<defs
   id="defs34" />
<sodipodi:namedview
   pagecolor="#ffffff"
   bordercolor="#666666"
   borderopacity="1"
   objecttolerance="10"
   gridtolerance="10"
   guidetolerance="10"
   inkscape:pageopacity="0"
   inkscape:pageshadow="2"
   inkscape:window-width="640"
   inkscape:window-height="480"
   id="namedview32"
   showgrid="false"
   inkscape:zoom="0.12606838"
   inkscape:cx="702"
   inkscape:cy="936"
   inkscape:window-x="0"
   inkscape:window-y="27"
   inkscape:window-maximized="0"
   inkscape:current-layer="svg30" />
<title
   id="title2">applied-hash notes</title>
\n<g
   id="g8">
  <path
     fill="#000000"
     d="M413.961 1352.95 C413.961 1352.95 413.961 1352.95 413.961 1352.95 C416.551 1341.44 419.079 1329.92 421.732 1318.43 C422.623 1314.57 423.535 1310.71 424.593 1306.88 C424.839 1305.99 425.098 1303.56 425.638 1304.31 C427.137 1306.4 427.56 1309.11 428.014 1311.64 C429.12 1317.8 429.206 1324.12 430.301 1330.28 C431.512 1337.1 433.138 1343.85 434.924 1350.54 C435.048 1351 435.499 1351.44 435.971 1351.52 C436.4 1351.6 436.834 1351.24 437.133 1350.93 C437.817 1350.2 438.968 1349.47 438.849 1348.48 C437.625 1338.29 435.185 1328.28 433.202 1318.21 C432.957 1316.96 432.219 1315.81 432.168 1314.54 C432.138 1313.81 432.986 1313.23 432.97 1312.5 C432.942 1311.21 432.217 1310.01 432.044 1308.73 C431.27 1303.03 430.415 1297.31 430.132 1291.56 C430.064 1290.18 430.835 1288.88 430.998 1287.5 C431.078 1286.83 431.013 1286.13 430.852 1285.47 C430.681 1284.78 430.09 1284.21 430.015 1283.5 C429.807 1281.51 429.82 1279.49 430.015 1277.5 C430.085 1276.79 430.799 1276.22 430.799 1275.5 C430.799 1274.78 430.091 1274.21 430.015 1273.5 C429.874 1272.16 429.849 1270.78 430.162 1269.48 C430.226 1269.21 430.745 1269.36 430.975 1269.5 C431.485 1269.82 431.939 1270.26 432.249 1270.77 C432.951 1271.94 433.217 1273.34 433.972 1274.47 C434.582 1275.38 435.614 1275.94 436.285 1276.81 C437.868 1278.86 439.126 1281.15 440.715 1283.19 C441.467 1284.16 442.58 1284.82 443.288 1285.82 C444.641 1287.73 445.369 1290.06 446.859 1291.86 C447.109 1292.16 447.655 1291.72 447.982 1291.5 C448.343 1291.26 448.73 1290.94 448.851 1290.53 C449.043 1289.86 449.081 1289.1 448.862 1288.45 C448.539 1287.47 447.877 1286.64 447.283 1285.81 C444.492 1281.89 441.367 1278.2 438.713 1274.19 C436.761 1271.23 435.097 1268.09 433.487 1264.94 C432.771 1263.53 432.234 1262.04 431.751 1260.54 C431.103 1258.53 430.872 1256.38 430.1 1254.41 C429.707 1253.41 427.405 1252.34 428.298 1251.74 C431.359 1249.69 435.445 1249.89 438.874 1248.54 C440.425 1247.93 441.853 1246.99 443.133 1245.93 C443.885 1245.3 444.702 1244.52 444.862 1243.55 C445.303 1240.88 445.2 1238.12 444.869 1235.44 C444.619 1233.41 443.351 1231.59 443.136 1229.56 C443.057 1228.82 443.349 1227.82 444.026 1227.5 C444.785 1227.14 445.663 1228.03 446.5 1227.97 C447.224 1227.92 447.813 1227.05 448.529 1227.18 C449.636 1227.37 450.383 1228.54 451.471 1228.82 C451.859 1228.92 452.099 1228.21 452.5 1228.2 C452.889 1228.2 453.127 1228.91 453.501 1228.8 C454.094 1228.63 454.557 1228.07 454.849 1227.53 C455.08 1227.1 455.424 1226.24 454.966 1226.07 C451.926 1224.94 448.693 1224.13 445.451 1224.03 C444.539 1224 444.194 1225.57 443.292 1225.71 C442.752 1225.79 442.234 1225.07 442.158 1224.53 C442.057 1223.81 442.922 1223.18 442.835 1222.46 C442.598 1220.49 442.29 1218.41 441.221 1216.74 C440.413 1215.48 438.961 1214.62 437.529 1214.18 C436.832 1213.96 436.219 1214.89 435.496 1214.98 C434.177 1215.16 432.825 1215.14 431.503 1214.98 C430.463 1214.86 429.519 1214.19 428.473 1214.16 C428.082 1214.14 427.909 1214.77 427.526 1214.85 C426.538 1215.06 425.51 1215 424.5 1215 C423.823 1215 423.127 1215.03 422.474 1214.85 C422.081 1214.74 421.861 1214.08 421.463 1214.17 C419.908 1214.5 417.59 1214.5 417.062 1216 C415.845 1219.45 419.073 1224 416.948 1226.97 C414.943 1229.78 410.183 1228.57 407.054 1230.03 C406.598 1230.24 406.86 1231.13 407.16 1231.53 C407.439 1231.91 408.039 1232.07 408.498 1231.97 C410.213 1231.59 411.727 1230.52 413.441 1230.13 C414.443 1229.91 415.507 1229.99 416.522 1230.15 C416.813 1230.19 417.134 1230.43 417.2 1230.71 C418.228 1235.18 418.456 1239.84 419.761 1244.23 C420.113 1245.42 421.203 1246.26 422.074 1247.13 C423.126 1248.19 424.508 1248.9 425.502 1250.02 C425.847 1250.4 426.023 1250.98 425.969 1251.5 C425.859 1252.54 425.053 1253.45 425.031 1254.5 C425.009 1255.54 426.193 1256.54 425.842 1257.53 C425.001 1259.89 422.977 1261.65 421.713 1263.81 C420.122 1266.54 418.862 1269.45 417.287 1272.19 C415.718 1274.91 414.127 1277.63 412.289 1280.18 C411.402 1281.41 409.915 1282.17 409.149 1283.47 C408.803 1284.06 408.724 1285 409.157 1285.53 C409.582 1286.05 410.55 1286.23 411.133 1285.9 C412.137 1285.33 412.66 1284.15 413.287 1283.18 C414.192 1281.79 414.757 1280.18 415.711 1278.82 C417.087 1276.85 418.963 1275.25 420.25 1273.22 C421.365 1271.47 422.11 1269.5 422.862 1267.56 C423.067 1267.03 422.752 1266.32 423.101 1265.87 C423.696 1265.1 424.514 1264.3 425.479 1264.18 C425.948 1264.12 425.979 1265.03 425.984 1265.5 C426.103 1276.18 426.247 1286.86 425.851 1297.53 C425.831 1298.08 425.001 1298.28 424.75 1298.78 C423.595 1301.06 422.533 1303.4 421.664 1305.8 C420.489 1309.06 419.442 1312.37 418.63 1315.73 C415.93 1326.92 413.485 1338.17 411.136 1349.44 C411.042 1349.89 411.111 1350.39 411.318 1350.8 C411.707 1351.58 412.197 1352.35 412.871 1352.89 M881.961 1250.95 C881.961 1250.95 881.961 1250.95 881.961 1250.95 C884.551 1239.44 887.079 1227.92 889.731 1216.43 C890.623 1212.57 891.535 1208.71 892.593 1204.88 C892.839 1203.99 893.098 1201.56 893.638 1202.31 C895.137 1204.4 895.56 1207.11 896.014 1209.64 C897.12 1215.8 897.206 1222.12 898.301 1228.28 C899.512 1235.1 901.138 1241.85 902.924 1248.54 C903.048 1249 903.499 1249.44 903.971 1249.52 C904.4 1249.6 904.834 1249.24 905.133 1248.93 C905.818 1248.2 906.968 1247.47 906.849 1246.48 C905.624 1236.29 903.185 1226.28 901.202 1216.21 C900.957 1214.96 900.219 1213.81 900.168 1212.54 C900.138 1211.81 900.985 1211.23 900.97 1210.5 C900.942 1209.21 900.217 1208.01 900.043 1206.73 C899.27 1201.03 898.415 1195.31 898.132 1189.56 C898.064 1188.18 898.835 1186.88 898.998 1185.5 C899.077 1184.83 899.013 1184.13 898.852 1183.47 C898.681 1182.78 898.09 1182.21 898.015 1181.5 C897.806 1179.51 897.82 1177.49 898.015 1175.5 C898.085 1174.79 898.799 1174.22 898.799 1173.5 C898.799 1172.78 898.09 1172.21 898.015 1171.5 C897.874 1170.16 897.849 1168.78 898.162 1167.48 C898.226 1167.21 898.745 1167.36 898.975 1167.5 C899.485 1167.82 899.939 1168.26 900.249 1168.77 C900.951 1169.94 901.217 1171.34 901.972 1172.47 C902.582 1173.38 903.614 1173.94 904.285 1174.81 C905.868 1176.86 907.125 1179.15 908.715 1181.19 C909.467 1182.16 910.58 1182.82 911.288 1183.82 C912.641 1185.73 913.369 1188.06 914.859 1189.86 C915.109 1190.16 915.655 1189.72 915.982 1189.5 C916.343 1189.26 916.73 1188.94 916.851 1188.53 C917.043 1187.86 917.153 1187.08 916.862 1186.45 C915.928 1184.43 914.575 1182.62 913.285 1180.81 C911.189 1177.86 908.738 1175.18 906.713 1172.19 C905.207 1169.96 904.008 1167.54 902.713 1165.19 C901.989 1163.87 901.166 1162.59 900.655 1161.17 C899.622 1158.31 899.183 1155.25 898.1 1152.41 C897.717 1151.41 895.418 1150.36 896.298 1149.74 C898.966 1147.87 902.671 1148.27 905.705 1147.08 C907.669 1146.31 909.847 1145.54 911.179 1143.9 C912.682 1142.06 911.798 1138.63 913.723 1137.24 C915.012 1136.3 916.803 1138.1 918.249 1138.77 C919.405 1139.31 920.215 1140.62 921.472 1140.82 C922.094 1140.92 922.509 1140.06 922.851 1139.53 C923.037 1139.24 923.016 1138.84 922.969 1138.5 C922.898 1137.99 922.813 1137.43 922.502 1137.02 C921.962 1136.3 921.339 1135.53 920.5 1135.2 C920.139 1135.06 919.898 1135.73 919.527 1135.84 C919.192 1135.95 918.805 1135.96 918.472 1135.84 C918.104 1135.72 917.895 1135.28 917.527 1135.16 C917.194 1135.04 916.807 1135.05 916.472 1135.16 C916.102 1135.27 915.887 1135.83 915.5 1135.8 C914.885 1135.74 914.311 1135.35 913.867 1134.93 C913.163 1134.25 912.409 1133.49 912.138 1132.55 C911.764 1131.26 911.869 1129.85 912.015 1128.5 C912.093 1127.79 913.161 1127.12 912.799 1126.5 C910.667 1122.86 908.326 1119.13 905.003 1116.52 C903.811 1115.59 901.954 1117.17 900.474 1116.85 C899.63 1116.67 899.26 1115.6 898.526 1115.15 C898.232 1114.97 897.842 1115.02 897.496 1115.01 C896.479 1115.01 895.403 1114.79 894.446 1115.14 C892.733 1115.76 891.086 1116.66 889.693 1117.83 C888.794 1118.59 888.251 1119.71 887.751 1120.78 C886.735 1122.94 885.43 1125.09 885.171 1127.47 C885.077 1128.33 886.621 1128.65 886.799 1129.5 C886.946 1130.2 886.095 1130.79 886.015 1131.5 C885.829 1133.16 885.746 1134.85 886.014 1136.49 C886.337 1138.47 886.916 1140.43 887.768 1142.25 C888.292 1143.36 889.213 1144.25 890.074 1145.13 C891.248 1146.34 892.886 1147.1 893.851 1148.47 C894.243 1149.03 893.988 1149.86 893.851 1150.53 C893.709 1151.22 893.032 1151.79 893.031 1152.5 C893.029 1153.54 894.193 1154.54 893.842 1155.53 C893.001 1157.89 890.977 1159.65 889.713 1161.81 C888.122 1164.54 886.862 1167.45 885.287 1170.19 C883.718 1172.91 882.127 1175.63 880.289 1178.18 C879.402 1179.41 878.062 1180.26 877.149 1181.47 C876.942 1181.75 876.985 1182.16 877.031 1182.5 C877.095 1182.97 877.079 1183.58 877.47 1183.84 C877.932 1184.15 878.678 1184.21 879.133 1183.9 C880.08 1183.24 880.66 1182.15 881.287 1181.19 C882.191 1179.79 882.757 1178.18 883.711 1176.82 C885.087 1174.85 886.963 1173.25 888.25 1171.22 C889.365 1169.47 890.11 1167.5 890.861 1165.56 C891.067 1165.03 890.752 1164.32 891.1 1163.87 C891.696 1163.1 892.514 1162.3 893.479 1162.18 C893.948 1162.12 893.978 1163.03 893.984 1163.5 C894.103 1174.18 894.247 1184.86 893.851 1195.53 C893.831 1196.08 893.001 1196.28 892.75 1196.78 C891.595 1199.06 890.532 1201.4 889.664 1203.8 C888.489 1207.06 887.441 1210.37 886.63 1213.73 C883.93 1224.92 881.485 1236.17 879.136 1247.44 C879.042 1247.89 879.111 1248.39 879.318 1248.8 C879.707 1249.58 880.197 1250.35 880.871 1250.89 M430.534 1248.98 C430.534 1248.98 430.534 1248.98 430.534 1248.98 C430.088 1248.88 429.59 1248.91 429.194 1248.69 C427.959 1247.97 426.723 1247.2 425.715 1246.19 C424.885 1245.36 424.271 1244.31 423.772 1243.25 C423.068 1241.75 422.359 1240.2 422.132 1238.56 C421.81 1236.22 421.894 1233.82 422.148 1231.47 C422.214 1230.86 422.638 1230.3 423.074 1229.87 C423.77 1229.17 424.486 1228.13 425.474 1228.13 C426.456 1228.13 426.904 1229.61 427.854 1229.87 C428.426 1230.02 428.908 1229.22 429.5 1229.2 C429.888 1229.19 430.112 1229.82 430.5 1229.8 C431.212 1229.76 431.789 1228.94 432.497 1229.03 C434.484 1229.28 436.433 1229.92 438.246 1230.77 C438.952 1231.1 439.474 1231.79 439.851 1232.47 C440.121 1232.96 439.764 1233.68 440.1 1234.13 C440.822 1235.1 442.476 1235.33 442.851 1236.48 C443.482 1238.4 443.216 1240.56 442.862 1242.55 C442.685 1243.55 442.019 1244.44 441.308 1245.17 C440.448 1246.04 439.39 1246.74 438.263 1247.22 C436.441 1247.99 434.491 1248.43 432.562 1248.87 M900.58 1146.86 C900.58 1146.86 900.58 1146.86 900.58 1146.86 C899.535 1146.86 898.453 1147.14 897.445 1146.86 C896.458 1146.59 895.538 1146 894.81 1145.28 C893.613 1144.1 892.567 1142.73 891.771 1141.25 C890.989 1139.79 890.426 1138.19 890.132 1136.56 C889.833 1134.9 889.927 1133.19 890.016 1131.5 C890.04 1131.03 890.006 1130.08 890.469 1130.17 C894.511 1130.92 898.436 1132.27 902.26 1133.78 C902.75 1133.97 902.697 1134.77 903.074 1135.13 C903.735 1135.78 904.393 1136.72 905.315 1136.76 C905.989 1136.79 906.033 1135.36 906.703 1135.29 C907.249 1135.23 907.606 1135.98 907.85 1136.47 C908.087 1136.95 907.726 1137.65 908.077 1138.05 C908.819 1138.91 910.656 1138.85 910.885 1139.95 C911.14 1141.18 909.995 1142.36 909.166 1143.31 C908.401 1144.18 907.333 1144.77 906.263 1145.22 M297.957 902.513 C297.957 902.513 297.957 902.513 297.957 902.513 C298.318 901.909 298.883 901.387 299.04 900.701 C301.504 889.927 303.427 879.035 305.795 868.24 C306.641 864.386 307.603 860.555 308.68 856.759 C308.924 855.901 309.17 853.628 309.748 854.307 C311.211 856.021 311.608 858.46 312.022 860.676 C313.221 867.098 313.442 873.673 314.569 880.109 C315.696 886.546 316.972 892.977 318.778 899.257 C318.995 900.009 319.745 900.816 320.527 900.822 C321.417 900.828 322.188 900.005 322.708 899.283 C322.89 899.031 322.178 898.808 322.202 898.498 C322.232 898.112 322.724 897.898 322.842 897.529 C322.954 897.183 322.927 896.796 322.865 896.437 C320.715 884.033 318.548 871.63 316.21 859.259 C315.971 857.998 315.175 856.844 315.137 855.561 C315.097 854.181 316.044 852.886 315.985 851.507 C315.715 845.162 314.517 838.883 314.158 832.543 C314.135 832.133 314.785 831.931 314.853 831.526 C315.074 830.202 315 828.843 315 827.5 C315 826.157 315.069 824.799 314.852 823.474 C314.736 822.768 314.114 822.205 314.015 821.496 C313.877 820.498 313.834 819.429 314.158 818.474 C314.271 818.143 314.944 817.866 315.155 818.145 C316.302 819.662 316.693 821.644 317.75 823.224 C318.422 824.227 319.545 824.857 320.285 825.81 C321.873 827.854 323.126 830.146 324.715 832.19 C325.469 833.16 326.641 833.782 327.293 834.823 C328.344 836.499 328.828 838.475 329.753 840.224 C329.901 840.504 330.176 840.737 330.476 840.841 C330.807 840.956 331.221 841.012 331.527 840.842 C332.072 840.541 332.525 840.056 332.851 839.526 C333.031 839.234 333.078 838.828 332.97 838.502 C332.543 837.218 332.039 835.933 331.285 834.81 C329.939 832.806 328.066 831.191 326.715 829.19 C323.868 824.972 321.303 820.567 318.714 816.186 C317.948 814.891 317.166 813.586 316.655 812.171 C315.622 809.311 315.184 806.254 314.1 803.413 C313.722 802.422 311.41 801.347 312.308 800.784 C315.246 798.944 319.089 799.291 322.386 798.223 C323.738 797.785 325.035 797.123 326.185 796.288 C327.22 795.536 328.499 794.756 328.851 793.526 C329.496 791.275 329.165 788.838 328.985 786.503 C328.93 785.791 328.19 785.24 328.157 784.527 C328.125 783.819 328.795 783.209 328.799 782.5 C328.802 782.099 328.077 781.859 328.177 781.471 C328.458 780.383 329.633 779.636 329.823 778.529 C329.946 777.813 329.026 777.226 329.031 776.5 C329.036 775.787 329.758 775.232 329.852 774.526 C330.031 773.188 330.463 771.672 329.838 770.476 C329.539 769.905 328.495 771.226 327.949 770.885 C326.999 770.293 327.07 768.579 326.051 768.114 C325.239 767.743 324.313 769.146 323.473 768.842 C322.271 768.408 321.499 767.19 320.711 766.184 C319.723 764.921 319.535 761.218 318.188 762.088 C315.905 763.563 317.983 769.814 315.267 769.702 C312.684 769.596 315.981 764.312 314.922 761.954 C314.21 760.369 312.061 759.969 310.529 759.151 C310.207 758.979 309.687 758.756 309.44 759.025 C308.119 760.463 307.884 762.942 306.177 763.89 C305.342 764.354 304.655 761.398 303.969 762.063 C302.469 763.521 302.435 765.969 301.945 768.002 C301.175 771.191 301.039 774.516 300.201 777.688 C300.127 777.965 299.808 777.189 299.524 777.159 C299.059 777.11 298.334 777.04 298.158 777.472 C297.772 778.414 297.987 779.521 298.147 780.526 C298.209 780.912 298.799 781.109 298.799 781.5 C298.799 781.891 298.224 782.091 298.147 782.474 C297.95 783.464 298.003 784.49 298.001 785.5 C298 786.186 297.902 786.91 298.138 787.554 C298.49 788.516 299.124 789.355 299.717 790.189 C299.91 790.461 300.142 790.826 300.475 790.841 C301.093 790.868 301.817 789.86 302.249 790.301 C303.836 791.92 304.275 794.397 305.692 796.166 C306.305 796.93 307.423 797.105 308.19 797.715 C308.821 798.217 309.529 798.735 309.851 799.474 C310.124 800.101 309.988 800.856 309.852 801.526 C309.709 802.224 309.031 802.787 309.031 803.5 C309.031 804.213 309.709 804.776 309.852 805.474 C309.988 806.144 310.155 806.913 309.851 807.526 C308.736 809.774 306.979 811.648 305.713 813.814 C304.121 816.54 302.989 819.527 301.287 822.185 C298.789 826.086 295.553 829.489 293.144 833.445 C292.871 833.894 293.236 834.525 293.497 834.979 C293.713 835.353 294.068 835.809 294.5 835.799 C295.121 835.785 295.79 835.43 296.144 834.919 C298.36 831.721 299.859 828.064 302.077 824.867 C302.599 824.114 303.788 823.987 304.268 823.207 C305.142 821.787 305.286 820.022 305.991 818.51 C306.442 817.542 307.068 816.66 307.715 815.81 C308.162 815.222 308.847 814.834 309.255 814.219 C309.859 813.311 309.944 812.061 310.718 811.294 C311.012 811.003 311.032 812.095 310.984 812.506 C310.79 814.191 310.051 815.804 310.001 817.5 C309.727 826.828 309.794 836.167 310.015 845.497 C310.03 846.136 310.941 846.689 310.708 847.285 C310.404 848.062 309.145 848.09 308.719 848.809 C307.423 850.997 306.425 853.375 305.665 855.802 C303.718 862.017 302.117 868.339 300.615 874.677 C298.899 881.912 297.234 889.171 296.014 896.506 C295.739 898.158 295.763 899.897 296.149 901.526 C296.292 902.131 296.961 902.505 297.506 902.803 M424.036 888.909 C424.036 888.909 424.036 888.909 424.036 888.909 C424.685 888.773 425.387 888.794 425.981 888.502 C426.372 888.309 426.656 887.916 426.851 887.526 C427.006 887.217 426.985 886.842 426.985 886.496 C426.985 885.488 427.047 884.463 426.852 883.474 C426.777 883.091 426.186 882.89 426.201 882.5 C426.229 881.786 426.979 881.214 426.969 880.5 C426.955 879.441 426.108 878.495 426.131 877.437 C426.452 862.301 426.903 847.157 427.996 832.057 C428.856 820.159 430.989 808.38 431.986 796.493 C432.32 792.511 432.38 788.482 431.986 784.506 C431.788 782.511 430.964 780.619 430.228 778.754 C430.116 778.47 429.802 778.195 429.497 778.203 C429.11 778.213 428.887 778.808 428.5 778.799 C428.112 778.79 427.899 778.276 427.529 778.157 C427.183 778.046 426.792 778.051 426.438 778.136 C424.448 778.613 422.563 779.538 420.539 779.835 C420.119 779.897 419.882 779.124 419.459 779.161 C413.084 779.728 406.741 780.637 400.418 781.625 C392.438 782.873 384.564 784.763 376.563 785.867 C375.847 785.965 375.223 785.206 374.5 785.201 C374.111 785.198 373.898 785.726 373.527 785.843 C373.192 785.949 372.808 785.949 372.473 785.843 C372.101 785.725 371.778 784.932 371.494 785.199 C371.016 785.65 370.786 786.557 371.104 787.132 C371.58 787.993 372.524 788.836 373.507 788.842 C374.94 788.851 376.061 787.451 377.466 787.171 C377.879 787.088 378.123 787.898 378.54 787.837 C381.202 787.443 383.733 786.412 386.365 785.854 C391.176 784.834 396.052 784.14 400.859 783.105 C401.762 782.911 402.544 782.199 403.466 782.172 C404.193 782.151 404.773 783.036 405.497 782.97 C412.188 782.358 418.739 780.017 425.457 780.16 C426.814 780.188 427.539 782.127 427.862 783.446 C428.421 785.728 428.174 788.151 427.986 790.493 C426.89 804.123 424.887 817.676 424.013 831.323 C422.901 848.692 422.022 866.095 422.029 883.5 M1070.96 884.948 C1070.96 884.948 1070.96 884.948 1070.96 884.948 C1073.55 873.443 1076.08 861.923 1078.73 850.431 C1079.62 846.568 1080.53 842.706 1081.59 838.884 C1081.84 837.993 1082.1 835.562 1082.64 836.313 C1084.14 838.398 1084.56 841.113 1085.01 843.64 C1086.12 849.803 1086.21 856.12 1087.3 862.285 C1088.51 869.102 1090.14 875.847 1091.92 882.536 C1092.05 882.999 1092.5 883.438 1092.97 883.521 C1093.4 883.597 1093.83 883.242 1094.13 882.926 C1094.82 882.204 1095.97 881.471 1095.85 880.484 C1094.62 870.291 1092.18 860.28 1090.2 850.207 C1089.96 848.96 1089.22 847.807 1089.17 846.537 C1089.14 845.808 1089.99 845.231 1089.97 844.503 C1089.94 843.209 1089.22 842.015 1089.04 840.733 C1088.27 835.026 1087.42 829.315 1087.13 823.563 C1087.06 822.18 1087.84 820.875 1088 819.5 C1088.08 818.828 1088.01 818.131 1087.85 817.474 C1087.68 816.779 1087.09 816.208 1087.02 815.496 C1086.81 813.51 1086.82 811.492 1087.02 809.503 C1087.08 808.79 1087.8 808.217 1087.8 807.5 C1087.8 806.783 1087.09 806.209 1087.02 805.496 C1086.87 804.163 1086.85 802.78 1087.16 801.476 C1087.23 801.212 1087.74 801.357 1087.98 801.501 C1088.49 801.818 1088.94 802.26 1089.25 802.775 C1089.95 803.937 1090.22 805.338 1090.97 806.467 C1091.58 807.379 1092.61 807.941 1093.28 808.81 C1094.87 810.858 1096.13 813.146 1097.71 815.19 C1098.47 816.157 1099.58 816.816 1100.29 817.816 C1101.64 819.725 1102.37 822.056 1103.86 823.861 C1104.11 824.164 1104.66 823.719 1104.98 823.5 C1105.34 823.258 1105.73 822.944 1105.85 822.526 C1106.04 821.86 1106.08 821.104 1105.86 820.446 C1105.54 819.473 1104.88 818.643 1104.28 817.808 C1101.49 813.886 1098.37 810.201 1095.71 806.185 C1093.76 803.231 1092.1 800.09 1090.49 796.936 C1089.77 795.532 1089.23 794.039 1088.75 792.538 C1088.1 790.526 1087.87 788.382 1087.1 786.413 C1086.71 785.413 1084.42 784.356 1085.3 783.739 C1087.97 781.868 1091.62 782.142 1094.7 781.078 C1095.94 780.652 1097.1 780.002 1098.19 779.286 C1099.21 778.613 1099.96 777.557 1101.02 776.935 C1102.88 775.838 1105.55 775.871 1106.88 774.167 C1107.85 772.926 1107.18 770.985 1106.87 769.441 C1106.58 768.053 1105.39 766.953 1105.14 765.559 C1105.01 764.85 1105.8 764.221 1105.8 763.5 C1105.8 763.109 1105.22 762.91 1105.15 762.526 C1104.91 761.326 1105.48 759.942 1104.9 758.867 C1104.24 757.648 1102.63 757.228 1101.72 756.19 C1101.04 755.422 1100.42 754.523 1100.18 753.529 C1100.08 753.14 1100.91 752.886 1100.8 752.499 C1100.64 751.905 1100.13 751.304 1099.53 751.158 C1098.93 751.011 1098.13 751.254 1097.77 751.758 C1096.95 752.901 1097.67 755.62 1096.27 755.702 C1094.98 755.776 1096.44 753.031 1095.9 751.866 C1095.5 751.024 1094.35 750.822 1093.69 750.165 C1093.08 749.556 1092.86 748.56 1092.13 748.104 C1091.66 747.806 1090.97 747.937 1090.44 748.139 C1089.39 748.544 1088.66 749.838 1087.53 749.871 C1086.61 749.898 1086.18 748.494 1085.29 748.289 C1084.79 748.174 1084.29 748.661 1083.95 749.047 C1083.2 749.9 1083.24 751.872 1082.1 751.912 C1080.85 751.956 1080.73 749.41 1079.5 749.202 C1078.47 749.029 1077.51 750.158 1076.96 751.046 C1075.37 753.586 1074.61 756.558 1073.25 759.224 C1073 759.719 1072.29 759.936 1072.15 760.473 C1071.9 761.459 1071.85 762.555 1072.15 763.526 C1072.33 764.116 1072.92 764.577 1073.5 764.797 C1073.76 764.899 1074.12 764.036 1074.2 764.311 C1075.32 768.22 1075.49 772.374 1076.76 776.236 C1077.15 777.41 1078.21 778.249 1079.07 779.133 C1080.25 780.336 1081.89 781.097 1082.85 782.474 C1083.24 783.034 1082.99 783.855 1082.85 784.526 C1082.71 785.224 1082.03 785.787 1082.03 786.5 C1082.03 787.545 1083.19 788.543 1082.84 789.527 C1082 791.889 1079.98 793.649 1078.71 795.814 C1077.12 798.54 1075.86 801.45 1074.29 804.185 C1072.72 806.91 1071.13 809.633 1069.29 812.183 C1068.4 813.413 1066.92 814.166 1066.15 815.474 C1065.8 816.065 1065.72 816.998 1066.16 817.528 C1066.58 818.046 1067.55 818.226 1068.13 817.896 C1069.14 817.327 1069.66 816.154 1070.29 815.185 C1071.19 813.787 1071.76 812.181 1072.71 810.816 C1074.09 808.849 1075.96 807.251 1077.25 805.224 C1078.36 803.468 1079.11 801.495 1079.86 799.555 C1080.07 799.025 1079.75 798.316 1080.1 797.867 C1080.7 797.098 1081.51 796.299 1082.48 796.177 C1082.95 796.118 1082.98 797.031 1082.98 797.503 C1083.15 807.501 1083.04 817.501 1083 827.5 C1083 828.177 1083.09 828.894 1082.85 829.526 C1082.65 830.045 1082 830.28 1081.75 830.776 C1080.6 833.059 1079.53 835.397 1078.66 837.804 C1077.49 841.059 1076.44 844.368 1075.63 847.732 C1072.93 858.92 1070.48 870.17 1068.14 881.437 C1068.04 881.887 1068.11 882.393 1068.32 882.804 C1068.71 883.58 1069.2 884.346 1069.87 884.892 M418.79 878.674 C418.79 878.674 418.79 878.674 418.79 878.674 C419.513 877.805 421.814 876.808 420.96 876.067 C419.036 874.394 416.07 874.589 413.562 874.13 C412.549 873.945 411.488 873.972 410.474 874.147 C410.07 874.217 409.866 874.876 409.459 874.839 C406.119 874.538 402.886 873.399 399.541 873.16 C398.808 873.108 398.231 873.958 397.496 873.985 C390.503 874.235 383.5 874.126 376.504 873.984 C376.033 873.975 375.161 874.002 375.166 873.531 C375.263 863.984 376.15 854.461 376.799 844.936 C377.424 835.781 378.555 826.66 378.986 817.493 C379.284 811.17 379.235 804.828 378.985 798.503 C378.957 797.79 378.209 797.239 378.157 796.527 C378.111 795.898 378.984 795.283 378.708 794.716 C378.32 793.917 377.368 793.475 376.531 793.18 C376.253 793.082 375.832 793.4 375.814 793.694 C374.722 810.766 374.255 827.873 373.222 844.949 C372.988 848.815 372.204 852.638 372.014 856.507 C371.801 860.831 371.536 865.193 372.015 869.496 C372.166 870.852 373.839 871.782 373.867 873.146 C373.886 874.118 372.221 874.524 372.136 875.492 C372.079 876.138 372.892 876.866 373.541 876.839 C376.915 876.697 380.158 875.45 383.507 875.014 C384.506 874.884 385.537 874.959 386.526 875.148 C387.226 875.282 387.788 875.986 388.5 875.969 C389.547 875.944 390.452 875.053 391.5 875.031 C392.544 875.009 393.483 875.812 394.527 875.843 C394.918 875.854 395.086 875.202 395.474 875.148 C397.132 874.917 398.834 874.798 400.493 875.014 C403.541 875.41 406.443 876.685 409.503 876.97 C410.554 877.068 411.521 875.949 412.559 876.139 M403.715 856.76 C403.715 856.76 403.715 856.76 403.715 856.76 C407.439 856.018 411.196 855.421 414.889 854.532 C415.058 854.491 414.697 854.168 414.523 854.159 C411.521 853.993 408.504 853.826 405.503 854.015 C404.789 854.06 404.222 854.683 403.526 854.852 C402.871 855.011 402.175 855.079 401.507 854.985 C397.814 854.464 394.203 853.398 390.493 853.014 C389.372 852.898 388.05 852.823 387.147 853.498 C386.715 853.821 387.502 854.75 388.031 854.854 M385.741 842.723 C385.741 842.723 385.741 842.723 385.741 842.723 C387.307 842.194 388.796 841.316 390.439 841.137 C391.502 841.021 392.495 841.926 393.563 841.868 C400.753 841.482 407.947 840.891 415.066 839.815 C415.572 839.738 416.031 838.976 415.852 838.497 C415.681 838.041 414.919 838.063 414.437 838.134 C411.778 838.526 409.242 839.65 406.563 839.866 C405.506 839.951 404.553 839.109 403.496 839.015 C401.828 838.867 400.134 838.93 398.474 839.147 C398.087 839.198 397.891 839.799 397.5 839.799 C397.109 839.799 396.904 839.246 396.526 839.147 C395.872 838.977 395.169 838.899 394.504 839.016 C393.799 839.14 393.221 839.682 392.526 839.852 C391.868 840.013 391.172 840.077 390.5 839.998 C389.126 839.837 387.814 838.973 386.441 839.14 C385.188 839.292 383.33 839.661 383.088 840.9 M416.827 826.553 C416.827 826.553 416.827 826.553 416.827 826.553 C416.877 826.064 417.457 825.194 416.977 825.087 C411.924 823.954 406.733 823.445 401.563 823.132 C400.507 823.068 399.558 823.955 398.5 823.969 C397.786 823.979 397.213 823.241 396.5 823.201 C396.112 823.179 395.889 823.799 395.5 823.799 C395.111 823.799 394.888 823.196 394.5 823.2 C394.099 823.205 393.859 823.923 393.471 823.823 C392.383 823.542 391.648 822.267 390.528 822.177 C389.899 822.126 389.491 822.943 389.149 823.474 C388.963 823.763 388.985 824.159 389.031 824.5 C389.095 824.967 389.14 825.508 389.472 825.843 C389.717 826.089 390.157 825.984 390.504 825.984 C391.845 825.987 393.203 826.072 394.526 825.852 C394.912 825.788 395.081 825.146 395.473 825.157 C396.517 825.188 397.455 825.973 398.5 825.969 C399.559 825.965 400.506 825.076 401.563 825.132 C406.217 825.379 410.796 826.435 415.436 826.867 M391.719 811.759 C391.719 811.759 391.719 811.759 391.719 811.759 C394.966 811.226 398.181 810.44 401.459 810.16 C401.864 810.126 402.085 810.714 402.47 810.842 C402.815 810.958 403.206 810.939 403.561 810.862 C404.636 810.632 405.643 810.128 406.725 809.93 C410.61 809.217 414.498 808.424 418.437 808.133 C419.491 808.055 420.579 809.298 421.529 808.835 C422.243 808.487 422.423 807.014 421.842 806.472 C421.022 805.706 419.625 805.92 418.506 806.014 C416.961 806.144 415.518 806.868 413.989 807.131 C411.284 807.596 408.555 807.917 405.824 808.195 C399.791 808.81 393.721 809.072 387.701 809.808 C387.417 809.843 387.191 810.191 387.159 810.476 C387.107 810.941 387.023 811.716 387.472 811.842 M386.953 804.52 C386.953 804.52 386.953 804.52 386.953 804.52 C387.561 803.93 388.054 803.194 388.775 802.75 C389.911 802.05 391.117 801.312 392.441 801.139 C393.5 801.001 394.501 801.983 395.562 801.864 C397.592 801.637 399.45 800.598 401.438 800.131 C402.109 799.974 402.811 800.011 403.5 800.001 C405.498 799.972 407.507 799.817 409.496 800.015 C410.21 800.086 410.784 800.767 411.5 800.799 C411.89 800.816 412.096 800.246 412.474 800.147 C413.127 799.977 413.827 799.925 414.496 800.016 C415.534 800.157 416.578 801.272 417.529 800.835 C418.25 800.503 418.073 799.236 417.851 798.474 C417.672 797.861 417.095 797.109 416.458 797.159 C406.771 797.915 397.208 799.857 387.541 800.839 C387.136 800.88 386.893 800.096 386.5 800.2 C385.902 800.359 385.482 800.952 385.149 801.474 C384.964 801.764 384.983 802.159 385.031 802.5 C385.102 803.012 385.219 803.544 385.497 803.98 C385.731 804.345 386.098 804.651 386.504 804.802 M317.55 797.839 C317.55 797.839 317.55 797.839 317.55 797.839 C315.858 797.843 314.077 798.393 312.474 797.851 C311.263 797.442 310.536 796.169 309.715 795.19 C308.96 794.29 308.271 793.313 307.772 792.249 C307.068 790.75 306.426 789.19 306.132 787.56 C305.833 785.901 305.926 784.187 306.016 782.504 C306.041 782.03 306.04 781.351 306.472 781.157 C307.286 780.793 308.31 780.795 309.147 781.102 C310.078 781.443 310.585 782.502 311.453 782.982 C311.773 783.158 312.25 783.191 312.548 782.981 C313.658 782.199 314.232 780.693 315.476 780.149 C316.593 779.66 318.003 779.647 319.133 780.102 C319.994 780.449 320.135 781.696 320.834 782.307 C321.945 783.281 323.13 784.244 324.499 784.799 C324.86 784.945 325.153 784.027 325.501 784.201 C326.473 784.687 327.755 785.387 327.841 786.47 C328.026 788.789 327.214 791.155 326.221 793.259 C325.619 794.535 324.39 795.453 323.225 796.249 C322.12 797.004 320.846 797.565 319.534 797.829 C319.139 797.909 318.904 797.199 318.501 797.201 M1089.58 780.857 C1089.58 780.857 1089.58 780.857 1089.58 780.857 C1088.53 780.859 1087.45 781.137 1086.45 780.862 C1085.46 780.593 1084.54 780.005 1083.81 779.285 C1082.61 778.101 1081.51 776.761 1080.77 775.249 C1079.89 773.448 1079.29 771.481 1079.01 769.493 C1078.74 767.497 1078.75 765.426 1079.14 763.447 C1079.27 762.757 1079.8 761.754 1080.5 761.837 C1081.43 761.947 1081.58 763.545 1082.47 763.841 C1083.14 764.063 1083.77 763.165 1084.47 763.157 C1085.18 763.15 1085.83 764.021 1086.5 763.799 C1088.01 763.302 1088.88 761.153 1090.47 761.178 C1091.68 761.197 1091.84 763.256 1092.87 763.898 C1093.52 764.305 1094.67 763.525 1095.16 764.113 C1096.59 765.829 1096.91 768.241 1098.08 770.147 C1098.51 770.856 1099.59 771.083 1099.9 771.854 C1100.24 772.688 1100.13 773.696 1099.86 774.554 C1099.54 775.582 1098.92 776.54 1098.17 777.308 C1097.35 778.132 1096.33 778.775 1095.26 779.218 M302.527 775.789 C302.527 775.789 302.527 775.789 302.527 775.789 C302.407 775.353 302.176 774.932 302.168 774.479 C302.166 774.334 302.423 774.075 302.5 774.198 C302.745 774.585 302.825 775.073 302.832 775.53 M326.527 772.79 C326.527 772.79 326.527 772.79 326.527 772.79 C326.407 772.353 326.176 771.932 326.168 771.479 C326.166 771.334 326.423 771.075 326.5 771.198 C326.745 771.585 326.825 772.073 326.832 772.53 M311.527 771.79 C311.527 771.79 311.527 771.79 311.527 771.79 C311.407 771.353 311.176 770.932 311.168 770.479 C311.166 770.334 311.423 770.075 311.5 770.198 C311.745 770.585 311.825 771.073 311.832 771.53 M307.527 769.789 C307.527 769.789 307.527 769.789 307.527 769.789 C307.362 769.362 307.039 768.965 307.034 768.507 C307.029 768.044 307.037 767.202 307.5 767.198 C307.961 767.194 307.963 768.038 307.967 768.499 M309.527 764.79 C309.527 764.79 309.527 764.79 309.527 764.79 C309.407 764.353 309.176 763.932 309.168 763.48 C309.166 763.334 309.423 763.075 309.5 763.198 C309.745 763.585 309.825 764.073 309.832 764.53 M809.961 580.948 C809.961 580.948 809.961 580.948 809.961 580.948 C812.551 569.443 815.079 557.923 817.731 546.432 C818.623 542.568 819.535 538.706 820.593 534.884 C820.839 533.993 821.098 531.563 821.638 532.313 C823.137 534.398 823.56 537.113 824.014 539.64 C825.12 545.803 825.206 552.12 826.301 558.285 C827.512 565.102 829.138 571.847 830.924 578.537 C831.048 578.999 831.499 579.438 831.971 579.521 C832.4 579.597 832.834 579.242 833.133 578.926 C833.817 578.204 834.968 577.471 834.849 576.484 C833.624 566.291 831.185 556.28 829.202 546.207 C828.957 544.96 828.219 543.807 828.168 542.537 C828.138 541.809 828.986 541.232 828.97 540.503 C828.942 539.209 828.217 538.015 828.044 536.733 C827.27 531.026 826.415 525.315 826.132 519.563 C826.064 518.18 826.835 516.875 826.998 515.5 C827.077 514.828 827.013 514.132 826.852 513.474 C826.681 512.779 826.09 512.208 826.015 511.496 C825.806 509.51 825.82 507.492 826.015 505.503 C826.085 504.79 826.799 504.217 826.799 503.5 C826.799 502.783 826.09 502.21 826.015 501.496 C825.874 500.163 825.849 498.78 826.162 497.476 C826.226 497.212 826.745 497.357 826.975 497.501 C827.485 497.818 827.939 498.261 828.249 498.775 C828.951 499.938 829.217 501.338 829.972 502.467 C830.582 503.379 831.614 503.942 832.285 504.81 C833.868 506.858 835.126 509.146 836.715 511.19 C837.467 512.157 838.58 512.816 839.288 513.816 C840.641 515.725 841.369 518.056 842.859 519.861 C843.109 520.164 843.655 519.719 843.982 519.5 C844.343 519.258 844.73 518.944 844.851 518.526 C845.043 517.86 845.08 517.104 844.862 516.446 C844.539 515.473 843.877 514.643 843.283 513.808 C840.492 509.886 837.367 506.201 834.713 502.186 C832.76 499.231 831.096 496.091 829.487 492.936 C828.771 491.532 828.234 490.039 827.751 488.539 C827.103 486.526 826.872 484.382 826.1 482.413 C825.707 481.413 823.404 480.335 824.298 479.739 C827.1 477.874 831.107 475.488 834.05 477.121 C837.16 478.848 836.264 483.893 837.669 487.162 C838.28 488.583 839.036 489.985 840.074 491.133 C840.844 491.985 842.328 492.057 842.961 493.015 C843.98 494.559 844.047 496.56 844.78 498.258 C844.9 498.536 845.175 498.812 845.476 498.841 C846.001 498.891 846.686 498.884 847.013 498.471 C847.909 497.34 848.733 495.995 848.866 494.559 C849.359 489.21 849.697 483.752 848.862 478.446 C848.472 475.966 846.721 473.877 845.288 471.816 C844.337 470.448 842.6 469.708 841.779 468.259 C840.79 466.516 840.778 464.365 840.012 462.513 C839.603 461.525 839.034 460.573 838.285 459.81 C836.725 458.22 834.312 457.432 833.158 455.527 C832.618 454.636 834.295 453.414 833.841 452.475 C833.256 451.264 831.866 450.433 830.554 450.138 C828.242 449.618 825.785 449.759 823.446 450.138 C822.435 450.301 821.628 451.099 820.81 451.715 C819.979 452.341 819.527 453.555 818.527 453.842 C817.702 454.079 816.543 452.361 816.066 453.076 C814.659 455.187 814.466 457.923 814.13 460.438 C813.816 462.791 813.806 465.209 814.132 467.56 C814.36 469.199 815.005 470.778 815.768 472.246 C816.337 473.338 817.213 474.252 818.074 475.134 C819.248 476.336 820.886 477.097 821.851 478.474 C822.243 479.034 821.988 479.856 821.852 480.526 C821.709 481.224 821.032 481.787 821.031 482.5 C821.029 483.545 822.193 484.543 821.842 485.528 C821.001 487.889 818.977 489.649 817.713 491.814 C816.122 494.54 814.862 497.45 813.287 500.186 C811.718 502.91 810.127 505.633 808.289 508.184 C807.402 509.413 805.915 510.166 805.149 511.474 C804.803 512.065 804.724 512.998 805.157 513.528 C805.582 514.046 806.55 514.227 807.133 513.896 C808.137 513.327 808.66 512.154 809.287 511.185 C810.192 509.787 810.757 508.181 811.711 506.816 C813.086 504.849 814.963 503.251 816.25 501.224 C817.365 499.468 818.11 497.495 818.861 495.556 C819.067 495.026 818.752 494.316 819.1 493.867 C819.696 493.098 820.514 492.299 821.479 492.177 C821.948 492.118 821.978 493.031 821.984 493.503 C822.103 504.177 822.247 514.859 821.851 525.526 C821.831 526.081 821.001 526.28 820.75 526.776 C819.595 529.059 818.532 531.397 817.664 533.804 C816.489 537.059 815.441 540.368 814.63 543.732 C811.93 554.92 809.485 566.17 807.136 577.437 C807.042 577.887 807.111 578.394 807.318 578.805 C807.707 579.58 808.197 580.346 808.871 580.892 M828.58 476.857 C828.58 476.857 828.58 476.857 828.58 476.857 C827.535 476.859 826.419 477.24 825.445 476.862 C824.02 476.308 822.802 475.266 821.715 474.19 C820.88 473.364 820.271 472.313 819.772 471.249 C819.068 469.751 818.431 468.189 818.132 466.561 C817.935 465.485 817.431 463.934 818.311 463.285 C818.99 462.785 819.182 464.771 819.833 465.307 C821.15 466.39 822.824 466.983 824.134 468.074 C824.853 468.673 825.138 469.682 825.833 470.307 C826.707 471.093 827.725 471.722 828.775 472.248 C830.69 473.208 834.783 472.611 834.692 474.751 M835.547 471.822 C835.547 471.822 835.547 471.822 835.547 471.822 C835.106 471.786 834.645 471.851 834.225 471.713 C833.037 471.321 831.875 470.836 830.772 470.247 C829.727 469.689 828.688 469.079 827.81 468.285 C825.816 466.482 823.739 464.698 822.199 462.495 C821.938 462.12 823.136 461.923 823.527 462.158 C824.808 462.929 825.547 464.398 826.775 465.249 C827.891 466.024 829.302 466.274 830.467 466.972 C830.982 467.281 831.23 467.943 831.756 468.234 C833.079 468.966 834.837 468.96 835.936 470 M838.55 467.829 C838.55 467.829 838.55 467.829 838.55 467.829 C837.515 467.84 836.44 468.148 835.446 467.861 C834.594 467.616 832.51 466.74 833.285 466.311 C834.815 465.465 836.848 465.673 838.528 466.157 M467.961 464.948 C467.961 464.948 467.961 464.948 467.961 464.948 C470.551 453.443 473.079 441.923 475.732 430.432 C476.623 426.568 477.535 422.706 478.593 418.884 C478.839 417.993 479.098 415.563 479.638 416.314 C481.137 418.398 481.56 421.113 482.014 423.64 C483.12 429.803 483.206 436.12 484.301 442.285 C485.512 449.102 487.138 455.847 488.924 462.537 C489.048 463 489.499 463.438 489.971 463.521 C490.4 463.597 490.834 463.242 491.133 462.926 C491.817 462.204 492.968 461.472 492.849 460.484 C491.624 450.291 489.185 440.28 487.202 430.207 C486.957 428.96 486.219 427.807 486.168 426.537 C486.138 425.809 486.986 425.231 486.97 424.503 C486.942 423.209 486.217 422.015 486.044 420.733 C485.27 415.026 484.415 409.315 484.132 403.563 C484.064 402.18 484.835 400.875 484.998 399.5 C485.077 398.828 485.013 398.132 484.852 397.474 C484.681 396.779 484.09 396.208 484.015 395.496 C483.806 393.51 483.82 391.492 484.015 389.504 C484.085 388.79 484.799 388.217 484.799 387.5 C484.799 386.783 484.09 386.21 484.015 385.496 C483.874 384.163 483.849 382.78 484.162 381.476 C484.226 381.212 484.745 381.358 484.975 381.501 C485.485 381.818 485.939 382.261 486.249 382.775 C486.951 383.938 487.217 385.338 487.972 386.467 C488.582 387.379 489.614 387.942 490.285 388.81 C491.868 390.858 493.126 393.146 494.715 395.19 C495.467 396.158 496.58 396.816 497.288 397.816 C498.641 399.725 499.369 402.056 500.859 403.861 C501.109 404.164 501.655 403.719 501.982 403.5 C502.343 403.258 502.73 402.944 502.851 402.526 C503.043 401.86 503.081 401.104 502.862 400.446 C502.539 399.473 501.877 398.643 501.283 397.808 C498.492 393.886 495.367 390.201 492.713 386.186 C490.76 383.231 489.097 380.091 487.487 376.936 C486.771 375.532 486.234 374.039 485.751 372.539 C485.103 370.526 484.872 368.382 484.1 366.413 C483.707 365.413 481.38 364.298 482.298 363.739 C485.425 361.838 490.271 358.534 492.94 361.038 C497.258 365.09 495.912 372.506 497.669 378.161 C497.932 379.007 498.441 379.768 498.978 380.473 C499.387 381.01 499.833 381.623 500.473 381.842 C500.96 382.009 501.56 381.8 501.981 381.502 C502.727 380.975 504.018 380.365 503.822 379.473 C502.972 375.606 500.388 372.314 499.134 368.559 C498.809 367.583 498.981 366.489 499.147 365.474 C499.211 365.088 499.814 364.89 499.799 364.5 C499.771 363.786 499.006 363.214 499.031 362.5 C499.066 361.453 499.934 360.547 499.969 359.5 C499.993 358.784 498.804 358.091 499.2 357.494 C499.632 356.841 500.779 356.912 501.526 357.149 C502.278 357.387 503.082 358.003 503.244 358.775 C504.642 365.42 504.715 372.298 506.11 378.944 C506.209 379.413 506.992 378.509 507.311 378.151 C507.635 377.788 507.861 377.324 507.976 376.851 C508.718 373.78 509.353 370.68 509.87 367.562 C509.986 366.864 510.049 366.123 509.869 365.439 C509.186 362.852 508.343 360.3 507.302 357.836 C507.097 357.348 506.628 356.997 506.184 356.711 C504.7 355.757 503.167 354.861 501.557 354.139 C501.098 353.933 500.27 354.421 500.058 353.965 C498.974 351.63 498.943 348.917 498.015 346.515 C497.584 345.4 496.869 344.376 496.024 343.529 C494.67 342.172 492.827 341.362 491.498 339.981 C491.14 339.61 491.086 338.983 491.157 338.473 C491.211 338.087 491.717 337.895 491.843 337.527 C491.956 337.195 492.085 336.727 491.841 336.475 C490.905 335.51 489.866 334.433 488.554 334.138 C486.242 333.618 483.785 333.759 481.446 334.138 C480.435 334.301 479.585 335.046 478.81 335.715 C477.004 337.273 475.2 338.881 473.751 340.775 C472.939 341.836 472.332 343.121 472.134 344.441 C471.782 346.788 471.807 349.21 472.132 351.561 C472.359 353.199 473.005 354.778 473.768 356.246 C474.337 357.338 475.213 358.252 476.074 359.134 C477.248 360.336 478.887 361.097 479.851 362.474 C480.243 363.034 479.988 363.856 479.852 364.526 C479.709 365.224 479.032 365.787 479.031 366.5 C479.029 367.545 480.193 368.543 479.842 369.528 C479.001 371.889 476.977 373.649 475.713 375.814 C474.122 378.54 472.862 381.45 471.287 384.186 C469.718 386.91 468.127 389.633 466.289 392.184 C465.402 393.413 463.915 394.166 463.149 395.474 C462.803 396.065 462.724 396.998 463.157 397.528 C463.582 398.046 464.55 398.227 465.133 397.896 C466.137 397.327 466.66 396.154 467.287 395.185 C468.192 393.787 468.757 392.181 469.711 390.816 C471.087 388.849 472.963 387.251 474.25 385.224 C475.365 383.468 476.11 381.495 476.862 379.556 C477.067 379.026 476.752 378.316 477.101 377.867 C477.696 377.098 478.514 376.299 479.479 376.177 C479.948 376.118 479.979 377.031 479.984 377.504 C480.103 388.177 480.247 398.859 479.851 409.526 C479.831 410.081 479.001 410.28 478.75 410.776 C477.595 413.059 476.533 415.397 475.664 417.804 C474.489 421.059 473.441 424.368 472.63 427.732 C469.93 438.92 467.485 450.17 465.136 461.437 C465.042 461.887 465.111 462.394 465.318 462.805 C465.707 463.58 466.197 464.346 466.871 464.892 M836.541 463.817 C836.541 463.817 836.541 463.817 836.541 463.817 C836.092 463.712 835.207 463.963 835.195 463.503 C835.184 463.047 836.079 463.067 836.524 463.171 M835.544 460.82 C835.544 460.82 835.544 460.82 835.544 460.82 C835.094 460.775 834.594 460.897 834.196 460.684 C833.105 460.1 831.503 459.692 831.201 458.493 C831.007 457.724 832.793 457.914 833.553 458.139 C834.476 458.411 835.29 459.097 835.863 459.87 M830.134 455.829 C830.134 455.829 830.134 455.829 830.134 455.829 C828.68 455.302 827.149 454.951 825.772 454.247 C825.069 453.887 823.809 453.455 823.991 452.686 C824.216 451.732 825.521 451.147 826.501 451.154 C827.856 451.163 829.045 452.106 830.248 452.729 C830.777 453.004 831.682 453.232 831.66 453.828 M822.522 455.792 C822.522 455.792 822.522 455.792 822.522 455.792 C822.081 455.361 821.205 455.116 821.201 454.5 C821.197 453.886 821.891 453.199 822.505 453.199 C822.965 453.199 822.964 454.04 822.967 454.5 M486.574 360.849 C486.574 360.849 486.574 360.849 486.574 360.849 C485.531 360.854 484.452 361.135 483.446 360.862 C482.457 360.594 481.538 360.005 480.81 359.285 C479.613 358.101 478.567 356.733 477.772 355.249 C476.989 353.79 476.339 352.203 476.132 350.561 C475.83 348.158 475.013 345.37 476.267 343.298 C477.049 342.006 477.263 346.166 477.991 347.49 C479.079 349.469 480.173 351.494 481.692 353.166 C483.779 355.463 487.044 356.667 488.708 359.286 M493.821 357.445 C493.821 357.445 493.821 357.445 493.821 357.445 C493.373 357.578 492.945 357.829 492.478 357.844 C492.287 357.85 492.154 357.636 492.018 357.502 C489.564 355.081 486.925 352.826 484.711 350.184 C483.281 348.476 482.136 346.526 481.151 344.528 C480.906 344.032 480.789 343.323 481.104 342.867 C481.656 342.07 482.547 341.469 483.472 341.178 C483.854 341.058 484.099 341.795 484.5 341.799 C484.889 341.804 485.157 341.018 485.501 341.201 C486.624 341.797 487.509 342.802 488.285 343.81 C489.424 345.291 490.491 346.871 491.194 348.603 M496.693 349.714 C496.693 349.714 496.693 349.714 496.693 349.714 C495.855 348.317 494.882 346.993 494.178 345.523 C494.106 345.373 494.372 345.05 494.507 345.147 C495.399 345.786 496.388 346.457 496.861 347.447 M493.527 344.79 C493.527 344.79 493.527 344.79 493.527 344.79 C493.407 344.353 493.175 343.932 493.168 343.48 C493.166 343.334 493.423 343.075 493.5 343.198 C493.745 343.585 493.825 344.073 493.832 344.53 M480.287 341.675 C480.287 341.675 480.287 341.675 480.287 341.675 C479.691 341.108 478.96 340.657 478.5 339.975 C478.323 339.713 478.318 339.284 478.5 339.025 C479.118 338.149 479.874 337.332 480.775 336.751 C481.91 336.018 483.156 335.013 484.5 335.153 C486.435 335.355 488.519 336.186 489.759 337.686 C490.297 338.338 489.157 339.697 488.315 339.77 C486.955 339.888 485.866 338.533 484.56 338.135 C484.017 337.97 483.294 337.747 482.857 338.109 "
     id="path6" />
</g>
<g
   id="g12">
  <path
     fill="#000000"
     d="M425.964 1172.51 C425.964 1172.51 425.964 1172.51 425.964 1172.51 C426.375 1171.8 426.958 1171.17 427.198 1170.38 C428.096 1167.43 428.863 1164.44 429.352 1161.4 C430.413 1154.81 431.342 1148.19 431.84 1141.54 C431.866 1141.19 431.153 1140.93 430.869 1141.14 C430.092 1141.7 429.456 1142.55 429.178 1143.47 C429.056 1143.87 429.872 1144.12 429.841 1144.54 C429.513 1148.84 428.802 1153.1 428.12 1157.36 C427.967 1158.31 428.135 1160.7 427.34 1160.15 C426.064 1159.27 426.165 1157.27 425.808 1155.76 C424.427 1149.9 423.472 1143.96 422.135 1138.1 C421.774 1136.52 421.048 1135.03 420.72 1133.45 C417.936 1119.99 415.292 1106.51 412.805 1092.99 C411.777 1087.41 411.309 1081.73 410.177 1076.16 C408.304 1066.96 405.771 1057.9 403.795 1048.71 C402.346 1041.98 400.896 1035.23 399.902 1028.41 C396.004 1001.66 393.14 974.767 389.122 948.035 C388.244 942.192 386.913 936.405 385.223 930.744 C385.002 930.005 384.268 929.269 383.5 929.201 C382.887 929.146 382.467 929.937 382.159 930.47 C381.976 930.786 382.078 931.203 382.134 931.563 C384.499 946.938 387.161 962.266 389.42 977.657 C392.004 995.271 393.986 1012.97 396.66 1030.57 C397.718 1037.53 399.161 1044.43 400.612 1051.32 C402.779 1061.61 405.375 1071.81 407.512 1082.11 C408.668 1087.68 409.39 1093.34 410.491 1098.93 C412.757 1110.41 415.067 1121.89 417.612 1133.32 C419.492 1141.76 421.606 1150.15 423.764 1158.52 C424.024 1159.53 424.795 1160.4 424.86 1161.44 C424.927 1162.5 423.969 1163.5 424.144 1164.55 C424.327 1165.66 425.52 1166.38 425.856 1167.44 C426.002 1167.91 425.775 1168.46 425.497 1168.86 C425.378 1169.03 425.019 1169.01 424.869 1168.86 C423.708 1167.74 422.545 1166.56 421.707 1165.18 C420.24 1162.75 419.641 1159.84 418.007 1157.52 C417.578 1156.92 416.465 1157.34 415.867 1156.9 C414.903 1156.19 414.615 1154.63 413.498 1154.2 C412.923 1153.98 412.465 1154.94 412.158 1155.47 C411.982 1155.78 412.043 1156.19 412.157 1156.53 C412.358 1157.11 412.649 1157.69 413.074 1158.13 C413.721 1158.81 414.816 1159.04 415.312 1159.84 C416.737 1162.13 417.461 1164.79 418.708 1167.18 C419.267 1168.25 419.939 1169.27 420.715 1170.19 C421.537 1171.17 422.306 1172.33 423.474 1172.85 M816.792 1160.52 C816.792 1160.52 816.792 1160.52 816.792 1160.52 C815.964 1159.61 813.347 1158.55 814.307 1157.78 C816.752 1155.8 820.385 1156.16 823.378 1155.2 C824.016 1155 824.629 1154.69 825.171 1154.3 C825.786 1153.85 826.193 1153.16 826.81 1152.72 C828.582 1151.44 830.78 1150.72 832.31 1149.16 C833.864 1147.58 834.938 1145.55 835.842 1143.53 C836.052 1143.06 835.832 1142.41 835.502 1142.02 C833.836 1140.02 831.982 1138.16 829.981 1136.5 C829.586 1136.17 828.989 1136.17 828.475 1136.17 C828.333 1136.17 828.113 1136.38 828.199 1136.49 C829.122 1137.69 830.354 1138.62 831.285 1139.81 C831.916 1140.62 832.539 1141.47 832.862 1142.45 C833.08 1143.1 833.22 1143.94 832.851 1144.53 C831.918 1146.01 830.576 1147.23 829.184 1148.29 C827.78 1149.36 826.203 1150.23 824.554 1150.86 C823.898 1151.11 823.069 1151.19 822.446 1150.86 C820.068 1149.62 817.919 1147.96 815.816 1146.29 C814.5 1145.24 813.587 1143.73 812.225 1142.75 C811.116 1141.95 809.66 1141.74 808.507 1141.01 C806.745 1139.88 805.375 1138.16 803.528 1137.18 C803.175 1136.99 802.891 1137.72 802.499 1137.8 C802.317 1137.84 802.144 1137.64 802.026 1137.5 C801.611 1136.99 801.393 1136.33 800.926 1135.87 C800.113 1135.06 799.234 1134.29 798.227 1133.75 C795.527 1132.3 792.493 1131.5 789.867 1129.92 C789.065 1129.44 788.924 1128.24 788.162 1127.69 C784.866 1125.33 781.153 1123.59 777.816 1121.29 C776.822 1120.6 776.23 1119.42 775.225 1118.75 C774.182 1118.05 772.825 1117.93 771.775 1117.25 C771.348 1116.97 771.378 1116.24 770.953 1115.96 C769.348 1114.89 767.365 1114.45 765.823 1113.29 C764.709 1112.46 764.281 1110.89 763.133 1110.1 C762.507 1109.67 761.493 1110.33 760.867 1109.9 C759.723 1109.11 759.213 1107.65 758.19 1106.71 C757.412 1106 756.319 1105.7 755.525 1105.01 C755.198 1104.72 755.275 1104.11 754.919 1103.86 C752.992 1102.5 750.743 1101.64 748.816 1100.29 C747.812 1099.58 747.183 1098.42 746.184 1097.71 C744.829 1096.74 743.201 1096.21 741.816 1095.29 C741.189 1094.87 740.804 1094.15 740.19 1093.71 C738.459 1092.48 736.489 1091.59 734.81 1090.28 C733.472 1089.24 732.474 1087.82 731.19 1086.71 C729.926 1085.63 728.603 1084.59 727.184 1083.71 C725.135 1082.44 722.849 1081.58 720.814 1080.29 C719.184 1079.25 717.881 1077.74 716.224 1076.75 C714.528 1075.73 712.518 1075.31 710.823 1074.29 C709.147 1073.28 707.854 1071.72 706.178 1070.71 C704.483 1069.69 702.493 1069.23 700.776 1068.25 C700.135 1067.88 699.807 1067.11 699.184 1066.71 C696.136 1064.78 692.779 1063.34 689.81 1061.28 C688.43 1060.33 687.6 1058.71 686.225 1057.75 C684.234 1056.36 681.736 1055.77 679.81 1054.28 C677.346 1052.39 675.578 1049.71 673.19 1047.71 C671.556 1046.35 669.471 1045.61 667.81 1044.28 C666.118 1042.93 664.907 1041.04 663.19 1039.71 C660.552 1037.69 657.502 1036.24 654.81 1034.28 C653.82 1033.57 653.156 1032.47 652.19 1031.71 C650.146 1030.12 647.827 1028.91 645.81 1027.28 C645.377 1026.93 645.34 1026.24 644.926 1025.87 C643.338 1024.43 641.445 1023.37 639.866 1021.93 C639.174 1021.29 638.93 1020.23 638.163 1019.69 C636.197 1018.31 633.758 1017.7 631.816 1016.29 C630.062 1015.01 628.883 1013.07 627.19 1011.71 C623.867 1009.06 620.094 1006.99 616.81 1004.28 C614.41 1002.31 612.576 999.708 610.19 997.715 C608.462 996.271 606.226 995.506 604.529 994.024 C603.545 993.165 603.129 991.807 602.285 990.81 C601.341 989.695 600.359 988.58 599.184 987.711 C597.845 986.722 596.148 986.287 594.816 985.289 C592.132 983.275 589.829 980.788 587.19 978.715 C585.154 977.115 582.832 975.902 580.81 974.285 C579.487 973.226 578.528 971.755 577.19 970.715 C575.511 969.409 573.511 968.561 571.81 967.285 C570.831 966.551 570.145 965.479 569.19 964.715 C568.467 964.137 567.521 963.877 566.81 963.285 C565.508 962.2 564.528 960.755 563.19 959.715 C561.511 958.409 559.525 957.543 557.81 956.285 C554.519 953.872 551.498 951.104 548.19 948.715 C545.492 946.766 542.552 945.171 539.81 943.285 C538.774 942.572 537.76 941.811 536.866 940.926 C535.875 939.944 535.274 938.583 534.184 937.711 C532.883 936.671 531.148 936.287 529.816 935.289 C528.457 934.269 527.543 932.731 526.184 931.711 C524.852 930.712 523.13 930.311 521.816 929.289 C520.105 927.957 518.883 926.069 517.19 924.715 C513.867 922.057 510.041 920.054 506.81 917.285 C505.334 916.02 504.566 914.087 503.19 912.715 C502.445 911.973 501.314 911.721 500.528 911.023 C498.3 909.043 496.419 906.694 494.19 904.715 C493.498 904.101 492.502 903.9 491.81 903.285 C489.486 901.219 487.578 898.705 485.19 896.715 C483.556 895.353 481.489 894.591 479.81 893.285 C478.472 892.244 477.492 890.8 476.19 889.715 C475.479 889.122 474.513 888.887 473.81 888.285 C472.163 886.874 470.935 884.99 469.184 883.711 C465.82 881.253 462.256 879.049 458.554 877.138 C457.938 876.82 457.14 876.955 456.474 877.149 C456.055 877.271 455.706 877.641 455.5 878.026 C455.351 878.304 455.348 878.696 455.499 878.973 C456.148 880.165 456.774 881.461 457.834 882.308 C460.066 884.09 462.859 885.052 465.184 886.711 C467.533 888.388 469.531 890.513 471.81 892.285 C472.541 892.853 473.479 893.122 474.19 893.715 C475.492 894.8 476.508 896.2 477.81 897.285 C478.521 897.877 479.487 898.113 480.19 898.715 C481.835 900.125 483.165 901.875 484.81 903.285 C485.513 903.887 486.502 904.096 487.19 904.715 C489.851 907.11 492.149 909.89 494.81 912.285 C495.498 912.904 496.505 913.092 497.19 913.715 C500.188 916.44 502.748 919.631 505.81 922.285 C507.766 923.981 510.201 925.057 512.19 926.715 C514.216 928.403 515.74 930.651 517.81 932.285 C522.093 935.666 526.856 938.4 531.19 941.715 C532.536 942.744 533.467 944.252 534.81 945.285 C537.815 947.596 541.127 949.481 544.19 951.715 C550.923 956.626 557.632 961.574 564.19 966.715 C568.509 970.1 572.478 973.916 576.81 977.285 C578.489 978.591 580.489 979.439 582.19 980.715 C583.169 981.449 583.84 982.539 584.81 983.285 C588.182 985.879 591.921 987.991 595.19 990.715 C597.941 993.007 600.091 995.955 602.81 998.285 C604.776 999.97 607.186 1001.08 609.19 1002.72 C610.867 1004.09 612.146 1005.9 613.81 1007.28 C616.156 1009.24 618.805 1010.81 621.19 1012.71 C622.145 1013.48 622.855 1014.52 623.81 1015.28 C624.533 1015.86 625.479 1016.12 626.19 1016.71 C627.494 1017.8 628.426 1019.32 629.816 1020.29 C631.79 1021.67 634.216 1022.32 636.184 1023.71 C637.651 1024.75 638.668 1026.31 640.015 1027.5 C640.33 1027.78 640.837 1027.78 641.133 1028.07 C642.108 1029.05 642.686 1030.41 643.775 1031.25 C644.849 1032.08 646.381 1032.16 647.467 1032.97 C649.098 1034.2 650.19 1036.04 651.81 1037.28 C654.453 1039.31 657.527 1040.72 660.19 1042.72 C661.546 1043.73 662.477 1045.24 663.81 1046.28 C667.156 1048.91 670.867 1051.06 674.19 1053.71 C675.881 1055.07 677.118 1056.93 678.81 1058.28 C680.471 1059.61 682.47 1060.46 684.19 1061.71 C686.145 1063.14 687.791 1064.97 689.816 1066.29 C699.332 1072.49 709.035 1078.4 718.772 1084.25 C719.849 1084.89 721.163 1085.09 722.228 1085.75 C723.864 1086.78 725.209 1088.22 726.816 1089.29 C728.202 1090.21 729.824 1090.75 731.184 1091.71 C735.499 1094.76 739.502 1098.23 743.81 1101.28 C749.84 1105.56 756.204 1109.36 762.184 1113.71 C763.556 1114.71 764.441 1116.28 765.81 1117.28 C769.463 1119.96 773.457 1122.15 777.19 1124.71 C778.795 1125.82 780.194 1127.21 781.815 1128.29 C783.2 1129.21 784.828 1129.74 786.183 1130.71 C787.183 1131.42 787.768 1132.65 788.816 1133.29 C793.801 1136.34 799.119 1138.8 804.185 1141.71 C806.911 1143.28 809.623 1144.89 812.184 1146.71 C813.183 1147.42 813.841 1148.54 814.815 1149.29 C816.027 1150.22 817.543 1150.72 818.703 1151.71 C818.877 1151.86 818.461 1152.14 818.248 1152.22 C814.896 1153.54 810.299 1153.04 808.08 1155.88 C806.883 1157.41 811.564 1157.62 813.177 1158.71 C814.045 1159.29 814.538 1160.37 815.472 1160.84 M402.455 756.823 C402.455 756.823 402.455 756.823 402.455 756.823 C403.046 756.63 403.969 756.809 404.229 756.244 C405.621 753.218 406.329 749.915 407.121 746.68 C413.793 719.399 419.988 692.003 426.617 664.711 C427.37 661.608 428.517 658.609 429.266 655.505 C430.851 648.938 432.014 642.275 433.616 635.713 C436.468 624.026 439.422 612.362 442.628 600.767 C444.766 593.03 447.17 585.368 449.646 577.732 C451.8 571.087 454.372 564.581 456.515 557.932 C457.409 555.156 457.864 552.25 458.753 549.472 C461.111 542.103 463.932 534.886 466.251 527.504 C467.274 524.248 467.801 520.853 468.771 517.581 C469.512 515.081 470.693 512.722 471.379 510.206 C472.429 506.349 473.335 502.444 473.97 498.497 C474.052 497.987 473.812 497.432 473.502 497.018 C472.962 496.297 472.399 495.263 471.5 495.201 C470.724 495.147 470 496.019 469.765 496.761 C468.301 501.367 467.736 506.216 466.514 510.892 C464.888 517.12 463.157 523.324 461.223 529.463 C456.579 544.211 451.435 558.798 446.783 573.543 C442.569 586.901 438.149 600.21 434.627 613.767 C428.089 638.938 422.511 664.349 416.614 689.678 C415.098 696.19 413.939 702.781 412.391 709.285 C410.606 716.782 408.398 724.175 406.616 731.673 C405.268 737.349 404.357 743.123 403.004 748.798 C402.86 749.401 402.229 749.833 402.138 750.447 C401.893 752.112 401.932 753.814 402.016 755.496 M487.954 498.518 C487.954 498.518 487.954 498.518 487.954 498.518 C488.253 498.189 488.65 497.927 488.852 497.531 C489.01 497.221 488.985 496.844 488.985 496.496 C488.988 493.479 489.297 490.431 488.862 487.446 C488.715 486.433 487.913 485.619 487.285 484.81 C486.79 484.173 486.319 483.299 485.526 483.149 C483.205 482.708 480.78 482.814 478.439 483.132 C476.732 483.365 475.133 484.126 473.54 484.781 C470.573 486.001 467.555 487.152 464.775 488.75 C463.061 489.736 461.436 490.966 460.159 492.475 C459.859 492.83 460.142 493.506 460.471 493.835 C460.72 494.083 461.242 494.047 461.528 493.842 C462.756 492.958 463.539 491.524 464.816 490.712 C467.334 489.109 470.052 487.823 472.802 486.664 C475.274 485.623 477.817 484.693 480.439 484.132 C481.772 483.847 483.319 483.528 484.528 484.157 C485.233 484.524 485.043 485.704 484.984 486.496 C484.93 487.211 484.245 487.784 484.201 488.5 C484.177 488.888 484.823 489.112 484.799 489.5 C484.755 490.216 484.081 490.789 484.015 491.504 C483.861 493.17 483.434 495.01 484.149 496.524 C484.725 497.743 486.282 498.199 487.476 498.825 "
     id="path10" />
</g>
<g
   id="g16">
  <path
     fill="none"
     stroke="#000000"
     stroke-width="4"
     stroke-linecap="butt"
     stroke-linejoin="round"
     d="M461.208 819.351 L461.01 819.533 L461.215 819.04 L461.138 819.453 L460.922 819.105 L461.067 818.649 L461.125 819.223 L461.503 819.704 L461.47 819.363 L461.966 819.829 L462.013 819.585 L461.993 819.967 L462.093 819.554 L463.934 820.533 L465.443 820.317 L465.656 820.995 L466.19 820.989 L466.641 820.37 L468.452 820.144 L469.246 820.988 L472.173 820.725 L472.827 820.26 L476.613 821.177 L479.793 820.832 L481.085 821.177 L483.881 820.931 L488.625 821.255 L491.306 820.78 L496.082 821.289 L500.059 820.891 L504.049 821.061 L508.602 820.034 L509.524 819.53 L511.719 819.93 L517.666 819.48 L523.181 818.239 L525.924 818.462 L528.48 817.411 L532.73 816.527 L534.703 816.718 L539.139 816.038 L540.27 815.319 L541.391 815.164 L542.445 815.517 L545.846 815.291 L548.146 815.474 L549.097 815.046 L552.492 814.663 L555.858 814.778 L559.061 814.246 L562.413 814.452 L564.559 813.774 L578.402 812.85 L579.383 812.861 L580.34 813.417 L581.358 813.397 L582.335 812.76 L586.676 811.912 L591.526 812.031 L597.436 811.289 L598.379 811.297 L599.339 811.754 L601.217 811.101 L605.322 810.639 L606.382 811.098 L607.406 811.09 L608.469 810.587 L611.608 810.322 L613.562 809.551 L614.492 809.999 L615.557 810.017 L623.033 809.457 L626.146 809.72 L632.764 808.871 L644.589 808.616 L654.025 807.911 L655.153 808.568 L656.436 808.66 L657.617 807.83 L662.238 807.091 L669.395 807.242 L682.844 806.538 L684.027 806.237 L686.203 806.95 L687.344 806.347 L688.551 806.161 L692.781 805.841 L696.35 806.047 L700.171 805.503 L701.677 805.71 L706.212 805.367 L708.409 805.518 L710.752 804.824 L715.335 804.733 L722.226 803.566 L725.421 803.715 L727.692 803.531 L728.887 803.096 L731.608 803.464 L733.978 803.397 L735.183 804.148 L736.351 804.005 L737.3 803.018 L738.182 802.87 L741.115 802.558 L742.407 803.114 L743.723 803.222 L744.828 802.528 L749.115 801.979 L757.112 801.949 L763.074 800.761 L765.168 801.556 L766.208 800.879 L769.435 800.471 L775.915 800.286 L777.98 799.528 L779.027 799.852 L784.577 800.138 L786.652 799.679 L789.547 799.652 L791.642 800.259 L792.612 799.855 L797.436 799.43 L801.389 799.978 L803.56 799.387 L808.509 799.966 L809.588 800.491 L810.724 800.524 L811.81 799.962 L816.562 799.583 L818.651 800.427 L819.676 799.947 L823.095 799.852 L825.19 799.392 L826.335 799.725 L834.517 799.825 L838.106 799.5 L840.385 800.172 L841.523 799.653 L844.99 799.336 L851.991 799.457 L852.959 799.139 L854.85 799.548 L859.383 799.68 L863.7 799.394 L865.945 799.634 L867.029 800.627 L868.193 800.625 L869.418 799.662 L870.673 799.481 L874.345 799.066 L879.613 799.602 L880.768 799.503 L881.862 798.938 L882.859 798.973 L883.772 799.51 L886.782 799.499 L887.824 800.114 L888.875 800.162 L889.94 799.509 L893.1 799.448 L894.165 799.141 L896.211 800.192 L897.283 799.507 L899.403 799.156 L912.003 798.998 L912.786 799.52 L913.701 799.566 L914.695 798.93 L916.594 798.684 L922.655 798.741 L923.494 798.094 L924.393 798.247 L925.251 798.915 L935.484 798.12 L936.363 798.96 L937.327 799.077 L938.276 798.163 L941.721 797.671 L943.532 798.083 L949.052 797.467 L954.684 797.791 L959.098 797.126 L960.797 797.568 L962.658 797.168 L969.914 796.895 L972.031 796 L973.061 796.439 L976.092 796.657 L976.868 797.162 L977.823 797.107 L978.654 796.428 L981.318 796.28 L982.997 796.585 L983.88 796.184 L986.832 795.955 L987.656 795.517 L989.241 796.096 L996.147 795.773 L998.24 796.474 L998.922 795.941 L1001.84 795.794 L1002.5 796.151 L1005.87 795.735 L1006.46 795.411 L1007.57 795.743 L1009.38 795.724 L1010.41 796.294 L1011.41 795.68 L1013.51 795.961 L1018.78 794.794 L1019.88 795.393 L1020.24 794.928 L1020.48 795.099 L1020.51 794.717 L1020.45 795.431 L1020.04 795.046 L1020.07 794.772 L1020.27 794.93 L1020 794.367 L1019.79 794.686 "
     id="path14" />
</g>
<g
   id="g20">
  <path
     fill="none"
     stroke="#000000"
     stroke-width="4"
     stroke-linecap="butt"
     stroke-linejoin="round"
     d="M1014.77 778.25 L1013.98 777.942 L1013.93 777.499 L1013.52 777.631 L1013.96 777.557 L1014.19 777.864 L1014.08 778.162 L1014 777.963 L1014.67 779.663 L1014.81 779.472 L1015.41 780.314 L1015.94 781.624 L1016.78 782.098 L1020.82 789.713 L1022.42 795.608 L1022.31 797.109 L1020.97 800.191 L1019.61 800.883 L1017.91 802.49 L1017.39 802.372 L1016.17 803.894 L1016.12 803.548 L1015.84 803.546 L1015.8 803.994 L1015.93 803.768 L1016.49 804.469 L1016.88 804.511 "
     id="path18" />
</g>
<g
   id="g24">
  <path
     fill="none"
     stroke="#000000"
     stroke-width="4"
     stroke-linecap="butt"
     stroke-linejoin="round"
     d="M457.372 777.492 L457.173 778.097 L456.936 777.504 L457.177 777.551 L456.854 777.73 L457.022 777.419 L457.222 777.578 L456.914 777.605 L457.401 777.691 L457.328 778.101 L457.355 777.207 L457.477 777.764 L457.567 777.36 L459.162 776.525 L459.696 776.603 L460.817 774.556 L461.258 775.062 L463.054 773.636 L465.185 772.755 L465.717 772.193 L469.558 770.079 L471.98 767.888 L475.599 765.986 L476.578 765.059 L482.085 761.496 L485.2 758.787 L491.458 754.697 L497.948 751.178 L505.285 746.327 L506.557 746.052 L508.671 744.515 L511.22 743.251 L513.652 741.384 L518.087 739.014 L520.747 738.152 L521.843 736.984 L525.409 734.437 L526.895 733.719 L528.424 733.571 L529.522 733.039 L530.567 731.987 L533.929 729.721 L535.932 727.53 L537.965 726.682 L540.018 725.203 L541.001 724.072 L542.127 723.397 L543.324 723.363 L544.3 722.755 L552.207 717.052 L553.111 717.054 L554.088 716.619 L555.764 714.802 L558.127 712.93 L559.074 712.365 L559.918 712.409 L560.666 711.999 L563.102 710.215 L564.444 708.745 L565.331 708.529 L569.441 706.145 L572.616 703.057 L573.206 701.958 L574.675 701.501 L575.429 700.498 L577.277 699.024 L580.169 697.575 L580.957 696.653 L590 690.674 L594.608 687.227 L595.405 687.344 L596.114 686.893 L596.887 685.661 L600.323 682.423 L601.953 682.311 L609.627 676.47 L614.871 673.335 L616.877 672.686 L621.166 668.938 L626.512 665.577 L627.411 664.441 L628.389 663.812 L629.285 663.858 L630.016 663.46 L637.692 658.246 L639.573 657.698 L644.017 654.426 L645.686 653.799 L646.328 652.989 L650.465 650.113 L652.641 649.017 L659.338 644.568 L663.594 641.015 L667.036 639.191 L672.427 635.15 L675.973 633.167 L676.642 633.122 L680.802 629.106 L683.052 628.016 L693.485 620.421 L694.956 619.926 L695.594 619.164 L697.903 617.724 L699.506 617.303 L701.586 615.476 L702.738 613.697 L703.267 614.012 L704.547 613.458 L713.505 607.029 L714.676 606.802 L718.506 603.714 L724.732 599.966 L729.789 596.43 L732.617 595.2 L733.163 594.412 L734.186 594.117 L738.598 591.36 L739.822 590.849 L740.324 591.142 L740.937 590.758 L741.467 589.743 L743.414 588.329 L744.345 586.824 L745.983 586.1 L747.95 584.46 L749.26 583.957 L751.735 582.289 L755.666 579.155 L756.686 578.946 L760.686 575.865 L761.469 574.728 L761.99 574.367 L762.438 574.661 L762.763 574.516 L764.483 573.315 L766.498 571.383 L768.755 569.857 L769.633 568.807 L770.771 568.531 L772.334 567.082 L772.917 567.353 L773.013 566.203 L772.943 566.632 L772.673 566.863 L772.418 566.517 L771.748 567.367 "
     id="path22" />
</g>
<g
   id="g28">
  <path
     fill="none"
     stroke="#000000"
     stroke-width="4"
     stroke-linecap="butt"
     stroke-linejoin="round"
     d="M762.845 555.625 L761.85 554.325 L761.685 555.219 L761.348 554.888 L761.11 555.156 L761.116 554.909 L760.748 554.946 L761.16 554.904 L761.193 555.546 L761.204 555.195 L764.211 557.432 L765.983 558.094 L769.883 559.063 L775.29 559.729 L776.747 559.553 L778.728 560.406 L781.937 561.211 L782.855 562.531 L783.84 563.096 L783.836 565.73 L783.486 566.949 L782.152 569.877 L781.752 570.119 L780.982 571.756 L780.59 571.882 L777.578 578.613 L776.763 580.874 L776.62 583.266 "
     id="path26" />
</g>
</svg>
