<?xml version="1.0" encoding="UTF-8" standalone="no"?>
<svg
   xmlns:dc="http://purl.org/dc/elements/1.1/"
   xmlns:cc="http://creativecommons.org/ns#"
   xmlns:rdf="http://www.w3.org/1999/02/22-rdf-syntax-ns#"
   xmlns:svg="http://www.w3.org/2000/svg"
   xmlns="http://www.w3.org/2000/svg"
   xmlns:sodipodi="http://sodipodi.sourceforge.net/DTD/sodipodi-0.dtd"
   xmlns:inkscape="http://www.inkscape.org/namespaces/inkscape"
   width="1404"
   height="1872"
   viewBox="0 0 1404 1872"
   version="1.2"
   id="svg230"
   sodipodi:docname="file-parts.svg"
   inkscape:version="0.92.5 (2060ec1f9f, 2020-04-08)"><metadata
   id="metadata236">
  <rdf:RDF>
    <cc:Work
       rdf:about="">
      <dc:format>image/svg+xml</dc:format>
      <dc:type
         rdf:resource="http://purl.org/dc/dcmitype/StillImage" />
    </cc:Work>
  </rdf:RDF>
</metadata>
<defs
   id="defs234" />
<sodipodi:namedview
   pagecolor="#ffffff"
   bordercolor="#666666"
   borderopacity="1"
   objecttolerance="10"
   gridtolerance="10"
   guidetolerance="10"
   inkscape:pageopacity="0"
   inkscape:pageshadow="2"
   inkscape:window-width="640"
   inkscape:window-height="480"
   id="namedview232"
   showgrid="false"
   inkscape:zoom="0.12606838"
   inkscape:cx="702"
   inkscape:cy="936"
   inkscape:window-x="0"
   inkscape:window-y="27"
   inkscape:window-maximized="0"
   inkscape:current-layer="svg230" />
<title
   id="title2">applied-hash notes</title>
\n<g
   id="g8">
  <path
     fill="none"
     stroke="#000000"
     stroke-width="4"
     stroke-linecap="butt"
     stroke-linejoin="round"
     d="M331.944 462.933 L331.033 461.814 L331.316 462.137 L331.433 461.422 L331.104 461.601 L331.535 461.511 L331.558 461.836 L331.466 461.545 L331.218 462.098 L331.561 465.061 L331.409 475.362 L330.94 485.884 L329.468 500.479 L329.755 500.997 L329.605 502.292 L329.841 502.615 L329.938 501.949 L329.794 502.827 L330.127 502.849 L330.047 503.525 L329.911 502.973 L330.333 502.757 L330.391 503.164 L330.677 503.049 L331.564 503.879 L331.546 504.331 L331.673 504.093 L332.111 504.221 L333.226 505.032 L333.362 504.603 L334.045 505.574 L334.916 506.127 L335.499 505.957 L338.023 506.973 L338.3 506.545 L339.31 507.578 L340.316 508.065 L341.046 508.036 L342.46 508.906 L342.681 509.687 L343.211 509.978 L343.782 509.41 L345.204 509.672 L345.62 509.435 L346.35 510.122 L347.922 510.605 L356.538 511.552 L357.487 512.43 L358.088 512.018 L363.911 512.465 L365.026 512.092 L367.274 512.765 L370.289 512.798 L375.101 513.58 L377.937 513.573 L379.456 513.085 L382.19 513.939 L388.9 514.012 L389.59 514.674 L390.276 514.734 L391.092 514.105 L394.618 513.689 L396.401 514.085 L409.542 513.72 L411.697 513.394 L413.396 514.087 L415.188 513.541 L416.884 513.498 L418.675 512.82 L419.45 513.374 L421.221 513.528 L422.042 513.551 L422.932 512.909 L423.866 512.924 L424.751 513.563 L425.768 513.643 L434.307 513.544 L435.238 514.173 L436.268 514.244 L437.356 513.609 L440.948 513.15 L444.099 513.573 L453.54 513.356 L454.608 513.571 L460.983 512.927 L463.049 513.41 L465.428 512.764 L470.275 512.344 L475.429 512.395 L481.527 511.675 L483.675 512.252 L484.726 511.861 L489.698 511.517 L493.919 511.699 L494.914 510.835 L495.923 510.751 L496.824 511.599 L497.724 511.739 L500.552 511.678 L502.594 511.26 L507.385 512.202 L508.624 511.648 L512.409 511.19 L517.578 511.554 L519.53 510.95 L520.502 511.461 L524.902 511.539 L530.27 510.994 L532.108 511.462 L533.131 511.167 L541.806 511.151 L543.574 510.795 L550.248 512.154 L551.242 511.677 L553.269 511.511 L560.062 511.822 L560.943 510.958 L561.934 510.86 L562.752 511.807 L563.658 512.059 L572.211 511.833 L573.139 512.364 L574.174 512.429 L575.177 511.898 L579.268 511.356 L581.412 511.625 L584.936 511.509 L587.743 511.059 L588.576 511.392 L592.603 511.459 L597.417 511.184 L598.409 510.866 L600.276 511.433 L601.33 511.178 L610.518 511.036 L611.302 510.714 L619.237 510.885 L622.08 510.423 L629.022 510.337 L629.951 509.606 L631.067 509.529 L631.962 510.194 L632.939 510.294 L638.198 509.848 L642.698 510.092 L643.487 510.837 L644.327 510.909 L645.216 510.169 L649.271 509.643 L654.998 510.034 L657.001 509.551 L658.828 509.888 L666.615 510.125 L667.527 509.792 L669.011 510.314 L670.834 509.979 L677.169 510.411 L678.07 510.408 L678.887 509.843 L679.784 509.773 L680.671 510.296 L684.184 510.839 L685.659 510.592 L689.192 510.803 L690.06 511.108 L694.807 510.734 L695.911 510.21 L697.056 510.171 L697.963 510.635 L702.304 510.093 L706.859 510.155 L707.741 510.699 L708.578 510.759 L709.336 510.127 L711.033 509.863 L714.427 510.193 L719.102 509.639 L722.224 509.936 L727.572 509.816 L729.396 509.374 L731.194 509.931 L732.072 509.432 L739.299 509.125 L740.079 508.386 L740.901 508.321 L741.742 508.974 L744.717 509.088 L748.868 508.575 L751.27 508.756 L753.068 508.298 L754.86 508.299 L755.616 507.905 L757.165 508.353 L759.407 508.462 L761.534 507.931 L762.323 508.233 L764.597 508.318 L765.272 508.847 L768.388 508.108 L769.916 508.1 L771.506 508.508 L772.231 508.1 L776.151 507.879 L780.191 508.039 L781.905 507.388 L783.964 507.183 L786.483 507.638 L788.085 507.08 L794.042 506.7 L794.859 505.98 L795.645 505.927 L796.407 506.477 L798.459 506.577 L803.714 506.161 L805.287 506.655 L805.97 506.252 L809.071 505.984 L810.807 506.322 L815.62 505.891 L820.152 506.419 L821.602 505.83 L823.083 505.677 L825.278 506.088 L826.126 505.794 L831.464 505.707 L833.857 505.269 L836.906 505.548 L838.739 505.223 L840.106 505.667 L847.547 505.309 L848.307 505.112 L848.991 504.351 L849.801 504.498 L850.569 505.185 L854.052 505.257 L858.826 504.84 L860.563 505.338 L865.121 504.175 L867.128 504.768 L870.154 504.776 L872.834 504.277 L876.268 504.449 L877.283 504.783 L880.727 504.188 L888.252 504.395 L889.168 503.847 L890.059 503.792 L890.813 504.225 L892.875 504.428 L893.816 504.448 L895.802 503.841 L899.359 504.76 L905.154 504.533 L907.806 505.07 L911.695 505.117 L912.561 504.576 L913.526 504.82 L914.407 505.498 L922.026 505.722 L923.987 505.945 L925.165 506.563 L926.366 506.723 L927.275 506.161 L930.005 506.086 L932.536 506.567 L937.777 506.511 L949.336 507.194 L951.057 506.938 L952.945 507.255 L954.524 506.8 L957.878 507.164 L959.518 506.685 L961.08 507.277 L962.966 506.963 L969.169 507.454 L971.81 507.288 L972.438 506.741 L973.065 506.796 L973.634 507.448 L978.751 507.611 L980.077 508.27 L980.542 507.937 L982.01 508.029 L982.342 507.801 "
     id="path6" />
</g>
<g
   id="g12">
  <path
     fill="none"
     stroke="#000000"
     stroke-width="4"
     stroke-linecap="butt"
     stroke-linejoin="round"
     d="M331.74 463.112 L331.954 462.845 L331.36 463.088 L331.452 461.455 L331.62 462.015 L331.382 462.403 L331.426 462 L331.842 462.12 L331.692 461.851 L331.545 462.125 L332.962 462.112 L333.285 462.446 L334.254 462.308 L335.003 462.744 L335.097 462.403 L336.327 462.287 L337.484 462.745 L340.493 462.426 L342.621 462.686 L345.422 462.473 L346.973 461.894 L348.93 462.324 L352.415 461.98 L357 462.48 L357.668 462.049 L361.211 461.654 L362.793 462.268 L363.529 461.8 L370.194 461.371 L371.809 460.95 L373.576 461.281 L377.112 460.821 L378.943 461.139 L384.193 460.438 L385.998 460.8 L388.709 460.391 L390.3 460.71 L398.571 460.703 L401.2 461.282 L402.084 460.845 L404.895 460.709 L405.685 460.404 L410.012 461.06 L413.827 460.897 L418.52 461.612 L425.736 461.044 L426.55 461.394 L433.425 461.525 L436.629 461.396 L437.726 460.854 L438.82 460.807 L439.586 461.269 L441.58 461.497 L456.751 461.305 L459.098 460.745 L460.185 461.073 L465.211 460.963 L472.913 460.222 L473.973 460.782 L475.197 460.78 L476.448 460.154 L480.151 459.74 L483.85 459.979 L487.619 459.357 L491.141 459.395 L493.628 459.023 L495.986 459.038 L498.114 459.44 L499.339 459.031 L504.149 458.624 L512.286 458.736 L518.117 458.198 L520.585 457.658 L522.948 457.949 L529.335 457.859 L535.131 457.184 L537.484 457.522 L541.012 457.412 L543.47 456.827 L544.702 457.246 L549.91 457.344 L554.949 456.762 L560.151 456.962 L566.171 455.856 L568.749 456.249 L573.66 455.941 L576.167 455.29 L581.755 455.057 L584.474 455.243 L587.882 454.599 L599.839 453.659 L604.575 453.098 L606.904 452.109 L609.2 452.654 L611.19 452.705 L616.865 452.015 L620.732 452.345 L621.834 451.934 L625.141 451.784 L625.988 451.371 L627.974 451.714 L630.884 451.717 L633.856 451.235 L640.371 451.533 L644.819 451.203 L646.736 451.583 L647.709 451.166 L650.388 451.087 L651.262 450.778 L655.952 451.205 L662.148 450.848 L663.929 451.196 L667.972 450.732 L672.207 451.011 L673.939 450.554 L675.284 451.018 L682.871 450.74 L684.405 451.23 L688.52 450.637 L690.238 450.855 L691.13 450.565 L694.929 450.712 L697.048 450.381 L701.312 450.556 L705.808 450.107 L714.255 450.473 L718.106 450.213 L724.29 450.908 L725.128 450.558 L728.65 450.35 L732.828 450.648 L734.357 450.172 L736.337 450.627 L744.572 450.397 L745.287 450.848 L747.228 450.233 L751.263 449.977 L763.861 449.792 L765.548 449.397 L771.26 449.444 L782.547 448.667 L788.534 449.153 L790.175 448.71 L798.269 448.536 L800.149 447.989 L805.664 448.322 L809.105 447.856 L812.61 448.007 L821.26 447.424 L823.268 447.657 L829.126 447.163 L837.351 447.349 L852.608 446.786 L854.821 447.047 L857.132 446.973 L859.599 446.382 L861.983 446.974 L865.659 446.563 L868.38 446.886 L873.099 446.659 L875.213 447.107 L879.862 446.616 L882.177 446.064 L883.463 446.507 L885.836 446.643 L888.369 446.662 L889.552 446.104 L890.794 446.036 L896.606 446.681 L903.669 445.959 L905.634 446.659 L906.662 446.279 L911.44 445.886 L915.712 446.061 L923.949 445.451 L926.39 445.799 L931.213 445.61 L933.055 445.259 L934.935 445.504 L937.577 445.087 L939.325 445.66 L946.946 445.721 L950.522 446.144 L952.472 445.767 L955.75 445.654 L959.326 446.029 L961.808 445.747 L963.542 446.322 L970.611 446.423 L971.337 446.077 L972.822 446.706 L975.457 446.758 L978.239 446.358 L980.993 446.819 L986.589 446.767 L988.082 447.307 L992.717 447.237 L995.404 447.651 L997.71 447.252 L999.026 448.047 L1004.59 448.544 L1005.57 449.253 L1006.33 449.289 L1006.99 448.817 L1008.96 448.989 L1010.2 448.306 L1010.69 448.838 L1011.89 449.307 L1015.41 449.623 L1016.71 449.338 L1017.05 449.984 L1017.59 450.028 L1018.17 449.617 L1021.36 449.941 L1023.68 449.804 L1028.23 450.201 L1029.13 450.729 L1031.02 450.188 L1032.02 450.788 L1032.79 450.436 L1033.18 450.814 L1035.25 450.989 L1035.66 451.294 L1036.74 451.026 L1036.92 450.691 L1037.88 451.394 L1040.38 451.612 L1040.44 451.302 L1041.5 451.727 L1041.88 451.359 L1043.1 451.937 L1044.02 451.79 L1044.61 452.098 L1045.63 451.82 L1046.16 452.288 L1046.53 452.004 L1047.28 452.051 L1047.86 451.591 L1048.31 452.079 L1049.86 451.92 L1051.38 452.714 L1053.57 451.91 L1054.65 452.421 L1055.96 452.14 L1056.31 452.336 L1056.98 451.997 L1057.8 452.444 L1060.38 452.391 L1060.98 452.851 L1061.26 452.258 L1061.98 452.696 L1064.4 452.449 L1065.34 453.004 L1066.02 453.132 L1066.37 452.795 L1067.17 453.271 L1069.24 453.531 L1072.44 453.667 L1074.41 453.331 L1076.33 453.798 L1077.59 453.07 L1078.1 453.477 L1080.27 453.837 L1082.77 453.061 L1084 453.617 L1084.82 453.632 L1085.69 453.222 L1087.63 453.611 L1089.92 453.355 L1090.6 453.702 L1092.16 453.453 L1092.75 452.985 L1093.79 453.396 L1094.42 452.566 L1095.26 453.37 L1096.83 453.432 L1097.84 453.021 L1098.44 453.495 L1099.16 452.277 L1099.53 453.323 L1099.72 452.749 L1099.98 452.812 L1100.13 453.774 L1100.06 452.725 L1099.87 453.642 L1100.33 454.223 L1100.83 456.684 L1101.8 472.456 L1103.02 479.951 L1103.03 484.061 L1103.52 484.631 L1103.57 491.92 L1103.78 494.092 L1103.97 494.007 L1103.61 497.304 L1103.96 498.303 L1103.76 499.353 L1104.22 503.832 L1104.03 507.026 L1103.96 506.515 L1103.6 506.493 L1103.13 503.852 "
     id="path10" />
</g>
<g
   id="g16">
  <path
     fill="none"
     stroke="#000000"
     stroke-width="4"
     stroke-linecap="butt"
     stroke-linejoin="round"
     d="M974.381 505.311 L974.522 504.836 L974.805 505.226 L974.944 504.759 L975.279 505.014 L976.378 504.699 L976.814 505.036 L977.305 504.786 L977.481 505.117 L978.363 504.989 L978.53 504.485 L979.687 505.374 L980.318 505.19 L982.057 505.567 L984.358 505.414 L985.071 505.633 L987.465 505.298 L991.182 505.765 L992.925 505.259 L995.78 505.551 L1002.03 505.219 L1003.68 504.793 L1004.43 505.007 L1007.66 504.66 L1009.33 504.787 L1014.31 503.798 L1016.7 503.748 L1018.18 502.897 L1018.76 503.448 L1019.36 503.462 L1022.71 502.835 L1026.95 502.742 L1027.55 502.324 L1029.35 502.228 L1029.86 501.819 L1030.96 502.148 L1033.74 501.62 L1036.46 501.559 L1037.34 501.811 L1037.88 501.395 L1040.51 501.072 L1043.16 500.146 L1044.69 500.263 L1045.39 499.655 L1046.67 500.121 L1047.69 499.761 L1049.71 499.926 L1051.55 499.143 L1051.83 499.603 L1055.68 499.643 L1056.6 499.303 L1057.98 499.464 L1068.36 498.91 L1070.37 498.297 L1071.97 498.703 L1073.29 498.442 L1075.8 498.585 L1077.19 498.462 L1077.54 497.855 L1078.08 498.331 L1079.57 498.448 L1080.22 498.104 L1082.46 498.405 L1084.2 498.156 L1091.07 498.493 L1091.74 498.477 L1092.26 497.751 L1092.69 498.605 L1093.92 498.489 L1095.3 498.877 L1096.73 498.512 L1097.46 499.07 L1098.28 498.632 L1100.41 499.16 L1101.71 498.88 L1104 499.298 L1104.88 499.115 L1105.25 499.383 L1106.23 499.089 L1106.39 498.134 L1106.34 499.037 "
     id="path14" />
</g>
<g
   id="g20">
  <path
     fill="none"
     stroke="#000000"
     stroke-width="4"
     stroke-linecap="butt"
     stroke-linejoin="round"
     d="M434.25 463.484 L434.481 463.561 L434.577 463.176 L434.353 463.366 L434.718 463.582 L434.663 462.872 L434.879 463.604 L434.827 463.044 L434.61 463.404 L434.785 463.065 L434.824 464.12 L434.553 463.888 L435.316 464.828 L435.352 465.611 L435.639 465.45 L435.581 465.922 L435.348 465.075 L435.585 461.718 L435.781 461.486 L435.807 461.789 L435.625 461.965 L435.643 460.976 L436.007 460.077 L435.792 460.35 L435.663 460.041 L436.052 459.119 L436.012 459.724 L436.206 459.55 L435.767 459.319 L435.812 459.548 L436.036 459.006 L435.841 459.646 L436.081 459.758 L435.828 459.92 L436.174 459.67 L435.787 459.951 L436.423 463.059 L437.077 472.651 L437.081 493.672 L437.473 506.637 L437.721 506.374 L437.769 506.59 L437.983 508.907 L438.002 513.916 L438.345 515.644 L438.152 516.867 L438.334 517.201 L438.477 516.407 L438.256 516.618 L438.498 516.881 L438.265 516.073 L438.498 514.071 "
     id="path18" />
</g>
<g
   id="g24">
  <path
     fill="none"
     stroke="#000000"
     stroke-width="4"
     stroke-linecap="butt"
     stroke-linejoin="round"
     d="M549.383 456.803 L549.236 456.129 L549.312 456.586 L549.339 456.309 L549.644 456.463 L549.462 456.249 L549.819 456.456 L549.68 456.846 L549.421 456.682 L549.559 456.886 L549.6 456.554 L549.806 458.029 L550.082 458.197 L550.161 460.988 L550.804 462.419 L551.474 469.143 L552.123 484.164 L552.583 491.378 L553.02 493.517 L552.973 499.323 L553.608 506.115 L553.422 505.273 L553.498 505.52 L553.822 505.38 L553.363 504.452 L553.458 500.3 "
     id="path22" />
</g>
<g
   id="g28">
  <path
     fill="none"
     stroke="#000000"
     stroke-width="4"
     stroke-linecap="butt"
     stroke-linejoin="round"
     d="M684.018 449.63 L683.851 449.864 L683.509 449.301 L683.055 449.239 L682.761 448.494 L682.344 448.389 L682.464 448.714 L682.379 448.409 L682.097 448.473 L682.234 448.185 L682.123 448.395 L682.454 448.601 L682.198 448.894 L682.073 454.387 L683.138 476.509 L682.905 477.993 L683.456 495.016 L683.207 497.748 L683.577 500.675 L683.525 504.41 L683.98 506.087 L684.161 509.083 L684.065 508.25 L684.047 508.982 L683.844 508.511 L683.997 508.745 L684.502 505.743 "
     id="path26" />
</g>
<g
   id="g32">
  <path
     fill="none"
     stroke="#000000"
     stroke-width="4"
     stroke-linecap="butt"
     stroke-linejoin="round"
     d="M796.379 448.697 L795.967 448.484 L796.638 448.848 L797.211 452.63 L797.565 453.09 L797.599 466.714 L798.951 486.262 L799.149 499.363 L799.779 510.661 L800.357 515.88 L800.694 508.34 "
     id="path30" />
</g>
<g
   id="g36">
  <path
     fill="none"
     stroke="#000000"
     stroke-width="4"
     stroke-linecap="butt"
     stroke-linejoin="round"
     d="M927.657 448.752 L927.38 445.959 L927.658 445.974 L927.642 445.585 L927.55 446.762 L928.436 448.812 L928.881 457.48 L928.646 465.461 L927.558 481.044 L927.333 492.587 L927.601 497.312 L928.011 498.733 L928.037 498.232 L928.063 499.415 L927.763 498.955 L928.525 497.638 "
     id="path34" />
</g>
<g
   id="g40">
  <path
     fill="none"
     stroke="#000000"
     stroke-width="4"
     stroke-linecap="butt"
     stroke-linejoin="round"
     d="M1014.09 454.586 L1015.09 452.37 L1014.91 452.078 L1015.13 451.432 L1015.21 451.792 L1015.35 450.123 L1015.25 451.029 L1016.1 455.824 L1015.98 470.306 L1016.55 475.544 L1016.31 480.326 L1016.89 486.563 L1016.3 499.886 L1015.77 504.085 L1015.56 504 L1015.12 506.404 L1015.21 507.272 L1015.27 506.064 L1015.13 506.387 L1014.79 506.322 L1015.24 505.881 L1015.75 501.738 "
     id="path38" />
</g>
<g
   id="g44">
  <path
     fill="none"
     stroke="#000000"
     stroke-width="4"
     stroke-linecap="butt"
     stroke-linejoin="round"
     d="M927.737 495.253 L927.364 495.093 L927.553 494.577 L927.234 494.395 L927.563 494.503 L927.403 494.759 L927.168 494.548 L927.538 495.067 L927.192 495.169 L926.68 498.243 L926.529 503.597 L926.955 505.572 L926.69 505.312 L927.091 505.066 L926.783 504.983 L926.985 504.627 L927.719 505.238 L928.294 503.941 "
     id="path42" />
</g>
<g
   id="g48">
  <path
     fill="#000000"
     d="M162.824 479.545 C162.824 479.545 162.824 479.545 162.824 479.545 C162.716 478.763 163.289 477.224 162.5 477.198 C161.717 477.172 162.056 478.747 162.163 479.523 "
     id="path46" />
</g>
<g
   id="g52">
  <path
     fill="none"
     stroke="#000000"
     stroke-width="4"
     stroke-linecap="butt"
     stroke-linejoin="round"
     d="M330.732 436.153 L329.122 436.188 L328.883 436.081 L329.056 435.583 L328.945 436.233 L328.445 435.666 L328.388 434.903 L328.187 435.549 L327.898 435.068 L327.752 435.277 L327.908 434.75 L327.59 434.971 L327.969 434.253 L327.65 433.844 L328.082 430.428 L328.502 430.067 L328.833 428.495 L329.166 428.097 L329.395 428.225 L329.791 426.26 L330.937 424.547 L331.141 423.38 L331.288 423.745 L331.849 423.196 L334.521 418.706 L335.225 418.6 L336.037 417.442 L336.524 417.604 L336.981 416.44 L337.427 417.121 L338.782 415.853 L339.59 415.621 L340.063 415.892 L340.113 415.523 L341.095 414.983 L342.468 414.781 L343.103 413.741 L343.304 414.359 L343.912 414.378 L346.874 413.565 L349.994 413.628 L350.753 413.064 L350.964 413.479 L351.64 413.707 L354.543 413.768 L355.464 414.157 L357.773 413.374 L358.586 414.286 L359.501 414.007 L360.566 414.182 L361.287 413.543 L361.656 414.134 L362.32 414.331 L365.156 414.423 L367.003 415.005 L368.179 414.55 L369.871 414.578 L370.892 414.147 L371.295 414.697 L372.335 414.923 L374.449 414.737 L379.511 415.101 L379.993 415.897 L380.735 416.113 L381.278 415.18 L382.648 415.28 L383.597 414.637 L384.094 415.166 L384.98 415.423 L389.26 415.643 L389.545 416.047 L392.426 415.873 L392.952 415.338 L393.606 415.488 L394.223 416.254 L396.696 416.462 L397.32 416.007 L397.959 416.023 L398.568 416.43 L401.692 416.784 L404.811 416.691 L406.214 417.241 L409.247 417.061 L409.852 416.617 L410.81 416.655 L413.74 417.442 L415.401 417.06 L419.513 417.542 L422.382 417.495 L424.657 418.186 L425.351 417.65 L427.485 417.601 L428.82 416.945 L429.475 417.48 L431.73 417.882 L433.891 417.469 L437.364 418.02 L439.664 417.85 L441.244 417.299 L442.788 417.971 L445.709 417.882 L447.054 417.395 L448.437 417.885 L452.427 417.738 L454.801 418.204 L456.029 417.717 L458.397 417.612 L460.354 418.008 L462.496 417.741 L464.464 418.066 L467.349 418.035 L469.579 417.669 L473.38 417.985 L474.642 417.418 L477.34 417.89 L480.052 417.518 L480.643 417.831 L483.578 418.111 L487.58 417.936 L488.815 418.351 L491.637 418.331 L492.892 417.84 L494.342 418.529 L495.483 418.681 L497.992 418.695 L500.604 418.281 L507.34 418.882 L509.44 417.917 L510.783 418.642 L513.909 418.925 L515.774 418.753 L517.651 419.177 L519.641 418.9 L520.203 419.103 L521.512 418.424 L522.12 419.158 L524.198 419.418 L526.047 419.129 L529.348 419.913 L530.637 419.574 L534.489 419.968 L535.159 419.655 L538.043 419.492 L538.558 419.814 L541.91 420.069 L544.997 419.668 L548.964 419.72 L550.108 420.168 L551.534 419.698 L552.863 419.657 L553.496 419.234 L555.562 419.665 L558.806 419.444 L561.202 419.672 L563.334 419.207 L563.98 418.469 L564.637 418.511 L565.038 419.373 L566.248 419.499 L572.961 419.481 L573.892 419.023 L574.939 419.672 L578.437 418.794 L579.035 419.224 L579.995 419.343 L583.499 419.154 L584.158 419.487 L585.229 419.066 L587.003 419.391 L587.334 419.832 L588.369 419.3 L589.719 419.204 L590.633 418.311 L591.502 419.3 L595.306 419.167 L595.635 419.677 L596.122 419.731 L596.554 419.219 L598.06 419.217 L598.366 418.619 L598.834 418.443 L599.228 419.076 L600.939 419.286 L601.921 418.802 L603.157 419.009 L605.216 418.794 L605.964 419.04 L606.932 418.726 L607.715 419.161 L609.981 418.244 L611.509 418.806 L612.51 418.51 L613.705 418.878 L614.954 418.559 L616.308 418.77 L621.76 418.333 L622.919 417.817 L624.576 418.115 L626.642 417.814 L629.51 418.083 L629.979 417.759 L631.537 417.589 L631.971 416.975 L632.644 416.927 L633.178 417.592 L633.67 417.713 L637.705 417.78 L638.848 417.282 L641.346 417.398 L641.809 417.086 L643.094 417.792 L645.197 417.018 L647.109 417.312 L648.196 416.63 L648.5 417.054 L649.307 417.171 L651.172 416.915 L653.147 417.159 L655.018 416.705 L655.96 416.077 L657.153 416.643 L659.007 416.179 L659.341 416.504 L660.7 416.218 L661.557 416.662 L662.004 416.361 L663.371 416.299 L663.686 415.786 L664.582 416.181 L668.435 415.747 L669.525 415.882 L672.425 415.254 L673.25 415.53 L673.59 415.13 L676.8 414.77 L678.046 414.139 L678.8 414.657 L680.935 414.205 L683.411 414.514 L685.932 413.039 L686.815 413.614 L690.903 413.178 L691.787 412.743 L693.336 412.684 L694.155 412.19 L695.285 412.544 L697.421 411.843 L699.05 411.832 L700.625 411.329 L701.408 411.485 L704.949 410.789 L707.658 410.668 L708.626 410.009 L708.971 410.344 L710.171 410.368 L713.243 409.761 L713.944 410.362 L714.35 409.78 L715.78 409.423 L716.565 408.664 L717.746 409.204 L718.584 409.025 L718.949 408.578 L720.884 408.638 L721.592 408.209 L723.446 407.849 L724.166 408.453 L724.401 407.879 L726.759 407.283 L727.274 406.706 L727.407 407.03 L728.476 406.854 L728.845 405.757 L729.002 406.365 L729.308 404.482 L729.367 404.736 L729.58 404.577 L729.854 403.378 L730.257 403.293 L730.468 402.01 L730.256 401.988 L730.38 402.834 L730.52 401.912 L730.608 402.117 L730.988 401.897 L731.071 402.231 L731.448 401.079 L732.295 400.563 L732.407 399.917 L732.904 399.909 L732.919 399.55 L733.097 399.754 L734.073 398.187 L734.757 398.095 L736.827 396.244 L737.094 396.587 L737.59 396.147 L737.819 396.785 L737.614 396.086 L737.565 396.75 L737.323 396.76 L737.517 396.502 L737.7 396.766 L737.721 396.443 L737.855 397.565 L738.732 398.842 L738.887 399.678 L739.593 400.833 L740.067 400.993 L740.71 402.34 L741.068 402.308 L741.165 403.049 L741.753 403.326 L741.826 404.005 L742.465 404.434 L743.353 406.028 L743.622 406.192 L743.797 405.844 L744.94 407.053 L746.984 408.162 L747.374 408.033 L748.017 408.852 L748.367 408.575 L749.179 409.304 L749.44 408.994 L750.584 410.134 L751.839 410.186 L752.295 410.613 L752.852 410.329 L753.797 411.075 L754.062 410.845 L754.947 411.196 L755.446 411.745 L755.738 411.096 L756.465 410.967 L757.149 411.839 L759.637 412.048 L760.039 412.565 L761.229 412.51 L763.799 413.461 L765.413 413.284 L766.515 413.819 L766.838 413.588 L767.257 414.072 L767.456 413.866 L768.526 414.387 L769.17 414.195 L770.993 414.683 L771.259 414.175 L771.591 414.205 L772.24 414.903 L773.375 414.719 L776.536 415.192 L776.827 414.96 L777.292 415.364 L778.686 415.399 L778.944 414.964 L779.416 414.996 L779.795 415.438 L781.323 415.252 L782.577 415.577 L786.082 415.425 L786.678 415.648 L787.82 415.208 L788.549 415.734 L792.551 415.805 L794.475 415.611 L794.892 415.097 L795.745 415.717 L797.342 415.676 L797.748 415.159 L798.251 415.075 L798.698 415.487 L799.686 415.58 L801.889 415.433 L802.683 415.012 L803.577 415.419 L805.324 415.504 L808.582 414.936 L813.221 414.897 L814.811 415.252 L816.115 415.078 L817.104 414.403 L818.112 415.286 L819.107 414.934 L820.141 415.24 L821.269 414.882 L823.615 415.104 L825.988 414.766 L826.447 414.131 L826.896 414.086 L827.259 414.527 L828.952 414.701 L829.435 414.603 L829.824 413.78 L830.314 413.769 L830.799 414.286 L834.001 413.967 L836.76 414.337 L838.331 413.974 L846.151 414.306 L848.037 414.049 L848.296 414.446 L848.83 414.506 L849.396 414.203 L851.002 414.266 L851.535 413.645 L852.235 413.673 L852.765 414.334 L853.329 414.003 L854.354 414.126 L856.062 413.776 L858.457 414.219 L859.032 414.142 L859.57 413.498 L861.434 413.311 L861.975 412.938 L863.011 413.562 L866.225 412.651 L867.237 412.968 L872.485 412.437 L873.493 412.671 L877.465 412.072 L878.963 412.329 L880.576 411.652 L881.508 412.036 L889.387 411.964 L889.857 411.321 L891.154 412.158 L894.449 411.516 L897.504 412.05 L898.565 411.562 L900.459 411.425 L901.59 411.686 L904.061 411.386 L904.491 410.749 L905.001 410.702 L905.382 411.152 L913.077 410.749 L914.437 410.979 L917.957 410.344 L920.955 410.854 L923.903 410.462 L925.001 410.935 L927.078 410.694 L927.601 410.043 L928.574 411.011 L929.005 410.776 L930.319 410.962 L931.477 410.585 L933.483 410.808 L938.536 410.581 L939.575 410.824 L940.679 410.361 L941.515 410.6 L944.791 410.325 L948.067 410.346 L949.017 410.883 L951.813 409.97 L953.931 410.527 L956.25 410.226 L958.007 410.564 L958.993 410.15 L960.431 410.461 L960.859 409.736 L961.746 410.419 L964.451 410.037 L966.968 410.279 L972.214 409.485 L973.097 408.933 L973.957 409.454 L975.537 408.94 L976.34 409.273 L977.973 408.863 L980.86 409.03 L982.714 408.802 L983.057 408.271 L983.522 408.324 L983.844 408.781 L986.634 408.541 L987.532 408.648 L988.283 409.131 L988.63 408.719 L990.231 408.172 L990.968 408.668 L993.565 408.232 L994.468 408.581 L996.758 408.247 L998.483 408.527 L1000.45 408.057 L1002.71 408.236 L1003.76 407.647 L1004.62 408.216 L1008.61 407.899 L1009.38 408.211 L1011 407.806 L1011.84 407.911 L1012.85 407.357 L1013.36 407.785 L1015.9 407.474 L1019.05 408.017 L1021.39 407.391 L1022.37 408.095 L1025.44 407.519 L1027.4 408.247 L1028.27 407.968 L1033.63 408.097 L1035.84 408.44 L1038.65 408.067 L1041.05 408.416 L1042.18 408.209 L1045.76 409.139 L1046.33 408.691 L1047.92 408.685 L1048.42 408.239 L1050.32 409.233 L1051.88 408.737 L1053.24 409.351 L1057.8 409.172 L1058.65 409.944 L1059.11 409.652 L1063.01 410.037 L1063.97 409.812 L1064.76 410.234 L1068.75 410.476 L1069.66 410.985 L1072.56 410.667 L1073.3 411.199 L1074.89 411.439 L1075.24 411.212 L1077.43 412.28 L1078.21 411.977 L1078.87 412.142 L1079.19 411.542 L1079.5 411.571 L1079.7 412.284 L1080.19 412.664 L1081.13 412.579 L1081.54 413.031 L1083.57 413.658 L1083.77 413.455 L1084.24 414.391 L1084.56 413.956 L1084.96 414.269 L1085.35 414.091 L1085.43 414.616 L1086.02 414.875 L1086.34 414.679 L1086.94 415.407 L1087.58 415.426 L1089.43 416.732 L1090.11 416.428 L1090.19 417.191 L1091.1 417.828 L1091.29 418.603 L1091.5 418.394 L1091.85 418.598 L1091.91 418.25 L1092.37 419.343 L1093.61 420.241 L1093.74 421.375 L1093.86 421.009 L1094.73 422.849 L1094.96 424.802 L1095.31 424.933 L1095.12 428.548 L1094.93 428.775 L1094.83 428.429 L1094.65 430.263 L1094.88 431.718 L1094.31 433.38 L1094.58 433.539 "
     id="path50" />
</g>
<g
   id="g56">
  <path
     fill="none"
     stroke="#000000"
     stroke-width="4"
     stroke-linecap="butt"
     stroke-linejoin="round"
     d="M331.307 542.402 L331.005 542.23 L331.057 541.602 L331.36 541.823 L331.193 541.38 L330.839 541.451 L331.207 541.871 L330.851 541.497 L331.394 541.498 L330.912 541.86 L331.074 542.176 L330.935 541.769 L331.098 542.668 L330.873 542.578 L330.822 543.643 L331.35 550.78 L331.574 550.15 L331.604 550.966 L332.018 551.425 L332.36 550.896 L332.506 551.653 L334.071 553.086 L334.302 552.971 L335.101 553.841 L336.976 554.528 L337.496 554.173 L337.905 555.07 L340.178 555.353 L340.62 556.124 L340.873 555.622 L341.591 555.454 L342.264 554.777 L342.709 555.783 L343.468 555.948 L343.914 554.828 L344.086 555.675 L344.847 555.898 L345.01 556.304 L346.447 555.615 L346.865 556.318 L347.891 555.714 L349.147 555.905 L349.581 555.665 L351.04 556.123 L351.017 555.699 L352.423 555.612 L352.85 554.848 L353.225 555.497 L354.587 555.346 L355.753 555.78 L355.958 555.31 L356.762 555.089 L357.271 555.384 L357.794 554.911 L357.855 555.311 L358.359 555.402 L358.44 555.717 L359.288 555.422 L359.423 555.045 L359.798 555.657 L360.653 555.2 L361.804 555.366 L362.307 554.885 L362.556 555.377 L363.971 555.485 L364.286 555.201 L365.473 555.168 L365.567 554.427 L365.817 554.351 L365.96 554.967 L366.567 555.271 L367.525 555.074 L367.725 555.521 L368.449 554.606 L368.559 555.039 L369.254 555.036 L369.798 554.483 L370.434 555.56 L370.846 554.901 L371.712 554.523 L372.173 555.132 L372.716 554.682 L373.921 554.827 L374.193 554.409 L374.544 554.462 L374.598 554.991 L375.222 555.378 L375.581 555.163 L376.434 555.374 L376.736 554.457 L376.939 555.224 L377.449 555.792 L377.552 555.571 L378.212 555.917 L378.402 556.507 L378.63 556.574 L378.864 556.084 L380.151 557.002 L380.543 556.574 L381.301 557.936 L381.886 557.935 L383.487 559.263 L383.797 559.107 L383.842 560.246 L384.326 560.208 L384.626 560.729 L384.709 560.205 L384.937 561.336 L385.043 561.583 L385.167 561.236 L385.403 561.968 L385.38 562.771 L385.586 562.269 L386.145 562.792 L386.159 563.814 L386.527 562.93 L386.216 563.356 L386.415 563.103 L386.235 563.321 L386.484 563.404 L386.431 563.109 L386.141 563.222 L386.393 563.679 L386.148 562.844 L386.327 563.521 L386.253 562.749 L386.437 563.146 L386.524 562.849 L386.315 562.653 L386.777 560.878 L386.755 561.421 L387.048 561.494 L388.436 558.786 L388.717 559.022 L389.68 557.343 L389.729 557.785 L390.028 557.524 L390.349 558.095 L390.601 556.628 L391.709 555.83 L392.129 555.134 L392.825 555.135 L393.28 553.693 L393.229 554.375 L393.524 554.581 L393.776 554.337 L393.952 554.701 L394.307 553.868 L394.452 554.242 L394.745 553.984 L394.829 553.351 L395.064 553.293 L395.118 553.884 L395.552 554.136 L396.841 553.347 L397.418 553.477 L397.617 552.896 L397.854 553.503 L398.689 553.146 L398.872 553.508 L399.761 552.398 L400.012 553.197 L400.792 552.996 L401.343 553.442 L402.01 552.703 L401.916 553.108 L402.796 553.059 L403.08 552.596 L403.184 553.042 L405.726 553.026 L406.075 552.4 L406.098 553.037 L407.299 553.139 L407.567 553.549 L408.133 552.885 L408.5 553.515 L409.248 553.093 L410.764 553.756 L410.706 553.531 L411.393 553.25 L411.849 553.549 L412.589 553.486 L413.19 553.015 L413.349 553.53 L413.904 553.738 L416.855 553.954 L417.583 553.808 L417.987 553.109 L418.125 553.62 L418.735 553.809 L420.527 553.721 L420.682 553.325 L420.818 553.949 L421.359 553.752 L421.594 553.189 L422.16 554.033 L422.476 553.523 L423.367 553.633 L424.5 552.915 L426.927 552.818 L427.262 552.387 L427.776 552.726 L428.867 551.412 L429.091 551.994 L429.621 551.538 L430.103 551.478 L430.161 551.852 L430.723 550.845 L430.784 551.396 L431.183 551.022 L431.365 550.389 L431.528 550.839 L431.946 550.833 L432.223 550.328 L432.362 550.551 L432.675 549.602 L432.565 550.045 L432.868 550.181 L432.495 550.14 L432.781 550.43 L432.913 549.416 L432.945 549.742 L433.669 548.372 L434.862 543.379 L435.01 543.714 L435.093 541.718 L434.85 542.456 L434.734 541.396 "
     id="path54" />
</g>
<g
   id="g60">
  <path
     fill="none"
     stroke="#000000"
     stroke-width="4"
     stroke-linecap="butt"
     stroke-linejoin="round"
     d="M446.862 540.436 L447.152 540.301 L446.844 540.044 L447.151 539.294 L447.027 539.736 L447.346 539.895 L447.236 540.085 L447.1 539.723 L447.116 540.007 L447.302 540.247 L447.369 539.895 L447.333 540.439 L447.557 540.396 L447.175 540.807 L447.536 540.804 L447.826 541.459 L447.764 542.831 L448.488 546.591 L448.635 546.895 L448.52 546.381 L448.683 546.721 L448.78 546.347 L448.927 548.099 L449.172 548.012 L449.273 548.715 L449.546 548.393 L449.714 549.036 L450.03 549.125 L449.979 549.668 L450.118 549.329 L450.65 549.298 L450.834 549.789 L450.962 549.469 L451.637 550.071 L452.13 549.983 L453.113 550.796 L453.19 550.37 L453.526 550.36 L453.549 549.804 L453.596 550.314 L454.076 550.645 L455.941 550.71 L456.031 550.29 L456.493 550.91 L457.376 550.577 L458.037 551.443 L458.722 551.018 L459.011 551.426 L459.806 551.335 L459.759 551.107 L460.183 551.611 L462.36 552.208 L463.174 552.132 L464.024 552.792 L464.185 552.283 L464.879 552.147 L465.662 551.48 L466.171 552.2 L468.196 551.822 L468.414 552.407 L468.769 552.502 L469.485 551.189 L469.731 551.775 L470.894 551.289 L471.598 551.577 L472.511 550.912 L472.831 551.163 L473.899 550.651 L474.273 550.098 L474.899 550.552 L475.477 549.974 L478.169 549.701 L478.994 549.185 L479.263 548.641 L479.695 549.055 L480.776 548.56 L480.856 548.821 L481.567 548.867 L482.39 548.083 L483.069 548.411 L483.907 547.833 L485.917 547.856 L487.085 547.416 L487.92 547.591 L488.208 547.15 L489.038 547.812 L490.092 547.742 L490.485 548.357 L490.534 547.963 L491.087 547.645 L491.232 548.248 L491.871 548.096 L492.386 549.169 L493.011 548.917 L493.338 549.522 L494.311 549.704 L494.579 550.547 L495.179 550.605 L496.333 552.208 L497.066 552.54 L498.98 555.876 L499.385 558.017 L499.752 558.631 L499.757 558.357 L499.54 558.328 L499.677 559.216 L499.63 558.55 L499.378 558.741 L499.768 558.753 L499.631 559.369 L499.798 558.412 L499.282 558.497 L499.562 558.364 L499.523 558.762 L499.58 558.16 L499.455 558.437 L499.774 558.555 L499.993 556.881 L500.191 556.744 L500.159 557.387 L500.666 556.755 L500.536 556.272 L500.724 556.019 L500.948 556.201 L501.547 553.865 L501.537 554.244 L501.88 554.165 L502.34 552.546 L503.048 552.081 L503.233 551.299 L503.438 551.836 L503.836 551.132 L504.793 551.263 L504.789 550.355 L505.514 549.6 L505.712 550.08 L506.217 549.288 L506.679 549.872 L507.027 549.068 L507.188 549.412 L508.029 549.288 L508.197 548.96 L508.738 549.27 L510.186 548.891 L510.398 548.295 L510.898 548.792 L511.641 548.221 L512.195 548.249 L512.55 548.733 L513.139 547.922 L513.749 548.142 L513.965 547.682 L514.666 548.49 L515.066 547.97 L515.222 548.3 L516.316 548.217 L516.507 547.598 L516.805 548.396 L517.185 548.38 L517.42 548.863 L517.932 548.302 L518.254 549.031 L519.335 547.987 L519.774 548.808 L520.532 548.547 L520.606 548.963 L521.314 549.281 L521.603 549.05 L523.365 549.39 L523.702 549.133 L524.107 549.616 L524.883 549.827 L529.346 549.971 L529.498 549.083 L529.859 549.085 L530.062 550.09 L531.179 549.957 L531.419 550.4 L532.142 549.118 L532.171 550.206 L532.546 549.59 L532.404 550.048 L532.91 550.437 L532.968 550.067 L534.021 550.077 L534.549 549.735 L535.596 550.133 L536.716 549.537 L537.264 549.799 L537.93 549.393 L538.805 549.552 L539.531 549.118 L539.71 548.403 L540.285 549.076 L541.637 549.054 L542.592 548.55 L543.285 549.032 L544.7 547.41 L544.928 548.17 L545.42 548.087 L545.817 547.348 L545.959 547.831 L546.761 548.112 L547.066 547.464 L548.731 547.084 L549.036 546.654 L549.214 546.82 L549.116 545.421 L548.935 546.415 L548.768 543.53 L548.828 541.544 L549.23 540.145 L549.039 538.42 L548.847 538.568 "
     id="path58" />
</g>
<g
   id="g64">
  <path
     fill="none"
     stroke="#000000"
     stroke-width="4"
     stroke-linecap="butt"
     stroke-linejoin="round"
     d="M1019.65 522.32 L1019.9 522.146 L1019.66 521.931 L1019.57 522.141 L1019.66 521.737 L1019.08 521.499 L1019.31 521.634 L1019.26 522.53 L1018.9 523.031 L1018.94 524.142 L1018.54 525.08 L1019.15 531.464 L1020.01 534.539 L1020.38 534.637 L1020.77 535.725 L1020.67 534.822 L1020.9 534.722 L1020.95 535.704 L1022.05 536.215 L1022.85 536.13 L1023.53 536.458 L1024.18 535.967 L1024.75 536.588 L1025.98 536.486 L1026.4 536.811 L1027.48 536.178 L1027.86 536.389 L1029.26 535.88 L1030.18 536.201 L1034.11 535.666 L1035.19 535.918 L1035.67 535.563 L1039.57 535.835 L1040.62 535.467 L1041 534.92 L1041.34 535.248 L1042.14 535.259 L1043.73 534.641 L1044.36 535.013 L1044.57 534.606 L1045.2 534.494 L1045.32 534.026 L1045.7 534.462 L1046.71 533.645 L1047.4 533.951 L1047.83 533.506 L1047.99 533.828 L1048.78 533.15 L1049.02 533.456 L1049.67 533.07 L1050.11 533.443 L1050.5 532.34 L1050.66 532.758 L1052.05 532.685 L1052.32 532.37 L1052.85 532.466 L1053.31 531.948 L1053.44 532.252 L1054.27 532.249 L1054.53 531.902 L1055.15 532.262 L1055.89 532.011 L1057.15 532.255 L1057.63 531.948 L1058.51 532.042 L1058.59 531.741 L1059.35 532.299 L1059.62 532.026 L1060.12 532.237 L1060.44 532.708 L1060.73 532.334 L1061.1 532.375 L1061.17 531.876 L1061.41 532.455 L1062.06 532.677 L1062.52 532.473 L1062.78 533.007 L1063.18 532.635 L1062.86 532.374 L1062.87 532.91 L1062.84 532.081 L1062.73 532.922 L1062.26 531.427 L1062.2 529.758 L1062.25 530.096 L1062.66 529.264 L1062.76 528.379 L1062.83 529.112 L1063.06 528.415 L1063.5 528.569 L1064.14 527.95 L1064.78 527.812 L1066.27 528.043 L1066.44 528.627 L1066.69 527.799 L1066.78 528.659 L1067 528.66 L1066.88 528.007 L1067.02 528.407 L1067.35 528.199 L1067.76 528.687 L1068.36 528.647 L1068.45 528.983 L1069.08 528.637 L1070.15 528.855 L1070.39 528.489 L1070.63 528.844 L1072.39 528.927 L1072.65 529.235 L1072.7 528.921 L1073.5 528.566 L1073.85 529.08 L1075.66 529.195 L1076.09 529.796 L1076.24 529.302 L1076.78 529.244 L1077.1 528.82 L1077.45 529.365 L1078.49 529.064 L1079.4 529.531 L1081.86 529.229 L1083.21 529.478 L1083.73 529.095 L1084.28 529.615 L1086 529.408 L1086.1 530.006 L1086.38 530.092 L1087.35 529.239 L1087.38 528.285 L1087.68 529.698 L1089.56 529.228 L1090.05 529.762 L1090.32 529.311 L1090.92 529.333 L1091.5 528.791 L1093.01 529.126 L1093.48 528.315 L1093.57 528.909 L1094.2 529.077 L1094.76 528.743 L1097.64 528.413 L1099.4 528.488 L1100.59 527.822 L1101.16 528.132 L1102.72 528.027 L1102.77 528.616 L1103.18 527.103 L1103.46 527.919 L1103.59 526.776 L1103.85 526.766 L1104.3 525.185 L1104.66 524.993 L1104.07 523.408 L1103.7 523.241 L1103.4 523.722 L1103.29 522.507 L1102.98 522.106 L1102.67 522.364 L1102.64 521.55 L1102.24 522.097 L1102.26 521.439 "
     id="path62" />
</g>
<g
   id="g68">
  <path
     fill="none"
     stroke="#000000"
     stroke-width="4"
     stroke-linecap="butt"
     stroke-linejoin="round"
     d="M930.586 529.454 L930.863 529.055 L930.64 529.006 L930.769 529.519 L930.949 528.901 L930.738 528.303 L930.818 528.85 L930.631 528.744 L930.933 528.8 L930.989 528.429 L930.995 529.35 L930.813 528.79 L930.556 530.96 L930.579 530.168 L930.276 531.046 L930.198 533.918 L930.784 537.161 L930.971 537.622 L931.3 537.327 L931.559 538.382 L932.186 538.89 L932.375 539.542 L933.141 539.621 L933.423 540.212 L934.133 540.179 L934.377 540.574 L934.836 540.559 L934.909 541.064 L935.688 540.771 L936.219 541.195 L937.538 540.841 L937.692 541.257 L938.414 541.037 L939.268 541.497 L940.215 541.407 L940.563 540.726 L940.69 541.336 L941.472 541.61 L942.959 541.61 L943.599 541.937 L945.209 541.541 L946.541 541.924 L947.112 541.549 L947.259 541.858 L948.239 542.115 L949.423 541.825 L949.691 542.281 L950.052 541.953 L951.749 541.836 L953.692 542.181 L954.604 541.325 L955.17 541.751 L956.88 541.492 L957.54 541.741 L958.82 541.349 L959.261 541.718 L959.945 541.487 L960.067 541.823 L960.991 541.857 L961.628 542.291 L962.676 542.007 L963.278 542.544 L963.682 542.324 L963.763 542.64 L964.768 542.847 L964.85 543.422 L965.238 543.351 L965.327 542.008 L965.649 542.228 L965.831 543.932 L966.549 544.321 L966.702 545.192 L966.925 545.275 L966.978 544.759 L967.468 544.993 L967.59 545.806 L967.869 545.142 L967.842 545.868 L968.312 546.704 L969.056 547.19 L969.827 548.909 L970 548.625 L969.741 549.034 L970.709 547.09 L971.116 547.019 L971.192 546.496 L971.461 546.1 L971.754 546.176 L972.141 545.34 L972.176 545.65 L972.389 545.557 L972.921 544.167 L974.677 542.692 L975.042 542.014 L975.505 542.203 L975.807 541.653 L976.312 541.795 L977.324 541.129 L977.646 541.234 L977.782 540.909 L977.84 541.134 L978.325 540.922 L978.491 541.264 L978.733 540.643 L978.623 541.061 L980.314 540.846 L980.687 541.18 L981.328 540.518 L982.392 541.048 L982.767 540.556 L982.912 540.946 L983.672 541.123 L984.147 540.832 L985.865 540.802 L986.257 540.447 L987.056 540.751 L987.167 540.496 L987.658 540.709 L988.147 540.496 L988.31 540.945 L988.998 540.04 L989.143 540.45 L990.105 540.32 L990.426 540.768 L990.858 540.176 L991.221 540.736 L992.196 539.967 L992.252 540.373 L993.095 540.613 L993.904 540.292 L995.111 540.548 L995.687 540.04 L995.938 540.536 L996.936 540.718 L996.998 540.974 L997.992 540.204 L998.139 540.957 L998.728 540.805 L999.635 541.099 L999.88 540.544 L1000.02 540.976 L1000.25 540.834 L1000.39 540.25 L1001.12 541.077 L1001.5 540.554 L1002.75 540.285 L1002.85 540.639 L1003.36 539.825 L1003.37 540.09 L1003.89 539.981 L1003.91 540.426 L1004.07 539.455 L1003.95 539.911 L1004.36 539.813 L1004.04 539.458 L1003.99 539.89 L1004.16 539.706 L1004.28 538.789 L1004.47 538.932 L1006.02 534.264 "
     id="path66" />
</g>
<g
   id="g72">
  <path
     fill="none"
     stroke="#000000"
     stroke-width="4"
     stroke-linecap="butt"
     stroke-linejoin="round"
     d="M692.925 585.345 L692.076 584.789 L692.102 585.025 L692.358 585.103 L692.07 584.554 L691.772 584.548 L691.724 585.023 L690.718 584.521 L690.877 584.264 L690.649 584.539 L690.514 583.872 L690.47 584.335 L690.561 583.248 L690.638 583.826 L691.095 582.058 L691.605 581.885 L691.739 581.066 L691.857 581.615 L692.345 581.261 L691.93 581.641 L691.88 581.157 L691.533 582.65 L691.402 581.57 L691.392 582.209 L690.878 582.151 L690.512 582.673 L690.487 582.056 L690.843 582.422 L690.969 581.987 L691.648 582.571 "
     id="path70" />
</g>
<g
   id="g76">
  <path
     fill="none"
     stroke="#000000"
     stroke-width="4"
     stroke-linecap="butt"
     stroke-linejoin="round"
     d="M716.855 582.22 L717.018 581.851 L716.637 581.965 L716.697 582.311 L716.323 580.992 L716.43 581.739 L716.201 581.775 L716.29 581.498 L716.077 581.758 L716.195 580.782 L716.216 581.629 L716.059 581.16 L716.314 581.034 L716.239 581.44 L716.844 579.936 L716.969 580.372 L717.275 579.956 L717.634 580.199 L717.707 580.854 L717.797 579.651 L717.715 580.68 L717.501 580.484 L717.235 581.57 L716.423 582.432 L716.222 582.162 L715.984 583.217 L715.195 583.239 L714.809 584.042 L714.362 584.025 L714.418 584.454 L714.021 582.751 L714.324 583.354 L714.078 583.401 L714.248 584.555 L714.447 582.945 L714.903 583.925 L715.164 583.346 L716.534 582.913 L717.227 583.96 L717.685 583.4 L718.92 583.143 "
     id="path74" />
</g>
<g
   id="g80">
  <path
     fill="none"
     stroke="#000000"
     stroke-width="4"
     stroke-linecap="butt"
     stroke-linejoin="round"
     d="M743.117 581.809 L742.691 582.035 L743.045 581.57 L742.729 580.58 L742.568 580.831 L742.5 580.479 L742.358 580.632 L742.385 579.635 L742.317 580.166 L741.967 579.666 L742.026 578.84 L742.013 579.292 L742.115 578.984 L742.391 579.257 L742.794 577.809 L742.943 578.387 L743.423 578.464 L743.67 578.094 L744.34 578.848 L744.687 578.546 L744.633 578.999 L744.821 579.192 L744.909 578.771 L744.983 579.303 L742.831 582.464 L742.603 582.592 L742.464 582.31 L741.96 582.62 L741.783 582.287 L741.53 583.152 L740.999 583.399 L740.827 583.143 L740.747 584.414 L740.747 582.664 L740.458 583.316 L740.735 582.719 L740.733 582.953 L740.991 582.851 "
     id="path78" />
</g>
<g
   id="g84">
  <path
     fill="none"
     stroke="#000000"
     stroke-width="4"
     stroke-linecap="butt"
     stroke-linejoin="round"
     d="M696.259 346.725 L695.926 346.6 L696.533 346.312 L696.672 345.802 L695.087 368.016 L695.449 372.159 L695.04 371.828 L695.024 368.654 "
     id="path82" />
</g>
<g
   id="g88">
  <path
     fill="none"
     stroke="#000000"
     stroke-width="4"
     stroke-linecap="butt"
     stroke-linejoin="round"
     d="M689.306 345.262 L688.74 344.529 L689.049 344.361 L689.086 344.656 L688.944 343.9 L689.62 343.938 L689.863 343.028 L690.612 343.232 L690.871 342.83 L691.451 342.535 L691.677 342.734 L693.469 341.593 L694.456 341.633 L695.857 341.016 L697.882 340.919 L702.253 339.594 L703.875 339.722 L704.938 339.288 L706.322 339.229 L706.963 338.799 L707.96 338.904 L708.525 338.609 L708.08 339.374 "
     id="path86" />
</g>
<g
   id="g92">
  <path
     fill="none"
     stroke="#000000"
     stroke-width="4"
     stroke-linecap="butt"
     stroke-linejoin="round"
     d="M693.269 355.213 L693.251 355.58 L693.324 355.147 L693.576 355.299 L694.849 354.318 L697.982 353.314 L699.185 352.503 L699.846 352.866 L701.44 352.251 L706.651 351.756 L707.055 351.344 L707.576 351.544 L708.949 350.958 L709.908 350.95 "
     id="path90" />
</g>
<g
   id="g96">
  <path
     fill="none"
     stroke="#000000"
     stroke-width="4"
     stroke-linecap="butt"
     stroke-linejoin="round"
     d="M715.115 341.597 L714.81 341.472 L715.284 340.547 L715.078 340.953 L715.326 341.253 L715.515 344.929 L715.384 360.405 L715.84 365.019 L716.14 365.349 L716.114 366.158 L716.18 364.101 L716.269 364.829 L717.313 361.635 "
     id="path94" />
</g>
<g
   id="g100">
  <path
     fill="none"
     stroke="#000000"
     stroke-width="4"
     stroke-linecap="butt"
     stroke-linejoin="round"
     d="M726.241 342.399 L725.875 341.6 L726.065 341.34 L725.721 340.686 L725.615 340.955 L725.971 342.007 L725.74 341.958 L725.72 347.256 L726.038 354.3 L727.351 361.27 L728.292 363.849 L729.162 364.951 L730.053 365.488 L730.791 364.887 L730.873 365.308 L731.245 364.951 L731.382 365.417 L733.075 364.868 L733.432 364.469 L734.219 364.747 L734.737 363.947 L734.977 364.443 L735.999 364.719 L736.571 364.168 L739.388 363.397 L740.498 362.565 "
     id="path98" />
</g>
<g
   id="g104">
  <path
     fill="none"
     stroke="#000000"
     stroke-width="4"
     stroke-linecap="butt"
     stroke-linejoin="round"
     d="M744.91 342.247 L744.562 341.485 L744.628 341.836 L744.901 341.028 L744.576 340.983 L744.776 341.052 L744.365 343.944 L743.671 346.73 L743.528 353.703 L744.326 358.169 L744.923 358.979 L745.416 361.182 L747.53 364.168 L747.855 364.252 L748.038 363.845 L749.357 364.718 L751.113 364.513 L751.629 364.084 L752.768 364.02 L754.364 362.966 L755.408 362.013 L755.999 360.751 L756.374 360.807 L756.895 360.362 L758.34 358.245 L759.445 354.978 "
     id="path102" />
</g>
<g
   id="g108">
  <path
     fill="none"
     stroke="#000000"
     stroke-width="4"
     stroke-linecap="butt"
     stroke-linejoin="round"
     d="M743.9 338.74 L743.866 339.134 L744.013 338.593 L744.548 338.842 L746.893 337.356 L747.788 337.53 L750.411 336.053 L754.512 335.58 L755.753 335.928 L756.097 336.475 L755.957 338.401 "
     id="path106" />
</g>
<g
   id="g112">
  <path
     fill="none"
     stroke="#000000"
     stroke-width="4"
     stroke-linecap="butt"
     stroke-linejoin="round"
     d="M742.41 350.615 L742.431 350.083 L742.494 350.509 L742.956 350.432 L742.731 350.567 L742.711 350.321 L743.181 350.778 L743.931 349.835 L745.431 349.426 L745.955 348.818 L748.814 347.615 L750.022 347.441 L751.856 346.322 L752.672 346.543 L754.527 346.065 L754.886 346.301 L758.915 345.22 "
     id="path110" />
</g>
<g
   id="g116">
  <path
     fill="none"
     stroke="#000000"
     stroke-width="4"
     stroke-linecap="butt"
     stroke-linejoin="round"
     d="M350.639 592.436 L350.299 592.068 L350.645 592.152 L350.707 591.786 L350.704 592.378 L350.943 591.526 L351.285 591.425 L350.287 593.5 L350.386 592.802 L350.718 592.603 L350.733 592.988 L350.14 595.788 L349.741 602.094 L349.88 604.253 L349.372 609.873 L349.628 618.079 L349.941 619.238 L349.666 619.675 L349.655 619.212 L349.48 619.844 L349.154 617.536 "
     id="path114" />
</g>
<g
   id="g120">
  <path
     fill="none"
     stroke="#000000"
     stroke-width="4"
     stroke-linecap="butt"
     stroke-linejoin="round"
     d="M346.625 596.584 L346.025 595.603 L346.284 595.664 L347.54 591.338 L348.14 591.013 L349.195 589.458 L350.696 588.118 L351.028 587.898 L351.355 588.296 L351.745 588.129 L352.276 587.305 L353.7 586.641 L356.98 585.926 L357.272 586.524 L359.508 587.27 L360.107 587.976 L360.505 588.705 L360.703 590.577 L360.966 589.728 L361.143 589.883 L361.171 593.156 L359.837 597.826 L359.494 597.448 L358.634 598.559 L358.289 598.501 L357.584 600.427 L357.209 600.305 L356.259 601.519 L355.242 601.805 L355.244 602.302 L353.991 603.797 L352.138 604.705 L351.058 606.075 L351.194 605.782 L350.668 606.145 L350.694 605.849 L350.275 606.811 L351.171 607.445 "
     id="path118" />
</g>
<g
   id="g124">
  <path
     fill="none"
     stroke="#000000"
     stroke-width="4"
     stroke-linecap="butt"
     stroke-linejoin="round"
     d="M366.238 595.072 L366.051 594.792 L366.608 592.127 L366.194 593.87 L366.026 593.642 L365.298 599.331 L365.479 600.879 L364.953 602.007 L364.423 612.683 L364.46 612.18 L364.539 612.948 L364.771 612.03 L364.962 612.367 L364.752 612.391 L364.837 611.527 L365.556 610.556 L367.802 600.103 L368.926 597.628 L369.312 595.345 L370.777 592.712 L371.067 590.964 L371.041 594.008 L371.171 593.327 L371.427 593.494 L372.105 595.018 L372.881 604.67 L373.422 606.311 L373.719 610.682 L374.473 613.922 L374.799 618.148 L374.587 618.607 L374.607 617.843 L374.032 617.397 "
     id="path122" />
</g>
<g
   id="g128">
  <path
     fill="none"
     stroke="#000000"
     stroke-width="4"
     stroke-linecap="butt"
     stroke-linejoin="round"
     d="M365.51 604.773 L365.597 604.963 L365.004 604.997 L365.727 604.194 L365.555 604.8 L365.671 605.008 L365.823 604.504 L366.013 604.97 L366.337 603.799 L366.471 604.595 L368.941 604.027 L370.23 603.965 L370.449 604.484 L370.932 604.549 L371.291 604.141 L372.741 604.052 L374.772 604.95 L375.645 604.622 L375.961 605.307 L377.652 606.56 "
     id="path126" />
</g>
<g
   id="g132">
  <path
     fill="none"
     stroke="#000000"
     stroke-width="4"
     stroke-linecap="butt"
     stroke-linejoin="round"
     d="M382.305 595.301 L382.067 595.079 L381.679 595.269 L382.209 594.92 L382.449 593.757 L382.235 593.145 L382.646 592.601 L382.704 593.065 L382.342 594.13 L382.818 598.17 L382.518 601.77 L382.779 605.746 L382.442 610.016 L382.688 611.014 L382.222 613.648 L381.678 614.307 L381.636 613.731 L381.622 614.282 L381.276 613.899 L380.916 614.361 L380.737 613.457 L380.166 612.978 L379.719 609.727 L379.291 608.779 L379.133 604.914 L379.774 600.205 L381.917 595.654 L385.163 592.616 L385.494 592.379 L385.927 592.755 L386.242 592.55 L386.459 591.736 L388.4 589.38 L388.969 590.009 L390.552 589.375 L391.422 589.801 L391.453 590.083 L392.974 590.309 L393.541 592.836 L392.893 595.319 L387.189 604.456 L386.971 606.238 L386.615 606.016 L386.27 606.808 L386.207 606.422 L386.193 608.751 L385.821 609.808 L386.215 610.742 L386.51 610.443 L386.747 611.364 L387.247 611.864 L387.428 611.525 L388.567 613.091 L389.515 612.749 L389.846 612.813 L390.224 613.526 L390.613 613.275 L391.217 613.425 L391.422 613.038 L392.126 613.735 L392.608 613.61 L393.859 614.134 L394.745 613.963 "
     id="path130" />
</g>
<g
   id="g136">
  <path
     fill="none"
     stroke="#000000"
     stroke-width="4"
     stroke-linecap="butt"
     stroke-linejoin="round"
     d="M402.513 593.152 L402.072 593.192 L402.387 593.123 L402.044 592.833 L402.563 593.303 L402.471 593.687 L402.264 593.57 L402.469 593.773 L402.328 594.435 L402.099 594.285 L401.707 596.462 L401.309 608.364 L400.97 610.381 L401.137 615.2 L400.899 616.707 L401.183 616.415 L401.245 618.309 L401.532 617.604 "
     id="path134" />
</g>
<g
   id="g140">
  <path
     fill="none"
     stroke="#000000"
     stroke-width="4"
     stroke-linecap="butt"
     stroke-linejoin="round"
     d="M395.055 595.047 L394.739 594.514 L394.036 594.281 L393.813 594.791 L394.597 594.468 L394.397 595.155 L394.637 594.058 L394.753 594.696 L394.511 594.871 L394.823 595.076 L395.073 595.018 L395.005 594.426 L395.339 594.841 L395.082 594.594 L395.717 594.122 L396.453 594.61 L397.82 594.244 L398.887 593.243 L400.193 593.345 L404.262 591.825 L405.604 592.031 L407.132 590.686 L414.158 588.524 "
     id="path138" />
</g>
<g
   id="g144">
  <path
     fill="none"
     stroke="#000000"
     stroke-width="4"
     stroke-linecap="butt"
     stroke-linejoin="round"
     d="M471.284 587.662 L470.694 586.802 L471.004 587.25 L471.092 586.973 L471.328 587.21 L470.802 587.016 L471.073 587.518 L470.822 589.35 L470.729 588.513 L470.395 589.16 L469.611 593.055 L468.968 599.333 L468.968 603.073 L469.356 608.278 L469.689 609.002 L469.525 609.827 L469.818 610.753 L470.031 609.617 L470.294 609.94 L470.735 608.665 "
     id="path142" />
</g>
<g
   id="g148">
  <path
     fill="none"
     stroke="#000000"
     stroke-width="4"
     stroke-linecap="butt"
     stroke-linejoin="round"
     d="M465.578 585.494 L464.509 584.709 L464.97 585.211 L465.506 583.337 L465.529 583.916 L467.621 582.886 L468.094 583.311 L468.542 583.176 L468.979 582.496 L469.857 582.052 L471.928 582.219 L473.793 581.941 L474.246 581.518 L474.71 581.59 L475.768 582.785 L477.076 583.28 L478.243 584.426 L479.645 587.114 L478.936 590.587 L477.796 591.947 L476.916 593.8 L475.416 595.049 L474.946 595.907 L474.491 596.269 L474.096 595.833 L473 596.423 L472.567 595.654 L472.021 595.888 L471.927 596.973 L471.022 597.79 L470.298 598.121 L469.051 598.018 L468.442 598.93 L468.169 598.209 L467.7 599.015 L467.863 599.492 "
     id="path146" />
</g>
<g
   id="g152">
  <path
     fill="none"
     stroke="#000000"
     stroke-width="4"
     stroke-linecap="butt"
     stroke-linejoin="round"
     d="M483.799 589.761 L483.453 587.832 L483.563 589.242 L482.846 593.083 L482.43 600.316 L481.64 606.785 L481.596 612.71 L485.226 594.448 L486.222 592.062 L486.491 590.408 L486.96 589.428 L487.148 589.945 L488.425 586.844 L488.468 587.276 L488.919 586.982 L488.832 587.601 L489.165 587.586 L488.985 587.149 L488.804 587.467 L489.015 587.387 L488.839 586.85 L489.414 587.874 L489.33 588.517 L489.382 588.211 L489.52 588.403 L490.518 591.849 L490.36 593.881 L490.675 599.849 L490.951 599.99 L491.2 609.926 L490.476 611.76 L489.945 612.216 "
     id="path150" />
</g>
<g
   id="g156">
  <path
     fill="none"
     stroke="#000000"
     stroke-width="4"
     stroke-linecap="butt"
     stroke-linejoin="round"
     d="M480.846 603.423 L480.638 603.63 L480.304 603.055 L480.849 603.239 L480.852 604.118 L481.144 602.826 L481.25 603.244 L482.218 603.447 L484.61 602.362 L485.104 602.706 L486.218 601.883 L488.203 601.244 L490.222 601.44 L490.573 600.911 L491.027 600.861 L491.443 601.284 L493.371 601.59 L494.823 601.3 "
     id="path154" />
</g>
<g
   id="g160">
  <path
     fill="none"
     stroke="#000000"
     stroke-width="4"
     stroke-linecap="butt"
     stroke-linejoin="round"
     d="M497.963 592.43 L497.485 591.531 L498.143 590.826 L498.056 589.711 L498.125 590.113 L498.48 589.68 L498.458 591.651 L499.248 593.827 L499.515 600.211 L499.979 601.734 L499.988 608.604 "
     id="path158" />
</g>
<g
   id="g164">
  <path
     fill="none"
     stroke="#000000"
     stroke-width="4"
     stroke-linecap="butt"
     stroke-linejoin="round"
     d="M497.335 592.735 L497.02 590.909 L497.487 588.308 L498.068 587.771 L498.519 587.933 L500.377 585.963 L502.76 585.645 L504.972 584.75 L505.869 585.275 L507.504 584.347 L509.566 585.207 L509.936 584.795 L510.501 585.957 L510.488 586.61 L508.988 589.863 L504.257 595.877 L502.653 598.266 L502.331 599.239 L501.597 600.13 L501.544 599.754 L501.437 600.94 L501.024 601.147 L501.619 602.072 L501.613 601.698 L501.863 602.078 L502.022 601.77 L502.603 602.665 L503.019 602.826 L503.411 602.263 L503.66 602.397 L503.793 603.172 L504.746 603.572 L505.35 604.382 L505.743 603.905 L507.164 604.097 L507.911 604.754 L509.578 605.256 L509.808 604.993 L510.211 605.105 L512.026 606.429 L514.137 607.033 "
     id="path162" />
</g>
<g
   id="g168">
  <path
     fill="none"
     stroke="#000000"
     stroke-width="4"
     stroke-linecap="butt"
     stroke-linejoin="round"
     d="M520.548 586.78 L520.493 586.155 L520.847 585.826 L521.123 586.452 L520.814 585.57 L520.947 586.224 L520.63 586.599 L520.556 591.185 L520.118 592.647 L520.382 597.599 L520.129 601.861 L520.858 608.235 "
     id="path166" />
</g>
<g
   id="g172">
  <path
     fill="none"
     stroke="#000000"
     stroke-width="4"
     stroke-linecap="butt"
     stroke-linejoin="round"
     d="M513.065 591.346 L512.128 588.841 L512.563 589.679 L512.425 588.658 L512.829 588.195 L512.815 587.656 L512.847 588.238 L513.048 588.132 L513.627 587.665 L514.056 586.623 L514.216 586.853 L515.348 586.234 L515.879 585.092 L516.504 584.759 L516.922 585.351 L517.448 585.152 L523.333 581.731 L523.957 582.148 L524.754 582.012 L525.759 580.966 L528.238 579.848 L528.941 578.722 L529.73 578.332 L530.345 579.077 L530.905 579.016 L533.78 577.633 L536.551 577.306 "
     id="path170" />
</g>
<g
   id="g176">
  <path
     fill="none"
     stroke="#000000"
     stroke-width="4"
     stroke-linecap="butt"
     stroke-linejoin="round"
     d="M936.415 574.716 L936.574 574.226 L937 574.692 L936.777 575.19 L937.586 576.842 L937.794 579.043 L937.754 590.101 L937.318 593.561 L937.435 597.033 L936.932 599.498 L937.448 596.763 "
     id="path174" />
</g>
<g
   id="g180">
  <path
     fill="none"
     stroke="#000000"
     stroke-width="4"
     stroke-linecap="butt"
     stroke-linejoin="round"
     d="M935.054 574.544 L934.428 572.617 L934.774 572.8 L934.763 572.149 L935.207 571.846 L935.334 571.29 L937.271 569.971 L938.051 568.752 L938.328 569.332 L939.559 569.307 L940.261 568.97 L941.219 569.317 L942.835 570.754 L943.704 570.142 L945.078 570.898 L945.65 572.129 L947.281 574.077 L948.485 577.724 L948.249 580.956 L945.79 585.403 L943.473 587.558 L942.595 588.78 L941.753 589.05 L938.901 591.387 L938.646 591.214 L938.2 592.003 L937.511 592.077 "
     id="path178" />
</g>
<g
   id="g184">
  <path
     fill="none"
     stroke="#000000"
     stroke-width="4"
     stroke-linecap="butt"
     stroke-linejoin="round"
     d="M951.235 579.907 L951.054 578.49 L951.45 578.036 L951.139 576.971 L951.132 577.93 L951.102 577.135 L951.132 577.717 L950.602 578.64 L950.638 580.501 L950.057 581.611 L949.134 588.559 L948.943 595.924 L949.048 595.547 L949.156 595.99 L949.36 595.463 L949.43 595.865 L949.814 594.55 L949.688 593.96 L953.759 577.835 L955.666 573.225 L956.396 572.804 L956.46 573.105 L956.549 572.75 L956.424 573.919 L956.945 573.221 L957.228 573.457 L957.325 574.497 L958.099 575.54 L958.901 577.779 L959.659 583.377 L959.801 586.869 L960.477 589.333 L960.893 594.932 L961.467 597.097 L961.135 599.843 L960.986 599.567 L960.635 599.708 L960.076 599.011 "
     id="path182" />
</g>
<g
   id="g188">
  <path
     fill="none"
     stroke="#000000"
     stroke-width="4"
     stroke-linecap="butt"
     stroke-linejoin="round"
     d="M950.585 589.419 L949.787 589.105 L950.278 589.294 L950.544 589.07 L950.768 589.327 L950.841 589.065 L951.052 589.939 L951.525 589.851 L951.865 588.877 L953.347 588.652 L953.891 587.975 L954.449 587.932 L954.951 588.5 L956.309 588.068 L957.706 588.132 L958.683 587.667 L959.993 587.819 L962.667 587.237 L964.812 587.307 "
     id="path186" />
</g>
<g
   id="g192">
  <path
     fill="none"
     stroke="#000000"
     stroke-width="4"
     stroke-linecap="butt"
     stroke-linejoin="round"
     d="M968.904 574.166 L968.729 573.329 L968.254 573.109 L968.133 573.491 L968.259 572.743 L967.911 573.174 L967.979 572.496 L967.542 575.045 L966.654 583.78 L966.701 591.713 L967.532 577.61 L967.944 574.357 L968.596 572.101 L968.789 572.246 L969.305 571.602 L969.471 572.057 L969.628 571.323 L970.525 570.628 L971.062 570.823 L972.826 569.648 L973.986 569.565 L976.663 569.844 L979.034 571.518 L979.881 572.773 L980.157 572.604 L980.632 574.788 L978.664 579.115 L978.418 578.764 L977.573 579.714 L976.71 580.093 L975.858 581.466 L973.142 584.096 L971.943 586.095 L971.69 585.878 L971.077 586.568 L970.471 588.027 L970.625 588.233 L970.607 587.866 L970.809 588.195 L971.017 589.085 L971.134 588.829 L972.232 590.069 L973.153 590.249 L973.731 591.007 L976.664 592.127 L977.02 592.517 L979.081 592.594 L980.021 592.126 L981.071 592.688 L985.226 591.642 "
     id="path190" />
</g>
<g
   id="g196">
  <path
     fill="none"
     stroke="#000000"
     stroke-width="4"
     stroke-linecap="butt"
     stroke-linejoin="round"
     d="M990.871 573.48 L990.534 572.599 L990.87 572.368 L990.826 573.607 L990.491 573.559 L990.297 574.126 L989.144 581.105 L988.606 586.78 L988.795 590.982 L988.588 592.003 L988.68 592.446 L988.847 591.935 L988.861 595.652 L989.359 597.722 L989.467 597.052 L989.944 597.553 L990.817 597.004 "
     id="path194" />
</g>
<g
   id="g200">
  <path
     fill="none"
     stroke="#000000"
     stroke-width="4"
     stroke-linecap="butt"
     stroke-linejoin="round"
     d="M983.9 574.18 L983.8 573.05 L983.891 573.533 L984.07 573.116 L984.491 573.401 L987.016 572.183 L987.577 572.514 L988.083 572.387 L988.585 571.624 L991.28 570.153 L992.797 570.164 L996.244 568.751 L1000.67 567.671 L1007.02 566.895 "
     id="path198" />
</g>
<g
   id="g204">
  <path
     fill="none"
     stroke="#000000"
     stroke-width="4"
     stroke-linecap="butt"
     stroke-linejoin="round"
     d="M1040.7 566.015 L1039.61 565.23 L1039.79 565.708 L1039.26 565.383 L1039 564.744 L1037.85 569.943 L1038.04 570.953 L1037.3 582.869 L1037.33 588.957 L1037.43 589.965 L1037.52 589.095 L1038.16 589.028 "
     id="path202" />
</g>
<g
   id="g208">
  <path
     fill="none"
     stroke="#000000"
     stroke-width="4"
     stroke-linecap="butt"
     stroke-linejoin="round"
     d="M1031.75 566.669 L1031.16 565.591 L1031.37 564.83 L1031.78 564.556 L1032.07 563.263 L1032.32 563.61 L1033.45 562.878 L1034.04 563.038 L1035.8 562.364 L1037.25 562.584 L1041.65 561.97 L1044.98 563.211 L1045.91 564.313 L1046.75 564.412 L1048.27 566.89 L1048.7 568.529 L1048.34 569.789 L1047.35 571.191 L1045.93 572.06 L1045.56 572.817 L1043.62 574.658 L1039.93 576.547 L1039.32 577.416 L1038.52 577.761 L1037.87 577.548 L1036.04 577.785 L1035.19 578.534 L1032.66 578.697 L1032.55 579.05 L1032.85 578.596 L1033.85 578.232 "
     id="path206" />
</g>
<g
   id="g212">
  <path
     fill="none"
     stroke="#000000"
     stroke-width="4"
     stroke-linecap="butt"
     stroke-linejoin="round"
     d="M1051.13 568.86 L1050.76 568.501 L1050.97 568.259 L1050.45 568.3 L1050.54 569.252 L1050.66 568.489 L1050.26 571.651 L1050.44 584.431 L1049.77 579.315 L1051.18 571.673 L1051.99 568.552 L1052.78 566.896 L1054.06 564.904 L1056.01 563.049 L1056.46 563.257 L1057.29 562.537 L1057.59 562.813 L1058.5 562.78 L1058.94 563.175 L1058.93 562.714 L1059.18 563.7 L1060.13 565.197 L1060.56 567.821 L1060.8 567.716 L1060.97 568.293 L1062.08 575.796 L1061.65 581.317 L1061.01 584.669 L1060.52 585.568 L1060.03 585.817 L1059.97 586.458 L1058.88 585.537 "
     id="path210" />
</g>
<g
   id="g216">
  <path
     fill="none"
     stroke="#000000"
     stroke-width="4"
     stroke-linecap="butt"
     stroke-linejoin="round"
     d="M1050.25 574.393 L1050.2 574.677 L1050.46 574.611 L1050.47 573.875 L1050.4 574.605 L1050.61 574.243 L1051.12 574.983 L1050.9 574.56 L1051.51 573.894 L1052 574.373 L1053.66 574.2 L1054.38 573.622 L1054.7 574.03 L1055.83 574.03 L1056.32 574.501 L1057.42 573.939 L1058.46 574.727 L1060.69 575.049 L1061.68 575.846 L1062.55 575.881 L1063.66 576.76 L1065.43 576.888 "
     id="path214" />
</g>
<g
   id="g220">
  <path
     fill="none"
     stroke="#000000"
     stroke-width="4"
     stroke-linecap="butt"
     stroke-linejoin="round"
     d="M1068.36 562.836 L1068.43 561.052 L1068.46 561.486 L1068.6 560.67 L1068.91 560.654 L1068.82 560.907 L1069.08 560.36 L1068.79 560.483 L1068.84 560.177 L1069.12 560.942 L1068.83 560.991 L1069.58 562.653 L1069.74 577.954 L1069.44 575.69 L1069.34 575.402 L1069.19 575.607 L1069.12 569.85 L1069.65 566.443 L1070.98 563.521 L1071.63 563.035 L1071.85 562.368 L1072.45 562.328 L1073.78 561.318 L1075.12 561.219 L1075.83 560.784 L1077.09 560.869 L1077.55 561.603 L1077.86 561.023 L1079.52 560.818 L1080.69 562.187 L1081.23 562.201 L1082.03 564.622 L1081.75 566.091 L1080.54 568.125 L1079.82 568.438 L1078.73 570.161 L1078.06 570.51 L1071.97 577.179 L1071.61 577.807 L1071.62 579.301 L1071.47 578.478 L1071.72 579.294 L1071.97 578.928 L1072.96 580.15 L1073.36 579.965 L1074.18 580.298 L1074.49 579.97 L1075.2 580.62 L1075.95 580.264 L1076.95 580.563 L1084.63 580.426 L1085.53 580.789 L1086.43 580.39 "
     id="path218" />
</g>
<g
   id="g224">
  <path
     fill="none"
     stroke="#000000"
     stroke-width="4"
     stroke-linecap="butt"
     stroke-linejoin="round"
     d="M1103.04 563.521 L1102.73 562.945 L1102.87 563.323 L1102.17 563.979 L1102.31 563.64 L1102.38 564.518 L1101.77 564.462 L1100.71 566.799 L1100.37 568.778 L1099.68 569.687 L1099.43 569.483 L1098.05 577.281 L1096.81 581.787 L1096.87 585.567 L1097.39 586.084 L1097.32 586.563 L1098.46 585.741 "
     id="path222" />
</g>
<g
   id="g228">
  <path
     fill="none"
     stroke="#000000"
     stroke-width="4"
     stroke-linecap="butt"
     stroke-linejoin="round"
     d="M1088.97 564.796 L1088.51 563.962 L1088.63 563.467 L1088.92 564.152 L1088.98 563.853 L1089.84 563.773 L1092.13 562.767 L1095.83 562.445 L1100.13 561.102 L1102.91 560.937 L1106.23 560.293 L1109.95 559.299 L1110.91 558.412 L1112.07 558.047 L1113.19 558.528 "
     id="path226" />
</g>
</svg>
