<?xml version="1.0" encoding="UTF-8" standalone="no"?>
<svg
   xmlns:dc="http://purl.org/dc/elements/1.1/"
   xmlns:cc="http://creativecommons.org/ns#"
   xmlns:rdf="http://www.w3.org/1999/02/22-rdf-syntax-ns#"
   xmlns:svg="http://www.w3.org/2000/svg"
   xmlns="http://www.w3.org/2000/svg"
   xmlns:sodipodi="http://sodipodi.sourceforge.net/DTD/sodipodi-0.dtd"
   xmlns:inkscape="http://www.inkscape.org/namespaces/inkscape"
   width="1404"
   height="1872"
   viewBox="0 0 1404 1872"
   version="1.2"
   id="svg110"
   sodipodi:docname="p2p.svg"
   inkscape:version="0.92.5 (2060ec1f9f, 2020-04-08)"><metadata
   id="metadata116">
  <rdf:RDF>
    <cc:Work
       rdf:about="">
      <dc:format>image/svg+xml</dc:format>
      <dc:type
         rdf:resource="http://purl.org/dc/dcmitype/StillImage" />
    </cc:Work>
  </rdf:RDF>
</metadata>
<defs
   id="defs114" />
<sodipodi:namedview
   pagecolor="#ffffff"
   bordercolor="#666666"
   borderopacity="1"
   objecttolerance="10"
   gridtolerance="10"
   guidetolerance="10"
   inkscape:pageopacity="0"
   inkscape:pageshadow="2"
   inkscape:window-width="640"
   inkscape:window-height="480"
   id="namedview112"
   showgrid="false"
   inkscape:zoom="0.12606838"
   inkscape:cx="702"
   inkscape:cy="936"
   inkscape:window-x="0"
   inkscape:window-y="27"
   inkscape:window-maximized="0"
   inkscape:current-layer="svg110" />
<title
   id="title38">applied-hash notes</title>
\n<g
   id="g44">
  <path
     fill="#000000"
     d="M413.961 1352.95 C413.961 1352.95 413.961 1352.95 413.961 1352.95 C416.551 1341.44 419.079 1329.92 421.732 1318.43 C422.623 1314.57 423.535 1310.71 424.593 1306.88 C424.839 1305.99 425.098 1303.56 425.638 1304.31 C427.137 1306.4 427.56 1309.11 428.014 1311.64 C429.12 1317.8 429.206 1324.12 430.301 1330.28 C431.512 1337.1 433.138 1343.85 434.924 1350.54 C435.048 1351 435.499 1351.44 435.971 1351.52 C436.4 1351.6 436.834 1351.24 437.133 1350.93 C437.817 1350.2 438.968 1349.47 438.849 1348.48 C437.625 1338.29 435.185 1328.28 433.202 1318.21 C432.957 1316.96 432.219 1315.81 432.168 1314.54 C432.138 1313.81 432.986 1313.23 432.97 1312.5 C432.942 1311.21 432.217 1310.01 432.044 1308.73 C431.27 1303.03 430.415 1297.31 430.132 1291.56 C430.064 1290.18 430.835 1288.88 430.998 1287.5 C431.078 1286.83 431.013 1286.13 430.852 1285.47 C430.681 1284.78 430.09 1284.21 430.015 1283.5 C429.807 1281.51 429.82 1279.49 430.015 1277.5 C430.085 1276.79 430.799 1276.22 430.799 1275.5 C430.799 1274.78 430.091 1274.21 430.015 1273.5 C429.874 1272.16 429.849 1270.78 430.162 1269.48 C430.226 1269.21 430.745 1269.36 430.975 1269.5 C431.485 1269.82 431.939 1270.26 432.249 1270.77 C432.951 1271.94 433.217 1273.34 433.972 1274.47 C434.582 1275.38 435.614 1275.94 436.285 1276.81 C437.868 1278.86 439.126 1281.15 440.715 1283.19 C441.467 1284.16 442.58 1284.82 443.288 1285.82 C444.641 1287.73 445.369 1290.06 446.859 1291.86 C447.109 1292.16 447.655 1291.72 447.982 1291.5 C448.343 1291.26 448.73 1290.94 448.851 1290.53 C449.043 1289.86 449.081 1289.1 448.862 1288.45 C448.539 1287.47 447.877 1286.64 447.283 1285.81 C444.492 1281.89 441.367 1278.2 438.713 1274.19 C436.761 1271.23 435.097 1268.09 433.487 1264.94 C432.771 1263.53 432.234 1262.04 431.751 1260.54 C431.103 1258.53 430.872 1256.38 430.1 1254.41 C429.707 1253.41 427.405 1252.34 428.298 1251.74 C431.359 1249.69 435.445 1249.89 438.874 1248.54 C440.425 1247.93 441.853 1246.99 443.133 1245.93 C443.885 1245.3 444.702 1244.52 444.862 1243.55 C445.303 1240.88 445.2 1238.12 444.869 1235.44 C444.619 1233.41 443.351 1231.59 443.136 1229.56 C443.057 1228.82 443.349 1227.82 444.026 1227.5 C444.785 1227.14 445.663 1228.03 446.5 1227.97 C447.224 1227.92 447.813 1227.05 448.529 1227.18 C449.636 1227.37 450.383 1228.54 451.471 1228.82 C451.859 1228.92 452.099 1228.21 452.5 1228.2 C452.889 1228.2 453.127 1228.91 453.501 1228.8 C454.094 1228.63 454.557 1228.07 454.849 1227.53 C455.08 1227.1 455.424 1226.24 454.966 1226.07 C451.926 1224.94 448.693 1224.13 445.451 1224.03 C444.539 1224 444.194 1225.57 443.292 1225.71 C442.752 1225.79 442.234 1225.07 442.158 1224.53 C442.057 1223.81 442.922 1223.18 442.835 1222.46 C442.598 1220.49 442.29 1218.41 441.221 1216.74 C440.413 1215.48 438.961 1214.62 437.529 1214.18 C436.832 1213.96 436.219 1214.89 435.496 1214.98 C434.177 1215.16 432.825 1215.14 431.503 1214.98 C430.463 1214.86 429.519 1214.19 428.473 1214.16 C428.082 1214.14 427.909 1214.77 427.526 1214.85 C426.538 1215.06 425.51 1215 424.5 1215 C423.823 1215 423.127 1215.03 422.474 1214.85 C422.081 1214.74 421.861 1214.08 421.463 1214.17 C419.908 1214.5 417.59 1214.5 417.062 1216 C415.845 1219.45 419.073 1224 416.948 1226.97 C414.943 1229.78 410.183 1228.57 407.054 1230.03 C406.598 1230.24 406.86 1231.13 407.16 1231.53 C407.439 1231.91 408.039 1232.07 408.498 1231.97 C410.213 1231.59 411.727 1230.52 413.441 1230.13 C414.443 1229.91 415.507 1229.99 416.522 1230.15 C416.813 1230.19 417.134 1230.43 417.2 1230.71 C418.228 1235.18 418.456 1239.84 419.761 1244.23 C420.113 1245.42 421.203 1246.26 422.074 1247.13 C423.126 1248.19 424.508 1248.9 425.502 1250.02 C425.847 1250.4 426.023 1250.98 425.969 1251.5 C425.859 1252.54 425.053 1253.45 425.031 1254.5 C425.009 1255.54 426.193 1256.54 425.842 1257.53 C425.001 1259.89 422.977 1261.65 421.713 1263.81 C420.122 1266.54 418.862 1269.45 417.287 1272.19 C415.718 1274.91 414.127 1277.63 412.289 1280.18 C411.402 1281.41 409.915 1282.17 409.149 1283.47 C408.803 1284.06 408.724 1285 409.157 1285.53 C409.582 1286.05 410.55 1286.23 411.133 1285.9 C412.137 1285.33 412.66 1284.15 413.287 1283.18 C414.192 1281.79 414.757 1280.18 415.711 1278.82 C417.087 1276.85 418.963 1275.25 420.25 1273.22 C421.365 1271.47 422.11 1269.5 422.862 1267.56 C423.067 1267.03 422.752 1266.32 423.101 1265.87 C423.696 1265.1 424.514 1264.3 425.479 1264.18 C425.948 1264.12 425.979 1265.03 425.984 1265.5 C426.103 1276.18 426.247 1286.86 425.851 1297.53 C425.831 1298.08 425.001 1298.28 424.75 1298.78 C423.595 1301.06 422.533 1303.4 421.664 1305.8 C420.489 1309.06 419.442 1312.37 418.63 1315.73 C415.93 1326.92 413.485 1338.17 411.136 1349.44 C411.042 1349.89 411.111 1350.39 411.318 1350.8 C411.707 1351.58 412.197 1352.35 412.871 1352.89 M881.961 1250.95 C881.961 1250.95 881.961 1250.95 881.961 1250.95 C884.551 1239.44 887.079 1227.92 889.731 1216.43 C890.623 1212.57 891.535 1208.71 892.593 1204.88 C892.839 1203.99 893.098 1201.56 893.638 1202.31 C895.137 1204.4 895.56 1207.11 896.014 1209.64 C897.12 1215.8 897.206 1222.12 898.301 1228.28 C899.512 1235.1 901.138 1241.85 902.924 1248.54 C903.048 1249 903.499 1249.44 903.971 1249.52 C904.4 1249.6 904.834 1249.24 905.133 1248.93 C905.818 1248.2 906.968 1247.47 906.849 1246.48 C905.624 1236.29 903.185 1226.28 901.202 1216.21 C900.957 1214.96 900.219 1213.81 900.168 1212.54 C900.138 1211.81 900.985 1211.23 900.97 1210.5 C900.942 1209.21 900.217 1208.01 900.043 1206.73 C899.27 1201.03 898.415 1195.31 898.132 1189.56 C898.064 1188.18 898.835 1186.88 898.998 1185.5 C899.077 1184.83 899.013 1184.13 898.852 1183.47 C898.681 1182.78 898.09 1182.21 898.015 1181.5 C897.806 1179.51 897.82 1177.49 898.015 1175.5 C898.085 1174.79 898.799 1174.22 898.799 1173.5 C898.799 1172.78 898.09 1172.21 898.015 1171.5 C897.874 1170.16 897.849 1168.78 898.162 1167.48 C898.226 1167.21 898.745 1167.36 898.975 1167.5 C899.485 1167.82 899.939 1168.26 900.249 1168.77 C900.951 1169.94 901.217 1171.34 901.972 1172.47 C902.582 1173.38 903.614 1173.94 904.285 1174.81 C905.868 1176.86 907.125 1179.15 908.715 1181.19 C909.467 1182.16 910.58 1182.82 911.288 1183.82 C912.641 1185.73 913.369 1188.06 914.859 1189.86 C915.109 1190.16 915.655 1189.72 915.982 1189.5 C916.343 1189.26 916.73 1188.94 916.851 1188.53 C917.043 1187.86 917.153 1187.08 916.862 1186.45 C915.928 1184.43 914.575 1182.62 913.285 1180.81 C911.189 1177.86 908.738 1175.18 906.713 1172.19 C905.207 1169.96 904.008 1167.54 902.713 1165.19 C901.989 1163.87 901.166 1162.59 900.655 1161.17 C899.622 1158.31 899.183 1155.25 898.1 1152.41 C897.717 1151.41 895.418 1150.36 896.298 1149.74 C898.966 1147.87 902.671 1148.27 905.705 1147.08 C907.669 1146.31 909.847 1145.54 911.179 1143.9 C912.682 1142.06 911.798 1138.63 913.723 1137.24 C915.012 1136.3 916.803 1138.1 918.249 1138.77 C919.405 1139.31 920.215 1140.62 921.472 1140.82 C922.094 1140.92 922.509 1140.06 922.851 1139.53 C923.037 1139.24 923.016 1138.84 922.969 1138.5 C922.898 1137.99 922.813 1137.43 922.502 1137.02 C921.962 1136.3 921.339 1135.53 920.5 1135.2 C920.139 1135.06 919.898 1135.73 919.527 1135.84 C919.192 1135.95 918.805 1135.96 918.472 1135.84 C918.104 1135.72 917.895 1135.28 917.527 1135.16 C917.194 1135.04 916.807 1135.05 916.472 1135.16 C916.102 1135.27 915.887 1135.83 915.5 1135.8 C914.885 1135.74 914.311 1135.35 913.867 1134.93 C913.163 1134.25 912.409 1133.49 912.138 1132.55 C911.764 1131.26 911.869 1129.85 912.015 1128.5 C912.093 1127.79 913.161 1127.12 912.799 1126.5 C910.667 1122.86 908.326 1119.13 905.003 1116.52 C903.811 1115.59 901.954 1117.17 900.474 1116.85 C899.63 1116.67 899.26 1115.6 898.526 1115.15 C898.232 1114.97 897.842 1115.02 897.496 1115.01 C896.479 1115.01 895.403 1114.79 894.446 1115.14 C892.733 1115.76 891.086 1116.66 889.693 1117.83 C888.794 1118.59 888.251 1119.71 887.751 1120.78 C886.735 1122.94 885.43 1125.09 885.171 1127.47 C885.077 1128.33 886.621 1128.65 886.799 1129.5 C886.946 1130.2 886.095 1130.79 886.015 1131.5 C885.829 1133.16 885.746 1134.85 886.014 1136.49 C886.337 1138.47 886.916 1140.43 887.768 1142.25 C888.292 1143.36 889.213 1144.25 890.074 1145.13 C891.248 1146.34 892.886 1147.1 893.851 1148.47 C894.243 1149.03 893.988 1149.86 893.851 1150.53 C893.709 1151.22 893.032 1151.79 893.031 1152.5 C893.029 1153.54 894.193 1154.54 893.842 1155.53 C893.001 1157.89 890.977 1159.65 889.713 1161.81 C888.122 1164.54 886.862 1167.45 885.287 1170.19 C883.718 1172.91 882.127 1175.63 880.289 1178.18 C879.402 1179.41 878.062 1180.26 877.149 1181.47 C876.942 1181.75 876.985 1182.16 877.031 1182.5 C877.095 1182.97 877.079 1183.58 877.47 1183.84 C877.932 1184.15 878.678 1184.21 879.133 1183.9 C880.08 1183.24 880.66 1182.15 881.287 1181.19 C882.191 1179.79 882.757 1178.18 883.711 1176.82 C885.087 1174.85 886.963 1173.25 888.25 1171.22 C889.365 1169.47 890.11 1167.5 890.861 1165.56 C891.067 1165.03 890.752 1164.32 891.1 1163.87 C891.696 1163.1 892.514 1162.3 893.479 1162.18 C893.948 1162.12 893.978 1163.03 893.984 1163.5 C894.103 1174.18 894.247 1184.86 893.851 1195.53 C893.831 1196.08 893.001 1196.28 892.75 1196.78 C891.595 1199.06 890.532 1201.4 889.664 1203.8 C888.489 1207.06 887.441 1210.37 886.63 1213.73 C883.93 1224.92 881.485 1236.17 879.136 1247.44 C879.042 1247.89 879.111 1248.39 879.318 1248.8 C879.707 1249.58 880.197 1250.35 880.871 1250.89 M430.534 1248.98 C430.534 1248.98 430.534 1248.98 430.534 1248.98 C430.088 1248.88 429.59 1248.91 429.194 1248.69 C427.959 1247.97 426.723 1247.2 425.715 1246.19 C424.885 1245.36 424.271 1244.31 423.772 1243.25 C423.068 1241.75 422.359 1240.2 422.132 1238.56 C421.81 1236.22 421.894 1233.82 422.148 1231.47 C422.214 1230.86 422.638 1230.3 423.074 1229.87 C423.77 1229.17 424.486 1228.13 425.474 1228.13 C426.456 1228.13 426.904 1229.61 427.854 1229.87 C428.426 1230.02 428.908 1229.22 429.5 1229.2 C429.888 1229.19 430.112 1229.82 430.5 1229.8 C431.212 1229.76 431.789 1228.94 432.497 1229.03 C434.484 1229.28 436.433 1229.92 438.246 1230.77 C438.952 1231.1 439.474 1231.79 439.851 1232.47 C440.121 1232.96 439.764 1233.68 440.1 1234.13 C440.822 1235.1 442.476 1235.33 442.851 1236.48 C443.482 1238.4 443.216 1240.56 442.862 1242.55 C442.685 1243.55 442.019 1244.44 441.308 1245.17 C440.448 1246.04 439.39 1246.74 438.263 1247.22 C436.441 1247.99 434.491 1248.43 432.562 1248.87 M900.58 1146.86 C900.58 1146.86 900.58 1146.86 900.58 1146.86 C899.535 1146.86 898.453 1147.14 897.445 1146.86 C896.458 1146.59 895.538 1146 894.81 1145.28 C893.613 1144.1 892.567 1142.73 891.771 1141.25 C890.989 1139.79 890.426 1138.19 890.132 1136.56 C889.833 1134.9 889.927 1133.19 890.016 1131.5 C890.04 1131.03 890.006 1130.08 890.469 1130.17 C894.511 1130.92 898.436 1132.27 902.26 1133.78 C902.75 1133.97 902.697 1134.77 903.074 1135.13 C903.735 1135.78 904.393 1136.72 905.315 1136.76 C905.989 1136.79 906.033 1135.36 906.703 1135.29 C907.249 1135.23 907.606 1135.98 907.85 1136.47 C908.087 1136.95 907.726 1137.65 908.077 1138.05 C908.819 1138.91 910.656 1138.85 910.885 1139.95 C911.14 1141.18 909.995 1142.36 909.166 1143.31 C908.401 1144.18 907.333 1144.77 906.263 1145.22 M297.957 902.513 C297.957 902.513 297.957 902.513 297.957 902.513 C298.318 901.909 298.883 901.387 299.04 900.701 C301.504 889.927 303.427 879.035 305.795 868.24 C306.641 864.386 307.603 860.555 308.68 856.759 C308.924 855.901 309.17 853.628 309.748 854.307 C311.211 856.021 311.608 858.46 312.022 860.676 C313.221 867.098 313.442 873.673 314.569 880.109 C315.696 886.546 316.972 892.977 318.778 899.257 C318.995 900.009 319.745 900.816 320.527 900.822 C321.417 900.828 322.188 900.005 322.708 899.283 C322.89 899.031 322.178 898.808 322.202 898.498 C322.232 898.112 322.724 897.898 322.842 897.529 C322.954 897.183 322.927 896.796 322.865 896.437 C320.715 884.033 318.548 871.63 316.21 859.259 C315.971 857.998 315.175 856.844 315.137 855.561 C315.097 854.181 316.044 852.886 315.985 851.507 C315.715 845.162 314.517 838.883 314.158 832.543 C314.135 832.133 314.785 831.931 314.853 831.526 C315.074 830.202 315 828.843 315 827.5 C315 826.157 315.069 824.799 314.852 823.474 C314.736 822.768 314.114 822.205 314.015 821.496 C313.877 820.498 313.834 819.429 314.158 818.474 C314.271 818.143 314.944 817.866 315.155 818.145 C316.302 819.662 316.693 821.644 317.75 823.224 C318.422 824.227 319.545 824.857 320.285 825.81 C321.873 827.854 323.126 830.146 324.715 832.19 C325.469 833.16 326.641 833.782 327.293 834.823 C328.344 836.499 328.828 838.475 329.753 840.224 C329.901 840.504 330.176 840.737 330.476 840.841 C330.807 840.956 331.221 841.012 331.527 840.842 C332.072 840.541 332.525 840.056 332.851 839.526 C333.031 839.234 333.078 838.828 332.97 838.502 C332.543 837.218 332.039 835.933 331.285 834.81 C329.939 832.806 328.066 831.191 326.715 829.19 C323.868 824.972 321.303 820.567 318.714 816.186 C317.948 814.891 317.166 813.586 316.655 812.171 C315.622 809.311 315.184 806.254 314.1 803.413 C313.722 802.422 311.41 801.347 312.308 800.784 C315.246 798.944 319.089 799.291 322.386 798.223 C323.738 797.785 325.035 797.123 326.185 796.288 C327.22 795.536 328.499 794.756 328.851 793.526 C329.496 791.275 329.165 788.838 328.985 786.503 C328.93 785.791 328.19 785.24 328.157 784.527 C328.125 783.819 328.795 783.209 328.799 782.5 C328.802 782.099 328.077 781.859 328.177 781.471 C328.458 780.383 329.633 779.636 329.823 778.529 C329.946 777.813 329.026 777.226 329.031 776.5 C329.036 775.787 329.758 775.232 329.852 774.526 C330.031 773.188 330.463 771.672 329.838 770.476 C329.539 769.905 328.495 771.226 327.949 770.885 C326.999 770.293 327.07 768.579 326.051 768.114 C325.239 767.743 324.313 769.146 323.473 768.842 C322.271 768.408 321.499 767.19 320.711 766.184 C319.723 764.921 319.535 761.218 318.188 762.088 C315.905 763.563 317.983 769.814 315.267 769.702 C312.684 769.596 315.981 764.312 314.922 761.954 C314.21 760.369 312.061 759.969 310.529 759.151 C310.207 758.979 309.687 758.756 309.44 759.025 C308.119 760.463 307.884 762.942 306.177 763.89 C305.342 764.354 304.655 761.398 303.969 762.063 C302.469 763.521 302.435 765.969 301.945 768.002 C301.175 771.191 301.039 774.516 300.201 777.688 C300.127 777.965 299.808 777.189 299.524 777.159 C299.059 777.11 298.334 777.04 298.158 777.472 C297.772 778.414 297.987 779.521 298.147 780.526 C298.209 780.912 298.799 781.109 298.799 781.5 C298.799 781.891 298.224 782.091 298.147 782.474 C297.95 783.464 298.003 784.49 298.001 785.5 C298 786.186 297.902 786.91 298.138 787.554 C298.49 788.516 299.124 789.355 299.717 790.189 C299.91 790.461 300.142 790.826 300.475 790.841 C301.093 790.868 301.817 789.86 302.249 790.301 C303.836 791.92 304.275 794.397 305.692 796.166 C306.305 796.93 307.423 797.105 308.19 797.715 C308.821 798.217 309.529 798.735 309.851 799.474 C310.124 800.101 309.988 800.856 309.852 801.526 C309.709 802.224 309.031 802.787 309.031 803.5 C309.031 804.213 309.709 804.776 309.852 805.474 C309.988 806.144 310.155 806.913 309.851 807.526 C308.736 809.774 306.979 811.648 305.713 813.814 C304.121 816.54 302.989 819.527 301.287 822.185 C298.789 826.086 295.553 829.489 293.144 833.445 C292.871 833.894 293.236 834.525 293.497 834.979 C293.713 835.353 294.068 835.809 294.5 835.799 C295.121 835.785 295.79 835.43 296.144 834.919 C298.36 831.721 299.859 828.064 302.077 824.867 C302.599 824.114 303.788 823.987 304.268 823.207 C305.142 821.787 305.286 820.022 305.991 818.51 C306.442 817.542 307.068 816.66 307.715 815.81 C308.162 815.222 308.847 814.834 309.255 814.219 C309.859 813.311 309.944 812.061 310.718 811.294 C311.012 811.003 311.032 812.095 310.984 812.506 C310.79 814.191 310.051 815.804 310.001 817.5 C309.727 826.828 309.794 836.167 310.015 845.497 C310.03 846.136 310.941 846.689 310.708 847.285 C310.404 848.062 309.145 848.09 308.719 848.809 C307.423 850.997 306.425 853.375 305.665 855.802 C303.718 862.017 302.117 868.339 300.615 874.677 C298.899 881.912 297.234 889.171 296.014 896.506 C295.739 898.158 295.763 899.897 296.149 901.526 C296.292 902.131 296.961 902.505 297.506 902.803 M424.036 888.909 C424.036 888.909 424.036 888.909 424.036 888.909 C424.685 888.773 425.387 888.794 425.981 888.502 C426.372 888.309 426.656 887.916 426.851 887.526 C427.006 887.217 426.985 886.842 426.985 886.496 C426.985 885.488 427.047 884.463 426.852 883.474 C426.777 883.091 426.186 882.89 426.201 882.5 C426.229 881.786 426.979 881.214 426.969 880.5 C426.955 879.441 426.108 878.495 426.131 877.437 C426.452 862.301 426.903 847.157 427.996 832.057 C428.856 820.159 430.989 808.38 431.986 796.493 C432.32 792.511 432.38 788.482 431.986 784.506 C431.788 782.511 430.964 780.619 430.228 778.754 C430.116 778.47 429.802 778.195 429.497 778.203 C429.11 778.213 428.887 778.808 428.5 778.799 C428.112 778.79 427.899 778.276 427.529 778.157 C427.183 778.046 426.792 778.051 426.438 778.136 C424.448 778.613 422.563 779.538 420.539 779.835 C420.119 779.897 419.882 779.124 419.459 779.161 C413.084 779.728 406.741 780.637 400.418 781.625 C392.438 782.873 384.564 784.763 376.563 785.867 C375.847 785.965 375.223 785.206 374.5 785.201 C374.111 785.198 373.898 785.726 373.527 785.843 C373.192 785.949 372.808 785.949 372.473 785.843 C372.101 785.725 371.778 784.932 371.494 785.199 C371.016 785.65 370.786 786.557 371.104 787.132 C371.58 787.993 372.524 788.836 373.507 788.842 C374.94 788.851 376.061 787.451 377.466 787.171 C377.879 787.088 378.123 787.898 378.54 787.837 C381.202 787.443 383.733 786.412 386.365 785.854 C391.176 784.834 396.052 784.14 400.859 783.105 C401.762 782.911 402.544 782.199 403.466 782.172 C404.193 782.151 404.773 783.036 405.497 782.97 C412.188 782.358 418.739 780.017 425.457 780.16 C426.814 780.188 427.539 782.127 427.862 783.446 C428.421 785.728 428.174 788.151 427.986 790.493 C426.89 804.123 424.887 817.676 424.013 831.323 C422.901 848.692 422.022 866.095 422.029 883.5 M1070.96 884.948 C1070.96 884.948 1070.96 884.948 1070.96 884.948 C1073.55 873.443 1076.08 861.923 1078.73 850.431 C1079.62 846.568 1080.53 842.706 1081.59 838.884 C1081.84 837.993 1082.1 835.562 1082.64 836.313 C1084.14 838.398 1084.56 841.113 1085.01 843.64 C1086.12 849.803 1086.21 856.12 1087.3 862.285 C1088.51 869.102 1090.14 875.847 1091.92 882.536 C1092.05 882.999 1092.5 883.438 1092.97 883.521 C1093.4 883.597 1093.83 883.242 1094.13 882.926 C1094.82 882.204 1095.97 881.471 1095.85 880.484 C1094.62 870.291 1092.18 860.28 1090.2 850.207 C1089.96 848.96 1089.22 847.807 1089.17 846.537 C1089.14 845.808 1089.99 845.231 1089.97 844.503 C1089.94 843.209 1089.22 842.015 1089.04 840.733 C1088.27 835.026 1087.42 829.315 1087.13 823.563 C1087.06 822.18 1087.84 820.875 1088 819.5 C1088.08 818.828 1088.01 818.131 1087.85 817.474 C1087.68 816.779 1087.09 816.208 1087.02 815.496 C1086.81 813.51 1086.82 811.492 1087.02 809.503 C1087.08 808.79 1087.8 808.217 1087.8 807.5 C1087.8 806.783 1087.09 806.209 1087.02 805.496 C1086.87 804.163 1086.85 802.78 1087.16 801.476 C1087.23 801.212 1087.74 801.357 1087.98 801.501 C1088.49 801.818 1088.94 802.26 1089.25 802.775 C1089.95 803.937 1090.22 805.338 1090.97 806.467 C1091.58 807.379 1092.61 807.941 1093.28 808.81 C1094.87 810.858 1096.13 813.146 1097.71 815.19 C1098.47 816.157 1099.58 816.816 1100.29 817.816 C1101.64 819.725 1102.37 822.056 1103.86 823.861 C1104.11 824.164 1104.66 823.719 1104.98 823.5 C1105.34 823.258 1105.73 822.944 1105.85 822.526 C1106.04 821.86 1106.08 821.104 1105.86 820.446 C1105.54 819.473 1104.88 818.643 1104.28 817.808 C1101.49 813.886 1098.37 810.201 1095.71 806.185 C1093.76 803.231 1092.1 800.09 1090.49 796.936 C1089.77 795.532 1089.23 794.039 1088.75 792.538 C1088.1 790.526 1087.87 788.382 1087.1 786.413 C1086.71 785.413 1084.42 784.356 1085.3 783.739 C1087.97 781.868 1091.62 782.142 1094.7 781.078 C1095.94 780.652 1097.1 780.002 1098.19 779.286 C1099.21 778.613 1099.96 777.557 1101.02 776.935 C1102.88 775.838 1105.55 775.871 1106.88 774.167 C1107.85 772.926 1107.18 770.985 1106.87 769.441 C1106.58 768.053 1105.39 766.953 1105.14 765.559 C1105.01 764.85 1105.8 764.221 1105.8 763.5 C1105.8 763.109 1105.22 762.91 1105.15 762.526 C1104.91 761.326 1105.48 759.942 1104.9 758.867 C1104.24 757.648 1102.63 757.228 1101.72 756.19 C1101.04 755.422 1100.42 754.523 1100.18 753.529 C1100.08 753.14 1100.91 752.886 1100.8 752.499 C1100.64 751.905 1100.13 751.304 1099.53 751.158 C1098.93 751.011 1098.13 751.254 1097.77 751.758 C1096.95 752.901 1097.67 755.62 1096.27 755.702 C1094.98 755.776 1096.44 753.031 1095.9 751.866 C1095.5 751.024 1094.35 750.822 1093.69 750.165 C1093.08 749.556 1092.86 748.56 1092.13 748.104 C1091.66 747.806 1090.97 747.937 1090.44 748.139 C1089.39 748.544 1088.66 749.838 1087.53 749.871 C1086.61 749.898 1086.18 748.494 1085.29 748.289 C1084.79 748.174 1084.29 748.661 1083.95 749.047 C1083.2 749.9 1083.24 751.872 1082.1 751.912 C1080.85 751.956 1080.73 749.41 1079.5 749.202 C1078.47 749.029 1077.51 750.158 1076.96 751.046 C1075.37 753.586 1074.61 756.558 1073.25 759.224 C1073 759.719 1072.29 759.936 1072.15 760.473 C1071.9 761.459 1071.85 762.555 1072.15 763.526 C1072.33 764.116 1072.92 764.577 1073.5 764.797 C1073.76 764.899 1074.12 764.036 1074.2 764.311 C1075.32 768.22 1075.49 772.374 1076.76 776.236 C1077.15 777.41 1078.21 778.249 1079.07 779.133 C1080.25 780.336 1081.89 781.097 1082.85 782.474 C1083.24 783.034 1082.99 783.855 1082.85 784.526 C1082.71 785.224 1082.03 785.787 1082.03 786.5 C1082.03 787.545 1083.19 788.543 1082.84 789.527 C1082 791.889 1079.98 793.649 1078.71 795.814 C1077.12 798.54 1075.86 801.45 1074.29 804.185 C1072.72 806.91 1071.13 809.633 1069.29 812.183 C1068.4 813.413 1066.92 814.166 1066.15 815.474 C1065.8 816.065 1065.72 816.998 1066.16 817.528 C1066.58 818.046 1067.55 818.226 1068.13 817.896 C1069.14 817.327 1069.66 816.154 1070.29 815.185 C1071.19 813.787 1071.76 812.181 1072.71 810.816 C1074.09 808.849 1075.96 807.251 1077.25 805.224 C1078.36 803.468 1079.11 801.495 1079.86 799.555 C1080.07 799.025 1079.75 798.316 1080.1 797.867 C1080.7 797.098 1081.51 796.299 1082.48 796.177 C1082.95 796.118 1082.98 797.031 1082.98 797.503 C1083.15 807.501 1083.04 817.501 1083 827.5 C1083 828.177 1083.09 828.894 1082.85 829.526 C1082.65 830.045 1082 830.28 1081.75 830.776 C1080.6 833.059 1079.53 835.397 1078.66 837.804 C1077.49 841.059 1076.44 844.368 1075.63 847.732 C1072.93 858.92 1070.48 870.17 1068.14 881.437 C1068.04 881.887 1068.11 882.393 1068.32 882.804 C1068.71 883.58 1069.2 884.346 1069.87 884.892 M418.79 878.674 C418.79 878.674 418.79 878.674 418.79 878.674 C419.513 877.805 421.814 876.808 420.96 876.067 C419.036 874.394 416.07 874.589 413.562 874.13 C412.549 873.945 411.488 873.972 410.474 874.147 C410.07 874.217 409.866 874.876 409.459 874.839 C406.119 874.538 402.886 873.399 399.541 873.16 C398.808 873.108 398.231 873.958 397.496 873.985 C390.503 874.235 383.5 874.126 376.504 873.984 C376.033 873.975 375.161 874.002 375.166 873.531 C375.263 863.984 376.15 854.461 376.799 844.936 C377.424 835.781 378.555 826.66 378.986 817.493 C379.284 811.17 379.235 804.828 378.985 798.503 C378.957 797.79 378.209 797.239 378.157 796.527 C378.111 795.898 378.984 795.283 378.708 794.716 C378.32 793.917 377.368 793.475 376.531 793.18 C376.253 793.082 375.832 793.4 375.814 793.694 C374.722 810.766 374.255 827.873 373.222 844.949 C372.988 848.815 372.204 852.638 372.014 856.507 C371.801 860.831 371.536 865.193 372.015 869.496 C372.166 870.852 373.839 871.782 373.867 873.146 C373.886 874.118 372.221 874.524 372.136 875.492 C372.079 876.138 372.892 876.866 373.541 876.839 C376.915 876.697 380.158 875.45 383.507 875.014 C384.506 874.884 385.537 874.959 386.526 875.148 C387.226 875.282 387.788 875.986 388.5 875.969 C389.547 875.944 390.452 875.053 391.5 875.031 C392.544 875.009 393.483 875.812 394.527 875.843 C394.918 875.854 395.086 875.202 395.474 875.148 C397.132 874.917 398.834 874.798 400.493 875.014 C403.541 875.41 406.443 876.685 409.503 876.97 C410.554 877.068 411.521 875.949 412.559 876.139 M403.715 856.76 C403.715 856.76 403.715 856.76 403.715 856.76 C407.439 856.018 411.196 855.421 414.889 854.532 C415.058 854.491 414.697 854.168 414.523 854.159 C411.521 853.993 408.504 853.826 405.503 854.015 C404.789 854.06 404.222 854.683 403.526 854.852 C402.871 855.011 402.175 855.079 401.507 854.985 C397.814 854.464 394.203 853.398 390.493 853.014 C389.372 852.898 388.05 852.823 387.147 853.498 C386.715 853.821 387.502 854.75 388.031 854.854 M385.741 842.723 C385.741 842.723 385.741 842.723 385.741 842.723 C387.307 842.194 388.796 841.316 390.439 841.137 C391.502 841.021 392.495 841.926 393.563 841.868 C400.753 841.482 407.947 840.891 415.066 839.815 C415.572 839.738 416.031 838.976 415.852 838.497 C415.681 838.041 414.919 838.063 414.437 838.134 C411.778 838.526 409.242 839.65 406.563 839.866 C405.506 839.951 404.553 839.109 403.496 839.015 C401.828 838.867 400.134 838.93 398.474 839.147 C398.087 839.198 397.891 839.799 397.5 839.799 C397.109 839.799 396.904 839.246 396.526 839.147 C395.872 838.977 395.169 838.899 394.504 839.016 C393.799 839.14 393.221 839.682 392.526 839.852 C391.868 840.013 391.172 840.077 390.5 839.998 C389.126 839.837 387.814 838.973 386.441 839.14 C385.188 839.292 383.33 839.661 383.088 840.9 M416.827 826.553 C416.827 826.553 416.827 826.553 416.827 826.553 C416.877 826.064 417.457 825.194 416.977 825.087 C411.924 823.954 406.733 823.445 401.563 823.132 C400.507 823.068 399.558 823.955 398.5 823.969 C397.786 823.979 397.213 823.241 396.5 823.201 C396.112 823.179 395.889 823.799 395.5 823.799 C395.111 823.799 394.888 823.196 394.5 823.2 C394.099 823.205 393.859 823.923 393.471 823.823 C392.383 823.542 391.648 822.267 390.528 822.177 C389.899 822.126 389.491 822.943 389.149 823.474 C388.963 823.763 388.985 824.159 389.031 824.5 C389.095 824.967 389.14 825.508 389.472 825.843 C389.717 826.089 390.157 825.984 390.504 825.984 C391.845 825.987 393.203 826.072 394.526 825.852 C394.912 825.788 395.081 825.146 395.473 825.157 C396.517 825.188 397.455 825.973 398.5 825.969 C399.559 825.965 400.506 825.076 401.563 825.132 C406.217 825.379 410.796 826.435 415.436 826.867 M391.719 811.759 C391.719 811.759 391.719 811.759 391.719 811.759 C394.966 811.226 398.181 810.44 401.459 810.16 C401.864 810.126 402.085 810.714 402.47 810.842 C402.815 810.958 403.206 810.939 403.561 810.862 C404.636 810.632 405.643 810.128 406.725 809.93 C410.61 809.217 414.498 808.424 418.437 808.133 C419.491 808.055 420.579 809.298 421.529 808.835 C422.243 808.487 422.423 807.014 421.842 806.472 C421.022 805.706 419.625 805.92 418.506 806.014 C416.961 806.144 415.518 806.868 413.989 807.131 C411.284 807.596 408.555 807.917 405.824 808.195 C399.791 808.81 393.721 809.072 387.701 809.808 C387.417 809.843 387.191 810.191 387.159 810.476 C387.107 810.941 387.023 811.716 387.472 811.842 M386.953 804.52 C386.953 804.52 386.953 804.52 386.953 804.52 C387.561 803.93 388.054 803.194 388.775 802.75 C389.911 802.05 391.117 801.312 392.441 801.139 C393.5 801.001 394.501 801.983 395.562 801.864 C397.592 801.637 399.45 800.598 401.438 800.131 C402.109 799.974 402.811 800.011 403.5 800.001 C405.498 799.972 407.507 799.817 409.496 800.015 C410.21 800.086 410.784 800.767 411.5 800.799 C411.89 800.816 412.096 800.246 412.474 800.147 C413.127 799.977 413.827 799.925 414.496 800.016 C415.534 800.157 416.578 801.272 417.529 800.835 C418.25 800.503 418.073 799.236 417.851 798.474 C417.672 797.861 417.095 797.109 416.458 797.159 C406.771 797.915 397.208 799.857 387.541 800.839 C387.136 800.88 386.893 800.096 386.5 800.2 C385.902 800.359 385.482 800.952 385.149 801.474 C384.964 801.764 384.983 802.159 385.031 802.5 C385.102 803.012 385.219 803.544 385.497 803.98 C385.731 804.345 386.098 804.651 386.504 804.802 M317.55 797.839 C317.55 797.839 317.55 797.839 317.55 797.839 C315.858 797.843 314.077 798.393 312.474 797.851 C311.263 797.442 310.536 796.169 309.715 795.19 C308.96 794.29 308.271 793.313 307.772 792.249 C307.068 790.75 306.426 789.19 306.132 787.56 C305.833 785.901 305.926 784.187 306.016 782.504 C306.041 782.03 306.04 781.351 306.472 781.157 C307.286 780.793 308.31 780.795 309.147 781.102 C310.078 781.443 310.585 782.502 311.453 782.982 C311.773 783.158 312.25 783.191 312.548 782.981 C313.658 782.199 314.232 780.693 315.476 780.149 C316.593 779.66 318.003 779.647 319.133 780.102 C319.994 780.449 320.135 781.696 320.834 782.307 C321.945 783.281 323.13 784.244 324.499 784.799 C324.86 784.945 325.153 784.027 325.501 784.201 C326.473 784.687 327.755 785.387 327.841 786.47 C328.026 788.789 327.214 791.155 326.221 793.259 C325.619 794.535 324.39 795.453 323.225 796.249 C322.12 797.004 320.846 797.565 319.534 797.829 C319.139 797.909 318.904 797.199 318.501 797.201 M1089.58 780.857 C1089.58 780.857 1089.58 780.857 1089.58 780.857 C1088.53 780.859 1087.45 781.137 1086.45 780.862 C1085.46 780.593 1084.54 780.005 1083.81 779.285 C1082.61 778.101 1081.51 776.761 1080.77 775.249 C1079.89 773.448 1079.29 771.481 1079.01 769.493 C1078.74 767.497 1078.75 765.426 1079.14 763.447 C1079.27 762.757 1079.8 761.754 1080.5 761.837 C1081.43 761.947 1081.58 763.545 1082.47 763.841 C1083.14 764.063 1083.77 763.165 1084.47 763.157 C1085.18 763.15 1085.83 764.021 1086.5 763.799 C1088.01 763.302 1088.88 761.153 1090.47 761.178 C1091.68 761.197 1091.84 763.256 1092.87 763.898 C1093.52 764.305 1094.67 763.525 1095.16 764.113 C1096.59 765.829 1096.91 768.241 1098.08 770.147 C1098.51 770.856 1099.59 771.083 1099.9 771.854 C1100.24 772.688 1100.13 773.696 1099.86 774.554 C1099.54 775.582 1098.92 776.54 1098.17 777.308 C1097.35 778.132 1096.33 778.775 1095.26 779.218 M302.527 775.789 C302.527 775.789 302.527 775.789 302.527 775.789 C302.407 775.353 302.176 774.932 302.168 774.479 C302.166 774.334 302.423 774.075 302.5 774.198 C302.745 774.585 302.825 775.073 302.832 775.53 M326.527 772.79 C326.527 772.79 326.527 772.79 326.527 772.79 C326.407 772.353 326.176 771.932 326.168 771.479 C326.166 771.334 326.423 771.075 326.5 771.198 C326.745 771.585 326.825 772.073 326.832 772.53 M311.527 771.79 C311.527 771.79 311.527 771.79 311.527 771.79 C311.407 771.353 311.176 770.932 311.168 770.479 C311.166 770.334 311.423 770.075 311.5 770.198 C311.745 770.585 311.825 771.073 311.832 771.53 M307.527 769.789 C307.527 769.789 307.527 769.789 307.527 769.789 C307.362 769.362 307.039 768.965 307.034 768.507 C307.029 768.044 307.037 767.202 307.5 767.198 C307.961 767.194 307.963 768.038 307.967 768.499 M309.527 764.79 C309.527 764.79 309.527 764.79 309.527 764.79 C309.407 764.353 309.176 763.932 309.168 763.48 C309.166 763.334 309.423 763.075 309.5 763.198 C309.745 763.585 309.825 764.073 309.832 764.53 M809.961 580.948 C809.961 580.948 809.961 580.948 809.961 580.948 C812.551 569.443 815.079 557.923 817.731 546.432 C818.623 542.568 819.535 538.706 820.593 534.884 C820.839 533.993 821.098 531.563 821.638 532.313 C823.137 534.398 823.56 537.113 824.014 539.64 C825.12 545.803 825.206 552.12 826.301 558.285 C827.512 565.102 829.138 571.847 830.924 578.537 C831.048 578.999 831.499 579.438 831.971 579.521 C832.4 579.597 832.834 579.242 833.133 578.926 C833.817 578.204 834.968 577.471 834.849 576.484 C833.624 566.291 831.185 556.28 829.202 546.207 C828.957 544.96 828.219 543.807 828.168 542.537 C828.138 541.809 828.986 541.232 828.97 540.503 C828.942 539.209 828.217 538.015 828.044 536.733 C827.27 531.026 826.415 525.315 826.132 519.563 C826.064 518.18 826.835 516.875 826.998 515.5 C827.077 514.828 827.013 514.132 826.852 513.474 C826.681 512.779 826.09 512.208 826.015 511.496 C825.806 509.51 825.82 507.492 826.015 505.503 C826.085 504.79 826.799 504.217 826.799 503.5 C826.799 502.783 826.09 502.21 826.015 501.496 C825.874 500.163 825.849 498.78 826.162 497.476 C826.226 497.212 826.745 497.357 826.975 497.501 C827.485 497.818 827.939 498.261 828.249 498.775 C828.951 499.938 829.217 501.338 829.972 502.467 C830.582 503.379 831.614 503.942 832.285 504.81 C833.868 506.858 835.126 509.146 836.715 511.19 C837.467 512.157 838.58 512.816 839.288 513.816 C840.641 515.725 841.369 518.056 842.859 519.861 C843.109 520.164 843.655 519.719 843.982 519.5 C844.343 519.258 844.73 518.944 844.851 518.526 C845.043 517.86 845.08 517.104 844.862 516.446 C844.539 515.473 843.877 514.643 843.283 513.808 C840.492 509.886 837.367 506.201 834.713 502.186 C832.76 499.231 831.096 496.091 829.487 492.936 C828.771 491.532 828.234 490.039 827.751 488.539 C827.103 486.526 826.872 484.382 826.1 482.413 C825.707 481.413 823.404 480.335 824.298 479.739 C827.1 477.874 831.107 475.488 834.05 477.121 C837.16 478.848 836.264 483.893 837.669 487.162 C838.28 488.583 839.036 489.985 840.074 491.133 C840.844 491.985 842.328 492.057 842.961 493.015 C843.98 494.559 844.047 496.56 844.78 498.258 C844.9 498.536 845.175 498.812 845.476 498.841 C846.001 498.891 846.686 498.884 847.013 498.471 C847.909 497.34 848.733 495.995 848.866 494.559 C849.359 489.21 849.697 483.752 848.862 478.446 C848.472 475.966 846.721 473.877 845.288 471.816 C844.337 470.448 842.6 469.708 841.779 468.259 C840.79 466.516 840.778 464.365 840.012 462.513 C839.603 461.525 839.034 460.573 838.285 459.81 C836.725 458.22 834.312 457.432 833.158 455.527 C832.618 454.636 834.295 453.414 833.841 452.475 C833.256 451.264 831.866 450.433 830.554 450.138 C828.242 449.618 825.785 449.759 823.446 450.138 C822.435 450.301 821.628 451.099 820.81 451.715 C819.979 452.341 819.527 453.555 818.527 453.842 C817.702 454.079 816.543 452.361 816.066 453.076 C814.659 455.187 814.466 457.923 814.13 460.438 C813.816 462.791 813.806 465.209 814.132 467.56 C814.36 469.199 815.005 470.778 815.768 472.246 C816.337 473.338 817.213 474.252 818.074 475.134 C819.248 476.336 820.886 477.097 821.851 478.474 C822.243 479.034 821.988 479.856 821.852 480.526 C821.709 481.224 821.032 481.787 821.031 482.5 C821.029 483.545 822.193 484.543 821.842 485.528 C821.001 487.889 818.977 489.649 817.713 491.814 C816.122 494.54 814.862 497.45 813.287 500.186 C811.718 502.91 810.127 505.633 808.289 508.184 C807.402 509.413 805.915 510.166 805.149 511.474 C804.803 512.065 804.724 512.998 805.157 513.528 C805.582 514.046 806.55 514.227 807.133 513.896 C808.137 513.327 808.66 512.154 809.287 511.185 C810.192 509.787 810.757 508.181 811.711 506.816 C813.086 504.849 814.963 503.251 816.25 501.224 C817.365 499.468 818.11 497.495 818.861 495.556 C819.067 495.026 818.752 494.316 819.1 493.867 C819.696 493.098 820.514 492.299 821.479 492.177 C821.948 492.118 821.978 493.031 821.984 493.503 C822.103 504.177 822.247 514.859 821.851 525.526 C821.831 526.081 821.001 526.28 820.75 526.776 C819.595 529.059 818.532 531.397 817.664 533.804 C816.489 537.059 815.441 540.368 814.63 543.732 C811.93 554.92 809.485 566.17 807.136 577.437 C807.042 577.887 807.111 578.394 807.318 578.805 C807.707 579.58 808.197 580.346 808.871 580.892 M828.58 476.857 C828.58 476.857 828.58 476.857 828.58 476.857 C827.535 476.859 826.419 477.24 825.445 476.862 C824.02 476.308 822.802 475.266 821.715 474.19 C820.88 473.364 820.271 472.313 819.772 471.249 C819.068 469.751 818.431 468.189 818.132 466.561 C817.935 465.485 817.431 463.934 818.311 463.285 C818.99 462.785 819.182 464.771 819.833 465.307 C821.15 466.39 822.824 466.983 824.134 468.074 C824.853 468.673 825.138 469.682 825.833 470.307 C826.707 471.093 827.725 471.722 828.775 472.248 C830.69 473.208 834.783 472.611 834.692 474.751 M835.547 471.822 C835.547 471.822 835.547 471.822 835.547 471.822 C835.106 471.786 834.645 471.851 834.225 471.713 C833.037 471.321 831.875 470.836 830.772 470.247 C829.727 469.689 828.688 469.079 827.81 468.285 C825.816 466.482 823.739 464.698 822.199 462.495 C821.938 462.12 823.136 461.923 823.527 462.158 C824.808 462.929 825.547 464.398 826.775 465.249 C827.891 466.024 829.302 466.274 830.467 466.972 C830.982 467.281 831.23 467.943 831.756 468.234 C833.079 468.966 834.837 468.96 835.936 470 M838.55 467.829 C838.55 467.829 838.55 467.829 838.55 467.829 C837.515 467.84 836.44 468.148 835.446 467.861 C834.594 467.616 832.51 466.74 833.285 466.311 C834.815 465.465 836.848 465.673 838.528 466.157 M467.961 464.948 C467.961 464.948 467.961 464.948 467.961 464.948 C470.551 453.443 473.079 441.923 475.732 430.432 C476.623 426.568 477.535 422.706 478.593 418.884 C478.839 417.993 479.098 415.563 479.638 416.314 C481.137 418.398 481.56 421.113 482.014 423.64 C483.12 429.803 483.206 436.12 484.301 442.285 C485.512 449.102 487.138 455.847 488.924 462.537 C489.048 463 489.499 463.438 489.971 463.521 C490.4 463.597 490.834 463.242 491.133 462.926 C491.817 462.204 492.968 461.472 492.849 460.484 C491.624 450.291 489.185 440.28 487.202 430.207 C486.957 428.96 486.219 427.807 486.168 426.537 C486.138 425.809 486.986 425.231 486.97 424.503 C486.942 423.209 486.217 422.015 486.044 420.733 C485.27 415.026 484.415 409.315 484.132 403.563 C484.064 402.18 484.835 400.875 484.998 399.5 C485.077 398.828 485.013 398.132 484.852 397.474 C484.681 396.779 484.09 396.208 484.015 395.496 C483.806 393.51 483.82 391.492 484.015 389.504 C484.085 388.79 484.799 388.217 484.799 387.5 C484.799 386.783 484.09 386.21 484.015 385.496 C483.874 384.163 483.849 382.78 484.162 381.476 C484.226 381.212 484.745 381.358 484.975 381.501 C485.485 381.818 485.939 382.261 486.249 382.775 C486.951 383.938 487.217 385.338 487.972 386.467 C488.582 387.379 489.614 387.942 490.285 388.81 C491.868 390.858 493.126 393.146 494.715 395.19 C495.467 396.158 496.58 396.816 497.288 397.816 C498.641 399.725 499.369 402.056 500.859 403.861 C501.109 404.164 501.655 403.719 501.982 403.5 C502.343 403.258 502.73 402.944 502.851 402.526 C503.043 401.86 503.081 401.104 502.862 400.446 C502.539 399.473 501.877 398.643 501.283 397.808 C498.492 393.886 495.367 390.201 492.713 386.186 C490.76 383.231 489.097 380.091 487.487 376.936 C486.771 375.532 486.234 374.039 485.751 372.539 C485.103 370.526 484.872 368.382 484.1 366.413 C483.707 365.413 481.38 364.298 482.298 363.739 C485.425 361.838 490.271 358.534 492.94 361.038 C497.258 365.09 495.912 372.506 497.669 378.161 C497.932 379.007 498.441 379.768 498.978 380.473 C499.387 381.01 499.833 381.623 500.473 381.842 C500.96 382.009 501.56 381.8 501.981 381.502 C502.727 380.975 504.018 380.365 503.822 379.473 C502.972 375.606 500.388 372.314 499.134 368.559 C498.809 367.583 498.981 366.489 499.147 365.474 C499.211 365.088 499.814 364.89 499.799 364.5 C499.771 363.786 499.006 363.214 499.031 362.5 C499.066 361.453 499.934 360.547 499.969 359.5 C499.993 358.784 498.804 358.091 499.2 357.494 C499.632 356.841 500.779 356.912 501.526 357.149 C502.278 357.387 503.082 358.003 503.244 358.775 C504.642 365.42 504.715 372.298 506.11 378.944 C506.209 379.413 506.992 378.509 507.311 378.151 C507.635 377.788 507.861 377.324 507.976 376.851 C508.718 373.78 509.353 370.68 509.87 367.562 C509.986 366.864 510.049 366.123 509.869 365.439 C509.186 362.852 508.343 360.3 507.302 357.836 C507.097 357.348 506.628 356.997 506.184 356.711 C504.7 355.757 503.167 354.861 501.557 354.139 C501.098 353.933 500.27 354.421 500.058 353.965 C498.974 351.63 498.943 348.917 498.015 346.515 C497.584 345.4 496.869 344.376 496.024 343.529 C494.67 342.172 492.827 341.362 491.498 339.981 C491.14 339.61 491.086 338.983 491.157 338.473 C491.211 338.087 491.717 337.895 491.843 337.527 C491.956 337.195 492.085 336.727 491.841 336.475 C490.905 335.51 489.866 334.433 488.554 334.138 C486.242 333.618 483.785 333.759 481.446 334.138 C480.435 334.301 479.585 335.046 478.81 335.715 C477.004 337.273 475.2 338.881 473.751 340.775 C472.939 341.836 472.332 343.121 472.134 344.441 C471.782 346.788 471.807 349.21 472.132 351.561 C472.359 353.199 473.005 354.778 473.768 356.246 C474.337 357.338 475.213 358.252 476.074 359.134 C477.248 360.336 478.887 361.097 479.851 362.474 C480.243 363.034 479.988 363.856 479.852 364.526 C479.709 365.224 479.032 365.787 479.031 366.5 C479.029 367.545 480.193 368.543 479.842 369.528 C479.001 371.889 476.977 373.649 475.713 375.814 C474.122 378.54 472.862 381.45 471.287 384.186 C469.718 386.91 468.127 389.633 466.289 392.184 C465.402 393.413 463.915 394.166 463.149 395.474 C462.803 396.065 462.724 396.998 463.157 397.528 C463.582 398.046 464.55 398.227 465.133 397.896 C466.137 397.327 466.66 396.154 467.287 395.185 C468.192 393.787 468.757 392.181 469.711 390.816 C471.087 388.849 472.963 387.251 474.25 385.224 C475.365 383.468 476.11 381.495 476.862 379.556 C477.067 379.026 476.752 378.316 477.101 377.867 C477.696 377.098 478.514 376.299 479.479 376.177 C479.948 376.118 479.979 377.031 479.984 377.504 C480.103 388.177 480.247 398.859 479.851 409.526 C479.831 410.081 479.001 410.28 478.75 410.776 C477.595 413.059 476.533 415.397 475.664 417.804 C474.489 421.059 473.441 424.368 472.63 427.732 C469.93 438.92 467.485 450.17 465.136 461.437 C465.042 461.887 465.111 462.394 465.318 462.805 C465.707 463.58 466.197 464.346 466.871 464.892 M836.541 463.817 C836.541 463.817 836.541 463.817 836.541 463.817 C836.092 463.712 835.207 463.963 835.195 463.503 C835.184 463.047 836.079 463.067 836.524 463.171 M835.544 460.82 C835.544 460.82 835.544 460.82 835.544 460.82 C835.094 460.775 834.594 460.897 834.196 460.684 C833.105 460.1 831.503 459.692 831.201 458.493 C831.007 457.724 832.793 457.914 833.553 458.139 C834.476 458.411 835.29 459.097 835.863 459.87 M830.134 455.829 C830.134 455.829 830.134 455.829 830.134 455.829 C828.68 455.302 827.149 454.951 825.772 454.247 C825.069 453.887 823.809 453.455 823.991 452.686 C824.216 451.732 825.521 451.147 826.501 451.154 C827.856 451.163 829.045 452.106 830.248 452.729 C830.777 453.004 831.682 453.232 831.66 453.828 M822.522 455.792 C822.522 455.792 822.522 455.792 822.522 455.792 C822.081 455.361 821.205 455.116 821.201 454.5 C821.197 453.886 821.891 453.199 822.505 453.199 C822.965 453.199 822.964 454.04 822.967 454.5 M486.574 360.849 C486.574 360.849 486.574 360.849 486.574 360.849 C485.531 360.854 484.452 361.135 483.446 360.862 C482.457 360.594 481.538 360.005 480.81 359.285 C479.613 358.101 478.567 356.733 477.772 355.249 C476.989 353.79 476.339 352.203 476.132 350.561 C475.83 348.158 475.013 345.37 476.267 343.298 C477.049 342.006 477.263 346.166 477.991 347.49 C479.079 349.469 480.173 351.494 481.692 353.166 C483.779 355.463 487.044 356.667 488.708 359.286 M493.821 357.445 C493.821 357.445 493.821 357.445 493.821 357.445 C493.373 357.578 492.945 357.829 492.478 357.844 C492.287 357.85 492.154 357.636 492.018 357.502 C489.564 355.081 486.925 352.826 484.711 350.184 C483.281 348.476 482.136 346.526 481.151 344.528 C480.906 344.032 480.789 343.323 481.104 342.867 C481.656 342.07 482.547 341.469 483.472 341.178 C483.854 341.058 484.099 341.795 484.5 341.799 C484.889 341.804 485.157 341.018 485.501 341.201 C486.624 341.797 487.509 342.802 488.285 343.81 C489.424 345.291 490.491 346.871 491.194 348.603 M496.693 349.714 C496.693 349.714 496.693 349.714 496.693 349.714 C495.855 348.317 494.882 346.993 494.178 345.523 C494.106 345.373 494.372 345.05 494.507 345.147 C495.399 345.786 496.388 346.457 496.861 347.447 M493.527 344.79 C493.527 344.79 493.527 344.79 493.527 344.79 C493.407 344.353 493.175 343.932 493.168 343.48 C493.166 343.334 493.423 343.075 493.5 343.198 C493.745 343.585 493.825 344.073 493.832 344.53 M480.287 341.675 C480.287 341.675 480.287 341.675 480.287 341.675 C479.691 341.108 478.96 340.657 478.5 339.975 C478.323 339.713 478.318 339.284 478.5 339.025 C479.118 338.149 479.874 337.332 480.775 336.751 C481.91 336.018 483.156 335.013 484.5 335.153 C486.435 335.355 488.519 336.186 489.759 337.686 C490.297 338.338 489.157 339.697 488.315 339.77 C486.955 339.888 485.866 338.533 484.56 338.135 C484.017 337.97 483.294 337.747 482.857 338.109 "
     id="path42" />
</g>
<g
   id="g48">
  <path
     fill="none"
     stroke="#000000"
     stroke-width="4"
     stroke-linecap="butt"
     stroke-linejoin="round"
     d="M461.546 838.726 L461.688 838.154 L461.757 838.771 L462.113 838.653 L462.191 838.953 L462.373 838.745 L462.105 838.946 L462.693 839.122 L462.668 838.896 L463.228 838.984 L463.975 839.455 L464.243 839.148 L465.83 838.843 L467.612 839.014 L469.352 838.656 L474.114 838.618 L477.281 838.007 L478 837.396 L478.703 837.356 L479.271 838.017 L485.688 837.681 L488.303 837.958 L492.459 837.177 L494.363 837.579 L498.689 836.728 L505.269 837.078 L509.065 836.485 L511.715 836.782 L517.285 835.805 L518.235 836.034 L521.811 835.74 L523.683 836.084 L527.591 835.859 L528.607 836.077 L533.347 835.74 L534.208 836.078 L536.775 835.644 L538.651 835.861 L539.467 835.449 L540.883 835.963 L549.669 836.45 L550.505 836.851 L557.033 836.53 L558.583 836.982 L562.352 836.76 L567.794 837.161 L573.748 836.912 L574.718 837.248 L575.732 837.186 L578.496 836.222 L586.947 835.68 L593.509 835.795 L598.38 835.448 L600.274 835.84 L601.322 835.436 L612.421 835.238 L617.067 834.717 L622.062 835.151 L624.388 834.229 L629.259 833.612 L631.892 833.731 L638.051 833.306 L643.716 832.594 L645.228 832.721 L647.67 832.162 L653.619 832.197 L660.399 831.596 L665.735 831.679 L666.813 831.351 L669.064 831.776 L687.877 831.095 L689.787 831.553 L690.729 831.147 L694.253 831.08 L696.493 830.417 L697.76 830.959 L701.612 830.907 L704.093 831.241 L705.097 830.696 L707.197 830.364 L711.381 830.266 L717.86 829.527 L720.135 829.596 L724.192 828.848 L731.103 828.843 L735.185 828.392 L737.155 828.899 L737.94 828.373 L740.616 828.18 L742.433 827.534 L743.293 828.091 L747.797 828.255 L759.389 827.573 L761.092 828.168 L761.825 827.772 L766.014 827.488 L769.541 827.665 L771.272 828.126 L772.911 827.649 L780.85 827.692 L782.678 827.211 L783.569 827.518 L786.512 827.598 L788.037 827.369 L793.913 827.581 L798.409 827.241 L799.47 827.981 L800.575 828.078 L801.559 827.25 L804.504 827.086 L806.439 826.57 L808.572 826.884 L814.275 826.884 L826.629 825.68 L828.884 826.181 L830.035 825.585 L833.622 825.186 L834.723 824.789 L843.018 824.693 L845.266 824.017 L847.576 823.816 L849.88 824.02 L852.989 823.215 L854.873 823.254 L856.975 822.765 L860.141 822.896 L863.893 822.508 L874.954 822.181 L875.908 823.012 L877.001 823.116 L877.842 822.266 L880.661 822.086 L882.438 821.446 L885.285 822.174 L892.695 821.823 L893.544 822.357 L894.364 822.419 L895.208 821.798 L897.933 821.542 L898.836 821.134 L900.536 822.092 L901.2 821.533 L903.544 821.357 L909.065 821.202 L910.325 821.46 L913.575 821.081 L915.233 821.427 L917.366 820.885 L923.171 820.975 L924.595 820.643 L928.708 820.889 L933.383 820.561 L934.008 821.096 L936.502 820.109 L940.898 820.062 L944.806 819.172 L949.102 819.826 L950.409 819.101 L952.686 818.867 L953.996 819.398 L958.083 818.32 L960.611 818.556 L964.585 818.159 L965.883 818.58 L966.932 818.095 L972.501 817.905 L972.92 817.275 L973.538 817.111 L974.039 817.652 L974.962 817.923 L978.843 817.52 L980.167 818.207 L981.532 817.377 L982.637 817.189 L983.746 817.993 L986.465 816.991 L987.513 817.68 L988.775 817.657 L989.161 818.042 L990.059 817.369 L991.914 817.322 L992.922 817.818 L993.441 817.329 L995.947 817.602 L998.564 816.902 L1002.81 817.483 L1004.26 816.953 L1004.78 817.053 L1005.19 817.6 L1005.76 817.58 L1006.39 816.964 L1008.53 816.452 L1009.77 817.043 L1015.05 816.757 L1015.43 817.07 L1018.76 816.512 L1020.05 816.916 L1021.15 816.65 L1022.38 817.076 L1023.39 816.931 L1023.9 817.729 L1024.28 817.686 L1024.46 816.958 L1024.78 816.847 L1026.23 817.027 L1026.41 816.707 L1027.54 817.065 L1027.94 816.44 L1028.01 816.828 L1028.27 817.013 L1028.39 816.725 L1028.88 817.33 L1029.79 816.584 L1030.12 817.002 L1030.5 816.624 L1030.7 816.967 L1031.36 816.955 L1031.41 817.436 L1031.37 816.597 L1031.29 817.617 L1031.08 816.16 L1030.63 818.851 "
     id="path46" />
</g>
<g
   id="g52">
  <path
     fill="none"
     stroke="#000000"
     stroke-width="4"
     stroke-linecap="butt"
     stroke-linejoin="round"
     d="M1026.85 803.883 L1026.47 803.187 L1026.15 801.074 L1025.93 800.872 L1025.88 801.343 L1025.69 800.686 L1024.9 800.167 L1024.96 800.53 L1024.55 800.614 L1024.6 801.765 L1024.51 800.633 L1024.7 800.516 L1024.73 802.338 L1024.89 802.045 L1025.98 804.469 L1028.19 807.227 L1028.4 807.034 L1029.05 807.458 L1029.58 808.324 L1031.34 809.756 L1031.7 809.578 L1032.05 810.783 L1033.84 812.839 L1034.4 815.067 L1034.66 814.892 L1034.74 817.037 L1034.1 817.637 L1032.16 820.971 L1031.69 820.887 L1030.35 821.939 L1029.49 823.621 L1029.02 823.338 L1023.88 827.349 L1022.08 828.045 L1019.74 829.898 L1017.91 830.723 L1015.86 832.603 L1014.41 833.442 L1014 833.947 L1014.34 834.717 L1014.56 834.324 "
     id="path50" />
</g>
<g
   id="g56">
  <path
     fill="none"
     stroke="#000000"
     stroke-width="4"
     stroke-linecap="butt"
     stroke-linejoin="round"
     d="M468.637 786.763 L468.599 786.548 L468.257 786.88 L468.297 786.671 L468.922 786.41 L468.899 786.663 L468.695 786.604 L469.092 785.955 L468.877 786.552 L469.146 786.542 L468.999 786.315 L469.22 786.795 L469.676 785.577 L470.079 785.734 L470.807 784.844 L471.085 784.97 L471.616 784.462 L471.753 784.81 L472.036 784.598 L473.198 782.847 L474.188 782.573 L474.871 781.549 L476.499 780.53 L482.23 775.776 L483.581 775.253 L487.466 772.208 L491.479 769.726 L492.175 768.687 L492.838 768.26 L493.578 768.307 L498.643 764.803 L501.91 761.88 L502.871 761.535 L507.128 757.859 L512.82 753.715 L514.624 751.898 L517.002 750.479 L525.013 744.558 L528.746 742.59 L532.21 739.779 L533.141 739.394 L538.458 734.398 L540.482 733.687 L543.192 731.754 L546.116 728.756 L547.122 728.573 L550.159 726.451 L551.164 726.271 L552.096 725.643 L556.941 721.136 L559.002 720.12 L563.803 716.186 L568.974 712.677 L569.851 711.448 L572.075 710.501 L575.827 707.73 L580.956 703.178 L582.054 702.6 L583.228 702.924 L584.41 702.306 L585.485 700.589 L588.629 697.938 L589.509 696.552 L591.689 696.252 L595.431 693.308 L597.314 691.232 L598.429 690.931 L603.509 687.504 L605.645 685.517 L608.617 683.549 L609.704 683.176 L614.55 678.821 L616.734 677.771 L619.797 675.428 L622.501 672.487 L624.314 671.73 L628.99 667.801 L632.398 665.537 L633.309 665.248 L638.565 660.599 L640.813 660.109 L641.71 658.907 L644.344 657.019 L645.175 655.798 L646.219 655.067 L647.146 655.004 L647.957 654.527 L651.341 651.641 L656.308 648.463 L660.057 644.732 L660.84 644.466 L664.82 641.484 L666.348 639.875 L668.07 639.229 L671.64 636.442 L674.591 634.6 L675.414 634.7 L676.227 634.237 L676.932 633.065 L679.742 630.378 L681.29 629.934 L682.832 628.364 L684.37 627.388 L685.037 626.371 L685.798 625.846 L686.502 625.882 L689.921 622.793 L693.467 620.387 L694.73 620.084 L695.257 619.415 L697.812 617.71 L698.713 617.454 L702.97 613.304 L704.169 613.011 L706.938 610.594 L710.301 608.694 L712.798 606.649 L713.412 605.797 L715.772 604.886 L718.241 602.719 L718.888 602.782 L719.578 602.422 L721.393 601.003 L725.605 598.686 L727.67 597.015 L728.733 596.765 L731.704 594.603 L732.256 593.588 L732.982 593.084 L733.412 593.523 L733.844 593.429 L735.665 591.929 L736.779 591.48 L738.077 590.13 L738.588 590.707 L739.089 590.556 L740.018 588.87 L741.37 587.668 L742.254 587.788 L744.648 585.302 L745.071 585.583 L745.972 585.181 L749.274 582.582 L754.993 579.545 L755.673 578.773 L756.059 578.952 L759.118 576.54 L759.346 577.087 L759.676 577.119 L759.909 576.226 L760.759 575.541 L760.986 574.803 L761.34 574.629 L761.555 575.113 L762.916 574.051 L764.242 573.589 L764.81 572.696 L765.26 572.636 L766.163 571.752 L766.431 571.101 L766.479 571.45 L767.321 571.037 L767.342 570.532 L767.225 571.289 L767.433 570.368 L767.25 571.09 L767.277 570.76 L766.969 570.705 L766.92 570.984 L766.9 570.64 L766.722 571.659 "
     id="path54" />
</g>
<g
   id="g60">
  <path
     fill="none"
     stroke="#000000"
     stroke-width="4"
     stroke-linecap="butt"
     stroke-linejoin="round"
     d="M769.372 563.02 L769.209 562.66 L769.12 563.108 L769.432 563.104 L769.412 562.836 L769.382 563.158 L768.508 563.019 L764.391 563.896 L763.599 563.743 L762.739 564.421 L761.569 564.735 L759.919 564.69 L755.557 566.867 L754.826 566.448 L750.46 566.895 L749.94 567.405 L748.395 567.956 L747.41 567.779 L745.059 569.148 L743.689 569.444 L743.504 569.209 L743.191 569.933 L743.022 569.259 L743.227 569.403 L742.954 569.736 L743.467 569.383 L743.558 568.454 L743.609 569.158 L744.11 568.749 L745.403 568.581 L745.786 569.29 L746.183 569.14 L746.599 568.279 L748.658 566.993 L749.202 567.379 L750.36 567.333 L751.264 566.769 L751.607 566.978 L753.084 566.723 L756.197 566.863 L756.682 566.464 L757.773 567.1 L758.216 566.707 L759.611 566.887 L760.679 566.646 L762.091 567.006 L762.902 566.632 L764.904 567.195 L766.774 566.854 L766.8 567.185 L766.518 566.895 L766.655 567.228 L766.428 567.311 L766.553 568.333 L766.329 568.404 L766.331 567.641 L766.475 569.244 L765.858 575.178 L763.339 587.074 L762.688 593.589 L762.7 594.746 L762.851 594.104 L762.853 594.671 L763.791 595.731 L764.268 595.776 L765.037 594.82 "
     id="path58" />
</g>
<g
   id="g64">
  <path
     fill="none"
     stroke="#000000"
     stroke-width="4"
     stroke-linecap="butt"
     stroke-linejoin="round"
     d="M536.941 426.774 L537.258 426.126 L537.379 426.677 L537.52 426.13 L537.656 426.724 L538.047 426.569 L538.372 426.809 L540.151 426.888 L540.662 426.317 L541.076 426.91 L542.973 427.421 L548.959 428.412 L552.05 428.749 L552.684 428.513 L555.471 429.566 L557.886 429.663 L563.379 431.1 L567.399 431.423 L568.996 432.295 L575.624 433.43 L580.601 434.799 L588.903 436.197 L594.087 436.698 L600.859 438.381 L610.127 439.49 L615.85 440.78 L621.061 441.48 L623.384 441.283 L625.266 442.345 L639.945 444.962 L643.551 445.136 L647.494 446.539 L652.291 447.187 L655.913 448.611 L660.649 449.484 L662.372 450.239 L666.937 451.178 L668.797 452.031 L671.802 452.648 L673.206 453.507 L676.891 454.548 L683.161 455.641 L687.837 457.033 L690.225 457.253 L691.895 458.297 L700.534 460.76 L704.442 461.579 L706.002 461.584 L706.691 462.301 L710.015 463.302 L714.531 464.125 L716.296 465.175 L717.135 464.839 L719.292 465.289 L719.96 464.931 L721.418 466.037 L725.564 466.518 L734.654 469.08 L735.774 469.211 L736.326 468.947 L738.13 470.292 L740.547 470.711 L741.668 471.394 L742.516 471.352 L744.418 472.17 L745.844 472.28 L745.983 471.931 L746.51 472.735 L750.488 474.014 L751.529 474.177 L751.672 473.629 L752.244 474.852 L752.575 474.567 L756.305 475.945 L758.394 475.767 L759.956 476.439 L764.534 477.353 L765.005 477.848 L766.337 477.889 L766.847 478.534 L767.091 478.217 L768.11 478.095 L769.455 478.845 L770.891 479.017 L771.565 479.426 L772.494 479.489 L772.549 479.157 L772.843 479.635 L773.958 479.729 L775.044 480.569 L775.605 480.243 L777.951 481.022 L779.069 480.967 L779.252 481.41 L779.705 481.243 L780.34 481.655 L780.4 481.057 L780.815 481.844 L781.125 481.691 L781.538 481.993 L781.795 481.531 L781.893 482.084 L782.177 481.867 L782.431 482.324 L783.416 482.297 L783.75 482.633 L783.959 482.35 L784.819 483.353 L785.012 483.102 L785.266 483.505 L785.202 482.738 L785.192 483.496 L785.451 483.458 L785.536 482.645 L785.477 483.269 L785.681 482.814 L785.796 483.448 L786.737 483.644 L787.163 484.077 L787.282 483.803 L787.817 484.615 L787.804 483.825 L787.772 484.222 L787.241 484.072 "
     id="path62" />
</g>
<g
   id="g68">
  <path
     fill="none"
     stroke="#000000"
     stroke-width="4"
     stroke-linecap="butt"
     stroke-linejoin="round"
     d="M537.505 428.931 L535.194 427.681 L535.233 427.347 L534.663 427.026 L534.795 426.535 L534.742 426.874 L534.266 426.474 L534.628 426.36 L534.534 426.572 L534.919 426.703 L534.225 426.543 L534.485 426.925 L534.524 426.687 L534.617 427.353 L534.733 426.655 L534.372 426.805 L534.49 426.999 L534.677 426.519 L535.145 427.987 L536.201 429.003 L536.565 429.933 L537.769 431.368 L541.657 438.158 L543.672 439.781 L544.304 440.766 L545.457 441.49 L545.274 441.153 L545.167 441.51 L544.944 440.495 L544.497 440.337 L541.38 435.626 L538.242 427.957 L537.727 425.226 L537.723 420.702 L538.286 418.518 L538.707 418.477 L538.892 417.631 L539.101 417.822 L539.431 417.07 L540.521 416.055 L540.921 416.195 L542.302 414.931 L543.777 415.228 L546.063 414.849 L551.744 415.227 L555.705 415.887 L556.796 415.368 L557.834 416.143 L560.821 416.45 L562.074 417.092 L563.58 417.069 L563.871 416.604 L564.142 416.666 L564.43 417.366 L564.227 417.764 "
     id="path66" />
</g>
<g
   id="g72">
  <path
     fill="none"
     stroke="#000000"
     stroke-width="4"
     stroke-linecap="butt"
     stroke-linejoin="round"
     d="M880.35 560.464 L880.169 559.698 L879.703 559.613 L879.477 560.08 L879.429 559.677 L879.284 559.852 L879.429 559.508 L879.785 560.434 L880.222 560.208 L884.015 565.284 L885.475 568.02 L886.489 568.805 L888.781 572.128 L890.654 575.603 L894.217 580.674 L897.461 586.653 L901.362 591.354 L903.566 596.445 L909.501 604.719 L912.283 609.739 L915.963 614.138 L918.349 617.962 L922.098 622 L923.052 622.309 L923.961 623.213 L928.026 630.255 L933.085 635.837 L934.514 638.822 L935.442 639.273 L939.821 644.024 L944.07 649.515 L946.159 651.299 L950.166 656.173 L951.138 657.171 L952.008 657.546 L954.297 660.129 L955.846 661.34 L957.399 663.66 L960.165 666.538 L964.842 673.073 L966.486 674.753 L972.545 683.308 L973.346 683.568 L974.008 684.416 L974.67 686.205 L978.378 692.067 L980.872 694.531 L984.964 699.898 L986.168 702.03 L986.969 702.339 L987.636 703.1 L989.492 706.493 L995.825 715.615 L996.517 715.766 L998.073 717.573 L998.651 717.44 L999.573 719.633 L1004.56 725.897 L1005.26 727.907 L1005.73 727.404 L1006.82 728.58 L1007.15 727.97 L1007.51 728.214 L1007.8 729.766 L1008.67 731.652 L1009.04 732.117 L1009.45 731.525 L1009.82 731.803 L1010.15 732.925 L1011.99 736.186 L1012.48 736.079 L1013.43 736.861 L1013.79 736.766 L1014.2 738.754 L1014.7 738.967 L1015.87 740.53 L1016.93 742.726 L1018.18 744.109 L1019.85 747.597 L1020.18 747.113 L1021.62 748.784 L1021.88 749.674 L1023.31 751.101 L1024.39 753.259 L1025.15 753.875 L1025.84 755.522 L1026.01 754.93 L1026.31 755.323 L1026.72 754.595 L1027.14 756.451 L1027.65 756.788 L1028.42 758.779 L1028.77 759.215 L1028.84 758.399 L1029.07 758.656 L1029.3 758.164 L1029.6 759.855 L1029.86 759.528 L1030.23 760.182 L1030.53 759.877 L1030.68 761.037 L1030.96 761.417 L1031.19 761.14 L1031.33 762.356 L1031.71 761.359 L1031.53 761.725 L1031.38 761.425 L1031.58 761.912 L1031.29 761.67 L1031.5 762.088 L1031.46 760.778 L1031.1 762.607 L1031.14 761.61 L1030.47 760.381 L1029.91 761.503 L1028.66 760.761 L1027.87 759.54 "
     id="path70" />
</g>
<g
   id="g76">
  <path
     fill="none"
     stroke="#000000"
     stroke-width="4"
     stroke-linecap="butt"
     stroke-linejoin="round"
     d="M876.927 558.226 L876.536 558.183 L876.486 558.684 L876.659 558.539 L876.79 558.973 L876.663 558.569 L876.224 559.578 L876.125 559.219 L876.002 559.409 L875.285 567.361 L875.459 579.848 L875.8 581.759 L876.069 581.614 L876.062 583.258 L876.084 582.897 L876.009 583.135 L876.267 583.056 L875.982 583.125 L876.128 581.114 L875.667 576.874 L874.302 567.116 L873.889 566.572 L873.275 560.953 L873.333 559.341 L873.55 559.459 L874.277 558.085 L875.352 558.926 L876.21 558.499 L877.283 558.521 L877.781 559.305 L878.472 559.671 L878.979 559.371 L880.815 560.101 L881.473 559.976 L883.758 562.389 L886.129 563.783 L888.357 565.595 L888.724 566.217 L891.09 567.351 L891.607 567.293 L892.348 568.331 L894.064 569.274 L894.531 568.778 L895.022 568.737 L895.232 569.409 L896.804 571.294 L897.051 570.497 L897.414 570.39 L898.729 570.343 L899.499 570.984 L900.324 570.95 "
     id="path74" />
</g>
<g
   id="g80">
  <path
     fill="none"
     stroke="#000000"
     stroke-width="4"
     stroke-linecap="butt"
     stroke-linejoin="round"
     d="M1016.71 772.924 L1016.2 771.45 L1014.9 769.331 L1014.59 767.716 L1014.27 767.785 L1013.86 765.496 L1013.63 766.3 L1013.36 765.32 L1013.18 765.157 L1012.89 765.481 L1012.83 764.209 L1012.97 765.25 L1012.91 764.463 L1012.68 764.732 L1012.79 764.958 L1013.23 764.806 L1013.3 765.471 L1013.67 764.171 L1014.98 764.587 L1015.61 763.991 L1016.45 764.785 L1019.02 765.629 L1021.32 765.994 L1021.89 767.255 L1022.79 767.628 L1023.41 766.654 L1025.07 766.699 L1025.65 765.885 L1026.25 765.793 L1026.79 766.72 L1029.48 767.319 L1030.53 766.621 L1033.22 766.307 L1034.6 764.724 L1034.85 763.655 L1035.23 764.647 L1036.77 760.499 L1036.78 758.745 L1036.53 755.691 L1035.77 753.817 L1035.34 753.53 L1035.08 751.249 L1033.96 748.25 L1033.89 744.887 L1033.65 744.461 L1034.11 742.034 L1034.19 742.886 L1034.36 742.512 L1034.44 740.986 L1035.54 738.086 "
     id="path78" />
</g>
<g
   id="g84">
  <path
     fill="none"
     stroke="#000000"
     stroke-width="4"
     stroke-linecap="butt"
     stroke-linejoin="round"
     d="M1037.09 913.729 L1036.93 912.127 L1037.3 912.464 L1037.53 912.167 L1037.29 912.318 L1037.56 912.79 L1037.66 912.366 L1037.31 912.489 L1037.29 913.601 L1037.05 913.368 L1036.58 914.73 L1035.67 916.013 L1032.76 922.668 L1032.26 922.489 L1031.03 924.221 L1029.64 927.333 L1027.13 931.561 L1024.52 937.415 L1021.69 941.405 L1018.62 947.149 L1017.42 948.747 L1016.28 951.289 L1012.56 957.188 L1008.97 964.16 L1007.48 965.655 L1006.45 967.89 L1005.23 969.615 L998.61 982.188 L995.337 987.212 L994.585 989.576 L991.51 996.223 L987.177 1003.66 L985.12 1008.06 L982.724 1012.1 L981.255 1013.38 L975.656 1024.44 L974.531 1025.8 L973.208 1029.65 L971.782 1031.92 L970.037 1036.62 L968.667 1038.7 L967.347 1041.76 L966.606 1044.74 L966.027 1045.88 L965.662 1045.34 L963.876 1048.64 L961.981 1055.32 L960.287 1057.71 L959.391 1060.65 L959.036 1060.84 L958.234 1062.94 L957.828 1062.8 L957.262 1065.61 L956.091 1068 L955.7 1067.92 L955.467 1068.27 L954.606 1072.8 L954.167 1073.63 L953.717 1073.48 L953.497 1073.85 L952.369 1077.43 L951.053 1079.08 L950.722 1078.99 L949.893 1083.09 L949.406 1083.67 L949.107 1084.83 L948.758 1084.9 L948.505 1086.6 L948.298 1086.31 L948.053 1086.78 L947.921 1087.8 L947.466 1088.01 L946.815 1089.7 L946.664 1089.5 L945.478 1093.25 L945.415 1092.81 L945.253 1092.96 L944.797 1093.51 L944.718 1094.43 L944.339 1094.81 L944.117 1094.56 L943.692 1096.59 L943.416 1096.46 L942.934 1097.5 L942.876 1098.74 L942.745 1098.17 L942.458 1098.48 L942.487 1097.66 L942.097 1099.56 L941.513 1100.12 L941.439 1099.53 L941.135 1102.33 L940.843 1102.86 L940.811 1102.18 L940.455 1102.32 L940.477 1101.85 L940.336 1103.71 L940.257 1102.93 L940.047 1103.11 L940.249 1103.13 L940.213 1101.74 L939.821 1101.93 L940.14 1103.28 L939.732 1103.5 L939.974 1103.1 L940.22 1103.34 L940.184 1103.08 L940.095 1103.71 L940.154 1102.37 L941.072 1101.3 L941.81 1099.7 "
     id="path82" />
</g>
<g
   id="g88">
  <path
     fill="none"
     stroke="#000000"
     stroke-width="4"
     stroke-linecap="butt"
     stroke-linejoin="round"
     d="M927.224 1095.1 L927.164 1094.33 L927.563 1094.14 L927.98 1093.1 L928.031 1093.89 L928.561 1093.21 L929.647 1093.9 L930.009 1093.58 L931.616 1096.21 L931.901 1096.26 L932.46 1097.62 L932.759 1097.66 L933.735 1102.07 L933.885 1101.76 L934.708 1112.32 L935.471 1113.55 L935.819 1115.27 L936.148 1114.84 L936.525 1115.63 L937.484 1116.41 L938.85 1115.88 L939.197 1116.67 L939.771 1116.42 L940.109 1115.42 L941.917 1114.38 L942.439 1113.02 L943.129 1112.56 L943.797 1113.09 L945.161 1112.31 L950.203 1107.93 L951.785 1106.94 L954.584 1102.91 L955.236 1103.76 L955.974 1104 L956.487 1102.43 L958.094 1100.54 L958.92 1098.28 L959.447 1098.76 L959.919 1098.55 L961.362 1096.51 "
     id="path86" />
</g>
<g
   id="g92">
  <path
     fill="none"
     stroke="#000000"
     stroke-width="4"
     stroke-linecap="butt"
     stroke-linejoin="round"
     d="M399.404 936.156 L399.132 935.796 L399.402 935.855 L399.68 936.79 L400.212 944.079 L400.257 964.805 L399.914 967.043 L400.815 998.4 L402.121 1015.84 L403.268 1024.37 L403.906 1036.75 L404.75 1042.81 L405.055 1048.45 L405.479 1050.37 L406.648 1066.74 L407.263 1070 L407.505 1069.78 L407.61 1070.55 L407.883 1077 L408.458 1078.36 L408.587 1082.33 L409.333 1083.36 L409.554 1088.58 L410.691 1095.91 L410.821 1095.23 L411.416 1098.41 L411.691 1102.83 L412.435 1107.77 L412.483 1112.09 L412.98 1116.08 L413.265 1115.69 L413.289 1119.9 L413.411 1120.4 L413.675 1119.51 L413.467 1121.92 L413.754 1124.26 L413.88 1123.74 L414.072 1124.49 L414.085 1126.84 L414.725 1128.14 L415.629 1136.78 L415.847 1136.38 L415.667 1138.3 L415.993 1139.01 L416.457 1143.35 L416.504 1149 L416.631 1149.57 L416.761 1148.73 L416.746 1150.74 L417.946 1157.68 L418.593 1164.02 L418.837 1164.58 L418.961 1164.09 L418.805 1165.85 L419.123 1167.78 L419.252 1166.72 L419.151 1169.58 L419.658 1173.2 L419.919 1172.01 L419.665 1174.05 L419.795 1173.88 L420.013 1174.39 L420.169 1173.94 L420.241 1176.18 L420.829 1177.33 L420.754 1176.44 L420.554 1178.32 L420.936 1178.95 L420.882 1180.1 L420.932 1178.22 L420.808 1179.27 L420.568 1178.83 L420.643 1176.03 "
     id="path90" />
</g>
<g
   id="g96">
  <path
     fill="none"
     stroke="#000000"
     stroke-width="4"
     stroke-linecap="butt"
     stroke-linejoin="round"
     d="M406.702 1177.29 L406.503 1176.74 L406.639 1177.43 L407.267 1175.93 L407.358 1176.84 L407.072 1176.97 L407.312 1177.48 L407.494 1176.99 L407.935 1177.57 L408.314 1177.21 L409.001 1178.5 L410.186 1179.59 L411.151 1181.36 L411.757 1181.6 L413.346 1184.46 L413.997 1184.98 L414.32 1184.63 L414.883 1186.1 L415.962 1186.71 L416.241 1186.38 L416.156 1186.93 L416.903 1187.07 L417.076 1187.67 L417.277 1186.87 L418.082 1185.87 L418.602 1185.92 L420.086 1184.45 L420.88 1182.1 L421.362 1182.4 L421.752 1181.95 L422.535 1180.45 L424.233 1178.4 L425.604 1175.74 L426.387 1175.06 L429.072 1170.95 L431.429 1165.29 "
     id="path94" />
</g>
<g
   id="g100">
  <path
     fill="none"
     stroke="#000000"
     stroke-width="4"
     stroke-linecap="butt"
     stroke-linejoin="round"
     d="M478.66 1285.34 L478.738 1285.53 L479.051 1285.1 L479.1 1285.51 L479.265 1285.31 L479.81 1285.66 L480.306 1285.27 L480.392 1285.68 L480.656 1285.62 L481.26 1284.56 L481.931 1285 L483.186 1284.53 L484.675 1284.49 L485.722 1283.96 L488.047 1283.66 L488.489 1282.95 L489.023 1282.76 L489.554 1283.19 L492.894 1282.87 L496.635 1281.72 L498.017 1281.84 L500.357 1280.96 L501.196 1280.24 L502.115 1280.21 L502.862 1280.7 L506.188 1280.06 L506.927 1279.33 L507.851 1279.05 L508.752 1279.5 L513.968 1278.56 L519.692 1276.85 L522.251 1276.69 L523.518 1275.91 L527.934 1274.84 L531.206 1273.44 L535.627 1272.98 L540.12 1271.46 L545.084 1270.74 L548.381 1269.66 L558.733 1267.32 L560.427 1268.15 L562.267 1267.84 L564.055 1266.32 L570.769 1264 L572.518 1263.64 L574.207 1263.69 L581.201 1262.38 L585.169 1260.94 L587.221 1261.09 L592.27 1260.26 L593.888 1260.32 L604.464 1257.54 L606.344 1258.15 L608.188 1258.26 L609.947 1257.11 L617.02 1255.33 L625.797 1253.86 L627.602 1253.07 L631.01 1252.85 L637.754 1251.35 L641.523 1251.11 L647.083 1249.81 L652.087 1249.29 L658.896 1247.99 L660.53 1246.96 L662.241 1246.63 L663.913 1247.13 L665.607 1247.01 L670.624 1246.24 L672.094 1245.51 L673.746 1245.16 L675.452 1245.41 L680.041 1244.69 L681.596 1245.26 L683.145 1245.17 L684.729 1244.25 L690.663 1242.48 L693.714 1242.43 L696.857 1241.65 L700.529 1241.23 L703.682 1240.25 L714.884 1238.28 L718.855 1237.26 L720.266 1237.53 L721.631 1237.33 L722.948 1236.53 L724.309 1236.18 L734.712 1234.09 L735.851 1232.98 L737.028 1232.61 L738.19 1233.21 L739.416 1233.11 L745.378 1231.81 L750.108 1231.12 L751.255 1231.26 L759.226 1228.55 L761.603 1229.31 L762.809 1228.51 L766.382 1227.31 L768.58 1225.73 L769.78 1226.33 L771.148 1226.36 L776.161 1225.83 L778.558 1224.62 L780.727 1223.97 L784.051 1223.82 L786.075 1222.81 L790.585 1221.6 L792.735 1221.56 L794.46 1221.16 L796.566 1219.17 L797.516 1219.94 L798.573 1220.13 L806.986 1217.85 L807.834 1218.62 L808.866 1218.47 L809.749 1217.35 L812.878 1216.49 L813.97 1215.51 L814.951 1215.5 L815.843 1216.24 L820.796 1214.69 L821.713 1214.82 L825.279 1214.14 L829.179 1212.53 L829.824 1213.49 L830.515 1213.8 L831.134 1212.7 L833.077 1212.19 L833.723 1211.31 L834.439 1211.01 L834.901 1211.79 L835.418 1211.89 L836.6 1211.82 L837.635 1211.1 L840.772 1211.46 L841.386 1210.74 L843.509 1210.57 L843.74 1209.89 L844.177 1209.67 L844.909 1210.49 L845.63 1209.78 L845.824 1211.06 L846.117 1209.51 L846.017 1210.44 L846.019 1210.09 L845.734 1210.22 L845.747 1211.25 L845.664 1209.62 L845.009 1210.91 L844.729 1210.22 L843.699 1211.26 "
     id="path98" />
</g>
<g
   id="g104">
  <path
     fill="none"
     stroke="#000000"
     stroke-width="4"
     stroke-linecap="butt"
     stroke-linejoin="round"
     d="M847.198 1196.82 L846.87 1196.39 L846.208 1196.73 L845.439 1196.58 L845.076 1197.17 L845.048 1196.64 L844.547 1196.37 L844.17 1196.98 L843.575 1196.75 L843.192 1197.58 L842.934 1197.22 L842.483 1198.23 L842.323 1197.9 L841.968 1198.15 L841.874 1197.9 L841.698 1198.81 L841.569 1198.53 L841.643 1200.71 L841.854 1200.26 L842.98 1201.99 L843.298 1202.3 L843.511 1201.9 L843.815 1203.15 L847.007 1205.27 L847.746 1206.47 L848.247 1206.83 L848.72 1206.54 L849.68 1207.18 L850.126 1206.94 L850.478 1207.17 L851.305 1209.1 L851.848 1209.04 L852.009 1209.32 L852.451 1211.09 L852.414 1212.72 L851.498 1214.78 L851.216 1214.63 L850.236 1216.21 L849.806 1215.91 L849.464 1216.39 L849.059 1217.72 L847.379 1220.3 L844.773 1222.1 L843.849 1223.53 L843.385 1223.34 L841.483 1225.38 L840.782 1225.64 L840.252 1227.21 L840.319 1226.42 L840.773 1227.48 L841.113 1227.23 "
     id="path102" />
</g>
<g
   id="g108">
  <path
     fill="none"
     stroke="#000000"
     stroke-width="4"
     stroke-linecap="butt"
     stroke-linejoin="round"
     d="M490.675 1268.8 L491.009 1267.63 L490.688 1267.75 L491.015 1268.52 L490.93 1267.24 L490.798 1268.35 L490.568 1268.44 L490.495 1268.15 L490.124 1269.25 L489.908 1268.8 L489.528 1268.83 L488.065 1269.54 L484.777 1273.78 L483.189 1277.46 L481.533 1279.25 L481.149 1280.42 L479.565 1282.84 L477.781 1287.35 L477.751 1290.41 L477.849 1290.62 L478.108 1290.31 L478.087 1290.87 L479.252 1291.91 L479.928 1291.77 L480.534 1292.11 L480.941 1291.87 L481.809 1293.05 L485.326 1292.78 L486.024 1293.49 L486.754 1293.69 L487.361 1293.5 L492.41 1293.94 L494.743 1294.81 L495.572 1294.36 L496.396 1294.47 L498.473 1294.86 L502.452 1296.43 L503.178 1296.27 "
     id="path106" />
</g>
</svg>
