<svg width="1404" height="1872" viewBox="0 0 1404 1872" xmlns="http://www.w3.org/2000/svg" xmlns:xlink="http://www.w3.org/1999/xlink"  version="1.2" baseProfile="tiny"><title>applied-hash notes</title>
<g><path fill="none" stroke="#000000" stroke-width="4" stroke-linecap="butt" stroke-linejoin="round" d="M212.002 759.789 L211.451 759.669 L210.593 760.069 L210.581 759.685 L209.998 759.646 L209.788 760.063 L209.553 759.36 L209.63 760.331 L209.372 759.892 L209.746 760.543 L209.533 759.92 L209.753 759.274 L209.759 760.166 L210.322 759.956 L211.677 760.545 L212.024 760.135 L213.51 759.996 L213.917 760.408 L214.593 760.476 L216.231 760.024 L216.641 759.294 L218.487 760.394 L220.125 760.576 L221.351 760.179 L223.317 760.312 L223.903 761.042 L224.972 761.128 L225.683 760.354 L227.092 760.006 L227.74 759.195 L229.095 760.491 L229.903 760.111 L233.037 759.74 L236.927 760.477 L238.373 759.711 L239.79 759.496 L241.027 760.448 L243.493 759.424 L244.955 759.943 L247.06 760.016 L247.601 759.775 L248.076 760.207 L248.434 759.733 L248.847 759.838 L249.055 760.558 L249.566 759.379 L249.577 760.107 L250.156 760.11 L249.677 760.277 L249.959 760.183 L250.074 760.718 L249.834 760.29 "/></g><g><path fill="none" stroke="#000000" stroke-width="4" stroke-linecap="butt" stroke-linejoin="round" d="M209.03 762.21 L208.199 761.781 L208.354 761.541 L208.539 761.748 L208.268 761.854 L208.28 761.234 L208.037 761.113 L207.957 761.571 L208.251 761.643 L208.139 761.05 L207.749 761.144 L207.904 760.07 L207.645 760.293 L207.98 760.758 L207.716 761.128 L208.093 761.109 L208.076 760.836 L207.861 761.658 L207.915 760.521 L208.102 761.668 L208.134 760.695 L208.052 761.22 L208.821 761.434 L209.034 762.355 L209.718 762.151 L210.895 763.007 L212.201 763.516 L212.803 763.42 L213.554 764.382 L215.535 765.494 L215.735 766.488 L216.369 766.599 L216.415 765.716 L216.145 765.8 L216.675 765.595 L216.69 764.547 L216.642 765.928 L216.493 765.73 L216.389 766.09 L216.285 765.545 L216.236 766.599 L216.122 765.806 L215.491 765.34 L215.304 764.395 L214.691 764.029 L214.373 764.625 L213.484 764.627 L212.584 763.576 L211.465 763.292 L211.101 762.043 L210.843 762.299 L210.546 761.868 L210.346 760.748 L210.593 761.463 L210.292 761.521 L210.262 760.805 L210.26 761.417 L210.625 761.505 L210.557 760.879 L210.048 760.526 L210.134 759.4 L210.483 759.755 L210.518 758.934 L211.187 758.587 L211.357 758.028 L211.102 757.662 L211.342 757.109 L212.006 756.806 L212.118 755.998 L212.749 755.367 L212.891 755.74 L213.992 754.078 L214.249 753.917 L214.383 754.272 L215.246 753.713 L215.638 752.813 L216.319 753.373 L216.828 753.223 L216.487 752.855 L216.976 752.729 L218.082 753.115 L218.669 751.976 L219.439 752.364 L219.747 752.005 L220.648 752.316 L220.861 752.848 L221.426 752.808 L221.821 752.055 L222.034 752.214 L222.294 751.941 L222.471 752.258 "/></g><g><path fill="none" stroke="#000000" stroke-width="4" stroke-linecap="butt" stroke-linejoin="round" d="M253.526 745.474 L253.629 744.965 L253.301 745.253 L253.644 744.934 L253.646 744.195 L253.393 742.334 L253.23 742.542 L253.685 742.509 L253.627 742.249 L253.366 742.33 L253.474 742.796 L253.331 742.369 L253.445 743.375 L253.739 743.535 L253.803 742.899 L253.379 742.881 L253.151 746.214 L252.356 750.131 L252.392 755.796 L251.965 756.975 L251.935 757.885 L252.165 757.948 L251.713 760.291 L252.076 765.613 L252.041 774.074 L252.681 777.157 L252.477 778.085 L252.845 778.847 L252.742 779.96 L253.199 780.081 L252.839 780.435 L252.824 780.097 L253.05 781.232 L253.156 780.776 L252.796 780.812 L252.931 780.034 L252.969 780.839 L252.727 780.562 L252.899 780.284 L253.028 780.494 L252.607 780.776 L252.952 779.823 L253.153 779.57 L253.261 779.869 "/></g><g><path fill="none" stroke="#000000" stroke-width="4" stroke-linecap="butt" stroke-linejoin="round" d="M254.874 738.701 L253.971 737.901 L253.76 737.923 L253.913 738.367 L254.25 737.92 L254.106 738.248 L254.126 737.929 L253.868 737.943 L253.877 737.289 L254.066 738.45 L254.05 737.241 L254.235 738.494 L254.549 737.549 L254.288 738.179 L254.374 737.726 L255.633 737.704 L256.26 738.333 L256.829 738.412 L257.606 737.406 L258.49 737.601 L260.854 736.598 L261.925 736.866 L264.425 736.008 L265.711 736.351 L267.741 735.449 L269.117 735.531 L272.275 734.5 L273.001 733.686 L273.662 733.665 L274.179 734.262 L275.425 734.303 L276.772 734.125 L277.568 733.391 L278.564 733.297 L279.132 733.866 L280.727 733.645 L281.355 733.866 L284.261 733.066 L285.833 733.522 L286.345 733.131 L290.401 733.126 L292.304 733.859 L293.005 734.501 L293.245 733.951 L294.259 733.829 L294.521 734.623 L295.314 734.002 L295.44 734.457 L296.832 734.633 L296.979 735.044 L297.104 734.62 L297.622 734.787 L297.688 734.431 L298.063 735.247 L298.398 734.298 L298.964 735.748 L299.208 735.77 L299.279 735.32 L299.677 735.272 L299.999 735.691 L299.97 735.403 L300.481 735.318 L301.027 735.781 L301.659 735.704 L302.104 736.617 L302.461 736.073 L302.675 736.746 L302.7 735.77 L302.723 736.395 L303.128 736.453 L302.791 736.944 L302.812 736.222 L302.697 737.579 L303.689 749.549 L303.229 752.506 L303.613 754.865 L303.3 760.271 L303.437 759.88 L303.658 762.108 L303.543 765.18 L303.891 766.478 L303.58 769.523 L303.793 769.374 L303.969 770.099 L303.906 772.903 L304.246 773.024 L304.269 776.823 L304.632 777.16 L304.812 776.918 L304.441 777.409 L304.48 777.829 L304.806 778.013 L304.807 777.772 L304.412 778.291 L304.619 780.078 L304.611 779.508 L304.29 779.729 L304.528 779.605 L304.69 780.261 L304.637 779.944 L304.412 779.963 L304.397 779.273 L304.333 780.582 L304.597 781.205 L304.065 782.089 L304.396 781.601 L304.243 783.095 L304.598 783.976 L304.514 783.325 L304.235 783.26 L304.116 783.978 L304.537 783.961 L304.549 783.542 L304.161 783.707 L304.183 784.233 L303.841 783.91 L304.146 784.916 L304.171 784.533 L304.008 783.95 L303.874 785.389 L304.168 784.594 L303.909 784.384 L303.867 784.786 L303.801 783.619 L303.942 785.231 L303.956 785.011 L303.68 785.197 L303.757 785.542 L304.192 785.478 L304.156 785.066 L303.613 785.37 L303.6 784.89 L303.533 785.341 L303.609 784.526 L303.622 785.221 L303.463 785.039 L303.737 784.749 L303.734 785.627 L303.643 784.03 L303.562 785.198 L302.309 785.069 L302.232 785.666 L302.21 785.255 L301.45 785.091 L300.801 785.477 L299.21 784.325 L298.491 785.359 L297.392 785.381 L296.286 785.881 L296.024 785.612 L294.969 785.587 L294.652 786.41 L294.224 786.639 L293.65 785.811 L292.215 785.663 L291.79 785.168 L291.206 786.35 L290.902 786 L286.972 786.134 L286.595 786.482 L284.762 786.099 L283.116 786.372 L279.675 785.56 L278.538 786.098 L273.265 785.627 L271.8 786.264 L270.648 785.431 L269.023 785.535 L268.542 785.039 L266.821 784.996 L266.546 784.214 L266.05 783.877 L265.64 784.529 L263.126 784.394 L262.416 783.558 L261.551 783.339 L261.174 783.738 L260.724 783.71 L260.32 783.115 L259.189 782.655 L258.844 782.064 L258.33 782.516 L258.315 783.088 L258.036 782.571 L256.348 781.814 L255.849 782.292 L254.971 781.906 L253.906 782.161 L253.521 781.676 L252.967 781.69 L252.403 782.226 L251.602 781.634 L249.977 781.877 L249.343 782.527 L249.371 782.223 "/></g><g><path fill="none" stroke="#000000" stroke-width="4" stroke-linecap="butt" stroke-linejoin="round" d="M308.195 762.21 L307.56 762.036 L307.65 761.574 L307.087 761.719 L307.268 761.572 L306.814 761.103 L307.044 761.892 L306.626 760.979 L306.578 761.422 L306.599 761.115 L306.523 761.427 L306.509 761.049 L306.228 761.145 L306.486 761.311 L306.464 760.971 L306.583 761.639 L306.196 761.186 L306.203 760.279 L306.255 761.038 L306.2 760.513 L306.586 760.993 L306.297 760.986 L306.27 761.595 L306.105 760.073 L306.247 760.808 L306.667 761.105 L306.619 760.648 L306.386 761.758 L306.505 761.084 L306.78 761.046 L306.558 760.857 L306.489 761.419 L307.152 761.081 L307.396 761.862 L307.79 762 L308.055 761.235 L308.616 761.163 L308.973 760.556 L309.715 761.28 L310.627 761.427 L311.014 760.88 L311.715 760.796 L312.134 761.341 L314.149 761.917 L314.782 761.581 L316.756 761.548 L317.247 762.464 L317.967 762.703 L318.466 761.791 L320.458 761.785 L321.138 761.279 L321.901 761.234 L323.01 762.11 L324.46 762.516 L326.425 762.146 L327.155 762.432 L329.341 762.4 L329.948 762.834 L330.654 762.869 L331.363 762.434 L332.961 762.422 L333.422 761.821 L334.918 763.38 L335.502 762.698 L337.266 762.307 L338.821 762.573 L339.216 762.279 L342.394 762.097 L342.781 762.206 L342.998 762.828 L343.393 762.805 L343.611 762.093 L344.285 762.043 L344.648 761.246 L344.746 761.677 L345.629 762.096 L346.446 761.428 L346.496 762.029 L347.073 762.021 L347.057 762.884 L347.413 762.041 L347.184 761.321 L347.611 761.939 L347.256 761.686 L347.294 762.114 L347.12 761.94 L347.281 762.815 L347.285 761.209 L347.567 761.114 L347.417 761.759 L346.793 761.885 L347.062 761.928 L346.887 761.519 L347.169 762.542 L346.766 761.046 "/></g><g><path fill="none" stroke="#000000" stroke-width="4" stroke-linecap="butt" stroke-linejoin="round" d="M317.555 749.175 L317.264 749.052 L317.631 749.255 L317.518 748.505 L317.493 749.042 L317.202 748.928 L317.302 749.625 L317.108 749.096 L316.555 749.315 L316.386 748.976 L316.127 749.034 L316.172 749.445 L316.409 749.316 L315.844 749.643 L315.71 749.075 L315.234 749.878 L313.699 750.214 L313.326 751.595 L312.715 751.155 L311.96 751.836 L309.561 752.642 L308.674 753.694 L305.791 755.347 L304.564 756.956 L304.194 756.763 L303.314 757.657 L302.966 757.258 L302.522 758.685 L300.472 760.153 L300.48 761.773 L300.344 761.206 L300.034 761.322 L299.913 761.075 L299.823 762.05 L299.707 760.935 L300.107 762.454 L300.157 761.962 L299.898 761.946 L300.184 761.958 L300.086 761.23 L301.009 763.171 L301.934 763.616 L302.418 764.723 L302.689 764.579 L303.441 765.013 L303.71 764.07 L304.16 764.472 L304.667 766.532 L306.979 768.39 L307.459 769.594 L307.593 769.3 L308.472 770.013 L308.715 769.651 L309.463 771.238 L309.977 771.303 L310.647 771.969 L311.157 771.427 L312.469 774.505 L312.766 773.857 L313.176 774.559 L313.594 774.501 L313.877 775.187 L313.948 774.824 L313.611 774.814 L313.825 775.229 L314.273 775.277 L314.034 775.321 L314.182 775.745 L314.836 775.876 "/></g><g><path fill="none" stroke="#000000" stroke-width="4" stroke-linecap="butt" stroke-linejoin="round" d="M354.387 737.132 L353.93 736.486 L353.985 736.242 L354.083 736.739 L354.038 736.319 L354.521 736.864 L354.192 736.446 L354.077 736.676 L354.241 737.803 L354.101 738.083 L353.977 737.537 L353.782 741.998 L353.475 743.004 L353.236 749.091 L353.395 756.118 L353.034 759.472 L353.26 772.009 L353.608 774.684 L353.427 776.93 L353.565 776.494 L353.812 776.782 L353.816 777.542 L353.286 778.238 L353.633 778.334 L353.837 779.57 L353.823 778.781 L353.345 778.609 L353.736 778.674 L353.618 778.118 L353.667 779.199 L353.615 777.849 L353.373 777.718 L353.437 778.243 L353.753 778.393 L353.446 778.357 L353.428 778.61 L353.559 778.155 L353.202 777.738 L353.502 777.045 L353.401 774.673 L353.726 774.164 "/></g><g><path fill="none" stroke="#000000" stroke-width="4" stroke-linecap="butt" stroke-linejoin="round" d="M356.323 735.864 L355.71 735.668 L355.783 735.443 L355.636 735.648 L355.504 735.266 L355.173 735.304 L355.254 735.546 L355.19 734.968 L355.449 735.383 L355.586 734.844 L355.881 734.93 L355.874 735.28 L355.497 735.318 L355.788 734.939 L356.066 735.821 L356.454 735.92 L356.839 734.897 L357.199 734.737 L357.53 735.11 L359.017 734.641 L359.43 733.969 L359.609 734.387 L360.728 734.715 L363.277 734.194 L364.031 734.891 L364.564 734.518 L365.875 734.435 L366.839 734.635 L367.862 734.411 L368.891 734.767 L369.774 733.855 L370.253 734.555 L372.762 735.007 L375.695 734.793 L376.785 735.238 L377.389 734.822 L379.089 734.729 L379.815 734.116 L380.443 734.176 L380.917 734.836 L382.464 735.244 L383.827 734.445 L384.436 735.126 L386.106 735.335 L386.618 736.158 L387.066 736.233 L387.421 735.604 L388.989 735.444 L389.439 736.137 L389.762 735.761 L391.988 736.504 L392.437 736.345 L392.755 736.861 L393.26 736.817 L393.509 737.376 L393.805 737.433 L393.646 736.917 L393.874 736.77 L394.275 737.559 L394.38 737.188 L394.771 737.238 L394.936 736.665 L394.893 737.768 L395.082 738.3 L395.195 737.886 L394.932 738.089 L394.974 737.682 L395.332 738.914 L394.622 741.812 L394.913 741.688 L394.928 741.91 L394.662 744.914 L394.769 750.156 L395.302 755.369 L395.411 762.472 L395.774 764.396 L395.745 777.354 L396.127 783.322 L395.994 783.526 L395.821 783.269 L395.858 784.283 L395.948 783.645 L395.718 783.725 L395.838 783.205 L396.042 783.275 L395.772 784.25 L395.884 783.759 L395.61 783.79 L395.433 783.112 L395.74 783.869 L395.846 783.381 L395.785 784.456 L395.701 783.813 L395.644 784.32 L395.688 784.087 L395.326 784.32 L395.318 785.08 L394.995 783.921 L394.866 784.559 L394.141 785.027 L393.964 784.801 L393.879 785.705 L393.694 785.17 L393.111 784.914 L392.748 785.532 L392.605 784.85 L392.039 786.532 L391.728 785.622 L391.492 786.337 L391.051 785.936 L390.601 786.42 L389.953 785.763 L389.806 786.338 L389.458 786.14 L388.922 786.811 L388.69 786.211 L386.921 786.345 L385.838 785.655 L385.434 786.251 L382.421 786.215 L380.697 786.541 L380.102 787.154 L379.354 787.105 L378.804 786.519 L376.49 786.988 L375.025 786.853 L371.839 787.606 L371.26 787.034 L370.016 787.689 L367.995 787.974 L367.39 788.573 L366.741 788.723 L366.068 788.141 L363.436 787.569 L362.288 787.963 L359.972 787.503 L359.677 786.864 L359.223 786.825 L358.759 787.274 L357.412 787.226 L356.533 786.779 L355.046 786.948 L354.685 787.493 L353.755 786.415 L353.107 786.202 "/></g><g><path fill="none" stroke="#000000" stroke-width="4" stroke-linecap="butt" stroke-linejoin="round" d="M353.365 775.89 L353.839 775.438 L353.556 775.6 L353.892 776.116 L353.958 775.383 L353.774 775.628 L354.064 775.264 L353.762 775.631 L354.047 775.631 L353.871 776.074 L354.009 775.889 L354.151 776.262 L353.957 776.13 L353.848 776.912 L353.328 777.613 L353.537 778.146 L353.266 780.836 L353.649 780.664 L353.775 780.967 L353.754 781.617 L353.435 781.65 L353.943 783.175 L354.18 783.236 L354.123 782.815 L354.317 783.207 L354.764 782.89 L354.932 783.214 L355.394 783.217 "/></g><g><path fill="none" stroke="#000000" stroke-width="4" stroke-linecap="butt" stroke-linejoin="round" d="M398.575 759.754 L398.312 758.923 L398.339 759.398 L398.234 759.067 L398.029 759.215 L398.412 759.517 L398.199 758.675 L398.41 760.184 L398.6 758.959 L398.496 759.326 L398.816 759.656 L398.929 759.024 L399.246 759.494 L400.015 759.254 L400.512 758.685 L400.646 759.186 L401.57 759.34 L402.381 759.045 L403.444 759.299 L403.874 759.98 L404.386 760.064 L404.744 759.443 L407.078 759.733 L409.397 759.616 L410.044 759.292 L411.456 759.949 L414.043 759.611 L414.753 759.906 L417.303 759.906 L418.663 760.586 L419.381 760.167 L421.263 759.89 L421.935 759.063 L422.611 759.323 L423.175 760.213 L427.485 759.853 L428 760.177 L429.621 760.083 L430.211 760.697 L430.814 760.755 L431.403 760.235 L433.378 759.986 L434.394 760.7 L434.808 760.415 L436.1 760.667 L437 760.181 L438.241 760.888 L439.37 760.557 L440.037 761.62 L440.367 761.576 L440.417 760.898 L440.931 760.691 L441.369 761.133 L442.358 760.955 L442.602 760.36 L443.052 761.012 L444.293 761.231 L445.274 760.905 L445.453 761.733 L445.969 761.898 L446.612 759.997 L447.022 761.038 L447.781 760.18 L447.939 760.769 L448.364 760.732 L448.621 761.325 L449.066 760.379 L449.242 761.277 L449.688 760.565 L450.225 760.598 L450.108 760.96 L450.008 759.994 L449.811 761.816 L449.634 760.223 L449.515 760.818 L449.355 760.155 L449.017 760.669 L448.042 760.735 "/></g><g><path fill="none" stroke="#000000" stroke-width="4" stroke-linecap="butt" stroke-linejoin="round" d="M399.872 758.184 L399.09 757.991 L399.198 757.703 L398.971 758.068 L398.947 757.734 L399.226 758.052 L398.978 757.876 L399.16 757.226 L399.306 758.667 L399.423 758.402 L399.679 758.898 L399.796 758.696 L400.214 760.406 L400.486 760.489 L400.663 762.241 L401.841 765.107 L402.05 767.062 L402.474 767.812 L402.684 767.398 L402.924 769.705 L402.817 768.729 L402.765 769.6 L402.473 769.467 L401.809 767.359 L401.572 767.334 L401.555 767.726 L400.132 764.144 L399.888 764.357 L399.938 762.895 L399.32 760.881 L399.248 761.578 L399.054 761.443 L399.167 757.568 L399.622 757.293 L400.29 755.29 L400.533 756.136 L401.637 755.639 L402.385 755.674 L402.948 756.375 L403.081 755.611 L404.158 755.266 L404.371 754.62 L405 755.607 L405.273 755.287 L406.768 755.261 L407.468 754.918 L408.486 755.487 L409.79 754.484 L410.443 755.435 L410.487 754.88 L411.512 753.955 L411.961 753.889 L412.117 754.538 L412.879 754.74 L413.505 753.863 L414.098 754.692 L415.237 754.886 "/></g><g><path fill="none" stroke="#000000" stroke-width="4" stroke-linecap="butt" stroke-linejoin="round" d="M452.747 736.675 L452.529 736.503 L452.333 736.819 L452.574 736.82 L452.507 736.201 L452.177 736.334 L452.493 736.503 L452.333 736.015 L452.563 736.419 L452.705 736.19 L452.754 736.917 L452.897 736.232 L452.627 736.145 L452.582 736.698 L452.907 737.432 L453.171 741.369 L453.376 754.406 L452.763 761.705 L452.815 765.256 L452.394 766.823 L451.429 775.309 L451.359 780.397 L451.478 781.235 L451.476 780.508 L451.688 780.719 L451.401 780.765 L451.557 780.189 L451.472 781.081 L451.278 780.03 L451.198 779.13 L451.685 777.22 "/></g><g><path fill="none" stroke="#000000" stroke-width="4" stroke-linecap="butt" stroke-linejoin="round" d="M456.335 736.705 L456.055 737.055 L455.793 736.635 L455.91 735.983 L455.623 735.6 L455.38 735.849 L454.749 734.503 L454.956 735.312 L454.679 734.991 L454.914 734.859 L454.942 735.138 L454.919 734.786 L454.979 735.199 L455.216 734.269 L454.838 734.847 L455.479 734.736 L455.517 733.233 L455.65 734.282 L456.009 734.385 L456.486 733.887 L456.918 734.376 L457.716 733.255 L457.964 733.906 L459.195 733.881 L459.358 733.354 L459.752 733.372 L460.216 733.789 L462.378 734.434 L462.97 733.98 L465.142 733.615 L466.469 734.114 L467.287 733.629 L474.435 733.259 L477.09 732.634 L478.142 733.384 L478.739 732.802 L481.54 732.947 L483.921 732.714 L484.427 732.314 L485.361 732.969 L489.77 733.302 L490.578 734.187 L490.791 733.667 L491.442 733.946 L491.669 733.349 L491.999 733.359 L492.233 734.069 L493.203 734.382 L493.533 733.847 L494.263 734.816 L494.732 734.317 L494.645 734.787 L495.015 734.755 L495.123 735.552 L495.334 735.54 L495.26 735.07 L494.96 735.084 L495.421 734.924 L494.933 735.434 L495.406 735.166 L495.174 735.843 L494.848 735.929 L495.546 735.319 L495.866 739.433 L495.886 777.707 L496.155 778.646 L495.971 786.514 L495.87 787.14 L495.818 786.727 L495.738 787.168 L495.596 786.985 L495.954 787.542 L495.792 786.612 L495.498 787.705 L495.706 786.513 L495.549 788.545 L495.716 787.013 L495.296 786.273 L494.77 787.4 L494.169 787.162 L493.889 787.587 L493.632 787.201 L491.638 787.089 L491.254 786.156 L491.027 786.877 L490.122 786.887 L489.793 787.575 L489.133 787.701 L488.774 786.818 L488.076 786.487 L486.88 786.558 L485.618 787.246 L485.085 786.722 L482.553 786.419 L478.796 786.846 L477.325 786.476 L475.771 786.923 L473.125 787.135 L472.37 788.162 L471.507 788.497 L470.795 787.6 L470.067 787.422 L468.997 787.378 L467.529 787.868 L466.431 787.52 L465.134 787.756 L464.492 787.124 L463.789 787.071 L463.197 787.71 L462.541 787.827 L460.932 787.587 L460.228 787.786 L458.711 787.299 L457.553 787.727 L456.789 787.255 L455.822 787.156 L455.158 787.53 L454.353 787.292 L454.094 786.479 L453.757 786.378 L453.669 787.253 L452.706 787.667 L452.581 788.119 L452.203 788.153 L451.863 787.564 L451.21 787.38 L447.433 787.674 "/></g><g><path fill="none" stroke="#000000" stroke-width="4" stroke-linecap="butt" stroke-linejoin="round" d="M499.306 758.728 L498.909 758.603 L498.814 757.947 L498.443 758.01 L498.484 758.453 L497.724 758.327 L497.415 757.962 L497.076 758.368 L496.8 757.728 L496.803 758.506 L496.74 757.255 L497.253 758.548 L497.363 757.387 L497.413 757.823 L498.185 758.117 L499.663 757.799 L501.186 758.273 L503.12 757.444 L504.583 757.787 L505.022 757.378 L505.622 757.422 L506.125 757.868 L508.403 757.669 L509.818 757.192 L512.546 757.153 L513.093 757.987 L513.868 758.104 L514.558 757.093 L516.752 756.518 L517.451 756.037 L518.265 756.048 L519.084 756.55 L523.185 755.662 L528.516 755.389 L532.024 754.605 L533.126 755.417 L533.763 754.942 L536.276 754.308 L536.626 754.737 L537.918 754.985 L538.562 754.378 L538.833 754.857 L539.825 754.822 L540.256 755.259 L540.432 754.971 L540.604 755.601 L540.561 755.129 L540.334 755.217 L540.507 754.632 L540.451 756.111 L540.467 754.796 L540.503 755.525 L540.374 754.97 L540.272 755.459 L540.443 754.925 L540.223 755.396 L539.948 754.533 L540.022 755.843 L539.784 755.218 L539.711 756.022 L539.294 756.182 L539.175 755.477 L538.749 755.529 L538.569 755.04 "/></g><g><path fill="none" stroke="#000000" stroke-width="4" stroke-linecap="butt" stroke-linejoin="round" d="M509.45 745.173 L509.644 745.007 L509.151 745.044 L509.414 745.454 L509.44 744.787 L508.836 746.064 L508.646 746.159 L508.577 745.691 L508.515 746.47 L507.61 747.262 L506.861 749.572 L506.721 749.089 L505.785 749.648 L505.488 750.984 L504.866 751.171 L504.569 751.768 L504.392 751.587 L502.768 754.359 L501.977 754.645 L501.624 755.83 L501.577 755.469 L501.33 755.577 L500.934 756.32 L500.317 756.613 L499.511 758.082 L499.342 757.671 L499.267 758.705 L499.031 757.263 L499.476 758.141 L499.217 758.616 L499.146 758.17 L499.298 758.756 L499.436 758.278 L499.323 759.093 L499.665 758.469 L499.818 760.081 L500.277 759.916 L500.905 761.185 L501.015 760.715 L501.355 761.237 L501.748 760.857 L502.546 762.005 L503.251 761.915 L503.878 762.824 L505.538 763.162 L506.267 764.048 L506.438 763.706 L507.202 763.841 L507.526 762.857 L507.949 762.824 L508.125 763.892 L509.691 764.498 L509.968 764.246 L510.768 764.459 L510.889 765.035 "/></g><g><path fill="none" stroke="#000000" stroke-width="4" stroke-linecap="butt" stroke-linejoin="round" d="M545.545 740.157 L544.866 739.876 L544.814 739.005 L544.511 739.292 L544.109 738.892 L544.279 739.648 L544.25 739.018 L544.002 738.94 L544.282 737.909 L544.186 739.075 L544.036 738.828 L544.341 738.937 L544.324 739.274 L544.127 739.006 L544.465 740.965 L544.502 744.377 L544.878 746.038 L544.751 751.522 L545.008 753.968 L543.925 767.723 L543.982 773.016 L544.248 778.212 L544.562 779.929 L544.793 780.033 L544.805 779.793 L544.698 779.042 L544.357 779.646 L544.952 778.317 L545.293 775.645 "/></g><g><path fill="none" stroke="#000000" stroke-width="4" stroke-linecap="butt" stroke-linejoin="round" d="M544.247 738.104 L543.766 738.217 L543.689 737.75 L543.516 738.154 L542.994 738.268 L542.769 737.976 L542.683 738.39 L542.584 737.553 L542.394 738.211 L542.269 737.73 L542.399 738.231 L542.602 737.766 L542.215 737.607 L542.565 738.587 L542.591 738.146 L542.354 738.107 L542.689 738.215 L542.704 737.756 L542.684 738.218 L543.023 737.715 L543.637 738.232 L543.772 737.991 L543.838 738.567 L544.204 738.786 L544.477 738.189 L545.23 738.018 L545.356 738.597 L545.695 738.71 L546.031 737.958 L546.691 737.93 L547.311 737.133 L547.868 737.651 L549.462 737.725 L549.919 737.401 L550.746 737.546 L551.649 737.257 L552.546 737.685 L555.1 736.41 L556.224 737.103 L557.183 736.548 L561.171 736.108 L562.864 735.475 L564.166 736.091 L565.075 735.218 L566.304 734.95 L567.519 735.417 L567.711 734.87 L568.11 734.804 L568.372 735.225 L569.446 735.496 L569.958 735.304 L570.283 736.133 L570.351 735.548 L570.786 735.618 L570.896 735.096 L571.576 735.889 L571.75 735.167 L572.029 736.596 L572.132 735.795 L572.502 735.921 L572.502 735.546 L572.716 736.202 L573.352 735.974 L573.622 735.361 L573.833 736.066 L574.601 735.884 L574.845 736.368 L575.201 735.928 L576.183 736.156 L576.359 735.735 L576.609 736.347 L579.184 736.497 L579.345 736.105 L579.751 736.558 L579.936 736.297 L580.387 736.58 L580.48 737.156 L580.74 736.447 L581.021 737.015 L580.967 736.631 L581.433 736.965 L581.466 737.598 L581.559 736.999 L581.969 738.937 L581.816 740.228 L583.019 755.149 L583.075 765.653 L583.187 766.327 L583.337 765.511 L583.594 767.403 L583.221 770.949 L583.362 772.532 L583.771 773.001 L583.736 775.812 L583.494 775.845 L583.818 776.675 L583.85 776.203 L583.88 779.572 L584.099 779.802 L584.181 779.124 L584.138 781.425 L584.371 781.682 L584.152 782.537 L584.26 781 L584.356 782.139 L583.939 781.819 L584.341 782.735 L584.037 781.409 L583.982 782.278 L583.986 781.077 L584.043 782.994 L583.987 780.708 L583.709 782.003 L583.968 782.249 L583.662 781.931 L583.814 781.452 L583.8 782.36 L583.562 781.649 L583.255 782.512 L583.288 781.225 L583.294 781.838 L582.95 781.985 L583.125 781.654 "/></g><g><path fill="none" stroke="#000000" stroke-width="4" stroke-linecap="butt" stroke-linejoin="round" d="M544.045 782.206 L543.828 782.217 L544.064 781.873 L544.012 782.339 L544.055 781.976 L543.628 782.011 L543.91 781.903 L543.853 781.556 L543.598 782.05 L543.72 781.659 L543.23 781.431 L543.447 781.396 L543.184 780.845 L543.344 781.627 L542.955 781.06 L543.017 781.502 L543.177 780.633 L543.452 781.513 L543.265 781.24 L543.535 781.039 L543.355 781.522 L543.709 780.975 L544.622 781.157 L544.846 781.697 L545.243 781.672 L545.418 781.064 L545.724 780.977 L546.355 780.945 L546.975 781.33 L547.491 780.919 L548.124 781.017 L548.359 780.437 L548.964 781.335 L551.526 781.071 L553.841 781.239 L553.993 782.02 L554.655 782.233 L555.328 781.612 L557.24 781.525 L557.931 781.189 L560.491 781.751 L562.221 781.252 L562.502 781.562 L564.609 781.819 L567.468 781.347 L568.199 781.595 L569.781 781.265 L571.379 781.521 L571.607 781.208 L573.744 782.122 L574.133 782.032 L574.287 781.596 L576.152 781.892 L576.843 781.872 L577.114 781.538 L577.727 782.024 L579.334 781.628 L579.441 781.924 L580.372 781.987 L580.629 782.779 L581.214 782.869 L581.704 782.003 L582.317 781.927 L582.847 782.439 L583.122 782.163 L583.729 782.231 L583.893 781.151 L584.352 782.128 L585.096 782.75 L585.908 782.328 L585.912 782.61 L586.447 782.596 L586.611 782.224 L586.986 782.596 L587.121 781.989 L587.293 783.253 L587.425 782.717 L587.193 782.674 L587.456 782.963 L587.489 782.151 L587.702 782.814 L587.708 782.424 L588.073 782.59 "/></g><g><path fill="none" stroke="#bfbfbf" stroke-width="4" stroke-linecap="butt" stroke-linejoin="round" d="M489.189 729.134 L489.326 728.837 L489.701 728.875 L489.69 728.232 L489.799 729.301 L489.921 728.616 L489.87 729.094 L489.637 728.818 L490.129 728.815 L490.22 728.478 L490.088 729.014 L490.747 728.401 L491.193 727.483 L491.352 725.895 L491.481 726.67 L491.822 726.723 L492.698 725.038 L493.602 724.466 L494.203 723.548 L494.466 723.83 L496.464 719.817 L497.074 719.795 L500.081 715.569 L500.592 715.551 L502.106 714.153 L508.931 706.883 L509.588 706.314 L510.142 706.347 L510.701 705.75 L511.313 704.396 L514.313 700.235 L515.599 699.915 L516.79 698.964 L518.921 696.411 L519.497 696.535 L521.286 695.086 L522.39 694.724 L522.893 693.767 L524.611 692.58 L525.096 691.766 L525.875 692.157 L528.4 689.431 L529.731 688.554 L529.906 689.049 L529.692 687.589 L529.778 689.066 L529.994 687.827 L529.788 688.701 L529.786 688.206 L529.49 688.819 L529.129 688.785 L527.842 690.211 "/></g><g><path fill="none" stroke="#bfbfbf" stroke-width="4" stroke-linecap="butt" stroke-linejoin="round" d="M484.426 720.783 L484.432 721.163 L484.852 720.637 L484.872 718.574 L484.836 718.875 L485.16 718.751 L484.759 718.274 L484.878 718.942 L485.161 718.415 L484.822 718.683 L484.839 718.25 L484.907 719.011 L485.041 718.123 L484.878 718.844 L485.109 719.099 L484.845 719.54 L484.993 718.782 L485.126 718.966 L484.834 719.824 L484.778 723.25 L485.109 724.069 L484.74 724.993 L485.742 727.68 L485.728 728.367 L485.976 727.911 L486.632 728.937 L487.06 728.316 L486.981 729.327 L487.662 729.487 L487.986 728.973 L488.235 729.044 L489.046 729.957 L490.176 728.969 L490.766 729.378 L491.578 729.164 L492.218 728.201 L492.581 728.123 L492.683 728.56 L493.528 728.334 L493.69 728.682 L494.308 727.638 L494.986 727.055 L495.806 726.92 L496.372 725.948 L497.85 725.209 L497.984 725.38 L498.758 724.477 L498.885 724.88 L498.67 724.909 "/></g><g><path fill="none" stroke="#bfbfbf" stroke-width="4" stroke-linecap="butt" stroke-linejoin="round" d="M534.204 666.734 L534.368 665.3 L534.396 665.776 L534.43 665.363 L534.825 665.846 L534.526 666.548 L534.578 670.461 L533.531 677.313 L533.11 677.632 L532.93 682.223 L532.509 683.187 L531.869 689.482 L531.842 701.059 L532.417 703.188 L532.432 700.972 L532.332 701.98 L532.059 701.794 L532.446 701.214 L532.795 699.208 "/></g><g><path fill="none" stroke="#bfbfbf" stroke-width="4" stroke-linecap="butt" stroke-linejoin="round" d="M535.396 663.49 L535.073 663.177 L535.371 662.543 L535.146 661.748 L535.326 660.795 L535.545 661.395 L535.711 660.624 L535.586 661.182 L535.772 660.973 L536.046 661.528 L536.093 661.167 L536.834 660.764 L537.338 661.023 L538.506 660.516 L538.851 659.826 L539.297 659.63 L539.62 660.269 L540.658 660.302 L541.736 659.599 L542.236 659.81 L544.31 659.469 L544.96 659.798 L547.235 658.702 L548.64 658.418 L549.423 658.774 L550.277 658.669 L552.082 657.592 L553.568 657.31 L554.675 656.433 L555.393 657.014 L556.33 657.093 L563.219 655.955 L564.758 656.362 L565.371 655.856 L567.999 655.403 L568.97 656.332 L569.575 655.982 L570.832 656.115 L571.677 655.854 L573.271 656.498 L574.471 656.414 L574.937 657.062 L575.452 656.978 L575.481 656.617 L575.618 657.214 L575.645 656.884 L576.477 657.507 L576.663 658.018 L576.867 657.096 L577.397 658.595 L577.219 657.888 L577.361 658.626 L577.055 658.196 L577.235 660.272 L576.877 662.502 L577.048 664.351 L576.813 664.815 L576.746 668.951 L576.184 674.779 L575.575 677.726 L575.037 686.338 L574.835 687.836 L574.597 687.889 L574.514 692.457 L573.754 694.905 L573.535 697.761 L573.668 697.044 L573.408 696.842 L573.154 697.556 L573.19 698.58 L573.074 697.265 L573.057 698.292 L573.09 697.474 L572.869 698.634 L572.864 697.887 L572.819 698.387 L572.705 698.086 L572.616 698.555 L572.334 698.472 L572.364 699.077 L572.094 697.545 L571.979 698.659 L571.824 698.476 L571.283 699.026 L571.201 699.842 L571 699.944 L570.93 698.562 L570.69 699.52 L570.327 698.837 L569.911 700.138 L569.723 699.559 L569.391 700.46 L568.786 699.725 L568.22 700.367 L567.965 699.898 L567.613 700.663 L567.198 700.511 L566.606 701.519 L565.868 700.525 L565.449 701.522 L565.172 701.681 L565.037 701.062 L564.76 701.063 L564.718 701.582 L564.167 701.786 L564.102 702.152 L563.433 701.748 L563.079 701.935 L562.927 701.445 L562.463 702.833 L562.27 702.356 L561.507 702.088 L561.232 702.595 L560.089 703.06 L559.412 702.84 L558.684 702.922 L558.409 703.35 L556.585 703.191 L554.65 703.625 L554.313 703.619 L553.931 702.893 L553.371 702.78 L552.604 703.973 L549.728 704.284 L549.487 705.229 L549.121 705.341 L548.89 704.421 L548.008 704.114 L547.774 703.518 L546.986 704.44 L545.514 704.333 L544.884 703.465 L544.56 704.071 L544.151 704.192 L541.173 703.862 L540.769 703.193 L540.201 703.367 L539.875 703.927 L539.561 703.579 L538.23 703.552 L537.796 702.927 L537.177 702.73 L536.341 703.383 L534.972 703.111 L532.563 703.412 L531.91 703.201 L530.967 703.611 L528.7 703.649 L528.228 703.985 "/></g><g><path fill="none" stroke="#bfbfbf" stroke-width="4" stroke-linecap="butt" stroke-linejoin="round" d="M578.413 671.824 L578.305 671.621 L577.95 671.834 L578.148 671.668 L578.185 672.02 L577.856 671.644 L578.115 671.546 L577.836 671.604 L578.101 671.564 L578.066 671.214 L578.261 671.841 L578.252 671.16 L578.067 671.529 L578.162 671.281 L578.402 671.707 L578.094 671.637 L578.565 671.597 L578.248 672.102 L578.344 671.335 L578.471 671.704 L578.437 671.331 L578.65 671.387 L578.235 671.646 L578.306 672.525 L578.65 671.216 L578.845 672.108 L578.84 671.591 L579.4 671.305 L579.845 670.544 L580.098 671.075 L580.534 671.158 L581.175 670.844 L581.313 670.329 L581.684 670.271 L581.945 670.61 L583.324 670.507 L584.231 669.844 L586.453 669.414 L589.821 668.165 L593.216 667.822 L597.204 666.592 L598.905 666.657 L601.887 665.916 L606.878 665.317 L607.662 664.607 L609.609 665.048 L611.713 664.443 L616.891 663.667 L619.039 663.796 L619.597 663.192 L621.67 662.633 L622.36 661.937 L623.039 661.918 L623.613 662.408 L625.993 662.009 L626.474 661.294 L627.036 661.105 L627.616 661.632 L628.85 661.513 L629.961 661.975 L630.311 661.336 L631.132 661.097 L634.584 660.751 L634.912 660.749 L634.838 660.98 L634.884 660.234 L634.91 660.878 L634.663 660.948 L635.028 661.07 L634.793 661.427 L634.612 660.444 L634.743 661.559 L634.623 660.888 L634.138 661.076 L633.882 660.732 L631.485 661.99 L630.657 661.657 "/></g><g><path fill="none" stroke="#bfbfbf" stroke-width="4" stroke-linecap="butt" stroke-linejoin="round" d="M584.153 660.07 L583.887 659.896 L584.363 660.197 L584.523 659.84 L584.173 659.171 L584.225 659.757 L584.659 659.972 L584.198 659.964 L584.814 660.189 L584.512 659.996 L584.599 659.58 L584.832 660.322 L584.405 660.124 L584.57 659.908 L584.594 660.551 L584.484 660.274 L583.549 661.295 L582.379 661.835 L581.699 662.857 L581.256 663.127 L580.988 662.942 L579.961 663.92 L579.734 663.326 L579.364 663.524 L578.474 665.973 L577.704 666.358 L577.167 667.383 L576.536 667.725 L575.808 669.542 L575.689 669.231 L575.307 669.982 L575.228 669.597 L574.754 670.806 L574.856 671.022 L575.033 670.753 L574.804 671.519 L575.461 672.319 L575.601 671.959 L575.624 672.378 L575.653 671.807 L575.884 671.797 L576 672.907 L577.519 674.014 L577.936 673.818 L581.151 674.799 L583.74 674.998 L584.876 675.291 L585.531 675.946 L585.836 675.436 L587.404 674.922 L587.543 675.463 L588.255 675.83 L588.722 675.543 L589.55 676.78 "/></g><g><path fill="none" stroke="#bfbfbf" stroke-width="4" stroke-linecap="butt" stroke-linejoin="round" d="M638.746 648.802 L638.816 646.728 L638.55 646.789 L638.548 646.368 L639.128 646.601 L639.044 646.347 L638.804 646.369 L639.026 647.357 L638.966 646.709 L638.703 646.614 L639.012 645.872 L638.873 646.675 L639.167 646.732 L638.993 646.849 L638.972 646.244 L638.718 646.358 L638.869 646.94 L639.108 646.834 L638.976 647.287 L638.735 647.114 L638.737 647.94 L638.836 647.259 L638.401 647.27 L638.578 648.284 L638.131 652.403 L637.77 654.197 L637.594 653.967 L637.772 657.899 L637.193 663.271 L637.405 664.962 L637.081 673.418 L637.36 675.985 L637.503 676.158 L637.615 675.887 L637.417 676.42 L637.511 676.741 L637.722 676.583 L637.638 675.856 L637.594 677.174 L637.423 676.22 L637.247 676.354 L637.034 675.8 L637.207 676.164 L636.668 675.742 L636.429 676.125 L636.206 675.869 L636.15 674.113 "/></g><g><path fill="none" stroke="#bfbfbf" stroke-width="4" stroke-linecap="butt" stroke-linejoin="round" d="M640.542 640.141 L640.114 640.086 L640.169 640.318 L640.228 639.691 L640.083 640.358 L639.658 639.724 L639.679 640.94 L639.58 639.678 L639.584 640.145 L639.948 639.939 L639.849 640.679 L640.066 640.726 L640.126 639.699 L640.268 640.427 L640.69 639.955 L642.304 640.194 L644.507 639.528 L644.876 639.001 L645.929 640.051 L646.186 639.496 L647.627 639.303 L648.794 638.628 L649.238 638.965 L650.823 639.017 L651.93 638.566 L652.452 638.891 L654.797 639.171 L656.236 638.933 L658.478 639.348 L659.007 640.326 L659.962 640.435 L660.727 639.565 L663.929 638.987 L665.129 639.991 L667.949 639.99 L670.661 640.602 L671.139 641.307 L671.822 641.472 L672.265 640.805 L673.404 640.805 L673.686 640.509 L674.336 641.748 L674.617 641.366 L675.378 641.705 L675.796 641.082 L675.908 641.97 L676.405 641.765 L676.69 642.82 L676.449 642.346 L676.472 641.906 L676.692 642.377 L676.645 641.905 L676.474 642.848 L676.39 642.076 L676.473 642.761 L676.27 642.522 L676.107 644.593 L675.908 644.347 L675.826 646.687 L675.527 647.357 L675.688 648.474 L675.103 651.425 L673.935 663.06 L672.657 670.156 L671.997 680.683 L672.031 680.043 L671.78 681.271 L671.812 680.4 L671.819 680.985 L671.834 680.432 L671.755 681.036 L671.761 680.527 L671.168 681.092 L670.943 679.623 L670.542 681.207 L670.461 680.457 L670.079 681.333 L669.501 680.581 L669.422 681.143 L669.188 681.143 L668.616 680.502 L668.564 681.064 L668.161 681.406 L667.214 680.38 L666.737 680.743 L666.215 680.489 L665.841 679.817 L665.402 680.228 L664.695 679.86 L664.236 680.107 L663.077 679.77 L662.701 680.091 L661.633 679.531 L660.204 679.858 L659.873 679.544 L658.678 679.503 L658.37 678.899 L657.847 678.835 L657.518 679.482 L656.654 679.761 L655.123 679.194 L654.579 679.717 L653.035 680.04 L652.599 680.732 L652.006 680.899 L651.519 680.211 L649.213 679.614 L647.466 680.66 L645.394 680.954 L644.65 680.504 L643.867 680.53 L643.165 681.135 L641.135 681.257 L640.535 681.742 L639.826 681.76 L639.133 681.274 L636.565 681.251 L635.88 680.716 L634.692 681.878 L634.161 681.206 L633.186 680.844 "/></g><g><path fill="none" stroke="#000000" stroke-width="4" stroke-linecap="butt" stroke-linejoin="round" d="M583.564 746.341 L583.594 747.152 L583.682 746.618 L584.012 746.578 L584.065 746.952 L584.228 746.241 L584.168 746.681 L584.27 746.483 L584.582 746.706 L584.488 747.213 L584.279 746.222 L584.569 747.202 L584.362 746.429 L584.737 746.357 L584.832 746.815 L585.094 746.727 L586.156 744.505 L586.387 744.98 L589.503 742.683 L590.186 742.711 L591.826 740.966 L593.543 740.171 L598.111 735.921 L599.689 735.411 L602.323 733.901 L603.124 732.834 L604.071 732.307 L604.973 732.328 L607.411 730.787 L608.199 730.673 L612.465 727.143 L613.787 727.042 L617.327 725.328 L619.608 723.675 L622.771 722.295 L623.065 722.654 L623.324 722.541 L623.977 721.551 L624.684 721.497 L624.675 720.909 L624.593 721.811 L624.426 721.622 L624.599 722.266 L624.492 721.354 L624.15 721.822 L624.215 722.632 L624.297 721.773 L623.999 721.734 L624.153 722.319 L623.622 723.918 "/></g><g><path fill="none" stroke="#000000" stroke-width="4" stroke-linecap="butt" stroke-linejoin="round" d="M587.222 731.74 L587.164 731.315 L587.423 731.584 L587.717 730.783 L587.613 731.578 L587.973 731.265 L587.615 731.047 L587.521 732.478 L586.209 735.117 L585.553 735.476 L585.36 736.947 L584.398 739.102 L583.151 740.882 L582.731 742.294 L581.258 743.808 L580.504 745.486 L580.343 745.27 L579.987 747.004 L580.176 747.223 L580.136 746.959 L580.371 747.007 L580.335 746.512 L580.449 747.286 L581.176 747.2 L582.77 748.279 L583.843 747.77 L584.168 747.258 L584.488 747.32 L584.696 747.945 L585.98 747.764 L586.244 747.332 L586.86 747.484 L588.102 747.133 L588.333 747.65 L588.726 747.727 L589.043 747.056 L590.467 746.303 L591.071 747.179 L592.001 746.197 L593.197 746.133 L595.037 745.262 L596.646 745.87 "/></g><g><path fill="none" stroke="#000000" stroke-width="4" stroke-linecap="butt" stroke-linejoin="round" d="M626.873 704.142 L627.139 702.677 L626.997 703.366 L627.614 706.377 L627.259 718.322 L626.691 726.069 L626.216 728.387 L626.111 733.246 L626.217 734.711 L626.296 734.204 L626.639 735.631 L626.621 734.16 L626.789 733.957 L626.827 734.861 L627.137 734.498 L626.995 732.268 "/></g><g><path fill="none" stroke="#000000" stroke-width="4" stroke-linecap="butt" stroke-linejoin="round" d="M628.12 700.008 L627.63 699.854 L627.852 699.608 L627.578 699.662 L627.549 698.723 L627.334 699.101 L627.328 698.483 L627.082 698.557 L627.355 698.596 L627.192 698.285 L627.364 698.473 L627.379 698.133 L627.772 697.989 L627.737 698.897 L628.123 696.643 L628.205 697.172 L628.601 697.335 L629.165 696.909 L629.495 697.04 L629.58 697.545 L630.647 696.36 L631.132 697.162 L632.853 696.426 L635.523 696.81 L637.952 696.328 L639.372 696.909 L641.281 696.23 L643.051 696.387 L645.317 696.101 L646.543 695.29 L647.129 695.72 L649.019 695.927 L650.212 695.383 L651.815 695.697 L652.883 695.401 L653.373 696.103 L653.99 696.186 L654.583 695.287 L655.957 695.005 L656.363 694.299 L656.861 694.133 L657.237 694.798 L658.321 694.983 L659.515 694.838 L661.437 695.223 L662.687 694.869 L663.375 696.012 L663.64 695.411 L664.201 695.43 L664.707 694.969 L665.312 695.671 L665.679 695.708 L665.883 695.338 L667.282 696.115 L668.131 695.935 L668.334 696.874 L668.799 695.59 L669.02 696.58 L669.188 696.354 L669.47 696.613 L669.645 697.823 L669.818 695.895 L669.738 696.801 L669.897 696.616 L670.315 697.294 L670.275 696.75 L670.204 698.066 L670.158 697.135 L670.369 697.533 L670.417 697.168 L670.735 699.484 L670.903 699.925 L671.039 699.712 L671.585 708.011 L671.187 709.023 L670.288 717.287 L669.903 722.699 L669.947 726.989 L670.199 726.8 L669.931 730.662 L670.003 728.927 L669.402 734.06 L669.149 734.154 L669.132 735.389 L668.945 734.855 L668.919 736.446 L668.704 736.083 L668.949 736.435 L668.642 736.123 L668.763 736.915 L668.774 735.662 L668.723 736.078 L668.343 736.176 L668.622 736.039 L668.628 736.295 L668.643 735.754 L668.404 735.846 L668.536 736.65 L668.169 735.778 L667.541 736.106 L667.517 735.665 L667.316 736.001 L666.253 735.511 L666.003 735.797 L665.422 734.999 L665.018 734.948 L664.942 735.388 L664.456 735.607 L663.958 735.13 L663.768 735.421 L663.131 735.453 L662.969 736.336 L662.568 736.474 L662.496 735.65 L661.928 735.593 L661.361 734.967 L661.144 735.584 L660.519 736.049 L656.77 736.226 L656.268 736.951 L656.057 736.531 L653.322 736.375 L652.828 736.812 L649.975 736.74 L649.336 736.978 L648.116 736.861 L647.643 736.275 L646.742 736.901 L645.558 736.791 L644.819 736.309 L643.321 736.71 L643.002 737.126 L642.547 736.95 L642.226 736.267 L640.548 735.906 L639.809 736.555 L639.226 736.13 L638.26 736.112 L637.479 735.414 L636.798 736.069 L634.342 735.766 L633.782 736.355 L632.714 735.498 L631.584 735.825 L631.329 734.899 L631.094 735.729 L630.854 735.801 L630.631 735.171 L630.069 736.413 L629.723 735.095 L629.551 735.638 L629.257 735.648 L629.199 735.308 L629.082 736.291 L629.05 735.459 L628.99 736.326 L628.995 735.393 L628.797 735.541 L628.704 735.213 L628.797 735.883 "/></g><g><path fill="none" stroke="#000000" stroke-width="4" stroke-linecap="butt" stroke-linejoin="round" d="M585.189 776.652 L585.297 776.268 L584.603 775.566 L584.548 774.974 L584.48 775.817 L584.579 775.245 L584.032 775.224 L584.203 774.686 L584.261 775.508 L584.467 774.636 L584.383 775.374 L585.778 775.843 L586.242 776.798 L586.596 776.707 L587.486 777.324 L587.872 776.663 L588.302 776.862 L588.613 778.138 L589.896 779.347 L590.539 780.685 L591.093 780.455 L591.641 780.647 L595.914 783.821 L596.803 784.794 L599.175 786.037 L600.25 786.255 L601.206 787.74 L602.773 788.805 L603.871 790.273 L604.952 790.635 L609.144 794.061 L609.692 793.872 L610.185 794.329 L610.585 795.526 L613.662 798.346 L615.531 799.603 L616.441 801.131 L616.896 800.708 L619.348 803.136 L619.716 803.405 L619.931 803.004 L620.101 803.13 L620.99 805.286 L621.237 805.546 L621.634 805.13 L621.765 806.105 L621.877 805.658 L622.097 805.845 L622.032 806.541 L622.026 805.344 L621.85 806.633 L621.868 805.397 L621.502 805.28 L620.352 802.673 "/></g><g><path fill="none" stroke="#000000" stroke-width="4" stroke-linecap="butt" stroke-linejoin="round" d="M584.692 775.781 L584.546 775.485 L584.224 775.892 L584.439 775.425 L583.182 774.913 L583.167 774.366 L582.579 774.082 L582.573 773.731 L582.412 773.959 L582.208 773.595 L582.273 774.209 L582.47 772.997 L582.338 773.963 L582.621 773.757 L583.112 775.282 L583.475 775.238 L583.932 776.642 L584.512 777.005 L584.874 779.654 L585.977 782.19 L586.415 784.685 L587.774 788.713 L588.007 790.655 L588.239 790.454 L588.13 790.984 L588.273 789.16 L587.491 786.258 L586.349 775.627 L585.715 772.239 L585.998 769.571 L585.762 769.523 L586.496 768.63 L586.329 767.445 L586.764 768.896 L588.019 768.395 L588.64 769.224 L588.923 768.838 L589.733 768.837 L592.819 770.425 L594.236 771.496 L594.828 772.362 L595.329 772.066 L595.729 772.275 L596.155 773.009 L596.326 772.668 L597.289 773.214 L597.442 772.515 L597.65 772.635 L597.748 773.601 L599.071 774.526 "/></g><g><path fill="none" stroke="#000000" stroke-width="4" stroke-linecap="butt" stroke-linejoin="round" d="M626.958 788.452 L626.845 787.581 L626.801 787.978 L626.891 787.711 L626.519 787.723 L626.827 787.88 L626.88 787.519 L627.206 788.654 L626.83 788.699 L627.12 787.679 L625.57 805.32 L625.334 806.426 L625.134 806.246 L624.546 811.268 L624.339 811.848 L624.249 811.481 L624.256 814.453 L623.926 815.805 L623.999 819.979 L624.979 824.156 L625.305 824.125 L625.437 825.211 L625.712 824.469 L625.465 824.105 L625.505 824.582 L625.697 824.417 L625.395 824.579 L625.51 825.075 L625.578 824.355 L625.465 824.573 L625.191 824.1 L625.051 823.326 L625.54 820.517 "/></g><g><path fill="none" stroke="#000000" stroke-width="4" stroke-linecap="butt" stroke-linejoin="round" d="M627.748 780.427 L626.872 780.725 L627.007 780.112 L626.955 780.611 L626.648 780.424 L626.862 780.767 L626.738 780.381 L627.149 780.411 L627.134 780.136 L627.072 780.5 L627.571 780.791 L628.513 780.486 L629.016 780.949 L629.742 780.599 L631.938 781.287 L633.834 780.99 L634.513 781.345 L634.953 781.06 L636.743 781.012 L637.287 780.498 L639.235 780.874 L646.111 779.877 L646.859 780.622 L647.844 780.533 L648.571 779.481 L650.047 778.98 L652.413 779.122 L655.869 778.148 L659.796 777.98 L662.413 777.27 L662.838 777.297 L663.202 777.942 L663.688 777.835 L664.103 777.229 L667.192 777.14 L667.424 776.631 L667.719 777.291 L668.981 777.314 L669.111 777.985 L669.522 776.982 L669.174 777.897 L669.282 777.507 L669.548 778.02 L669.287 778.58 L669.821 780.457 L669.785 782.557 L670.013 782.355 L670.522 784.514 L671.142 790.834 L671.097 801.188 L670.838 801.982 L670.77 801.413 L670.708 811.849 L670.368 816.293 L670.016 818.999 L669.951 818.502 L669.683 819.404 L669.672 820.849 L669.347 821.138 L669.362 822.361 L669.242 821.338 L669.05 823.409 L669.166 822.663 L669.024 822.433 L668.891 822.62 L669.076 823.666 L669.006 822.471 L668.955 823.056 L668.872 822.476 L668.663 822.488 L668.765 822.97 L668.376 822.42 L667.708 822.674 L666.965 822.336 L666.835 821.831 L666.587 822.438 L666.306 822.031 L664.539 822.028 L664.121 822.854 L663.95 822.145 L663.065 821.387 L662.479 822.369 L661.083 821.831 L660.643 821.029 L660.207 820.927 L659.937 821.827 L659.52 822.015 L655.938 821.693 L654.897 822.404 L654.478 821.774 L648.122 821.154 L644.475 821.653 L642.788 821.475 L641.64 821.712 L640.442 822.432 L639.852 821.981 L637.924 822.034 L637.288 821.686 L636.031 822.556 L634.868 822.494 L633.468 822.988 L630.881 822.947 L630.598 823.852 L630.194 824.096 L629.878 823.261 L628.618 823.201 L628.263 822.888 L627.653 823.727 L627.231 823.469 L626.054 823.602 L625.71 822.864 L625.339 822.762 L625.069 823.539 L624.012 824.162 L623.11 823.595 "/></g><g><path fill="none" stroke="#000000" stroke-width="4" stroke-linecap="butt" stroke-linejoin="round" d="M289.872 951.937 L291.169 950.887 L290.696 950.488 L290.884 950.327 L290.443 950.441 L289.99 950.096 L289.236 950.695 L289.087 950.092 L288.61 949.855 L287.149 950.41 L285.623 950.425 L284.94 951.022 L284.597 950.8 L282.815 951.229 L282.297 951.839 L280.475 952.3 L280.223 952.995 L279.087 953.782 L278.777 954.61 L278.21 954.717 L277.038 956.189 L277.034 956.868 L276.372 957.715 L275.987 957.637 L274.755 962.273 L274.128 970.52 L275.333 972.02 L276.109 974.958 L276.541 975.375 L276.816 975.129 L278.088 976.731 L280.433 977.776 L280.912 977.273 L281.488 977.243 L282.106 977.927 L283.874 978.562 L287.788 978.081 L289.245 978.408 L290.364 978.16 L292.315 976.801 L293.934 976.449 L297.877 974.722 L298.961 973.649 L300.474 973.211 L303.28 970.073 L304.496 965.32 L304.397 960.936 L303.269 957.035 L302.435 955.479 L301.669 955.107 L300.235 953.052 L298.633 952.592 L297.79 951.632 L297.058 951.726 L296.472 952.256 L295.326 951.453 L293.578 951.659 L292.543 951.282 L291.207 951.511 L290.814 952.071 L290.257 952.25 L290.268 951.771 L289.149 951.877 L288.497 951.377 L286.895 954.562 "/></g><g><path fill="none" stroke="#000000" stroke-width="4" stroke-linecap="butt" stroke-linejoin="round" d="M286.211 976.51 L286.29 976.721 L286.626 976.327 L286.535 975.949 L286.485 976.341 L286.934 976.324 L286.656 977.015 L286.82 976.597 L287.037 976.797 L287.292 979.369 L287.045 980.065 L287.34 981.674 L286.969 984.084 L287.053 990.938 L286.723 992.681 L286.855 997.082 L287.174 997.163 L287.257 997.697 L286.953 1000.06 L286.908 1009.44 L287.38 1011 L286.997 1020.06 L287.155 1028.35 L286.776 1031.27 L287.143 1036.17 L286.828 1037.52 L287.053 1039.16 L286.77 1042 L287.003 1042.06 L286.946 1041.34 L286.964 1041.97 L286.543 1041.53 L286.857 1041.06 L285.973 1039.54 L285.751 1036.88 "/></g><g><path fill="none" stroke="#000000" stroke-width="4" stroke-linecap="butt" stroke-linejoin="round" d="M285.732 977.954 L285.896 977.381 L285.76 977.707 L286.186 977.838 L286.292 978.405 L286.149 977.902 L286.55 978.16 L286.212 978.256 L286.447 978.243 L286.389 977.416 L286.164 977.725 L286.336 978.528 L285.988 978.607 L286.221 978.492 L286.035 979.301 L285.285 980.594 L285.323 980.318 L285.056 980.426 L284.995 981.603 L284.22 982.425 L283.395 984.453 L280.571 988.316 L278.934 991.368 L277.675 992.854 L277.163 992.712 L276.697 993.369 L275.173 995.998 L275.115 996.856 L270.509 1003 L269.452 1005.08 L268.809 1005.01 L268.465 1005.53 L267.495 1007.88 L267.363 1009.18 L266.38 1010.2 L266.324 1009.86 L265.688 1012.81 L265.711 1012.56 L265.919 1012.93 L265.929 1012.43 L265.682 1012.45 L266.429 1013.03 L266.012 1012.91 L266.365 1013.43 L266.986 1013.11 L266.679 1013.01 L267.376 1013.22 L268.128 1012.7 L269.357 1010.77 "/></g><g><path fill="none" stroke="#000000" stroke-width="4" stroke-linecap="butt" stroke-linejoin="round" d="M285.418 979.704 L285.71 978.771 L285.801 979.333 L285.602 978.63 L286.037 978.595 L286.077 977.989 L286.031 978.43 L286.106 978.106 L286.072 978.417 L286.327 978.511 L286.345 978.239 L286.114 978.76 L286.342 978.756 L286.237 977.805 L286.241 978.848 L286.338 978.495 L286.738 979.817 L287.011 980.018 L287.23 979.654 L287.824 980.263 L288.784 982.027 L290.108 983.451 L290.909 985.859 L292.606 988.642 L294.032 992.752 L294.541 992.742 L295.237 994.634 L295.624 994.578 L296.124 995.317 L297.934 1001.34 L299.311 1003.87 L301.352 1010.98 L302.014 1011.78 L303.382 1019.34 L304.507 1021.89 L304.396 1023.25 L304.5 1022.9 L304.696 1023.23 L304.463 1024.25 L304.961 1025.29 L305.497 1025.59 L305.007 1025.91 L305.147 1025.53 L305.581 1026.02 L305.198 1026.13 L305.188 1025.35 L304.776 1025.92 L305.002 1026 L304.995 1024.95 "/></g><g><path fill="none" stroke="#000000" stroke-width="4" stroke-linecap="butt" stroke-linejoin="round" d="M284.578 1038.27 L285.026 1037.89 L284.72 1038.04 L284.993 1037.47 L284.62 1037.48 L284.996 1037.69 L285.022 1037.23 L284.602 1037.31 L284.976 1036.53 L285.065 1038.12 L285.099 1037.87 L284.774 1037.97 L284.924 1038.36 L284.913 1037.92 L284.644 1038.07 L285.012 1039.37 L283.67 1043.66 L283.717 1046.46 L283.169 1048.89 L283.06 1048.55 L283.063 1050.68 L280.061 1073.39 L279.86 1075.41 L280.243 1075.46 L279.326 1077.67 L279.189 1079.92 L278.577 1081.47 L278.925 1082.49 L278.73 1082.97 L279.176 1083.03 L278.77 1083.07 L278.645 1083.45 L278.632 1083.17 L278.858 1083.27 L278.444 1082.81 L278.912 1077.11 L278.689 1076.34 "/></g><g><path fill="none" stroke="#000000" stroke-width="4" stroke-linecap="butt" stroke-linejoin="round" d="M285.921 1038.02 L285.971 1037.49 L286.046 1038.09 L286.096 1037.76 L286.832 1038.06 L286.24 1037.9 L286.496 1038.04 L286.44 1039.16 L286.334 1038.05 L286.718 1037.9 L286.489 1038 L286.442 1037.54 L287.028 1039.73 L287.376 1039.41 L287.78 1040.26 L288.337 1042.34 L288.34 1043.74 L288.923 1044.6 L289.765 1047.83 L289.681 1052.2 L290.59 1055.38 L290.626 1057.77 L291.575 1062.45 L292.322 1064.2 L292.056 1065.19 L292.301 1067.64 L295.194 1081.08 L296.427 1084.07 L296.639 1086.29 L297.191 1086.88 L297.547 1090.66 L298.21 1092.3 L298.166 1094.54 L298.404 1094.5 L298.469 1095.42 L298.773 1094.94 L298.385 1094.99 L298.323 1094.18 L298.493 1094.68 L298.315 1094.52 L298.174 1095.2 L298.189 1093.71 L297.3 1091.19 "/></g><g><path fill="none" stroke="#000000" stroke-width="4" stroke-linecap="butt" stroke-linejoin="round" d="M315.395 992.32 L314.908 991.701 L315.253 991.764 L315.267 990.823 L315.432 991.871 L315.269 992.017 L315.234 991.554 L315.244 992.533 L315.548 997.25 L315.216 998.442 L314.743 1005.29 L314.9 1006.89 L314.171 1013.24 L314.353 1020.67 L314.496 1019.97 L314.618 1020.22 L314.972 1026.55 L315.104 1025.77 L315.16 1027.19 L315.276 1026.96 L315.29 1027.31 L315.592 1027.28 L315.427 1026.88 L315.141 1027.63 L315.761 1025.81 L315.962 1023.27 "/></g><g><path fill="none" stroke="#000000" stroke-width="4" stroke-linecap="butt" stroke-linejoin="round" d="M314.867 992.209 L314.543 991.652 L314.897 991.173 L314.753 990.323 L315.168 989.503 L315.355 990.202 L315.461 988.884 L315.286 989.573 L315.696 989.65 L315.857 989.001 L316.294 989.571 L317.703 988.585 L318.627 988.716 L320.797 987.874 L323.22 987.932 L325.348 987.273 L325.861 986.558 L326.541 986.392 L326.958 986.969 L327.564 987.005 L330.77 986.405 L333.988 986.495 L335.238 986.168 L337.792 986.209 L338.426 986.753 L339.201 986.811 L339.931 986.285 L341.404 986.151 L342.56 985.602 L343.764 986.384 L345.246 986.136 L346.08 986.564 L346.193 987.22 L346.554 987.291 L346.698 986.478 L347.08 986.334 L347.026 987.474 L347.35 986.51 L347.278 987.802 L347.542 987.995 L347.509 987.294 L347.472 987.892 L347.915 988.318 L348.099 988.001 L348.132 989.008 L349.717 993.578 L350.013 995.55 L349.964 997.968 L350.596 1001.27 L350.268 1004.92 L350.85 1007.26 L350.768 1013.77 L351.462 1019.53 L351.664 1019.4 L351.717 1019.85 L351.68 1022.77 L352.305 1026.97 L352.17 1029.67 L352.466 1029.22 L352.258 1028.95 L352.073 1029.56 L352.361 1029.56 L352.102 1029.84 L352.104 1029.47 L351.902 1029.6 L352.092 1029.21 L352.148 1029.71 L352.166 1029.33 L352.106 1030.2 L352.109 1028.73 L352.008 1029.62 L352.268 1029.66 L351.875 1029.22 L352.175 1029.39 L352.131 1030.1 L351.917 1029.97 L352.061 1028.95 L351.975 1029.84 L351.643 1028.93 L351.099 1029.29 L349.871 1029.17 L349.566 1030.11 L349.549 1029.14 L347.185 1028.89 L346.294 1028.47 L344.77 1028.76 L343.902 1028.19 L342.674 1028.62 L341.118 1028.69 L340.514 1029.2 L339.725 1029.26 L339.169 1028.77 L336.529 1028.54 L335.306 1029.11 L332.977 1029.24 L332.45 1028.62 L331.934 1028.52 L331.575 1029.12 L329.821 1029.25 L329.425 1030.34 L328.869 1030.48 L328.675 1029.43 L327.27 1028.86 L326.815 1028.34 L325.897 1029.21 L324.9 1029.05 L324.678 1028.49 L324.193 1028.42 L323.807 1028.96 L322.661 1029.07 L322.333 1028.53 L321.804 1028.45 L321.472 1029.16 L320.564 1029 L320.129 1029.74 L319.908 1029.32 L318.724 1029.23 L318.209 1029.72 L316.579 1029.94 L316.195 1031.16 "/></g><g><path fill="none" stroke="#000000" stroke-width="4" stroke-linecap="butt" stroke-linejoin="round" d="M649.923 990.434 L649.746 988.386 L649.521 988.694 L649.338 987.876 L648.727 987.408 L648.493 988.083 L648.422 987.459 L647.769 986.65 L647.742 987.003 L647.13 986.426 L646.149 987.31 L645.473 986.778 L644.685 987.435 L644.535 987.213 L643.848 987.566 L643.569 987.225 L643.014 988.027 L640.325 990.118 L639.976 991.437 L639.64 991.141 L638.693 992.051 L637.745 994.996 L637.629 994.469 L637.432 994.7 L636.867 998.796 L637.335 1002.91 L639.082 1006.01 L640.609 1006.52 L641.164 1007.13 L642.277 1007.6 L642.567 1007.13 L643.07 1008.22 L645.23 1008.86 L646.903 1008.92 L647.296 1009.49 L647.734 1009.56 L648.054 1009.14 L650.78 1009.03 L652.308 1008.64 L653.082 1007.37 L653.353 1008.12 L654.762 1007.91 L656.257 1006.78 L658.512 1003.87 L659.367 1000.31 L659.307 998.251 L658.512 993.934 L658.163 993.786 L658.091 994.086 L658.039 993.023 L657.518 991.887 L656.517 990.367 L656.163 990.583 L655.444 988.981 L655.011 988.5 L654.407 988.929 L654.186 988.199 L653.138 987.646 L652.8 986.674 L652.277 986.454 L651.964 987.16 L649.55 986.73 L644.984 986.671 L643.844 987.356 L643.724 987.128 L642.97 988.283 "/></g><g><path fill="none" stroke="#000000" stroke-width="4" stroke-linecap="butt" stroke-linejoin="round" d="M647.714 1008.08 L647.806 1007.25 L647.687 1008.08 L647.801 1007.52 L647.906 1007.97 L648.082 1007.76 L647.963 1008.56 L647.997 1007.64 L648.3 1008.53 L647.957 1008.87 L647.501 1019.41 L646.513 1026.75 L645.83 1047.97 L645.512 1049.5 L645.739 1051.32 L645.34 1059.94 L645.389 1073.31 L645.179 1073.49 L645.263 1072.64 L645.113 1073.88 L645.167 1073.09 L643.785 1069.05 L643.589 1067.27 "/></g><g><path fill="none" stroke="#000000" stroke-width="4" stroke-linecap="butt" stroke-linejoin="round" d="M645.075 1012.29 L645.25 1011.84 L645.132 1012.34 L645.471 1012.22 L645.14 1012.31 L645.356 1012.29 L645.32 1012.73 L645.41 1012.34 L645.187 1012.32 L645.54 1012.5 L645.291 1012.37 L645.283 1013.17 L644.238 1013.9 L643.296 1015.58 L642.759 1015.85 L640.656 1019.55 L638.819 1021.75 L637.814 1024.3 L637.253 1023.91 L635.024 1026.98 L632.947 1030.77 L631.955 1031.69 L630.259 1034.89 L629.434 1037.22 L629.066 1036.89 L628.25 1038.23 L627.954 1038.24 L624.694 1044.66 L624.64 1045.8 L624.441 1045.87 L624.52 1044.43 L624.94 1044.82 L627.117 1042.34 "/></g><g><path fill="none" stroke="#000000" stroke-width="4" stroke-linecap="butt" stroke-linejoin="round" d="M646.654 1009.81 L646.415 1009.16 L646.347 1009.9 L646.5 1009.24 L646.662 1010.2 L646.871 1009.55 L646.805 1010.1 L647.742 1012.97 L648.862 1015.28 L649.946 1017.14 L650.195 1016.91 L650.409 1017.33 L651.68 1021.78 L652.09 1022.51 L652.402 1021.83 L652.977 1022.72 L654.301 1026.05 L655.747 1027.43 L657.684 1030.57 L661.258 1037.29 L662.048 1039.35 L662.477 1039.55 L663.308 1041.47 L663.616 1041.46 L663.889 1042.01 L665.814 1050.17 L667.187 1053.91 L667.643 1058.76 L667.415 1059.58 L667.5 1058.75 L667.398 1059.2 L667.275 1058.64 L667.302 1059.21 L667.363 1058.52 L666.918 1057.6 "/></g><g><path fill="none" stroke="#000000" stroke-width="4" stroke-linecap="butt" stroke-linejoin="round" d="M641.967 1070.57 L641.815 1070.02 L641.455 1070.25 L641.686 1070.08 L640.917 1069.13 L641.02 1069.91 L640.341 1071.01 L639.876 1072.97 L639.591 1072.89 L639.167 1075.01 L637.615 1078.92 L636.911 1082.72 L635.543 1086.19 L634.868 1089.92 L633.426 1094.85 L633.369 1096.08 L633.069 1097.08 L632.792 1097.09 L632.263 1099.34 L631.792 1099.92 L629.815 1109.17 L629.379 1109.7 L628.957 1111.85 L628.69 1111.11 L628.706 1112.83 L628.682 1110.97 L628.835 1111.2 L630.723 1104.87 "/></g><g><path fill="none" stroke="#000000" stroke-width="4" stroke-linecap="butt" stroke-linejoin="round" d="M644.91 1070.37 L644.733 1070.59 L644.775 1069.66 L644.521 1069.68 L644.69 1069.1 L644.622 1070.06 L644.852 1069.35 L645.046 1070.19 L644.797 1070.06 L645.071 1069.95 L645.154 1070.71 L645.402 1070.38 L646.163 1073.8 L646.75 1074.49 L647.856 1078.41 L648.182 1079.1 L648.617 1079.03 L648.939 1079.44 L650.625 1084.72 L652.064 1086.87 L653.323 1091.61 L654.957 1096.2 L656.067 1102.33 L656.545 1116.45 L656.784 1115.89 L656.564 1116.01 L656.547 1114.67 L656.625 1115.64 L656.738 1114.71 L657.369 1114.02 L658.093 1112.01 "/></g><g><path fill="none" stroke="#000000" stroke-width="4" stroke-linecap="butt" stroke-linejoin="round" d="M641.564 991.221 L641.778 990.98 L641.328 990.945 L641.65 990.992 L641.746 990.547 L641.381 990.497 L641.456 990.86 L641.746 990.548 L641.833 991.517 L641.784 990.818 L641.799 991.427 L641.958 991.09 L642.195 991.325 L642.133 991.106 L643.144 993.546 L643.43 993.835 L643.527 993.484 L643.741 993.605 L645.071 995.725 L645.537 996.263 L645.742 995.951 L645.982 996.226 L646.836 997.97 L650.033 1001.43 L653.285 1003.94 L654.207 1004.35 L654.608 1004.05 L655.225 1004.12 L655.786 1004.82 L657.345 1005.41 L658.012 1005.99 L658.81 1005.64 L661.691 1005.77 L662.492 1005.14 L663.2 1005.79 L664.129 1005.4 "/></g><g><path fill="none" stroke="#000000" stroke-width="4" stroke-linecap="butt" stroke-linejoin="round" d="M657.649 998.632 L657.363 998.633 L657.503 998.418 L657.556 999.042 L657.427 998.201 L657.861 998.499 L657.602 998.33 L658.125 998.051 L658.157 997.661 L658.359 997.929 L659.174 997.3 L659.849 997.24 L660.159 998.082 L660.317 997.524 L662.187 997.092 L662.866 998.446 L664.787 999.527 L668.749 1004.33 L670.449 1007.9 L673.349 1016.71 L673.694 1022.07 L673.579 1023.01 L672.888 1024.38 "/></g><g><path fill="none" stroke="#000000" stroke-width="4" stroke-linecap="butt" stroke-linejoin="round" d="M660.221 1002 L660.009 1000.9 L659.846 1001.3 L659.987 1000.59 L659.959 1001.33 L659.56 1001.02 L659.89 1001.2 L659.598 1001.15 L659.79 1001.65 L658.73 1002.84 L658.233 1006.16 L658.266 1008.51 L658.802 1010.84 L661.482 1015.4 L662.476 1015.24 L663.565 1017.18 L665.287 1019.05 L667.471 1020 L668.548 1020.1 L670.305 1021.26 L670.841 1020.88 L671.907 1021.79 L674.613 1022.26 "/></g><g><path fill="none" stroke="#000000" stroke-width="4" stroke-linecap="butt" stroke-linejoin="round" d="M569.827 1054.52 L570.148 1054.16 L570.209 1055.57 L570.208 1054.67 L570.542 1054.93 L570.319 1055.13 L570.321 1054.47 L570.114 1058.24 L569.997 1066.64 L570.281 1069.19 L570.217 1076.81 L570.723 1082.68 L570.711 1086.53 L570.627 1085.95 L570.395 1086.42 L570.222 1084.98 L570.092 1085.4 L569.808 1083.33 "/></g><g><path fill="none" stroke="#000000" stroke-width="4" stroke-linecap="butt" stroke-linejoin="round" d="M568.582 1048.24 L568.019 1048.02 L568.387 1048.24 L568.118 1048.11 L568.319 1048.26 L568.341 1047.56 L568.396 1049.12 L568.544 1047.91 L568.602 1048.6 L568.898 1048.65 L568.703 1048.76 L569.135 1048.48 L569.627 1049.34 L570.312 1049.11 L572.127 1050.11 L573.685 1049.99 L573.96 1051.88 L574.633 1052.17 L574.967 1050.34 L576.953 1049.37 L578.013 1049.84 L580.152 1049.95 L585.6 1049.14 L586.929 1049.53 L587.603 1049.14 L589.738 1048.88 L590.433 1048.18 L592.006 1049.29 L592.636 1048.76 L594.676 1048.25 L595.33 1047.55 L596.085 1047.38 L596.766 1048.14 L600.059 1048.49 L603.005 1047.59 L603.788 1048.51 L605.629 1047.9 L607.069 1048.24 L607.852 1047.75 L608.175 1048.46 L609.889 1048.66 L610.522 1049.49 L610.651 1048.91 L611.065 1048.79 L611.253 1047.64 L611.182 1049.44 L611.75 1049.2 L611.813 1048.78 L611.827 1050.06 L612.085 1048.69 L612.114 1049.32 L612.414 1049.35 L612.324 1049.96 L612.505 1049.36 L612.605 1050.05 L612.679 1049.54 L613.055 1049.79 L613.152 1049.4 L613.248 1051.21 L613.478 1049.25 L613.315 1050.31 L613.636 1050.53 L613.647 1051.18 L613.874 1050.89 L613.907 1052.29 L614.039 1051.24 L614.438 1052.82 L614.242 1053.61 L614.565 1054.07 L614.417 1055.26 L614.614 1055.17 L614.71 1056.34 L614.229 1063.27 L613.89 1064.11 L613.721 1074.75 L613.381 1075.75 L613.253 1080.78 L613.399 1086.39 L613.102 1090.35 L612.995 1089.66 L612.901 1091.79 L612.929 1090.81 L612.723 1091.31 L612.995 1091.26 L613.039 1090.68 L612.736 1090.67 L612.705 1091.23 L612.954 1091.28 L612.826 1090.6 L613.007 1091.22 L612.689 1091.01 L612.57 1091.26 L612.889 1091.07 L612.875 1092.07 L612.646 1090.68 L612.711 1091.46 L612.739 1091.18 L612.405 1091.11 L612.49 1091.53 L612.631 1090.75 L612.447 1091.12 L612.07 1091.06 L611.536 1090.37 L611.224 1091.49 L611.104 1090.6 L610.738 1090.82 L610.679 1090.17 L610.4 1090.22 L610.159 1090.93 L609.724 1090.94 L609.149 1090.08 L609.095 1090.58 L608.479 1090.63 L608.317 1090.94 L607.281 1090.11 L607.128 1091.04 L606.71 1091.22 L606.728 1090.33 L606.327 1089.62 L605.286 1090.02 L604.925 1089.59 L604.781 1089.97 L603.761 1089.79 L603.259 1090.14 L602.976 1089.64 L602.029 1089.88 L600.235 1089.04 L599.016 1089.51 L598.148 1088.9 L597.904 1089.31 L596.973 1089.3 L596.552 1090.15 L595.951 1090.29 L595.769 1089.24 L594.941 1089.12 L594.616 1088.52 L594.079 1089.93 L593.812 1089.47 L592.686 1089.37 L592.456 1088.55 L591.9 1088.43 L591.346 1089.65 L590.122 1089.95 L588.572 1089.64 L588.345 1090.83 L587.864 1091.31 L587.6 1090.19 L586.869 1090.15 L586.603 1089.83 L586.171 1090.51 L585.351 1090.59 L584.96 1090.11 L584.67 1090.56 L583.791 1090.85 L583.624 1091.26 L583.213 1091.29 L582.857 1090.84 L582.346 1091.01 L581.836 1091.78 L580.241 1090.46 L579.772 1091.36 L579.192 1091.66 L579.117 1091.16 L579.044 1091.68 L578.351 1091.89 L578.007 1092.67 L578.048 1091.98 L577.531 1091.84 L577.339 1091.42 L577.067 1093.06 L576.88 1092.38 L576.441 1092.36 L576.055 1091.59 L575.953 1092.34 L575.525 1092.82 L574.477 1092.8 L574.168 1095 L574.155 1093.57 L573.451 1092.34 L573.297 1093.53 L573.058 1093.63 L573.056 1093.21 L573.064 1093.63 L572.759 1093.89 L572.593 1093.62 L572.772 1094.29 L572.788 1093.73 L572.366 1093.62 L572.49 1092.66 L572.535 1094.5 L572.806 1094.65 L572.735 1092.74 L572.622 1094.15 L572.728 1093.08 L572.529 1093.4 L572.808 1094.83 L572.779 1092.7 L572.523 1093.34 L572.846 1092.69 L572.685 1094.07 L572.756 1092.96 L572.308 1091.71 L572.082 1092 L572.114 1090.34 L572.022 1090.83 L571.704 1090.4 L571.218 1087.97 L571.148 1088.99 L570.817 1086.18 L570.008 1084.49 L570.003 1083.84 L569.95 1084.61 L569.652 1082.71 L569.515 1082.56 L569.674 1082.86 L569.393 1082.91 L569.523 1082.08 L569.519 1082.65 L569.298 1082.62 "/></g><g><path fill="none" stroke="#000000" stroke-width="4" stroke-linecap="butt" stroke-linejoin="round" d="M615.622 1031.67 L615.554 1030.95 L615.842 1030.87 L615.644 1030.68 L615.978 1032.34 L615.914 1031.13 L616.912 1032.4 L617.139 1031.97 L617.473 1032.09 L617.951 1033.48 L619.438 1035.09 L619.96 1036.26 L620.172 1036.08 L620.576 1036.89 L620.859 1036.63 L621.147 1036.85 L621.312 1037.64 L622.173 1038.74 L622.73 1038.73 L623.152 1040.09 L624.2 1041.74 L624.83 1042.14 L625.722 1043.88 L627.287 1045.38 L628.904 1048.85 L629.206 1050.26 L629.299 1049.63 L629.642 1050.05 L629.794 1049.83 L629.948 1051.14 L630.411 1051.48 L630.722 1051.03 L630.876 1052.45 L630.867 1051.99 L630.849 1052.4 L630.427 1052.12 L630.524 1050.98 L630.467 1051.85 L629.829 1051.54 "/></g><g><path fill="none" stroke="#000000" stroke-width="4" stroke-linecap="butt" stroke-linejoin="round" d="M608.062 1029.08 L608.086 1028.73 L608.011 1028.98 L607.492 1028.71 L607.402 1027.95 L607.353 1028.43 L606.863 1028.28 L606.784 1027.28 L606.75 1027.76 L606.376 1027.9 L606.806 1027.86 L606.779 1028.48 L606.82 1027.57 L606.747 1028.1 L607.69 1028.86 L607.678 1029.28 L608.627 1030.48 L608.832 1031.59 L608.947 1031.01 L609.386 1031.36 L609.517 1031.11 L609.54 1032.03 L609.442 1031.09 L609.441 1031.65 L608.843 1031.02 L608.539 1031.46 L608.198 1030.15 L607.917 1030 L607.823 1030.3 L607.46 1029.57 L607.476 1029.91 L607.104 1029.67 L607.134 1029.92 L607.123 1029.12 L607.256 1029.93 L607.625 1028.96 L607.502 1029.83 L607.371 1029 L607.712 1029.51 L607.484 1029.53 L607.571 1029.86 L607.575 1029.4 L607.309 1029.38 L607.467 1028.95 L607.494 1029.79 L607.547 1029.1 L607.677 1029.36 L608.387 1028.59 L608.672 1028.64 L608.822 1027.57 L608.916 1028.13 L609.268 1027.54 L609.324 1026.51 L609.279 1027.12 L609.584 1027.41 L609.353 1027.15 L609.662 1026.5 L609.867 1026.34 L609.844 1026.89 L610.396 1026.07 L610.483 1026.47 L610.873 1025.33 L611.101 1025.45 L611.366 1024.89 L611.31 1025.39 L611.043 1025.45 L611.672 1024.47 L611.63 1024.97 L611.825 1024.41 L611.931 1024.83 L612.449 1024.46 L612.6 1024.83 L612.667 1024.07 L612.958 1023.66 L613.223 1024.05 L613.432 1023.48 L613.366 1023.95 L613.774 1023.78 L613.876 1024.23 L614.026 1022.72 L614.244 1024.35 L614.682 1023.33 L615.509 1023.2 L615.68 1023.69 L616.123 1022.39 L616.163 1023.18 L616.261 1022.7 L616.309 1023.22 L616.753 1023.28 L616.762 1023.65 L617.497 1022.61 L617.363 1024.1 L617.497 1023.28 L618.024 1023.47 L618.003 1023.26 L617.756 1023.49 L617.995 1023.4 L618.367 1024.24 L618.464 1023.09 L618.582 1023.62 L618.727 1022.94 L618.747 1023.92 L619.034 1023.25 L619.159 1024.52 L619.323 1023.79 L619.404 1024.46 L619.891 1023.52 L620.048 1024.26 L620.812 1024.25 L621.095 1025.02 L621.149 1024.64 "/></g><g><path fill="none" stroke="#000000" stroke-width="4" stroke-linecap="butt" stroke-linejoin="round" d="M918.436 447.409 L919.029 446.402 L918.807 444.494 L918.116 444.294 L917.627 443.663 L916.639 443.423 L916.459 443.04 L915.638 443.44 L913.56 443.045 L911.916 443.583 L910.738 443.433 L909.942 444.348 L908.094 445.294 L906.629 446.658 L906.129 447.996 L904.254 449.006 L902.718 452.247 L902.536 453.733 L901.59 456.125 L901.875 456.708 L901.939 459.678 L903.959 462.978 L905.481 464.803 L911.457 468.417 L912.306 468.645 L913.266 468.436 L914.907 469.305 L918.057 469.986 L921.502 469.888 L923.284 469.523 L924.274 470.044 L925.239 470.016 L926.208 469.193 L929.518 468.083 L931.163 466.635 L932.613 466.43 L934.802 465.144 L935.888 463.756 L936.968 462.979 L938.153 460.979 L938.957 456.846 L938.811 454.313 L937.079 448.717 L935.462 446.003 L934.932 445.948 L931.348 442.5 L926.341 440.137 L923.61 439.734 L922.873 438.964 L922.104 438.814 L921.552 439.209 L918.147 439.021 L916.143 439.808 L915.272 440.806 L914.743 440.767 L913.911 441.487 L913.043 443.776 L913.329 447.026 "/></g><g><path fill="none" stroke="#000000" stroke-width="4" stroke-linecap="butt" stroke-linejoin="round" d="M922.942 469.183 L923.301 469.381 L922.803 468.994 L922.478 468.037 L922.318 468.209 L922.475 467.898 L922.251 467.634 L922.435 468.191 L922.024 468.003 L922.238 467.596 L922.112 468.24 L922.451 468.463 L922.25 468.286 L922.354 468.728 L921.676 470.47 L921.661 471.973 L920.752 476.164 L920.422 480.118 L918.711 489.997 L915.252 519.495 L915.001 526.32 L914.819 526.173 L914.773 526.628 L913.887 540.004 L913.674 540.114 L913.679 539.241 L913.527 539.519 L913.317 534.734 "/></g><g><path fill="none" stroke="#000000" stroke-width="4" stroke-linecap="butt" stroke-linejoin="round" d="M917.923 471.082 L918.351 470.955 L918.293 470.68 L918.427 471.093 L918.465 470.739 L918.37 471.501 L918.559 471.159 L918.317 471.034 L918.015 471.951 L917.836 471.817 L917.072 472.559 L916.869 472.037 L916.423 473.642 L915.991 473.747 L909.834 484.642 L907.459 488.278 L898.747 507.059 L898.203 508.884 L897.802 509.101 L896.812 512.751 L896.401 513.419 L896.24 513.215 L896.483 513.748 L896.529 512.456 L899.897 505.869 "/></g><g><path fill="none" stroke="#000000" stroke-width="4" stroke-linecap="butt" stroke-linejoin="round" d="M919.657 473.627 L919.456 473.343 L919.835 473.152 L919.708 472.623 L919.621 472.885 L920.156 469.07 L920.864 471.642 L921.078 471.369 L921.46 472.144 L923.517 482.401 L924.853 487.17 L926.287 490.445 L926.619 492.408 L927.004 492.949 L929.906 503.046 L931.063 509.519 L930.791 512.089 L931.156 509.734 "/></g><g><path fill="none" stroke="#000000" stroke-width="4" stroke-linecap="butt" stroke-linejoin="round" d="M911.388 537.256 L910.816 536.525 L910.564 533.724 L910.643 534.457 L910.427 534.519 L910.703 534.061 L910.239 534.213 L910.527 533.896 L910.727 534.499 L910.778 533.869 L910.638 534.706 L910.294 534.875 L910.383 535.823 L909.931 536.851 L909.737 538.719 L907.407 545.666 L906.446 547.517 L904.691 553.379 L903.554 555.098 L901.33 561.74 L899.971 564.438 L898.877 567.97 L898.519 568.223 L897.767 572.797 L897.753 571.64 L898.022 572.069 L898.093 571.603 L898.387 571.606 L900.219 569.374 L900.37 568.598 L901.124 567.675 "/></g><g><path fill="none" stroke="#000000" stroke-width="4" stroke-linecap="butt" stroke-linejoin="round" d="M912.749 537.867 L912.323 535.999 L912.538 533.291 L912.52 533.729 L912.81 533.594 L912.565 533.943 L912.883 535.224 L913.025 534.856 L913.461 535.271 L913.667 535.052 L914.791 539.242 L915.337 543.919 L915.779 544.971 L917.515 554.113 L918.532 557.201 L918.876 560.341 L920.081 563.292 L920.693 568.201 L921.267 569.965 L921.468 572.401 L921.375 572.02 L921.428 572.494 L921.407 572.136 L921.126 572.18 L921.35 571.718 L921.425 571.934 L921.04 570.266 L921.235 568.409 "/></g><g><path fill="none" stroke="#000000" stroke-width="4" stroke-linecap="butt" stroke-linejoin="round" d="M901.769 442.7 L901.671 439.403 L901.721 439.884 L900.661 441.638 L899.726 444.742 L898.827 445.92 L898.78 445.544 L898.711 446.672 L898.036 447.96 L898.286 447.165 L898.168 444.444 L899.429 439.393 L899.885 438.872 L900.223 437.54 L901.417 436.579 L902.467 434.853 L902.413 435.442 L903.153 436.35 L903.67 438.105 L904.036 440.859 L903.836 443.034 L904.131 444.235 L903.838 444.167 L904.157 443.29 L904.182 443.719 L904.769 440.838 L905.109 436.724 L905.39 436.636 L906.217 434.298 L906.691 431.666 L908.093 429.096 L908.219 429.359 L908.587 428.79 L908.476 429.246 L909.06 430.167 L909.396 432.215 L909.222 437.903 L908.843 439.988 L909.007 441.099 L908.471 439.25 L908.388 437.527 L909.036 433.428 L910.251 429.598 L910.568 429.299 L910.899 429.502 L911.795 428.47 L912.396 428.316 L912.575 428.608 L912.643 428.003 L912.723 428.657 L912.997 428.949 L913.161 428.789 L913.878 433.342 L913.667 436.241 L914.655 431.31 L916.174 427.782 L916.373 427.893 L918.222 425.631 L919.62 425.03 L919.693 426.714 L919.373 428.747 L918.961 429.531 L918.995 431.245 L918.732 431.386 L918.881 431.557 L918.902 431.261 L918.96 431.644 L918.967 431.044 L920.976 427.765 L921.522 425.95 L923.319 422.949 L923.599 421.921 L923.72 422.407 L924.05 422.25 L923.754 423.107 L924.102 425.115 L922.063 433.81 L923.434 430.061 L923.648 428.392 L923.941 428.408 L924.899 427.1 L925.392 425.874 L926 425.953 L927.353 424.485 L928.378 424.287 L929.021 423.731 L929.648 424.275 L929.64 423.978 L930.085 425.564 L929.106 431.585 L926.98 438.701 L926.774 436.343 L928.045 431.785 L929.059 429.302 L929.486 429.238 L930.708 427.604 L931.24 428.025 L931.296 427.621 L930.455 431.169 L929.295 433.814 L928.77 434.157 L928.561 435.065 L928.408 434.57 L928.306 434.791 L928.197 436.496 L927.698 436.937 L927.385 437.861 L927.324 437.236 L926.97 437.504 L925.886 436.421 L924.788 434.325 L923.889 433.422 L921.879 428.6 L921.49 428.291 L921.329 428.542 L921.178 427.13 L920.98 427.688 L920.686 427.236 L920.793 426.842 L920.627 427.522 L918.749 429.847 L917.997 431.557 L916.738 433.212 L915.777 435.152 L915.746 435.846 L915.351 436.214 L915.412 437.066 L916.783 432.833 L917.192 432.573 L917.954 429.014 L917.927 427.809 L917.637 428.518 L917.453 428.237 L916.638 429.134 L915.143 432.502 L914.746 434.189 L914.431 434.62 L914.351 434.295 L913.747 435.73 L913.588 436.717 L913.852 435.642 L914.173 435.734 L914.955 432.614 L915.425 432.166 L916.103 430 L917.487 427.92 L919.991 426.174 L921.105 426.548 L921.862 427.939 L922.166 429.373 L921.304 434.044 L920.833 435.072 L920.909 435.872 L922.514 434.174 L923.544 433.831 L925.787 431.995 L927.328 429.68 L928.54 428.971 L928.895 428.045 L929.425 427.737 L929.021 428.092 L929.205 428.713 L927.932 436.34 L927.869 438.374 L932.76 427.256 L933.02 427.484 L933.27 427.278 L933.974 425.991 L934.699 425.836 L934.869 426.093 L934.835 425.6 L934.803 429.285 L933.481 434.306 L931.178 439.828 L930.443 442.755 L930.653 442.832 L931.449 439.156 L933.286 434.191 L935.94 429.996 L937.197 429.338 L937.37 431.26 L936.496 435.028 L935.176 438.023 L933.697 443.309 L933.94 442.636 L933.746 442.104 L933.989 442.519 L935.256 438.637 L936.104 437.849 L936.387 436.732 L937.725 434.95 L937.888 434.254 L939.056 433.854 L939.118 433.502 L938.812 436.912 L936.707 443.832 L938.397 440.311 L939.829 438.443 L940.031 438.684 L939.792 438.887 L939.917 438.7 L939.555 438.56 L939.433 440.137 L937.5 445.394 L936.916 448.385 L937.123 448.427 L936.981 447.874 L937.348 447.737 L937.368 447.174 L939.121 445.127 L941.91 442.685 L942.313 441.145 L942.424 441.831 L942.776 442.051 L942.597 442.478 L942.284 442.195 L940.177 447.559 L939.664 450.197 L939.159 450.944 L939.067 452.76 L938.861 452.683 L939.174 452.118 L940.073 452.55 "/></g><g><path fill="none" stroke="#000000" stroke-width="4" stroke-linecap="butt" stroke-linejoin="round" d="M900.274 447.684 L900.253 445.945 L900.461 445.568 L900.529 445.794 L900.26 445.396 L900.346 451.58 L900.673 453.706 L900.511 452.78 L900.988 453.242 L900.809 452.631 L900.832 453.079 L900.567 453.116 L900.786 452.948 L900.881 453.197 L901.069 452.142 L901.602 451.477 L902.815 444.732 L902.881 445.785 L904.293 447.264 L904.549 448.809 L904.72 448.691 L904.925 449.362 L904.818 448.818 L905.002 448.91 L905.484 447.703 L905.997 444.797 L906.959 442.838 L906.998 442.077 L907.625 441.933 L907.801 441.577 L908.107 441.878 L908.902 441.863 L911.443 444.254 L911.856 444.088 L913.135 444.711 L914.149 444.71 L915.413 445.662 L917.47 446.088 "/></g><g><path fill="none" stroke="#000000" stroke-width="4" stroke-linecap="butt" stroke-linejoin="round" d="M1014.05 744.743 L1013.94 744.216 L1014.28 744.121 L1014.39 743.289 L1014.02 743.48 L1013.69 742.8 L1012.85 743.157 L1012.63 743.612 L1012.34 743.114 L1010.31 743.54 L1010.06 743.337 L1008.86 744.581 L1008.17 744.587 L1007.05 745.423 L1006.33 746.939 L1006.23 746.35 L1005 746.831 L1003.76 748.851 L1003.24 748.989 L1001.83 751.681 L1001.52 751.486 L1000.87 752.12 L1000.57 751.953 L1000.27 753.469 L1000.01 753.369 L997.394 758.452 L996.377 763.481 L996.754 769.255 L996.874 768.782 L997.273 769.434 L997.453 769.188 L997.63 770.676 L999.553 773.242 L1000.86 773.416 L1001.51 774.456 L1002.73 774.777 L1003.52 774.42 L1003.86 774.913 L1005.4 775.158 L1008.14 775.034 L1009.17 775.452 L1011.2 774.551 L1012.62 774.49 L1015.14 773.683 L1015.68 773.076 L1016.71 773.316 L1018.13 772.758 L1019.55 771.685 L1020.34 771.633 L1021.83 769.501 L1022.29 769.942 L1022.34 769.484 L1022.84 769.249 L1022.99 767.805 L1023.49 767.523 L1023.83 764.746 L1024.15 764.614 L1024.01 756.772 L1022.57 751.948 L1022.31 751.694 L1022.23 752.088 L1021.27 750.103 L1020.42 748.8 L1020.33 749.039 L1019.89 747.212 L1019.19 745.911 L1018.72 746.023 L1017.94 743.921 L1017.04 742.791 L1016.66 743.066 L1015.06 741.865 L1012.89 740.955 L1012.53 741.449 L1012.18 741.318 L1011.91 740.523 L1010.78 739.961 L1009.45 740.457 L1007.65 740.155 L1003.94 740.764 L1000.06 742.833 "/></g><g><path fill="none" stroke="#000000" stroke-width="4" stroke-linecap="butt" stroke-linejoin="round" d="M1011.93 779.619 L1011.77 778.835 L1012.23 775.68 L1012.59 775.385 L1012.39 775.721 L1012.41 775.159 L1012.61 775.866 L1012.29 775.905 L1012.43 780.36 L1011.92 784.361 L1011.99 787.378 L1011.37 790.783 L1011.34 793.897 L1009.51 801.787 L1009.25 805.259 L1009.03 806.076 L1008.87 805.808 L1008.67 809.817 L1008.15 812.322 L1007.87 819.041 L1007.22 821.709 L1006.62 826.254 L1006.8 827.246 L1006.63 826.931 L1006.66 828.286 L1006.45 828.155 L1006.77 829.114 L1006.56 828.498 L1006.71 830.258 L1006.59 829.587 L1006.46 829.936 L1006.76 829.797 L1006.54 829.645 L1006.5 830.758 L1006.56 829.952 L1006.41 830.41 L1006.68 830.302 L1006.78 830.939 L1008.42 829.841 "/></g><g><path fill="none" stroke="#000000" stroke-width="4" stroke-linecap="butt" stroke-linejoin="round" d="M1007.63 780.598 L1007.96 779.263 L1008.75 778.574 L1008.65 778.92 L1008.6 778.38 L1008.51 779.092 L1008.2 778.999 L1008.02 779.922 L1007.28 780.621 L1006.8 781.9 L1006.51 781.833 L1005.28 783.612 L1001.17 791.957 L998.919 795.261 L998.188 797.263 L995.678 800.067 L993.854 803.163 L993.443 804.955 L993.209 804.649 L992.166 805.635 L991.863 807.233 L991.222 808.105 L990.931 807.92 L990.404 809.798 L990.513 810.766 L990.461 810.056 L990.168 809.983 L990.919 809.551 L991.214 809.705 L992.462 808.818 L993.429 807.283 "/></g><g><path fill="none" stroke="#000000" stroke-width="4" stroke-linecap="butt" stroke-linejoin="round" d="M1012.8 780.784 L1012.42 780.779 L1012.22 779.187 L1012.58 774.894 L1012.41 775.952 L1012.31 775.461 L1012.29 776.071 L1012.1 775.743 L1012.35 775.775 L1012.29 775.217 L1012.44 776.22 L1012.35 775.9 L1012.16 776.119 L1012.18 775.877 L1012.47 776.226 L1012.47 775.887 L1012.74 779.19 L1013.05 779.137 L1013.42 779.695 L1014.61 784.416 L1017.88 790.614 L1018.47 792.392 L1019.9 794.687 L1021.03 797.814 L1022.27 799.102 L1023.57 803.208 L1025.23 806.264 L1025.84 808.661 L1026.17 809.4 L1026.52 809.118 L1026.62 809.328 L1027.26 812.105 L1027.82 813.25 L1027.93 814.767 L1027.77 818.677 L1027.78 817.905 L1027.13 817.656 "/></g><g><path fill="none" stroke="#000000" stroke-width="4" stroke-linecap="butt" stroke-linejoin="round" d="M1003.79 826.334 L1004.32 824.639 L1004.09 824.419 L1004.23 825.581 L1004.48 824.435 L1004.05 824.343 L1004.2 824.094 L1004.37 824.566 L1004.02 824.786 L1004.15 825.34 L1003.57 827.145 L1002.62 828.932 L1001.83 832.686 L996.362 848.063 L991.794 864.886 L991.233 865.809 L991.275 866.755 L990.25 870.229 L990.049 872.264 L989.714 872.232 L989.161 876.224 L988.924 876.576 L988.929 875.108 L989.043 875.94 L988.645 876.76 L988.774 875.653 L990.633 869.9 "/></g><g><path fill="none" stroke="#000000" stroke-width="4" stroke-linecap="butt" stroke-linejoin="round" d="M1005.46 829.262 L1005.15 829.131 L1005.54 828.55 L1005.83 825.119 L1005.72 825.825 L1005.82 825.338 L1006.02 825.282 L1006.01 825.655 L1005.72 825.433 L1006.34 825.554 L1006.16 825.993 L1005.95 825.589 L1006 826.292 L1006.13 825.802 L1006.52 827.308 L1006.88 827.43 L1008.1 830.097 L1008.14 831.24 L1009.05 832.654 L1010.45 838.801 L1012.06 843.776 L1012.46 846.897 L1014.37 855.444 L1015.16 863.167 L1015.28 866.034 L1014.95 871.322 L1014.82 871.851 L1014.72 871.657 L1014.96 872.119 L1014.89 871.24 L1014.61 872.324 L1014.91 871.519 L1014.7 871.41 L1014.65 871.827 L1015 871.631 L1014.78 871.143 L1014.67 871.814 L1014.58 870.985 L1014.86 870.771 L1015.07 871.162 L1015.88 870.704 "/></g><g><path fill="none" stroke="#bfbfbf" stroke-width="4" stroke-linecap="butt" stroke-linejoin="round" d="M925.218 803.995 L924.87 803.867 L925.13 804.39 L925.293 803.741 L925.052 803.713 L925.355 804.323 L925.177 804.602 L925.15 804.371 L925.673 804.467 L925.565 805.347 L925.218 805.455 L925.384 804.04 L925.225 804.829 L925.614 805.566 L925.454 807.25 L925.723 808.425 L925.38 814.623 L924.537 819.336 L923.901 829.127 L923.511 830.621 L923.357 841.41 L923.762 842.84 L923.702 844.155 L923.687 842.005 L924.564 839.042 L924.928 838.231 L925.176 838.301 L925.984 836.226 "/></g><g><path fill="none" stroke="#bfbfbf" stroke-width="4" stroke-linecap="butt" stroke-linejoin="round" d="M924.525 801.799 L924.106 801.575 L923.866 802.134 L923.675 801.714 L923.919 802.089 L923.718 801.757 L924.13 801.982 L924.076 801.539 L924.004 802.46 L923.779 801.457 L923.794 802.331 L923.787 801.312 L923.837 802.437 L923.884 801.955 L923.658 801.919 L923.975 801.473 L924.214 802.359 L924.498 801.822 L925.059 802.028 L926.64 801.597 L928.655 802.006 L929.665 802.555 L930.355 802.033 L932.269 802.44 L932.703 802.036 L934.265 802.08 L934.812 801.772 L936.002 802.544 L936.587 802.279 L943.114 801.993 L943.859 802.708 L944.744 802.798 L945.636 801.978 L948.869 801.395 L950.577 801.931 L954.521 801.042 L956.23 801.324 L957.424 801.029 L958.735 801.355 L963.539 801.201 L965.779 801.606 L966.439 802.001 L966.88 801.738 L966.974 802.303 L967.612 801.481 L967.917 802.025 L968.166 802.087 L968.155 801.619 L968.437 802.532 L968.745 802.616 L968.849 801.508 L968.85 802.331 L969.248 801.876 L969.549 802.368 L969.909 802.19 L970.049 802.723 L970.528 801.99 L970.819 803.174 L970.536 802.992 L970.515 802.139 L970.422 803.397 L970.4 802.584 L970.346 802.916 L970.74 802.711 L970.442 802.619 L970.331 802.91 L970.256 808.033 L970.576 812.518 L970.348 815.189 L970.941 825.001 L970.621 825.788 L970.188 836.405 L969.855 837.337 L969.561 842.486 L969.371 843.321 L969.256 843.493 L969.186 843.145 L968.834 846.941 L968.678 847.093 L968.566 846.803 L968.598 848.276 L968.466 847.449 L967.851 850.387 L967.875 849.897 L967.546 850.188 L967.885 849.602 L967.693 849.17 L967.425 851.583 L967.298 850.579 L967.346 851.197 L967.075 850.732 L967.078 851.145 L967.486 851.285 L967.14 852.204 L966.996 850.575 L967.395 849.296 "/></g><g><path fill="none" stroke="#bfbfbf" stroke-width="4" stroke-linecap="butt" stroke-linejoin="round" d="M921.51 847.029 L921.405 847.321 L921.568 846.805 L921.444 846.443 L921.413 846.794 L921.29 846.615 L921.514 846.32 L921.454 846.782 L921.323 846.609 L921.486 847.129 L921.571 846.641 L921.651 847.477 L921.95 847.044 L922.416 847.652 L923.972 848.161 L924.703 848.876 L925.32 848.425 L926.464 848.637 L927.326 849.191 L927.829 848.876 L929.456 848.787 L933.018 849.95 L935.058 849.924 L936.211 850.456 L937.255 850.07 L939.316 850.569 L941.302 850.545 L942.533 849.706 L943.592 850.5 L945.306 850.715 L948.168 850.491 L949.073 850.968 L949.581 850.458 L951.788 849.801 L953.807 850.213 L955.66 849.943 L956.298 850.389 L956.536 849.896 L959.621 849.784 L960.266 849.097 L960.754 849.822 L962.538 849.355 L963.069 849.905 L963.395 849.357 L963.94 849.199 L964.206 849.542 L964.724 849.024 L965.593 849.309 L965.515 848.915 L965.958 850.416 L966.138 848.922 L966.188 849.791 L966.038 849.044 L966.054 849.606 L966.104 849.194 L966.37 849.516 L967.169 848.916 L968.24 849 L968.666 848.505 L970.207 848.719 L970.673 849.247 L971.667 848.227 L972.467 847.898 "/></g><g><path fill="none" stroke="#000000" stroke-width="4" stroke-linecap="butt" stroke-linejoin="round" d="M987.53 742.575 L987.275 741.783 L987.219 743.05 L987.292 741.708 L987.485 743.032 L987.592 742.191 L987.643 743.125 L987.581 742.264 L988.536 743.012 L988.71 743.671 L989.047 743.754 L989.201 743.226 L989.577 743.201 L989.821 743.5 L991.738 743.776 L992.219 744.146 L996.069 745.181 L996.467 745.946 L997.01 746.26 L997.457 745.608 L999.265 745.784 L1000.43 744.961 L1001.51 746.483 L1006.64 747.089 L1007.29 748.065 L1008.08 748.301 L1008.7 747.456 L1010.65 747.744 L1011.29 747.527 L1012.29 748.647 L1012.8 748.366 L1015.47 748.356 L1018.08 749.316 L1020.76 749.694 L1021.16 750.378 L1021.79 750.67 L1022.71 750.13 L1024.58 750.217 L1026.42 750.909 L1027.15 750.592 L1027.43 751.087 L1028.58 751.699 L1029.75 751.713 L1031.4 752.426 L1033.07 751.835 L1033.3 752.362 L1034.51 753.042 L1034.83 752.486 L1035.66 752.839 L1036.23 753.646 L1036.37 753.037 L1037.13 752.949 L1037.16 752.567 L1037.71 753.917 L1037.9 753.335 L1038.64 753.262 L1039.42 753.897 L1040.05 753.819 L1040.3 754.433 L1040.62 753.859 L1040.78 754.14 L1040.81 753.498 L1040.53 753.438 L1041.05 754.178 L1040.6 754.132 L1040.68 754.655 L1040.95 753.5 L1040.88 754.071 L1040.74 753.552 L1040.96 753.571 L1040.83 754.68 L1040.77 753.333 L1040.7 754.605 L1040.77 754.191 L1040.48 754.028 L1040.69 753.844 L1040.66 754.364 L1040.14 754.273 L1040.41 754.089 L1040.24 753.383 L1040.15 754.346 L1039.77 753.794 L1038.88 755.251 L1038.63 754.71 "/></g><g><path fill="none" stroke="#000000" stroke-width="4" stroke-linecap="butt" stroke-linejoin="round" d="M1004.8 736.43 L1004.72 735.47 L1004.81 735.672 L1004.95 735.241 L1005.18 735.401 L1005.17 734.256 L1005.29 734.623 L1005.44 734.112 L1004.97 738.4 L1004.67 738.59 L1004.23 741.406 L1003.85 741.682 L1003.61 743.951 L1002.93 744.567 L1002.76 746.878 L1002.51 746.602 L1002.4 747.486 L1002.52 746.252 L1002.3 746.483 L1002 744.956 L1001.98 742.674 L1002.66 740 L1003.07 740.035 L1003.29 738.196 L1003.37 738.721 L1003.8 738.505 L1003.79 738.075 L1003.91 738.458 L1004.07 737.333 L1004.14 737.985 L1004.49 737.746 L1004.46 737.297 L1004.63 737.925 L1005.44 738.378 L1006.15 739.758 L1006.07 743.098 L1005.66 744.852 L1005.67 744.242 L1005.43 744.242 L1005.57 745.783 L1005.74 744.763 L1005.69 744.342 L1005.46 745.249 L1005.36 742.146 L1005.6 740.629 L1007.26 735.699 L1007.58 735.114 L1007.61 735.763 L1007.81 735.665 L1007.66 733.992 L1007.7 735.842 L1007.74 735.272 L1007.97 735.476 L1008.43 737.034 L1007.88 739.619 L1006.97 741.394 L1006.8 741.111 L1006.27 741.836 L1006.04 741.689 L1005.52 742.864 L1005.27 742.539 L1005.16 743.403 L1005.23 741.981 L1005.19 742.346 L1004.68 742.164 L1004.55 740.451 L1004.34 740.656 L1004.15 739.612 L1004.12 738.169 L1004.99 734.207 L1005.17 734.385 L1005.9 733.922 L1006.96 731.941 L1007.22 732.379 L1007.05 732.019 L1006.95 732.295 L1007.02 732.996 L1007.23 732.339 L1007.03 732.202 L1006.92 732.518 L1007.2 732.575 L1007.61 733.984 L1007.6 736.178 L1006.83 740.544 L1006.43 740.942 L1005.77 743.436 L1006.08 742.627 L1006.08 743.527 L1006.3 742.113 L1006.66 741.917 L1007.84 738.859 L1008.02 739.09 L1010.2 735.549 L1010.58 735.891 L1011.02 734.954 L1011.18 735.184 L1011.06 733.676 L1011.09 737.365 L1010.77 739.123 L1010.29 739.68 L1010.37 741.171 L1010.25 740.838 L1009.7 741.503 L1009.52 743 L1008.84 744.113 L1008.73 745.254 L1008.69 744.619 L1008.68 745.525 L1008.82 743.899 L1008.87 744.559 L1010.04 739.583 L1010.36 739.409 L1011.36 736.235 L1011.68 736.336 L1011.93 735.915 L1012.1 736.282 L1012.84 734.693 L1012.54 735.405 L1012.8 736.694 L1012.12 741.101 L1011.6 743.122 L1011.66 742.79 L1011.37 742.856 L1011.1 744.515 L1011.47 741.352 L1011.54 741.792 L1011.8 741.515 L1012.69 736.314 L1014.14 734.957 L1014.26 734.462 L1014.75 734.301 L1014.73 734.695 L1014.85 733.995 L1014.83 735.075 L1015.39 736.443 L1014.89 740.828 L1014.01 744.362 L1014.61 740.362 L1015.15 740.148 L1017.94 735.182 L1018.32 735.585 L1018.64 734.888 L1018.86 735.205 L1019.01 734.88 L1018.78 735.865 L1018.86 734.791 L1019.24 735.819 L1018.8 738.852 L1017.85 741.393 L1017.66 741.654 L1017.58 741.453 L1016.84 744.984 L1016.92 744.007 L1017.22 744.226 L1017.02 743.543 L1017.27 744.32 L1017.71 740.647 L1017.85 741.376 L1018.38 740.741 L1019.05 738.751 L1019.44 738.896 L1020.02 736.379 L1020.19 737.042 L1020.57 736.553 L1020.44 737.315 L1020.27 736.523 L1020.1 736.934 L1020.08 738.737 L1019.38 740.603 L1019.22 742.443 L1019.15 742.146 L1018.76 742.717 L1018.66 742.229 L1018.39 744.834 L1018.47 743.195 L1018.4 743.857 L1018.51 743.663 L1018.83 744.022 L1018.91 743.421 L1018.81 743.753 L1018.58 743.665 L1019.49 742.479 L1019.88 740.5 L1020.78 739.43 L1021.51 737.604 L1021.81 737.665 L1022.7 736.215 L1023.27 736.174 L1023.44 736.446 L1023.62 735.773 L1023.25 736.094 L1023.2 737.916 L1022.81 738.649 L1022.64 738.443 L1022.5 739.894 L1022 740.526 L1021.51 742.659 L1021.01 743.325 L1020.19 746.821 L1020.2 745.498 L1020.4 747.034 L1020.75 745.323 L1021.5 744.476 L1021.82 743.235 L1023.65 739.583 L1024.02 739.889 L1024.26 738.824 L1024.76 738.541 L1024.81 737.738 L1023.96 741.482 L1023.35 742.446 L1023.27 743.903 L1023.23 743.563 L1022.4 744.251 L1021.62 746.991 L1021.81 747.784 L1021.4 748.546 L1021.23 747.939 L1021.34 748.825 L1021.54 747.601 L1021.85 747.883 L1024.17 743.498 L1024.38 743.682 L1024.74 743.314 L1025.99 741.593 L1026.27 742.21 L1026.46 740.579 L1026.27 743.632 L1026.07 743.459 L1024.65 747.791 L1024.61 747.432 L1024.24 747.409 L1024.27 748.499 L1024.51 748.632 L1024.8 747.489 L1024.6 747.107 L1024.57 747.859 L1026.05 744.994 L1026.45 745.5 L1026.97 742.902 L1027.15 743.101 L1028.06 742.048 L1028.2 741.226 L1028.53 741.492 L1028.79 740.839 L1029.02 740.833 L1028.85 741.09 L1028.85 740.278 L1028.71 741.572 L1028.57 740.802 L1027.75 743.873 L1026.22 747.499 L1025.95 748.768 L1026.06 749.02 L1026.11 748.622 L1026.31 748.81 L1026.2 747.493 L1026.2 748.447 L1026.89 746.79 L1028.52 741.665 L1028.67 741.988 L1028.87 741.785 L1030.05 739.825 L1030.22 740.24 L1030.23 739.363 L1029.99 740.37 L1030.04 739.587 L1028.99 741.626 L1027.66 746.269 L1027.57 745.986 L1027.38 746.271 L1027.33 747.367 L1027.14 747.292 L1027.18 748.148 L1028.03 748.894 L1028.99 748.27 "/></g><g><path fill="none" stroke="#bfbfbf" stroke-width="4" stroke-linecap="butt" stroke-linejoin="round" d="M894.671 825.691 L894.336 825.391 L893.528 825.878 L892.956 825.491 L892.903 825.723 L892.158 825.164 L891.633 825.318 L890.957 824.717 L890.92 825.086 L890.487 824.824 L890.518 825.726 L890.395 824.37 L890.208 824.84 L890.39 824.355 L890.27 825.369 L890.392 824.791 L890.387 825.441 L890.528 825.091 L890.633 825.513 L890.691 824.766 L890.787 825.415 L891.162 825.371 L891.758 826.489 L891.964 825.799 L892.868 825.535 L893.362 826.193 L894.495 826.196 L894.853 825.571 L895.299 825.472 L895.532 826.176 L897.401 826.728 L899.003 826.02 L899.794 826.598 L901.85 826.306 L907.974 827.096 L910.158 826.907 L910.979 827.266 L911.702 826.921 L912.544 826.998 L912.942 826.549 L913.368 827.045 L915.113 826.918 L915.337 827.822 L915.845 826.658 L916.069 827.273 L916.485 826.558 L916.859 827.512 L916.952 827.125 L917.528 827.096 L917.251 826.997 L917.389 826.652 L917.726 827.05 L917.964 826.822 "/></g><g><path fill="none" stroke="#bfbfbf" stroke-width="4" stroke-linecap="butt" stroke-linejoin="round" d="M894.893 824.277 L894.698 823.93 L894.884 824.105 L894.604 824.226 L894.635 823.601 L894.389 824.685 L894.271 824.151 L894.525 824.348 L894.721 823.902 L894.661 824.725 L894.864 824.343 L895.636 824.548 L898.023 825.294 L898.35 825.768 L898.629 825.822 L898.866 825.406 L899.756 825.598 L900.123 825.095 L900.569 825.031 L900.806 825.654 L901.511 826.01 L902.698 826.376 L905.038 826.309 L905.483 826.735 L907.608 826.259 L908.085 825.755 L908.782 825.796 L909.265 826.38 L911.137 826.382 L912.12 825.992 L914.047 826.568 L915.503 826.173 L915.914 826.707 L916.988 826.163 L917.354 825.492 L917.77 826.318 L917.473 826.293 L917.56 826.542 L917.751 825.938 L917.994 826.602 L918.361 826.452 L918.396 827.072 L918.667 826.266 L918.847 826.679 L919.168 826.265 L919.405 826.623 L919.686 826.525 L919.8 827.107 L919.759 826.791 L920.022 826.633 L920.136 827.015 L920.53 826.496 L920.625 826.939 L920.931 826.751 L920.846 827.042 L921.51 827.354 L921.861 827.084 L921.825 826.624 L922.094 827.269 L922.486 827.296 L922.572 828.071 L922.89 826.756 L923.001 827.61 L923.001 826.842 L922.843 827.616 L922.748 826.885 L922.708 827.118 L922.34 827.04 "/></g><g><path fill="none" stroke="#bfbfbf" stroke-width="4" stroke-linecap="butt" stroke-linejoin="round" d="M894.591 815.244 L894.17 815.05 L894.095 815.333 L893.988 814.632 L893.719 814.836 L894.083 815.113 L894.074 814.656 L893.934 815.215 L893.951 814.736 L893.931 815.122 L893.956 814.806 L893.559 814.884 L893.482 815.692 L893.409 815.119 L893.043 814.987 L892.999 815.543 L892.738 815.369 L891.562 815.933 L891.503 816.856 L891.09 817.12 L890.886 816.465 L890.679 816.542 L890.019 816.925 L889.618 818.223 L889.298 818.125 L888.657 818.769 L888.378 818.39 L886.908 821.149 L885.844 822.122 L884.958 823.527 L884.683 823.346 L883.151 825.823 L883.437 827.185 L883.613 827.019 L884.004 827.63 L884.093 827.212 L884.315 827.337 L884.472 828.486 L884.985 829.086 L885.619 829.152 L886.453 829.781 L886.999 830.574 L888.665 830.512 L889.353 831.067 L891.132 830.827 L892.388 831.599 L893.594 831.057 L893.937 831.52 L894.303 831.201 "/></g><g><path fill="none" stroke="#bfbfbf" stroke-width="4" stroke-linecap="butt" stroke-linejoin="round" d="M881.225 804.428 L881.527 802.856 L881.733 802.95 L881.814 802.613 L881.796 804.009 L881.927 803.288 L881.595 803.491 L881.636 806.023 L881.188 809.349 L880.988 809.29 L880.688 814.337 L879.879 818.989 L879.925 823.006 L879.534 824.537 L879.264 829.749 L879.417 838.654 L879.539 839.221 L879.732 839.07 L879.668 844.786 L880.174 845.807 L880.067 845.492 L879.864 846.616 L879.757 846.075 L879.703 846.672 L879.966 846.75 L879.698 846.93 L879.671 846.172 L879.568 846.47 L879.566 845.964 L879.284 846.438 L878.746 844.743 L878.411 845.609 L878.427 842.355 "/></g><g><path fill="none" stroke="#bfbfbf" stroke-width="4" stroke-linecap="butt" stroke-linejoin="round" d="M877.797 799.084 L877.681 799.589 L877.742 798.982 L877.228 799.018 L877.315 799.218 L877.008 798.744 L876.895 799.067 L876.37 798.353 L876.023 798.656 L875.657 798.468 L875.579 799.24 L875.315 799.06 L875.3 798.248 L874.729 798.238 L874.61 797.845 L873.77 798.349 L870.848 798.4 L870.31 799.213 L869.87 799.053 L869.559 798.283 L868.916 798.127 L864.91 798.612 L862.4 798.326 L861.326 799.5 L860.863 798.777 L858.919 798.658 L857.753 799.119 L854.798 798.894 L851.328 799.424 L848.995 799.353 L848.342 799.587 L847.831 800.363 L847.265 800.308 L846.843 799.528 L844.829 799.094 L843.84 799.633 L839.109 799.533 L836.68 800.272 L836.34 799.831 L834.869 799.301 L834.367 799.828 L833.728 799.893 L833.324 799.449 L832.341 799.621 L831.875 799.392 L831.361 799.978 L831.241 799.46 L830.163 799.065 L829.584 799.697 L829.245 799.122 L827.753 798.876 L827.342 798.989 L827.222 799.609 L827.186 798.704 L826.999 799.884 L827.195 798.652 L827.828 804.994 L828.261 805.522 L829.5 810.557 L829.448 812.375 L829.57 811.864 L829.746 812.1 L830.504 816.222 L831.065 822.236 L831.28 821.886 L831.425 822.264 L831.699 825.582 L831.881 825.178 L832.578 830.422 L832.688 830.937 L832.963 830.931 L833.565 841.694 L833.237 847.407 L833.343 847.609 L833.48 847.206 L833.412 847.747 L833.654 847.827 L833.275 846.895 L833.431 846.414 L833.46 847.348 L833.448 846.958 L833.479 847.227 L833.706 847.084 L833.478 847.504 L833.73 846.922 L833.559 847.181 L833.393 846.905 L833.678 847.283 L833.463 847.191 L833.431 847.559 L833.625 846.854 L833.301 847.224 L833.504 847.408 L833.506 847.177 L833.533 847.876 L833.399 846.813 L833.259 847.429 L833.526 847.367 L833.502 846.81 L833.347 847.41 L833.828 847.784 L833.574 848.219 L833.455 847.849 L833.817 847.32 L833.522 847.806 L833.72 848.254 L833.751 847.617 L834.201 848 L834.563 847.712 L835.024 848.83 L835.301 848.891 L835.937 847.914 L836.842 848.844 L837.502 848.564 L840.029 848.823 L840.181 849.323 L840.504 849.389 L840.648 848.981 L841.579 848.745 L843.191 848.926 L843.601 848.704 L844.21 849.012 L846.289 849.129 L846.555 848.802 L851.931 848.234 L852.762 847.59 L853.459 847.846 L854.717 847.733 L855.019 848.349 L855.428 848.329 L855.841 847.626 L857.003 846.824 L857.354 847.31 L858.874 846.811 L861.901 846.761 L862.127 847.326 L862.498 847.409 L862.631 846.817 L863.384 846.476 L863.893 846.854 L864.89 846.904 L865.496 846.063 L865.851 846.779 L866.355 846.856 L870.657 846.352 L871.472 846.619 L871.878 846.017 L872.605 847.202 L872.902 846.338 L872.888 846.685 L873.453 846.228 L873.226 846.627 L873.832 846.691 L874.094 847.332 L874.392 846.665 L874.548 847.07 L875.295 846.945 L875.559 846.597 L875.884 847.189 L876.211 846.806 L877.526 847.044 L877.6 847.464 L878.866 846.223 L879.125 846.458 L880.136 845.934 "/></g>
</svg>