<svg width="1404" height="1872" viewBox="0 0 1404 1872" xmlns="http://www.w3.org/2000/svg" xmlns:xlink="http://www.w3.org/1999/xlink"  version="1.2" baseProfile="tiny"><title>applied-hash notes</title>
<g><path fill="none" stroke="#000000" stroke-width="4" stroke-linecap="butt" stroke-linejoin="round" d="M248.804 479.599 L248.307 478.757 L248.762 478.297 L248.543 478.12 L249.031 478.166 L248.544 478.738 L248.754 479.003 L248.441 480.401 L248.576 481.619 L248.267 481.99 L248.187 483.795 L248.8 484.81 L248.745 485.958 L249.853 488.396 L251.575 489.931 L251.627 489.71 L254.786 489.275 L255.887 488.756 L257.051 487.091 L258.163 486.628 L260.668 483.587 L261.085 483.784 L261.547 483.496 L262.188 484.08 L261.931 484.169 L262.326 484.663 L262.64 490.2 L262.043 494.366 L261.935 500.596 L261.626 501.585 L261.664 505.061 L261.143 509.747 L258.339 522.946 L256.887 526.516 L256.769 527.781 L254.97 532.799 L255.469 533.536 L254.755 533.349 L254.593 532.708 L254.844 532.691 L254.999 533.053 L254.621 533.09 L254.078 532.161 L254.77 532.122 L255.633 531.473 "/></g><g><path fill="none" stroke="#000000" stroke-width="4" stroke-linecap="butt" stroke-linejoin="round" d="M289.685 476.996 L289.836 476.652 L289.551 476.837 L291.046 476.912 L290.592 476.845 L291.029 476.794 L291.385 476.242 L291.435 476.844 L293.194 476.909 L293.856 477.364 L294.821 476.976 L297.788 477.739 L298.298 477.399 L300.003 478.425 L302.532 478.854 L304.262 478.885 L304.482 478.629 L305.535 479.002 L306.225 478.512 L306.258 479.037 "/></g><g><path fill="none" stroke="#000000" stroke-width="4" stroke-linecap="butt" stroke-linejoin="round" d="M290.378 485.34 L290.088 484.98 L290.263 485.348 L290.243 485.107 L290.71 485.208 L291.226 484.75 L291.05 485.378 L295.656 485.875 L296.982 485.702 L299.101 486.495 L304.173 486.258 L305.059 486.496 L307.806 485.686 "/></g><g><path fill="none" stroke="#000000" stroke-width="4" stroke-linecap="butt" stroke-linejoin="round" d="M352.692 468.155 L353.179 465.825 L352.961 465.412 L353.454 465.697 L353.054 465.885 L353.448 465.873 L353.175 466.023 L353.467 466.134 L353.045 466.639 L353.337 468.329 L353.059 469.305 L353.754 474.05 L353.59 475.813 L353.949 482.052 L354.379 482.782 L354.24 490.178 L354.59 492.948 L354.433 495.173 L354.891 496.114 L354.467 496.27 L354.277 496.826 L354.392 500.658 L353.704 501.605 L354.201 501.862 L354.004 502.823 L353.874 502.003 L354.328 501.647 L353.824 501.849 L353.73 500.462 L353.31 500.095 L353.234 498.517 "/></g><g><path fill="#000000" d="M876.978 516.529 C876.978 516.529 876.978 516.529 876.978 516.529 C877.484 516.358 877.963 516.031 878.497 516.015 C883.828 515.859 889.169 515.771 894.496 516.015 C895.232 516.049 895.808 516.87 896.543 516.843 C913.312 516.231 930.069 515.261 946.81 514.106 C953.397 513.652 959.931 512.608 966.507 512.015 C967.179 511.954 967.876 511.967 968.526 512.148 C968.903 512.253 969.081 512.843 969.473 512.843 C970.179 512.843 970.777 512.265 971.474 512.148 C972.47 511.981 973.49 512 974.5 512 C975.843 512 977.202 511.924 978.526 512.148 C978.912 512.213 979.081 512.842 979.473 512.843 C980.516 512.845 981.484 512.157 982.527 512.157 C982.935 512.157 983.135 512.869 983.542 512.841 C988.884 512.477 994.159 511.392 999.5 511.001 C1002.49 510.782 1005.51 510.798 1008.5 511.015 C1009.21 511.067 1009.78 511.767 1010.5 511.799 C1010.89 511.816 1011.1 511.246 1011.47 511.147 C1012.13 510.977 1012.83 510.903 1013.5 511.016 C1014.22 511.139 1014.81 511.888 1015.54 511.84 C1019.22 511.597 1022.79 510.465 1026.46 510.16 C1026.88 510.125 1027.12 510.862 1027.54 510.842 C1041.53 510.191 1055.47 508.748 1069.46 508.157 C1070.19 508.126 1070.77 508.885 1071.5 508.985 C1072.5 509.122 1073.54 509.047 1074.53 508.853 C1074.91 508.777 1075.11 508.184 1075.5 508.201 C1076.22 508.233 1076.79 508.934 1077.5 508.985 C1080.49 509.198 1083.51 509.278 1086.49 508.986 C1089.85 508.658 1093.08 507.492 1096.44 507.134 C1097.24 507.048 1098.04 507.937 1098.8 507.671 C1099.76 507.336 1100.7 506.523 1100.98 505.545 C1101.44 503.918 1101.28 502.106 1100.84 500.472 C1100.72 500.017 1099.97 500.023 1099.5 500.031 C1098.97 500.041 1098.37 500.152 1097.99 500.523 C1097.22 501.282 1097.25 502.884 1096.23 503.247 C1092.82 504.467 1089.1 504.632 1085.49 504.986 C1083.17 505.213 1080.82 505.199 1078.5 504.985 C1077.79 504.919 1077.24 504.157 1076.53 504.157 C1075.16 504.157 1073.87 505.009 1072.5 504.984 C1071.45 504.965 1070.55 503.986 1069.5 504.03 C1055.5 504.609 1041.54 506.149 1027.54 506.842 C1027.14 506.862 1026.92 506.288 1026.53 506.158 C1026.18 506.041 1025.8 506.114 1025.44 506.131 C1006.8 507.009 988.184 508.183 969.543 508.843 C969.133 508.858 968.922 508.256 968.526 508.147 C967.875 507.97 967.179 507.954 966.507 508.015 C959.875 508.613 953.291 509.761 946.642 510.121 C922.611 511.423 898.551 512.136 874.5 512.999 C873.158 513.047 871.8 513.064 870.474 512.852 C870.088 512.791 869.89 512.183 869.5 512.201 C868.784 512.233 868.213 512.968 867.497 512.985 C857.168 513.23 846.831 513.244 836.503 512.985 C835.789 512.967 835.241 512.157 834.527 512.157 C833.48 512.157 832.536 512.862 831.496 512.985 C830.176 513.141 828.836 513.024 827.507 512.986 C806.347 512.387 785.182 511.924 764.031 511.074 C753.198 510.639 742.4 509.464 731.563 509.132 C730.503 509.099 729.557 509.953 728.496 509.985 C720.169 510.238 711.831 510.231 703.503 509.985 C702.457 509.954 701.519 509.192 700.473 509.157 C700.081 509.144 699.914 509.798 699.526 509.852 C697.868 510.082 696.178 510.067 694.507 509.986 C688.725 509.708 682.965 509.067 677.184 508.776 C656.626 507.743 636.061 506.841 615.493 506.014 C613.165 505.92 610.823 505.801 608.503 506.015 C607.792 506.081 607.241 506.844 606.527 506.843 C605.156 506.84 603.862 506.158 602.5 506.002 C601.827 505.925 601.131 505.986 600.474 506.148 C599.779 506.319 599.212 506.955 598.496 506.985 C592.505 507.236 586.498 507.242 580.507 506.986 C571.708 506.611 562.93 505.84 554.154 505.095 C551.255 504.849 548.402 504.093 545.493 504.014 C535.167 503.732 524.829 503.72 514.503 504.015 C513.451 504.045 512.544 504.872 511.496 504.985 C509.511 505.199 507.502 505.066 505.507 504.986 C491.18 504.417 476.845 503.974 462.538 503.04 C452.183 502.364 441.894 500.866 431.542 500.159 C431.133 500.131 430.922 500.745 430.526 500.852 C429.874 501.03 429.17 501.095 428.504 500.984 C427.465 500.811 426.548 500.079 425.496 500.015 C421.173 499.753 416.827 499.757 412.503 500.015 C411.455 500.078 410.55 500.949 409.5 500.969 C408.442 500.99 407.495 500.093 406.437 500.132 C399.493 500.388 392.574 501.128 385.664 501.849 C380.256 502.413 374.914 503.572 369.493 503.986 C366.163 504.241 362.804 504.106 359.474 503.852 C359.082 503.822 358.898 503.283 358.528 503.149 C357.998 502.956 357.336 503.193 356.853 502.9 C356.146 502.472 355.87 501.502 355.147 501.102 C354.652 500.828 353.938 500.729 353.452 501.019 C352.495 501.59 351.338 502.369 351.178 503.472 C351.06 504.285 352.189 504.785 352.83 505.298 C353.34 505.706 353.959 505.974 354.576 506.19 C356.525 506.872 358.456 507.739 360.506 507.986 C363.48 508.344 366.508 508.231 369.493 507.986 C375.243 507.515 380.927 506.422 386.666 505.843 C393.584 505.146 400.511 504.473 407.457 504.158 C407.867 504.139 408.078 504.745 408.474 504.852 C409.126 505.03 409.83 505.095 410.496 504.984 C411.535 504.811 412.453 504.083 413.503 504.015 C417.493 503.758 421.507 503.758 425.496 504.015 C426.547 504.083 427.465 504.811 428.504 504.984 C429.17 505.095 429.874 505.03 430.526 504.852 C430.922 504.745 431.133 504.131 431.542 504.159 C441.429 504.832 451.24 506.526 461.142 506.937 C491.872 508.211 522.646 508.16 553.385 509.211 C562.107 509.51 570.786 510.643 579.507 510.986 C585.832 511.235 592.172 511.238 598.496 510.985 C599.212 510.956 599.779 510.319 600.474 510.148 C601.131 509.986 601.823 510.002 602.5 510.002 C603.177 510.002 603.875 509.964 604.526 510.148 C604.903 510.254 605.081 510.842 605.473 510.843 C606.516 510.845 607.484 510.168 608.527 510.157 C608.916 510.153 609.111 510.801 609.5 510.799 C609.891 510.797 610.087 510.198 610.474 510.147 C612.133 509.93 613.822 509.925 615.493 510.014 C624.489 510.491 633.456 511.476 642.457 511.843 C642.885 511.86 643.115 511.139 643.543 511.157 C660.21 511.856 676.835 513.438 693.507 513.986 C705.497 514.381 717.503 514.246 729.496 513.985 C730.232 513.969 730.808 513.119 731.543 513.158 C742.535 513.741 753.469 515.196 764.458 515.841 C764.867 515.865 765.078 515.256 765.474 515.147 C766.126 514.967 766.823 514.982 767.5 515.002 C787.505 515.595 807.503 516.376 827.507 516.986 C829.169 517.037 830.844 517.17 832.496 516.985 C833.209 516.905 833.784 516.233 834.5 516.201 C834.89 516.183 835.096 516.752 835.474 516.852 C836.128 517.027 836.823 516.996 837.5 516.999 C849.833 517.045 862.168 517.146 874.5 516.999 M737.692 472.757 C737.692 472.757 737.692 472.757 737.692 472.757 C749.947 472.224 762.194 471.45 774.457 471.156 C774.867 471.147 775.077 471.744 775.474 471.852 C776.124 472.03 776.819 472.019 777.493 471.985 C794.818 471.12 812.124 469.855 829.457 469.158 C829.867 469.141 830.067 469.796 830.474 469.853 C832.134 470.084 833.824 469.999 835.5 469.999 C836.177 469.999 836.868 470.014 837.526 469.852 C838.221 469.681 838.795 469.115 839.503 469.015 C840.822 468.83 842.178 468.83 843.496 469.015 C844.205 469.115 844.778 469.683 845.474 469.852 C846.129 470.011 846.818 469.995 847.493 469.985 C887.481 469.429 927.466 468.547 967.456 468.156 C967.865 468.151 968.091 468.801 968.5 468.799 C968.89 468.798 969.096 468.248 969.474 468.147 C970.128 467.974 970.823 468.002 971.5 468.002 C972.177 468.002 972.872 467.974 973.526 468.147 C973.904 468.248 974.109 468.799 974.5 468.799 C974.891 468.799 975.096 468.248 975.474 468.147 C976.128 467.973 976.823 468.001 977.5 468.001 C979.176 468.001 980.865 467.926 982.526 468.147 C982.913 468.199 983.109 468.799 983.5 468.799 C983.89 468.799 984.096 468.248 984.474 468.147 C985.128 467.973 985.823 468.002 986.5 468.001 C1013.16 467.958 1039.85 467.076 1066.49 468.014 C1076.55 468.368 1086.44 470.703 1096.44 471.87 C1097.78 472.027 1099.15 472.07 1100.5 471.984 C1100.97 471.954 1101.63 471.953 1101.84 471.528 C1102.21 470.777 1102.58 469.565 1101.95 469.022 C1100.74 467.992 1098.94 467.931 1097.37 467.709 C1087.11 466.259 1076.85 464.36 1066.49 464.014 C1039.84 463.123 1013.16 463.958 986.5 464.001 C985.823 464.002 985.128 463.973 984.474 464.147 C984.096 464.248 983.89 464.816 983.5 464.799 C982.783 464.767 982.212 464.056 981.496 464.015 C977.504 463.788 973.498 463.942 969.5 464.001 C928.83 464.599 888.163 465.378 847.493 465.985 C846.818 465.995 846.123 466.035 845.474 465.852 C845.095 465.745 844.914 465.214 844.526 465.148 C843.202 464.921 841.843 465.001 840.5 465.001 C839.823 465.001 839.131 464.986 838.474 465.148 C837.779 465.319 837.207 465.9 836.496 465.985 C834.844 466.183 833.156 466.179 831.503 465.985 C830.773 465.899 830.192 465.131 829.457 465.158 C812.123 465.795 794.832 467.38 777.497 467.97 C776.451 468.006 775.549 467.007 774.503 467.03 C762.171 467.299 749.874 468.532 737.543 468.843 C736.807 468.862 736.231 468.059 735.496 468.015 C731.506 467.78 727.494 467.78 723.503 468.015 C722.769 468.059 722.192 468.864 721.457 468.844 C698.125 468.195 674.824 466.667 651.493 466.014 C641.167 465.724 630.829 465.725 620.503 466.015 C619.453 466.045 618.55 466.966 617.5 466.969 C616.452 466.972 615.548 466.048 614.5 466.031 C613.442 466.013 612.494 466.91 611.437 466.868 C603.77 466.569 596.15 465.502 588.493 465.014 C587.155 464.928 585.796 464.927 584.474 465.148 C584.089 465.212 583.898 465.712 583.529 465.842 C583.186 465.963 582.799 465.907 582.437 465.867 C579.082 465.496 575.751 464.904 572.389 464.609 C557.791 463.326 543.19 462.028 528.563 461.132 C527.842 461.088 527.223 461.82 526.5 461.799 C525.783 461.779 525.211 461.081 524.497 461.015 C522.829 460.861 521.133 460.918 519.474 461.148 C519.086 461.202 518.918 461.856 518.527 461.843 C517.481 461.808 516.543 461.042 515.496 461.015 C505.501 460.76 495.495 460.747 485.5 461.001 C469.823 461.399 454.175 462.652 438.497 462.97 C437.447 462.992 436.542 462.106 435.496 462.015 C432.842 461.785 430.16 461.816 427.503 462.015 C426.459 462.094 425.519 462.808 424.473 462.843 C424.082 462.856 423.909 462.229 423.526 462.148 C422.538 461.939 421.51 462.001 420.5 462.001 C419.823 462.001 419.131 461.986 418.474 462.148 C417.779 462.319 417.208 462.91 416.496 462.985 C414.51 463.193 412.492 463.18 410.503 462.985 C409.79 462.915 409.217 462.201 408.5 462.201 C407.783 462.201 407.209 462.905 406.496 462.985 C404.842 463.17 403.157 463.17 401.503 462.985 C400.791 462.905 400.217 462.201 399.5 462.201 C398.783 462.201 398.211 462.928 397.496 462.985 C394.839 463.197 392.165 463.027 389.5 463 C388.478 462.989 387.449 463.014 386.437 462.871 C382.774 462.351 379.186 461.252 375.493 461.014 C369.508 460.627 363.497 460.964 357.5 461.001 C356.814 461.005 356.077 460.868 355.446 461.138 C353.137 462.125 350.975 463.43 348.817 464.714 C348.526 464.886 348.285 465.167 348.15 465.476 C348.011 465.791 347.936 466.17 348.031 466.5 C348.237 467.215 348.477 467.993 349.02 468.503 C349.396 468.855 350.058 469.055 350.528 468.842 C352.647 467.882 354.405 466.257 356.446 465.138 C356.758 464.967 357.15 465.017 357.506 465.014 C363.501 464.975 369.511 464.616 375.493 465.014 C378.858 465.237 382.099 466.397 385.438 466.87 C386.779 467.061 388.145 466.993 389.5 467 C395.165 467.031 400.836 467.223 406.496 466.985 C407.213 466.955 407.783 466.201 408.5 466.201 C409.217 466.201 409.79 466.915 410.503 466.985 C412.492 467.18 414.51 467.193 416.496 466.985 C417.208 466.91 417.779 466.319 418.474 466.148 C419.132 465.986 419.823 466.002 420.5 466.002 C421.177 466.002 421.868 465.987 422.526 466.148 C423.221 466.318 423.788 466.999 424.504 466.984 C426.201 466.948 427.809 466.15 429.5 466.001 C431.491 465.826 433.509 465.801 435.496 466.015 C436.541 466.128 437.45 466.969 438.5 466.969 C439.55 466.969 440.454 466.05 441.503 466.015 C450.163 465.73 458.836 465.76 467.496 466.015 C468.232 466.037 468.808 466.882 469.542 466.841 C474.89 466.544 480.155 465.226 485.507 465.014 C495.495 464.617 505.504 464.726 515.496 465.015 C516.546 465.046 517.45 465.941 518.5 465.969 C519.212 465.988 519.774 465.282 520.474 465.148 C521.464 464.959 522.498 464.876 523.496 465.015 C524.204 465.114 524.759 465.817 525.473 465.843 C526.199 465.868 526.817 465.115 527.542 465.159 C542.177 466.04 556.784 467.33 571.389 468.609 C575.107 468.934 578.774 469.817 582.503 469.97 C583.214 470 583.775 469.282 584.474 469.148 C585.463 468.958 586.488 468.946 587.493 469.014 C595.505 469.554 603.479 470.668 611.503 470.97 C612.549 471.01 613.453 470.031 614.5 470.031 C615.548 470.031 616.452 470.972 617.5 470.969 C618.55 470.966 619.453 470.045 620.503 470.015 C630.829 469.725 641.167 469.722 651.493 470.014 C674.818 470.673 698.112 472.23 721.437 472.869 C722.497 472.898 723.444 472.079 724.503 472.015 C728.161 471.793 731.838 471.809 735.496 472.015 "/></g><g><path fill="none" stroke="#000000" stroke-width="4" stroke-linecap="butt" stroke-linejoin="round" d="M1101.79 465.836 L1101.8 465.537 L1101.07 465.372 L1100.46 464.118 L1100.63 463.915 L1100.08 464.072 L1100.3 464.146 L1100.29 464.556 L1100.11 464.244 L1100.39 464.857 L1101.14 472.994 L1101.12 478.727 L1100.67 481.715 L1100.75 486.727 L1100 490.246 L1099.36 496.794 L1098 504.386 L1098.1 507.119 L1098.28 506.244 L1098.22 507.052 L1098.34 506.212 L1099.97 504.872 "/></g><g><path fill="#000000" d="M498.79 466.679 C498.79 466.679 498.79 466.679 498.79 466.679 C499.807 465.961 501.046 465.484 501.841 464.526 C502.126 464.183 501.882 463.595 501.682 463.196 C501.295 462.419 500.865 461.57 500.133 461.104 C499.666 460.807 498.975 460.92 498.472 461.151 C497.905 461.411 497.329 461.877 497.149 462.474 C496.854 463.448 496.779 464.578 497.149 465.526 "/></g><g><path fill="none" stroke="#000000" stroke-width="4" stroke-linecap="butt" stroke-linejoin="round" d="M353.936 477.086 L353.896 476.871 L353.554 477.202 L354.457 477.027 L354.041 476.917 L354.616 476.647 L354.228 476.821 L354.224 476.346 L354.583 477.023 L354.461 476.444 L354.353 476.784 L354.743 476.847 L354.46 476.749 L354.661 476.576 L354.197 476.831 L354.651 476.882 L354.459 476.67 L354.531 476.897 L354.915 476.585 L354.889 476.257 L354.639 477.103 L354.423 476.85 L354.691 476.747 L354.366 476.876 L354.701 476.396 L354.4 476.832 L354.612 477.075 L354.341 476.753 L354.07 477.079 L354.6 477.158 L354.161 476.98 L354.396 476.607 L354.17 477.159 L353.458 477.196 L353.723 477.167 L353.635 476.864 L353.433 477.367 L353.761 477.138 L353.447 477.266 L353.707 477.624 L353.323 477.096 L353.727 477.285 L353.784 476.856 L353.705 477.106 L354.186 476.691 L354.229 476.914 L355.5 475.939 L357.947 473.557 L358.731 472.064 L359.218 472.01 L361.722 469.019 L364.798 466.044 L368.193 464.123 L368.9 463.595 L368.762 463.106 L370.538 462.054 L371.131 461.284 L373.109 460.292 L373.555 459.523 L374.178 459.558 L375.452 458.535 L375.101 459.449 "/></g><g><path fill="none" stroke="#000000" stroke-width="4" stroke-linecap="butt" stroke-linejoin="round" d="M356.437 486.874 L356.206 487.155 L356.336 486.643 L355.557 486.807 L355.682 486.968 L355.551 486.769 L356.158 485.92 L355.849 486.42 L355.953 486.169 L356.2 486.406 L356.087 486.139 L357.003 485.544 L358.373 482.899 L359.854 481.615 L363.135 477.546 L365.298 475.741 L366.157 474.311 L368.386 472.583 L369.392 471.406 L371.212 470.22 L372.291 468.973 L373.535 468.306 L374.011 467.576 L376.755 465.812 L377.659 465.654 L379.02 464.263 L380.816 463.295 "/></g><g><path fill="none" stroke="#000000" stroke-width="4" stroke-linecap="butt" stroke-linejoin="round" d="M353.866 499.118 L353.469 499.143 L353.595 498.864 L353.844 499.022 L353.905 498.71 L353.598 498.782 L354.002 498.827 L353.974 498.488 L353.896 498.859 L354.039 498.494 L354.34 498.684 L354.386 498.024 L354.403 498.451 L355.775 497.018 L359.397 491.915 L360.809 490.698 L361.865 488.791 L369.068 481.151 L370.976 479.948 L373.405 477.774 L376.849 473.793 L378.148 473.087 L379.586 471.707 L380.224 470.65 L384.572 467.2 L384.976 467.178 L385.632 466.453 L386.757 466.151 L386.838 465.765 L387.475 465.958 L387.496 466.911 "/></g><g><path fill="none" stroke="#000000" stroke-width="4" stroke-linecap="butt" stroke-linejoin="round" d="M354.359 504.763 L354.916 504.773 L354.737 504.396 L355.033 504.997 L355.466 504.378 L354.943 504.604 L357.804 502.498 L358.647 501.11 L360.16 500.115 L361.68 498.131 L363.667 496.807 L366.923 493.375 L370.301 491.153 L374.367 487.098 L378.371 483.938 L382.763 479.507 L384.487 478.412 L387.986 475.049 L391.433 472.3 L393.316 469.73 L394.741 468.876 L397.014 466.616 L398.503 466.119 L401.261 463.224 L402.109 462.886 L403.41 461.654 L404.128 461.633 L403.658 461.98 L403.057 463.314 "/></g><g><path fill="none" stroke="#000000" stroke-width="4" stroke-linecap="butt" stroke-linejoin="round" d="M372.685 498.514 L372.34 498.547 L372.438 498.899 L372.713 498.594 L372.396 498.474 L372.311 498.856 L372.271 498.476 L372.286 498.71 L372.547 498.478 L372.578 498.923 L372.338 498.71 L372.737 498.689 L372.7 498.301 L372.838 498.736 L372.871 498.401 L373.113 498.565 L375.704 496.989 L376.183 496.31 L378.966 494.171 L381.815 490.787 L385.863 487.701 L387.218 485.707 L388.686 484.911 L397.54 476.804 L403.425 472.231 L408.192 467.545 L410.619 466.118 L412.703 464.268 L413.601 463.975 L415.163 462.267 L415.075 462.518 L415.338 462.336 L415.486 462.659 L414.902 464.2 "/></g><g><path fill="none" stroke="#000000" stroke-width="4" stroke-linecap="butt" stroke-linejoin="round" d="M381.676 501.539 L382.226 501.239 L381.999 501.628 L382.126 501.08 L382.236 501.418 L383.782 499.83 L384.298 498.752 L386.543 496.808 L389.222 493.478 L394.252 489.754 L396.361 487.611 L399.224 485.413 L405.134 481.742 L406.43 480.841 L407.357 479.732 L409.81 478.55 L411.396 477.228 L411.832 477.544 L412.445 477.232 L415.088 475.701 L417.752 473.541 L419.081 473.212 L421.946 470.424 L424.244 469.184 L424.57 468.325 L425.075 467.94 L425.502 468.324 L427.203 467.811 L427.751 467.016 "/></g><g><path fill="none" stroke="#000000" stroke-width="4" stroke-linecap="butt" stroke-linejoin="round" d="M397.946 499.764 L397.119 500.29 L397.26 500.559 L397.135 500.156 L397.539 500.184 L397.009 500.218 L397.662 499.996 L397.453 500.271 L397.745 499.893 L397.69 500.256 L397.671 499.776 L397.752 500.081 L397.85 499.709 L398.469 499.544 L399.148 498.353 L399.758 498.043 L403.979 493.497 L404.796 493.137 L406.628 490.839 L410.263 488.111 L412.202 485.994 L422.397 478.027 L423.925 476.514 L427.897 474.403 L435.905 467.906 L438.797 466.099 L440.029 464.783 L443.71 462.652 L444.588 461.587 L449.496 458.624 L449.785 458.703 L449.31 458.741 L448.55 460.375 "/></g><g><path fill="none" stroke="#000000" stroke-width="4" stroke-linecap="butt" stroke-linejoin="round" d="M416.221 497.174 L416.144 496.679 L416.401 496.837 L416.111 496.56 L416.3 497.049 L416.137 496.85 L416.575 496.909 L416.032 496.908 L416.251 497.068 L416.529 496.681 L416.563 497.463 L416.862 497.153 L416.596 496.755 L416.94 496.885 L417.693 496.063 L418.524 495.71 L419.632 494.266 L421.136 493.563 L421.513 492.964 L429.61 487.089 L431.052 485.406 L433.661 483.443 L435.135 481.386 L436.084 480.572 L437.029 480.531 L439.233 478.916 L441.331 476.608 L445.052 474.397 L449.643 470.052 L454.994 466.922 L455.229 466.448 L457.498 465.773 L457.632 465.482 L458.095 466 L458.204 465.691 L458.232 466.55 "/></g><g><path fill="none" stroke="#000000" stroke-width="4" stroke-linecap="butt" stroke-linejoin="round" d="M428.739 500.121 L428.5 500.336 L428.821 500.273 L428.777 499.89 L428.569 500.16 L428.695 499.764 L428.726 500.1 L429.121 500.034 L428.876 499.838 L429.132 499.615 L429.145 499.86 L429.2 499.516 L429.391 499.788 L429.378 499.367 L430.175 498.892 L430.174 498.411 L430.824 498.158 L430.923 497.383 L431.401 497.364 L431.632 496.646 L432.338 496.476 L434.056 494.633 L435.612 493.63 L435.988 492.835 L437.612 492.275 L449.163 483.24 L450.799 482.321 L453.209 480.331 L454.835 478.449 L455.651 478.26 L462.153 472.811 L462.823 472.533 L463.784 470.984 L465.553 469.222 L469.592 466.532 L472.102 465.433 L472.405 465.053 L472.209 464.979 L472.524 465.516 L472.128 465.957 "/></g><g><path fill="#000000" d="M479.45 507.829 C479.45 507.829 479.45 507.829 479.45 507.829 C480.476 507.837 481.582 508.251 482.527 507.851 C484.158 507.161 485.325 505.67 486.815 504.713 C488.216 503.812 489.804 503.222 491.184 502.289 C492.876 501.144 494.437 499.814 496 498.498 C496.328 498.222 496.678 497.923 496.842 497.527 C496.977 497.203 497.012 496.78 496.842 496.473 C496.541 495.928 496.105 495.377 495.526 495.149 C494.889 494.899 494.071 494.815 493.474 495.149 C490.076 497.053 486.864 499.299 483.81 501.715 C482.07 503.091 480.446 504.666 479.158 506.472 M468.796 505.695 C468.796 505.695 468.796 505.695 468.796 505.695 C470.925 504.56 473.198 503.659 475.184 502.288 C477.562 500.648 479.48 498.41 481.816 496.711 C483.163 495.732 484.798 495.212 486.184 494.289 C487.806 493.207 489.177 491.772 490.815 490.713 C493.432 489.019 496.458 487.959 498.92 486.046 C499.335 485.724 499.077 484.945 498.849 484.471 C498.579 483.909 498.107 483.376 497.526 483.149 C496.88 482.896 496.041 482.782 495.446 483.138 C488.377 487.36 481.622 492.09 474.81 496.715 C473.198 497.809 471.806 499.206 470.185 500.287 C468.8 501.211 467.224 501.822 465.817 502.713 C465.531 502.894 465.286 503.167 465.15 503.476 C465.011 503.791 464.985 504.159 465.031 504.5 C465.095 504.967 465.023 505.7 465.472 505.843 M458.959 503.523 C458.959 503.523 458.959 503.523 458.959 503.523 C460.243 502.254 461.428 500.876 462.81 499.715 C463.51 499.126 464.519 498.954 465.166 498.308 C465.897 497.577 466.101 496.422 466.834 495.692 C467.572 494.958 468.673 494.689 469.472 494.023 C470.676 493.02 471.57 491.673 472.81 490.715 C476.031 488.226 479.411 485.945 482.815 483.713 C484.207 482.799 485.829 482.257 487.184 481.289 C488.181 480.576 488.853 479.481 489.81 478.715 C490.533 478.137 491.479 477.877 492.19 477.285 C493.17 476.469 494.234 475.648 494.842 474.527 C495.088 474.075 494.752 473.47 494.503 473.02 C494.292 472.641 493.927 472.328 493.527 472.158 C493.204 472.02 492.763 471.96 492.472 472.158 C484.138 477.848 475.747 483.484 467.81 489.715 C464.623 492.217 462.168 495.537 459.19 498.285 C458.272 499.132 456.771 499.393 456.15 500.476 C455.73 501.207 456.189 502.196 456.497 502.981 C456.656 503.384 457.049 503.749 457.472 503.842 M441.469 502.963 C441.469 502.963 441.469 502.963 441.469 502.963 C442.71 502.404 444.083 502.076 445.19 501.285 C446.569 500.299 447.487 498.774 448.81 497.715 C450.832 496.098 453.168 494.902 455.19 493.285 C456.513 492.226 457.464 490.744 458.81 489.715 C463.144 486.401 467.79 483.512 472.19 480.285 C472.796 479.84 473.198 479.152 473.81 478.715 C475.541 477.479 477.529 476.614 479.19 475.285 C480.882 473.932 482.118 472.068 483.81 470.715 C485.471 469.386 487.489 468.561 489.19 467.285 C490.171 466.55 490.844 465.457 491.816 464.711 C493.09 463.734 494.913 463.417 495.892 462.144 C496.435 461.438 496.405 460.163 495.843 459.472 C495.334 458.846 494.229 458.945 493.446 459.138 C492.452 459.384 491.614 460.081 490.81 460.715 C489.85 461.473 489.179 462.565 488.19 463.285 C485.498 465.243 482.448 466.686 479.81 468.715 C478.093 470.036 476.818 471.856 475.19 473.285 C473.938 474.385 472.557 475.331 471.19 476.285 C467.096 479.142 462.804 481.719 458.81 484.715 C457.454 485.732 456.513 487.226 455.19 488.285 C453.168 489.902 450.832 491.098 448.81 492.715 C447.487 493.774 446.55 495.273 445.19 496.285 C443.284 497.703 440.76 498.274 439.08 499.954 C438.593 500.442 439.198 501.359 439.497 501.98 C439.687 502.374 440.086 502.658 440.478 502.853 "/></g><g><path fill="none" stroke="#000000" stroke-width="4" stroke-linecap="butt" stroke-linejoin="round" d="M354.333 487.221 L353.967 486.823 L353.847 487.091 L354.129 486.571 L353.787 486.569 L354.289 487.065 L354.16 486.845 L354.553 486.417 L354.225 486.996 L354.645 487.055 L356.705 490.592 L357.705 491.492 L357.652 491.873 L359.609 495.487 L364.158 501.392 L364.704 501.345 L365.342 502.625 L366.973 504.388 L370.723 507.22 L372.301 508.873 L372.859 508.928 L373.147 509.511 L373.533 509.555 L373.678 509.262 L374.171 509.613 L374.702 507.61 "/></g><g><path fill="none" stroke="#000000" stroke-width="4" stroke-linecap="butt" stroke-linejoin="round" d="M360.311 474.236 L359.552 473.649 L359.763 473.643 L359.64 472.819 L359.648 473.306 L359.558 473.041 L360.044 473.05 L359.829 473.316 L360.135 473.485 L360.022 473.856 L361.27 475.628 L362.662 476.465 L364.934 479.688 L366.536 481.186 L367.232 482.445 L374.06 489.592 L374.768 490.915 L385.352 501.148 L385.506 501.894 L384.621 501.468 "/></g><g><path fill="none" stroke="#000000" stroke-width="4" stroke-linecap="butt" stroke-linejoin="round" d="M362.042 459.944 L362.001 459.452 L361.427 459.325 L362.048 458.999 L362.049 459.887 L363.578 461.069 L367.029 465.935 L371.865 470.851 L374.551 475.351 L376.132 476.675 L379.427 480.717 L383.434 484.583 L385.386 486.991 L387.981 489.313 L391.379 493.692 L392.351 494.272 L395.523 497.922 L396.607 499.389 L396.739 500.038 L397.376 500.172 L397.716 501.019 L397.359 500.14 "/></g><g><path fill="none" stroke="#000000" stroke-width="4" stroke-linecap="butt" stroke-linejoin="round" d="M383.929 464.155 L382.615 463.343 L382.341 462.986 L382.624 462.96 L382.245 462.864 L382.344 462.512 L383.069 463.413 L384.084 463.771 L388.016 468.46 L388.766 470.005 L389.368 470.243 L394.753 476.564 L396.059 477.496 L399.274 481.034 L407.176 488.725 L407.766 489.987 L411.826 494.676 L415.167 499.808 L415.115 500.345 L415.388 500.55 L415.179 500.547 L414.196 498.938 "/></g><g><path fill="none" stroke="#000000" stroke-width="4" stroke-linecap="butt" stroke-linejoin="round" d="M398.341 464.573 L397.62 463.279 L398.061 462.207 L398.253 462.984 L400.525 464.796 L401.24 466.271 L402.188 466.668 L407.359 475.013 L410.392 478.024 L413.54 482.014 L414.699 482.944 L415.875 484.923 L418.373 487.976 L422.749 492.769 L426.488 496.061 L429.687 499.566 L433.311 503.714 L433.853 505.073 L433.973 504.494 L433.86 504.84 L432.511 501.148 "/></g><g><path fill="none" stroke="#000000" stroke-width="4" stroke-linecap="butt" stroke-linejoin="round" d="M420.748 469.679 L420.652 468.438 L420.408 468.449 L420.841 468.543 L420.946 468.115 L420.728 468.646 L421.124 468.565 L420.866 468.543 L421.089 469.178 L421.827 469.205 L422.02 469.513 L422.314 469.203 L422.606 469.351 L422.85 470.248 L423.927 471.807 L428.167 476.201 L430.433 479.614 L433.913 482.836 L434.798 484.278 L440.627 490.633 L452.242 501.267 L452.739 502.211 L451.612 498.736 "/></g><g><path fill="none" stroke="#000000" stroke-width="4" stroke-linecap="butt" stroke-linejoin="round" d="M433.103 464.229 L432.807 463.985 L433.054 463.836 L433.86 463.936 L433.986 464.234 L435.694 464.821 L438.742 467.48 L442.225 472.161 L443.717 474.672 L444.703 475.478 L446.483 478.67 L447.796 479.963 L451.178 485.67 L454.174 488.831 L456.273 492.457 L457.761 493.689 L458.173 494.711 L460.579 496.829 L462.635 499.241 L464.154 500.307 L464.336 499.817 L464.411 500.219 L464.783 500.12 L465.049 499.453 L464.871 497.488 "/></g><g><path fill="none" stroke="#000000" stroke-width="4" stroke-linecap="butt" stroke-linejoin="round" d="M448.34 470.037 L447.308 469.044 L447.521 468.406 L447.052 467.472 L447.231 467.25 L447.584 467.747 L447.467 467.279 L447.502 467.745 L449.047 468.136 L454.146 471.697 L456.001 474.647 L457.314 475.511 L461.727 480.409 L463.56 481.751 L464.649 483.174 L467.824 485.835 L468.133 486.479 L469.641 487.254 L472.625 490.441 L474.537 491.926 L477.512 494.965 L479.952 498.16 L480.696 497.748 L480.408 496.214 "/></g><g><path fill="#000000" d="M493.959 496.523 C493.959 496.523 493.959 496.523 493.959 496.523 C494.254 496.193 494.822 495.974 494.843 495.532 C494.887 494.61 493.928 493.755 494.133 492.855 C494.353 491.893 495.622 491.462 495.982 490.544 C496.239 489.89 496.061 489.116 495.866 488.441 C495.497 487.166 494.936 485.947 494.314 484.774 C493.406 483.062 492.544 481.284 491.285 479.81 C488.654 476.729 485.44 474.188 482.715 471.19 C482.1 470.513 481.963 469.473 481.308 468.834 C479.868 467.431 478.303 466.1 476.527 465.158 C476.072 464.916 475.44 465.201 475.019 465.498 C474.282 466.017 473.425 466.627 473.201 467.5 C473.046 468.102 473.606 468.744 474.081 469.145 C475.306 470.179 476.969 470.619 478.162 471.69 C478.933 472.382 479.101 473.577 479.834 474.308 C481.082 475.551 482.778 476.282 484.023 477.528 C484.766 478.271 485.055 479.372 485.715 480.19 C486.483 481.142 487.514 481.86 488.285 482.81 C489.031 483.729 489.685 484.73 490.247 485.772 C490.881 486.948 491.536 488.145 491.86 489.441 C491.974 489.895 491.881 491.081 491.505 490.801 C488.785 488.77 486.739 485.957 484.19 483.715 C483.401 483.021 482.304 482.732 481.528 482.023 C478.552 479.304 475.696 476.448 472.977 473.472 C472.268 472.696 471.945 471.628 471.285 470.81 C470.515 469.856 469.424 469.181 468.711 468.184 C467.744 466.829 467.226 465.192 466.289 463.816 C465.811 463.114 465.111 462.591 464.5 462.001 C464.19 461.702 463.942 461.265 463.526 461.149 C462.867 460.965 462.075 460.832 461.472 461.158 C461.055 461.383 461.062 462.032 461.017 462.504 C460.952 463.176 460.834 463.929 461.149 464.526 C461.634 465.449 462.657 465.978 463.285 466.81 C465.85 470.205 467.978 473.932 470.715 477.19 C473.17 480.112 475.912 482.802 478.81 485.285 C480.521 486.751 482.725 487.555 484.472 488.977 C486.236 490.412 487.793 492.094 489.285 493.81 C489.977 494.606 490.239 495.737 490.992 496.477 C491.369 496.847 491.971 496.961 492.499 496.969 M494.829 475.55 C494.829 475.55 494.829 475.55 494.829 475.55 C494.837 474.859 495.247 474.045 494.853 473.478 C493.45 471.46 491.316 470.054 489.715 468.19 C489.03 467.393 488.678 466.351 488.023 465.528 C487.426 464.777 486.763 464.054 485.982 463.498 C485.558 463.196 485.017 463.02 484.496 463.016 C483.702 463.011 482.7 462.892 482.158 463.472 C481.69 463.972 481.803 464.935 482.149 465.526 C482.914 466.832 484.32 467.644 485.285 468.81 C486.118 469.816 486.598 471.107 487.529 472.024 C489.01 473.483 490.574 474.957 492.446 475.862 "/></g><g><path fill="none" stroke="#000000" stroke-width="4" stroke-linecap="butt" stroke-linejoin="round" d="M489.955 479.093 L490.251 478.951 L489.976 479.286 L489.594 478.835 L489.774 479.121 L489.56 479.126 L489.974 479.088 L489.889 478.609 L489.849 479.215 L490.002 478.902 L490.156 479.178 L489.942 479.199 L490.492 479.331 L492.287 481.702 L492.556 482.595 L492.99 482.951 L493.108 482.604 L493.98 483.364 L494.064 483.103 L495.662 485.763 L496.077 485.906 L497.853 488.088 L500.067 489.61 L500.729 491.184 L501.218 491.349 L502.887 493.377 L503.74 495.105 L505.245 496.205 L505.436 497.118 L506.539 497.503 L507.016 498.398 L507.566 498.481 L508.249 499.763 L508.386 499.175 L508.232 499.803 L508.481 499.982 L508.374 499.328 L508.166 499.829 L508.203 499.44 L508.375 499.846 "/></g><g><path fill="none" stroke="#000000" stroke-width="4" stroke-linecap="butt" stroke-linejoin="round" d="M489.747 468.77 L489.291 468.582 L489.349 468.039 L488.975 468.418 L488.599 467.429 L488.901 467.875 L489.11 467.712 L488.863 467.979 L489.031 468.321 L489.825 468.335 L490.307 468.758 L490.862 468.583 L491.555 470.075 L494.494 473.031 L495.848 475.391 L496.334 475.502 L497.695 477.254 L498.258 476.946 L500.131 480.849 L501.701 482.806 L504.797 487.794 L505.729 488.729 L507.907 492.306 L508.391 492.525 L510.556 497.216 L511.009 497.079 L511.672 497.733 L512.477 499.417 L514.623 502.287 L515.99 503.331 L516.417 504.252 L517.193 504.643 L517.386 505.185 L518.645 505.534 L518.543 504.865 L518.952 505.841 L519.161 505.788 L518.98 506.156 L519.185 505.722 L518.976 505.556 L518.975 505.843 L519.198 505.888 L519.15 505.591 L518.881 505.688 L518.715 505.308 L518.084 505.503 L516.969 502.948 "/></g><g><path fill="none" stroke="#000000" stroke-width="4" stroke-linecap="butt" stroke-linejoin="round" d="M495.295 462.933 L495.071 460.992 L495.036 461.372 L495.768 461.868 L496.186 461.831 L498.718 463.295 L508.035 475.14 L511.817 481.278 L512.773 481.889 L513.87 483.326 L514.551 483.65 L515.49 485.415 L520.05 490.15 L520.836 491.612 L523.205 493.135 L524.492 494.539 L524.704 495.254 L525.237 495.219 L525.982 496.551 L527.52 497.777 L528.709 499.534 L528.837 500.332 L529.595 500.777 L529.675 501.43 L530.365 502.223 L530.199 502.517 L530.601 502.724 L530.527 502.218 L530.39 502.899 L530.525 502.69 L530.562 503.084 L530.814 503.01 L530.707 504.279 L530.742 503.173 L531.173 504.273 L530.919 504.003 L530.955 504.437 L531.009 503.957 L530.588 503.407 "/></g><g><path fill="none" stroke="#000000" stroke-width="4" stroke-linecap="butt" stroke-linejoin="round" d="M515.263 466.322 L515.111 466.769 L514.897 466.161 L515.028 466.541 L515.114 465.908 L515.126 466.582 L514.962 465.903 L515.482 466.294 L515.375 465.34 L515.599 467.131 L515.992 466.78 L517.261 467.521 L517.766 468.766 L520.327 471.551 L522.357 474.632 L522.961 474.736 L524.643 476.619 L525.107 476.75 L526.062 479.247 L533.964 488.734 L535.898 491.996 L539.258 495.671 L541.471 498.98 L542.339 499.742 L544.968 503.924 L548.14 506.559 L548.505 507.375 L549.576 508.211 L549.477 507.418 L549.281 507.949 L549.015 507.898 L548.188 506.094 L545.809 503.055 "/></g><g><path fill="none" stroke="#000000" stroke-width="4" stroke-linecap="butt" stroke-linejoin="round" d="M530.477 466.594 L530.332 466.763 L530.645 466.682 L530.54 466.466 L531.071 467.327 L531.651 467.361 L532.061 468.333 L533.312 469.402 L534.321 471.25 L535.362 471.715 L536.506 472.794 L537.392 474.321 L538.801 475.202 L540.031 477.449 L542.158 480.192 L548.261 487.168 L551.241 490.067 L553.911 495.008 L554.43 495.646 L554.927 495.56 L555.3 495.875 L558.501 499.546 L558.896 499.463 L560.072 501.68 L561.001 502.271 L561.967 504.696 L562.575 504.842 L562.859 505.379 L563.054 504.655 L563.164 505.7 L563.599 505.809 L563.544 506.655 L563.452 505.938 L563.21 505.855 L563.212 506.527 L563.249 506.135 L562.75 505.546 L562.203 506.034 L561.64 503.865 L561.424 503.482 L561.079 503.548 "/></g><g><path fill="none" stroke="#000000" stroke-width="4" stroke-linecap="butt" stroke-linejoin="round" d="M546.054 468.915 L545.98 468.454 L546.164 469.018 L546.205 468.529 L546.332 468.904 L546.411 468.591 L547.026 469.417 L547.105 469.101 L547.627 469.164 L547.794 468.877 L548.637 470.287 L552.129 473.388 L556.571 479.64 L557.547 480.244 L559.341 482.782 L559.817 482.87 L563.242 488.577 L564.382 489.351 L568.243 495.023 L569.387 496.159 L571.272 499.692 L574.745 504.557 L575.611 506.366 L576.459 506.889 L577.83 508.482 L578.526 510.005 L581.366 512.806 L582.17 514.416 L582.832 513.926 L582.941 514.564 L582.502 513.98 L581.224 509.014 L579.781 506.953 "/></g><g><path fill="none" stroke="#000000" stroke-width="4" stroke-linecap="butt" stroke-linejoin="round" d="M566.044 474.004 L565.531 473.706 L565.367 472.58 L565.136 472.803 L565.523 472.635 L565.217 472.027 L565.112 472.463 L565.14 471.884 L565.12 472.377 L565.151 471.912 L565.537 472.614 L565.232 472.225 L565.371 471.858 L565.504 472.522 L567.351 473.752 L568.997 475.452 L570.333 478.211 L572.22 480.133 L573.513 482.213 L574.91 483.28 L575.468 484.988 L577.8 488.465 L579.83 490.289 L580.89 491.973 L584.275 495.729 L586.796 499.839 L587.766 500.55 L588.382 502.12 L589.865 504.191 L590.461 504.547 L591.073 505.544 L591.569 505.651 L593.831 508.434 L593.265 507.495 L593.138 507.851 L592.097 505.807 L590.202 503.442 "/></g><g><path fill="none" stroke="#000000" stroke-width="4" stroke-linecap="butt" stroke-linejoin="round" d="M581.617 471.861 L581.967 471.764 L581.817 471.389 L582.018 472.244 L582.191 471.631 L581.731 471.648 L582.044 471.335 L582.116 471.732 L581.819 471.628 L582.106 471.445 L582.121 472.11 L582.801 472.253 L585.251 474.878 L585.58 474.596 L586.219 476.54 L589.536 481.014 L590.185 482.663 L590.649 482.748 L592.25 484.422 L592.789 486.333 L595.721 489.783 L597.065 492.404 L597.998 493.196 L601.315 498.679 L602.015 498.805 L602.61 500.492 L605.456 504.289 L605.95 505.523 L607.161 506.318 L608.266 508.143 L608.5 507.946 L609.018 509.749 L609.317 509.62 L609.306 509.937 L609.324 509.45 L609.314 509.833 L608.953 509.298 L608.012 505.83 L607.049 504.583 "/></g><g><path fill="none" stroke="#000000" stroke-width="4" stroke-linecap="butt" stroke-linejoin="round" d="M594.274 470.165 L595.159 470.887 L596.445 472.896 L597.423 473.71 L597.645 473.543 L602.211 479.594 L603.609 481.081 L604.105 481.1 L604.671 482.872 L605.211 483.117 L606.205 484.722 L607.137 485.565 L608.524 487.712 L608.992 489.16 L609.396 489.295 L610.311 490.646 L611.145 490.88 L612.119 493.286 L612.991 494.417 L613.772 494.754 L615.01 497.31 L617.151 499.785 L618.731 502.532 L619.519 503.439 L620.425 503.87 L621.186 505.719 L621.446 505.139 L621.135 505.244 L621.269 504.692 L621.209 505.048 "/></g><g><path fill="none" stroke="#000000" stroke-width="4" stroke-linecap="butt" stroke-linejoin="round" d="M611.587 471.951 L611.195 471.875 L611.381 471.392 L611.176 471.57 L611.017 470.674 L610.675 470.506 L610.65 469.946 L610.445 470.022 L610.708 469.539 L610.79 470.728 L610.821 469.665 L610.774 470.239 L610.878 470.009 L611.447 470.954 L612.61 471.834 L613.418 473.173 L615.518 474.995 L616.697 478.351 L620.979 483.955 L623.451 488.345 L624.798 489.325 L626.223 491.347 L626.849 493.37 L628.672 496.754 L630.124 498.576 L631.95 501.98 L632.367 502.017 L632.754 503.04 L634.191 504.662 L634.995 506.381 L635.341 506.624 L635.611 506.317 L636.023 506.737 L635.987 506.394 L636.192 506.992 L636.665 507.231 L636.647 506.706 L636.642 507.502 L636.824 506.774 L635.865 504.741 "/></g><g><path fill="none" stroke="#000000" stroke-width="4" stroke-linecap="butt" stroke-linejoin="round" d="M626.462 471.326 L626.341 470.942 L626.794 471.066 L626.769 471.414 L627.04 470.817 L627.44 471.757 L628.996 473.105 L630.598 475.903 L631.038 475.498 L631.695 478.016 L632.105 478.1 L632.759 479.691 L636.089 484.485 L640.632 490.021 L642.314 492.754 L642.83 492.99 L645.671 498.358 L647.192 499.987 L647.422 500.933 L647.818 501.491 L649.405 502.454 L650.525 504.744 L653.407 507.692 L653.777 508.764 L654.137 508.757 L654.231 509.667 L654.29 508.948 L654.017 508.707 L654.015 508.911 L653.384 507.26 "/></g><g><path fill="none" stroke="#000000" stroke-width="4" stroke-linecap="butt" stroke-linejoin="round" d="M640.715 471.557 L640.179 470.702 L640.554 470.223 L640.606 470.869 L641.662 471.333 L642.024 471.067 L642.931 472.369 L644.975 474.289 L645.528 475.651 L645.832 475.587 L646.799 476.432 L647.071 476.133 L647.88 478.992 L649.373 480.537 L651.749 484.252 L652.844 485.392 L654.271 488.025 L656.778 490.912 L661.6 499.151 L664.038 502.273 L664.418 503.268 L664.803 503.285 L665.739 505.37 L666.793 506.362 L667.063 507.631 L667.588 507.183 L667.635 507.414 L667.687 506.814 L667.624 507.563 L667.665 506.598 L666.605 504.223 "/></g><g><path fill="none" stroke="#000000" stroke-width="4" stroke-linecap="butt" stroke-linejoin="round" d="M655.825 472.397 L655.168 471.312 L655.117 471.792 L654.969 470.588 L654.797 470.477 L654.672 471.064 L654.515 470.455 L654.983 470.755 L654.899 470.314 L654.93 470.794 L655.208 471.065 L655.068 470.76 L655.456 470.869 L656.334 471.797 L657.31 473.59 L657.624 473.286 L658.363 474.282 L658.628 474.231 L660.665 478.764 L662.064 480.32 L662.659 481.575 L664.749 483.855 L665.03 483.3 L665.429 483.706 L666.803 487.305 L670.088 491.197 L670.974 493.047 L671.475 493.286 L673.142 495.762 L673.81 497.278 L675.642 499.496 L676.144 499.708 L678.964 504.352 L679.418 504.29 L682.84 508.713 L683.264 509.151 L683.332 508.866 L683.635 510.142 L683.363 508.81 L683.236 509.376 L683.415 509.022 L683.135 508.027 "/></g><g><path fill="none" stroke="#000000" stroke-width="4" stroke-linecap="butt" stroke-linejoin="round" d="M671.614 473.739 L671.577 473.286 L671.285 473.37 L671.356 473.861 L671.3 473.111 L671.057 473.222 L671.324 473.176 L671.376 473.629 L671.511 473.394 L671.556 474.288 L671.764 473.981 L672.5 474.258 L672.774 473.847 L672.98 474.101 L673.594 476.161 L674.59 477.043 L675.581 479.087 L676.277 479.399 L676.858 480.529 L677.276 480.494 L677.937 482.113 L679.815 484.11 L681.908 487.513 L683.462 489.28 L684.376 491.149 L687.18 494.442 L692.402 502.683 L693.548 503.481 L696.691 506.993 L697.8 509.243 L696.173 506.407 "/></g><g><path fill="none" stroke="#000000" stroke-width="4" stroke-linecap="butt" stroke-linejoin="round" d="M686.001 472.754 L685.869 472.535 L685.882 472.98 L686.16 472.972 L686.137 472.524 L685.853 473.004 L686.258 472.895 L686.315 473.244 L686.468 473.007 L686.883 473.297 L687.824 474.73 L688.148 474.467 L688.337 474.69 L689.748 478.691 L691.276 480.54 L691.86 482.016 L699.398 491.518 L700.092 493.322 L700.686 493.419 L704.397 498.828 L704.844 498.681 L705.337 500.408 L707.048 503.362 L708.147 504.971 L709.913 506.729 L710.939 508.615 L711.519 508.89 L712.431 510.838 L712.909 510.967 L713.304 512.902 L713.55 512.966 L713.427 511.62 "/></g><g><path fill="none" stroke="#000000" stroke-width="4" stroke-linecap="butt" stroke-linejoin="round" d="M702.289 476.058 L702.593 475.805 L702.328 475.502 L702.174 476.189 L701.987 475.983 L702.241 475.604 L701.995 475.891 L701.805 475.358 L701.777 474.731 L702.015 475.225 L701.978 474.69 L701.997 475.298 L702.163 474.489 L702.129 475.458 L702.686 475.423 L703.833 476.335 L704.407 478.41 L704.725 477.9 L705.83 479.186 L706.603 480.946 L707.36 481.647 L707.992 482.881 L713.95 489.757 L714.977 491.562 L715.509 491.698 L717.881 494.4 L719.418 497.026 L724.022 502.425 L725.745 505.023 L727.384 506.823 L728.031 507.319 L728.31 507.004 L729.279 509.371 L729.587 509.112 L729.778 509.419 L729.693 508.795 "/></g><g><path fill="none" stroke="#000000" stroke-width="4" stroke-linecap="butt" stroke-linejoin="round" d="M718.414 475.556 L718.417 475.176 L718.179 475.377 L718.248 474.38 L717.945 474.664 L717.385 472.948 L717.197 473.221 L716.963 471.758 L716.737 471.84 L716.625 471.47 L716.741 470.824 L716.744 471.412 L717.091 471.766 L717.41 471.44 L717.638 471.605 L717.914 472.433 L721.948 478.182 L723.274 481.457 L724.787 483.827 L725.288 484.433 L725.962 484.389 L726.463 485.195 L727.369 487.86 L729.793 491.297 L732.126 496.385 L734.537 498.98 L738.185 504.129 L739.332 504.384 L739.818 505.362 L739.987 505.016 L741.453 505.129 L741.698 504.578 L741.843 505.2 L742.08 504.989 L742.308 505.41 L742.727 503.529 "/></g><g><path fill="none" stroke="#000000" stroke-width="4" stroke-linecap="butt" stroke-linejoin="round" d="M735.975 476.526 L735.396 475.928 L734.523 475.779 L734.063 473.931 L733.717 474.81 L733.695 474.289 L733.329 474.356 L733.125 473.86 L732.981 474.08 L732.661 472.949 L732.607 473.433 L732.07 472.689 L732.167 472.134 L732.238 472.647 L732.63 472.432 L733.101 473.152 L734.314 473.779 L735.588 475.045 L736.153 476.17 L737.263 476.932 L737.842 477.821 L738.352 477.654 L739.02 479.821 L742.348 483.904 L743.647 486.198 L744.387 487.091 L745.071 487.094 L747.707 490.896 L750.156 493.494 L751.7 494.49 L757.791 503.453 L760.369 506.144 L763.883 510.756 L764.475 512.083 L764.63 511.655 L765.448 512.168 L765.435 511.739 L765.18 511.724 L765.262 512.16 L765.047 511.614 L765.128 510.351 L764.916 510.353 L764.803 508.594 L764.054 505.71 "/></g><g><path fill="none" stroke="#000000" stroke-width="4" stroke-linecap="butt" stroke-linejoin="round" d="M751.983 474.004 L751.673 473.683 L751.777 473.181 L751.491 473.497 L751.382 473.05 L751.264 473.503 L751.314 472.29 L750.947 472.924 L751.297 473.091 L751.314 472.426 L751.36 473.136 L751.429 472.62 L751.434 473.303 L752.229 474.165 L756.402 481.904 L758.46 484.862 L759.148 486.718 L760.454 488.29 L761.334 490.524 L763.372 492.766 L763.847 492.765 L764.272 493.314 L765.784 496.661 L769.792 501.514 L771.743 504.436 L772.229 504.887 L772.639 504.51 L773.025 504.992 L774.181 507.211 L774.82 508.044 L775.548 508.416 L776.86 511.468 L777.211 510.713 L777.352 511.21 L777.581 511.142 L777.314 511.022 L777.162 509.135 L776.383 507.034 "/></g><g><path fill="none" stroke="#000000" stroke-width="4" stroke-linecap="butt" stroke-linejoin="round" d="M767.167 475.076 L766.428 474.464 L766.671 474.562 L766.643 474.157 L766.345 474.073 L766.279 474.432 L766.167 473.23 L766.169 473.877 L765.882 473.906 L766.301 473.872 L766.342 473.428 L766.361 474.089 L767.93 475.055 L768.659 476.802 L773.805 484.444 L774.228 484.322 L774.613 484.798 L774.927 486.143 L779.177 492.619 L782.738 498.866 L784.381 500.595 L787.311 506.328 L788.793 507.676 L789.079 507.57 L789.585 509.362 L791.333 511.431 L791.876 512.838 L792.381 513.242 L792.729 514.568 L793.046 514.223 L793.285 515.125 L793.4 514.15 L793.215 514.511 L793.159 512.332 L792.457 509.282 "/></g><g><path fill="none" stroke="#000000" stroke-width="4" stroke-linecap="butt" stroke-linejoin="round" d="M781.459 477.218 L780.847 477.103 L780.943 476.875 L780.831 477.146 L780.898 476.226 L781.278 476.423 L781.148 476.987 L781.482 475.75 L781.584 476.848 L783.53 478.389 L784.735 480.311 L785.29 480.21 L786.258 481.015 L787.482 483.456 L788.124 483.836 L789.61 486.846 L793.452 492.086 L799.66 504.067 L802.329 507.62 L804.104 511.079 L805.08 511.909 L805.633 514.181 L805.863 512.9 L806.058 512.771 L806.177 513.517 L806.061 512.235 "/></g><g><path fill="none" stroke="#000000" stroke-width="4" stroke-linecap="butt" stroke-linejoin="round" d="M794.788 474.719 L794.295 474.371 L795.011 473.116 L795.18 473.271 L795.578 472.857 L795.645 473.227 L795.912 473.193 L796.714 472.385 L796.78 472.807 L799.045 473.583 L800.348 474.846 L800.581 474.691 L800.895 475.002 L802.525 477.659 L804.757 483.084 L806.466 486.302 L808.83 489.347 L810.606 493.167 L811.415 494.107 L814.809 500.474 L816.223 502.224 L816.807 503.689 L818.318 505.964 L818.594 505.883 L820.097 507.013 L820.297 506.259 L820.321 507.047 L820.624 507.321 L820.745 506.903 L821.036 507.867 L821.246 507.978 L821.255 506.54 "/></g><g><path fill="none" stroke="#000000" stroke-width="4" stroke-linecap="butt" stroke-linejoin="round" d="M812.195 471.187 L812.277 472.32 L812.205 471.769 L812.377 472.289 L812.511 471.58 L812.864 472.986 L812.731 472.258 L813.533 472.303 L814.682 474.841 L815.786 475.652 L816.962 478.053 L818.717 480.134 L819.25 481.87 L820.79 484.08 L825.891 493.844 L827.264 496.142 L827.716 496.417 L830.391 501.538 L831.901 503.65 L832.418 505.07 L832.81 504.928 L834.041 507.075 L834.348 506.999 L835.228 507.783 L835.437 507.282 L835.912 508.902 L836.279 509.149 L836.651 508.941 L836.823 509.519 L837.098 508.254 L837.115 508.859 L837.882 507.268 L837.816 506.446 "/></g><g><path fill="none" stroke="#000000" stroke-width="4" stroke-linecap="butt" stroke-linejoin="round" d="M828.031 471.635 L827.435 470.891 L827.172 471.075 L827.071 470.602 L826.889 470.885 L827.194 470.843 L827.167 471.443 L827.348 471.579 L827.33 471.285 L827.866 471.907 L828.031 471.618 L828.516 473.225 L831.128 477.288 L832.041 479.634 L833.156 480.889 L836.127 486.099 L836.544 486.074 L837.529 488.612 L843.732 498.002 L846.213 503.128 L847.816 505.15 L848.543 507.225 L848.949 507.217 L850.628 510.211 L851.595 510.89 L851.954 512.497 L852.791 513.574 L852.922 514.283 L852.842 512.894 L852.707 513.604 L852.145 510.496 "/></g><g><path fill="none" stroke="#000000" stroke-width="4" stroke-linecap="butt" stroke-linejoin="round" d="M844.296 475.876 L843.537 475.579 L843.614 475.2 L844.068 475.366 L843.721 475.137 L843.981 474.832 L843.972 475.262 L844.07 474.74 L844.03 475.579 L844.167 474.961 L844.325 475.321 L844.931 475.129 L846.167 476.181 L848.851 480.222 L849.437 481.998 L850.586 483.373 L850.884 483.006 L851.113 483.231 L852.13 486.94 L856.527 495.068 L856.985 494.94 L857.597 497.124 L859.406 499.55 L861.508 504.063 L862.702 504.929 L864.313 507.845 L865.485 508.856 L866.719 511.945 L867.55 512.449 L867.888 513.442 L868.258 513.106 L868.655 513.607 L868.88 512.558 "/></g><g><path fill="none" stroke="#000000" stroke-width="4" stroke-linecap="butt" stroke-linejoin="round" d="M858.369 472.016 L857.803 472.122 L857.511 471.12 L857.29 471.689 L857.615 471.375 L857.524 472.112 L857.974 471.663 L858.469 472.716 L859.211 473.064 L861.697 476.945 L862.417 477.551 L863.031 479.244 L864.234 480.958 L866.796 483.749 L872.929 495.371 L874.947 499.961 L875.352 500.165 L875.826 501.848 L878.159 506.011 L878.543 507.367 L878.727 506.913 L879.09 507.428 L879.154 506.888 L879.358 507.085 L879.58 508.428 L879.957 508.788 L880.296 508.651 L880.608 509.7 L880.969 508.574 L881.204 508.626 L881.206 507.687 "/></g><g><path fill="none" stroke="#000000" stroke-width="4" stroke-linecap="butt" stroke-linejoin="round" d="M872.843 473.826 L872.68 473.42 L872.514 473.771 L872.405 473.364 L872.655 473.302 L872.559 472.881 L872.491 473.433 L872.877 473.447 L872.779 472.75 L872.511 472.972 L872.754 473.775 L875.938 476.182 L878.685 481.569 L879.722 482.695 L880.863 485.042 L881.768 485.754 L882.354 487.162 L882.868 486.941 L883.186 487.452 L884.031 489.978 L888.074 498.069 L889.619 500.254 L890.382 502.59 L891.399 504.033 L891.737 503.751 L892.725 506.95 L893.077 507.467 L893.201 507.076 L893.742 507.442 L894.246 508.61 L894.664 508.874 L895.497 508.394 L895.655 507.648 "/></g><g><path fill="none" stroke="#000000" stroke-width="4" stroke-linecap="butt" stroke-linejoin="round" d="M888.472 473.379 L888.321 473.209 L887.816 473.686 L888.048 473.029 L887.87 472.69 L887.492 472.79 L887.478 471.818 L887.838 472.743 L887.841 472.409 L889.211 473.456 L889.542 473.14 L889.939 473.276 L890.472 475.078 L892.412 477.541 L894.167 481.829 L895.792 483.731 L896.527 485.558 L900.576 491.479 L901.535 493.951 L903.163 497.03 L903.651 497.431 L907.875 505.809 L910.565 509.761 L911.045 511.478 L912.136 512.329 L912.448 513.3 L912.458 512.703 L912.583 513.195 L912.357 513.05 L912.634 513.062 L912.874 512.223 L912.666 510.307 "/></g><g><path fill="none" stroke="#000000" stroke-width="4" stroke-linecap="butt" stroke-linejoin="round" d="M901.761 472.055 L901.042 471.983 L901.348 471.053 L901.082 471.076 L901.405 471.366 L901.46 470.825 L901.233 471.568 L901.629 471.522 L902.136 472.17 L903.875 475.002 L906.846 481.05 L907.63 482.01 L910.751 488.726 L912.407 490.892 L915.147 496.696 L919.723 503.549 L920.615 504.191 L922.197 506.799 L923.039 507.411 L924.275 510.769 L924.573 511.126 L924.612 510.341 L924.939 510.351 L925.055 510.969 L925.223 510.609 L925.352 511.018 L925.41 510.016 "/></g><g><path fill="none" stroke="#000000" stroke-width="4" stroke-linecap="butt" stroke-linejoin="round" d="M913.828 471.594 L913.526 470.946 L913.405 471.208 L912.315 470.463 L912.159 470.85 L911.966 469.925 L912.062 470.604 L911.877 470.251 L912.126 470.268 L912.223 470.722 L913.042 471.202 L915.932 475.314 L916.426 475.535 L919.176 480.54 L923.147 485.785 L924.171 487.675 L924.656 487.747 L929.535 496.441 L930.309 498.526 L931.8 501.148 L932.273 501.491 L932.865 503.218 L933.169 503.41 L933.24 502.997 L933.5 503.301 L933.702 503.064 L933.763 503.563 L934.576 503.77 L934.629 504.321 L934.866 503.327 "/></g><g><path fill="none" stroke="#000000" stroke-width="4" stroke-linecap="butt" stroke-linejoin="round" d="M926.315 469.808 L925.767 469.621 L926.141 469.748 L925.983 470.191 L926.148 469.735 L926.756 471.085 L926.96 470.859 L927.519 471.413 L927.725 471.164 L928.163 472.296 L930.224 475.35 L933.681 482.993 L934.845 485.077 L935.264 485.307 L936.034 487.842 L939.839 494.184 L943.524 501.93 L945.385 504.753 L946.756 508.332 L947.209 508.054 L949.127 511.12 L949.544 510.238 L949.631 511.423 L950.064 511.248 L950.151 511.56 L950.563 510.274 L950.862 510.284 L950.963 507.566 "/></g><g><path fill="none" stroke="#000000" stroke-width="4" stroke-linecap="butt" stroke-linejoin="round" d="M942.508 475.79 L941.438 475.587 L941.718 475.405 L941.298 474.538 L941.149 474.384 L941.067 474.777 L939.755 473.366 L939.659 472.633 L939.211 472.313 L939.284 471.834 L939.299 472.587 L939.524 472.029 L939.322 472.486 L940.521 473.714 L942.51 477.582 L942.954 477.712 L943.694 479.692 L947.72 486.064 L950.161 489.016 L952.011 492.363 L955.81 497.08 L956.201 496.941 L956.569 497.428 L957.816 500.29 L959.771 502.534 L960.333 504.089 L961.199 504.191 L961.777 505.182 L962.331 504.93 L962.448 505.677 L962.623 504.874 "/></g><g><path fill="none" stroke="#000000" stroke-width="4" stroke-linecap="butt" stroke-linejoin="round" d="M953.375 470.522 L952.783 470.455 L952.894 470.252 L953.206 470.46 L953.193 470.146 L953.189 470.59 L953.606 470.631 L954.836 472.28 L954.934 473.132 L956.512 475.091 L957.138 477.304 L957.6 477.641 L959.191 481.149 L963.849 488.302 L966.108 492.474 L967.098 493.622 L968.056 495.862 L968.379 495.726 L968.85 497.288 L970.64 500.742 L973.27 504.645 L973.514 504.952 L973.815 504.842 L974.527 507.034 L975.214 507.113 L975.584 507.743 L975.589 508.78 L975.897 509.06 L976.487 506.15 "/></g><g><path fill="none" stroke="#000000" stroke-width="4" stroke-linecap="butt" stroke-linejoin="round" d="M966.384 471.538 L965.778 471.223 L966.058 470.885 L965.98 471.625 L965.708 471.346 L965.682 471.132 L966.117 471.399 L966.11 471.095 L965.98 471.637 L966.279 471.555 L966.484 472.012 L966.741 471.785 L966.969 472.181 L967.547 474.03 L969.116 476.671 L969.879 479.51 L970.318 479.019 L971.051 480.393 L971.722 480.758 L973.224 484.287 L976.029 488.338 L976.889 490.229 L977.392 490.18 L978.652 491.873 L979.282 492.024 L980.116 494.239 L981.147 495.205 L984.666 501.6 L985.357 503.507 L985.69 503.832 L985.794 503.574 L985.746 504.087 L986.186 504.105 L986.45 505.532 L985.918 502.265 "/></g><g><path fill="none" stroke="#000000" stroke-width="4" stroke-linecap="butt" stroke-linejoin="round" d="M981.041 473.403 L980.296 471.881 L979.635 471.86 L978.797 470.29 L978.134 470.178 L977.182 469.123 L976.51 469.082 L976.641 468.282 L976.727 469.339 L976.897 468.811 L978.599 472.223 L980.626 475.081 L981.54 477.122 L981.848 478.762 L982.438 479.679 L982.965 479.678 L983.882 483.122 L985.48 484.862 L985.803 486.18 L987.702 490.275 L988.528 491.269 L992.931 500.238 L993.599 500.978 L993.904 502.076 L994.654 502.81 L994.976 504.068 L995.297 504.42 L995.486 504.174 L995.863 504.407 L996.365 505.483 L997.092 505.734 L997.263 504.856 L997.274 505.717 L997.641 505.972 L999.03 505.293 "/></g><g><path fill="none" stroke="#000000" stroke-width="4" stroke-linecap="butt" stroke-linejoin="round" d="M988.622 470.752 L988.026 469.757 L987.753 470.085 L987.69 469.179 L987.792 470.032 L987.982 469.834 L988.429 470.121 L992.844 477.521 L993.381 477.623 L994.527 479.898 L995.181 480.181 L996.119 482.419 L998.529 485.686 L999.722 487.921 L1004.17 493.864 L1004.86 495.639 L1008.21 499.395 L1009.03 501.166 L1011.43 503.548 L1011.95 503.703 L1011.91 504.007 L1012.16 503.545 L1012.16 504.105 L1012.42 503.894 L1012.61 503.342 L1012.42 502.31 "/></g><g><path fill="none" stroke="#000000" stroke-width="4" stroke-linecap="butt" stroke-linejoin="round" d="M1001.67 467.576 L1001.56 467.259 L1001.16 467.337 L1001.09 467.778 L1001.27 467.382 L1001.38 467.964 L1001.42 467.327 L1001.89 468.789 L1002.66 469.816 L1002.96 471.15 L1003.53 471.544 L1005.15 475.353 L1006.58 477.656 L1006.89 479.478 L1008.82 484.434 L1012.74 491.716 L1014.69 494.633 L1015.11 495.889 L1016.21 497.221 L1017.12 499.382 L1020.17 503.647 L1020.42 503.874 L1020.65 503.214 L1021.03 503.31 L1021.44 505.181 L1021.97 506.08 L1022.45 506.081 L1022.5 506.494 L1023.14 506.793 L1023.1 507.353 L1023.53 505.458 L1023.18 504.039 "/></g><g><path fill="none" stroke="#000000" stroke-width="4" stroke-linecap="butt" stroke-linejoin="round" d="M1015.19 470.28 L1014.87 470.552 L1014.79 470.292 L1015.34 470.632 L1015.14 471.332 L1015.41 469.877 L1015.57 470.974 L1016.24 471.583 L1017.06 473.231 L1018.05 473.782 L1018.53 474.692 L1018.8 474.639 L1019.39 476.438 L1019.89 476.729 L1022.03 480.798 L1023.85 483.476 L1025.64 487.235 L1028.34 490.73 L1029.38 493.203 L1030.25 494.166 L1030.91 495.667 L1033.09 498.048 L1033.42 499.532 L1033.62 499.323 L1034.19 499.856 L1034.6 499.511 L1034.98 501.098 L1036 501.96 L1036.77 502.043 L1036.73 501.539 L1036.7 502.137 "/></g><g><path fill="none" stroke="#000000" stroke-width="4" stroke-linecap="butt" stroke-linejoin="round" d="M1031.97 465.274 L1031.67 466.111 L1031.95 465.848 L1032.57 467.553 L1032.77 467.221 L1032.84 467.906 L1034.37 470.887 L1034.47 471.872 L1034.98 472.4 L1035.71 474.613 L1036.2 475.154 L1037.05 478.089 L1038.7 481.272 L1039.11 483.182 L1040.05 484.356 L1041.51 488.218 L1044.28 492.63 L1044.74 494.355 L1045.51 495.066 L1046.32 497.349 L1046.64 497.102 L1047.18 498.233 L1047.46 498.05 L1047.72 498.51 L1048.7 501.247 L1049.59 502.367 L1050.12 502.062 L1050.3 502.44 L1050.71 501.55 "/></g><g><path fill="none" stroke="#000000" stroke-width="4" stroke-linecap="butt" stroke-linejoin="round" d="M1044.42 469.59 L1043.78 469.421 L1043.83 468.615 L1043.81 469.169 L1044 468.912 L1044.06 469.228 L1044.08 468.884 L1044.29 469.402 L1044.57 469.407 L1045.43 470.645 L1046.01 472.56 L1046.61 472.857 L1046.83 473.642 L1047.11 473.563 L1049.42 479.497 L1049.75 481.217 L1051.75 484.947 L1053.27 489.112 L1058.38 500.639 L1059.36 502.188 L1060.12 504.452 L1060.28 504.737 L1060.61 504.628 L1061.01 506.67 L1061.16 506.385 L1061.4 506.988 L1061.7 506.945 L1061.49 506.299 L1061.82 505.594 L1061.82 504.371 "/></g><g><path fill="none" stroke="#000000" stroke-width="4" stroke-linecap="butt" stroke-linejoin="round" d="M1058.74 470.612 L1058.61 471.15 L1058.44 470.939 L1058.77 470.841 L1058.56 471.325 L1058.67 470.697 L1058.65 471.028 L1058.99 471.062 L1058.75 471.373 L1060.07 473.006 L1064.54 482.763 L1065.01 482.657 L1065.44 483.25 L1065.96 486.512 L1066.75 487.574 L1068.14 490.663 L1068.7 493.032 L1069.24 493.355 L1070.32 497.344 L1071.5 499.305 L1072.47 503.101 L1072.73 502.958 L1072.9 503.213 L1073.12 502.888 L1073.16 503.274 L1073.5 503.23 L1073.61 502.325 "/></g><g><path fill="none" stroke="#000000" stroke-width="4" stroke-linecap="butt" stroke-linejoin="round" d="M1067.32 471.609 L1067.43 471.867 L1067.11 471.635 L1067.33 471.022 L1067.12 471.278 L1067.01 470.822 L1066.94 471.537 L1067.12 470.544 L1066.96 471.218 L1067.21 471.096 L1067.07 471.337 L1067.46 471.403 L1067.9 472.045 L1068.11 471.769 L1068.74 473.712 L1069.16 473.49 L1069.35 473.691 L1073.37 481.684 L1074.84 485.9 L1075.55 486.846 L1077.02 490.736 L1078.93 496.711 L1079.29 496.671 L1079.9 498.466 L1080.42 498.907 L1080.91 501.479 L1082.59 506.621 L1083.01 507.005 L1082.89 506.468 L1083.13 507.508 L1083.33 507.041 L1083.18 507.478 L1083.37 507.286 L1083.44 507.928 L1083.67 507.808 L1083.78 504.897 "/></g><g><path fill="none" stroke="#000000" stroke-width="4" stroke-linecap="butt" stroke-linejoin="round" d="M1079.03 477.624 L1078.52 477.772 L1078.83 477.767 L1078.51 477.514 L1078.51 476.793 L1078.55 477.636 L1078.79 477.239 L1078.58 477.201 L1078.95 477.349 L1078.75 476.914 L1078.86 477.682 L1078.9 477.39 L1079.17 477.59 L1079.27 476.994 L1079.54 477.035 L1079.69 478.267 L1080.37 478.639 L1081.48 481.207 L1081.79 481.009 L1082.37 482.182 L1082.6 482.005 L1082.98 483.738 L1084.92 487.586 L1085.37 489.272 L1086.98 492.118 L1088.52 496.56 L1089.88 499.197 L1090 500.131 L1090.88 501.531 L1090.88 502.268 L1091.13 502.548 L1091.16 502.169 "/></g><g><path fill="none" stroke="#000000" stroke-width="4" stroke-linecap="butt" stroke-linejoin="round" d="M1083.96 472.487 L1083.62 472.487 L1083.89 472.514 L1083.95 472.149 L1084 472.444 L1084.01 471.52 L1084.2 472.044 L1084.32 471.663 L1084.37 472.097 L1084.01 472.044 L1084.38 472.119 L1084.44 472.589 L1084.57 472.349 L1085.29 474.23 L1085.5 473.849 L1085.71 474.04 L1086.33 476.19 L1088.04 478.884 L1089.73 483.082 L1090.8 484.024 L1090.98 485.594 L1092.67 488.717 L1093.1 490.505 L1094.11 491.645 L1094.36 492.578 L1094.53 492.122 L1094.85 494.953 L1095.85 497.043 L1096.1 498.436 L1096.32 498.355 L1096.94 499.415 L1097.59 498.471 "/></g><g><path fill="none" stroke="#000000" stroke-width="4" stroke-linecap="butt" stroke-linejoin="round" d="M492.607 497.307 L492.32 498.008 L491.948 498.027 L492.756 498.042 L492.607 497.691 L492.798 497.835 L493.451 497.005 L495.027 496.288 L497.817 493.911 L498.361 493.115 L499.387 492.831 L504.95 487.914 L513.77 481.513 L515.015 480.961 L519.921 476.987 L520.872 475.877 L521.991 475.519 L524.771 472.786 L527.531 471.071 L529.445 469.458 L530.024 468.239 L530.49 468.327 L531.609 467.336 L532.412 465.676 L533.416 465.179 L535.658 462.779 L536.262 462.657 L536.756 462.017 L536.512 461.49 L536.431 461.912 L535.797 462.343 "/></g><g><path fill="none" stroke="#000000" stroke-width="4" stroke-linecap="butt" stroke-linejoin="round" d="M522.729 459.808 L522.667 460.351 L522.135 460.379 L519.309 463.567 L517.634 464.965 L514.582 468.94 L513.314 469.921 L512.711 471.086 L511.349 472.059 L510.077 474.248 L509.026 474.882 L505.437 479.715 L504.345 480.39 L501.29 483.567 L500.999 483.508 L499.722 485.307 L496.205 488.068 L494.379 488.983 L493.215 490.517 L492.533 490.45 L492.37 491.072 L491.032 492.307 L487.2 495.22 L486.366 496.402 L485.637 496.843 L485.601 497.27 L485.347 497.322 L485.383 496.902 L485.44 497.655 L485.64 496.538 L485.634 496.86 L486.714 496.437 "/></g><g><path fill="none" stroke="#000000" stroke-width="4" stroke-linecap="butt" stroke-linejoin="round" d="M483.428 480.459 L483.145 480.333 L483.507 480.147 L483.059 480.056 L483.196 479.082 L483.146 479.46 L483.701 478.763 L483.482 478.774 L484.665 478.128 L485.699 476.94 L489.261 474.857 L491.645 472.088 L494.879 470.635 L497.035 468.759 L498.583 468.243 L501.78 465.233 L502.712 465.074 L506.985 462.385 "/></g><g><path fill="none" stroke="#000000" stroke-width="4" stroke-linecap="butt" stroke-linejoin="round" d="M538.41 465.701 L538.678 465.58 L538.685 465.969 L538.194 466.028 L538.515 465.944 L538.563 466.385 L538.22 466.569 L538.115 466.017 L538.298 466.248 L537.141 468.543 L535.738 469.156 L535.143 470.199 L533.027 471.749 L531.439 473.756 L530.737 475.223 L527.777 477.229 L523.245 481.352 L521.92 483.318 L516.872 488.851 L515.779 490.821 L513.761 492.402 L510.163 496.211 L509.506 497.298 L508.903 497.395 L508.465 497.88 L508.262 498.708 L506.896 500.209 L506.646 501.064 L505.295 502.327 L505.362 502.834 L504.962 502.098 L505.192 503.064 L504.77 503.313 L504.653 504.057 L504.885 504.106 L504.965 503.333 L504.436 503.486 L504.674 502.941 L504.638 503.683 L503.859 503.783 L503.65 504.445 L503.263 503.928 L502.822 504.24 L502.804 503.782 L502.546 504.411 L502.47 504.008 L502.984 503.4 "/></g><g><path fill="none" stroke="#000000" stroke-width="4" stroke-linecap="butt" stroke-linejoin="round" d="M556.595 464.451 L556.954 464.339 L556.559 464.071 L556.508 464.647 L555.435 465.478 L554.928 465.434 L551.901 469.019 L550.123 470.168 L546.301 473.685 L544.838 475.686 L540.489 479.139 L539.589 480.625 L537.946 482.127 L536.334 483.144 L535.161 484.956 L528.4 491.665 L527.726 491.892 L525.099 494.128 L524.623 494.149 L522.611 496.83 L518.617 500.298 L518.292 501.08 L518.073 500.927 L518.195 501.403 L518.25 500.744 L518.678 500.376 L519.514 500.227 L523.347 497.533 "/></g><g><path fill="none" stroke="#000000" stroke-width="4" stroke-linecap="butt" stroke-linejoin="round" d="M566.438 467.121 L566.508 466.669 L566.677 467.096 L566.435 467.091 L566.073 468.226 L564.545 469.374 L561.253 472.806 L560.191 473.38 L558.877 475.323 L555.802 478.489 L552.058 481.457 L548.029 485.597 L543.778 489.239 L541.704 491.945 L540.268 493.139 L539.015 495.018 L538.381 495.303 L533.183 500.701 L531.521 503.328 L530.979 503.595 L529.689 505.265 L530.017 505.015 L530.175 505.692 L530.479 505.764 L530.524 504.32 L531.474 504.136 L536.168 501.449 L538.813 499.37 "/></g><g><path fill="none" stroke="#000000" stroke-width="4" stroke-linecap="butt" stroke-linejoin="round" d="M584.274 469.804 L584.122 470.32 L583.98 469.375 L584.28 469.821 L583.926 469.87 L584.421 469.806 L584.093 469.668 L584.009 470.031 L583.737 469.974 L583.809 470.349 L583.571 470.199 L582.499 470.847 L579.931 472.847 L576.548 476.491 L575.028 477.605 L572.822 480.099 L569.811 482.657 L567.907 485.149 L567.131 485.759 L566.571 485.721 L564.29 487.665 L561.704 491.41 L560.27 492.885 L558.79 493.803 L554.358 498.961 L553.296 499.534 L552.709 500.85 L551.59 501.786 L550.657 503.401 L550.769 502.678 L550.974 503.01 L551.642 502.256 L553.01 501.897 L557.068 498.325 "/></g><g><path fill="none" stroke="#000000" stroke-width="4" stroke-linecap="butt" stroke-linejoin="round" d="M596.72 467.129 L596.665 467.59 L596.48 467.325 L596.739 467.868 L596.677 467.539 L596.095 467.898 L594.678 470.311 L586.93 479.515 L585.372 481.097 L583.128 482.66 L581.843 484.209 L577.878 487.302 L576.06 489.589 L573.327 492.07 L570.37 495.501 L567.429 497.876 L566.651 499.227 L565.084 500.591 L564.464 501.676 L563.107 502.693 L562.624 502.618 L562.363 503.629 L563.018 502.459 L562.957 503.186 L563.618 503.316 L564.379 502.354 L568.276 500.72 "/></g><g><path fill="none" stroke="#000000" stroke-width="4" stroke-linecap="butt" stroke-linejoin="round" d="M608.966 470.701 L608.866 471.127 L608.7 470.441 L608.808 471.252 L608.637 471.057 L608.148 471.375 L606.305 473.083 L605.933 472.807 L605.133 474.71 L604.605 474.91 L599.541 479.895 L594.679 485.104 L592.478 486.718 L589.513 489.992 L586.339 492.86 L580.348 497.674 L579.471 499.224 L579.026 499.372 L577.798 500.904 L576.753 501.32 L575.954 502.681 L574.627 503.714 L573.283 505.363 L572.709 506.573 L571.451 507.698 L571.406 507.415 L570.822 508.898 L571.272 508.599 L571.439 509.24 L571.779 508.603 L573.107 508.726 L575.362 507.033 L575.813 506.303 L576.947 505.994 L578.662 504.781 "/></g><g><path fill="none" stroke="#000000" stroke-width="4" stroke-linecap="butt" stroke-linejoin="round" d="M623.851 471.684 L624.293 470.978 L624.283 470.634 L624.115 470.795 L624.165 471.165 L624.449 471.15 L624.195 471 L623.964 471.425 L624.167 471.457 L623.483 471.741 L620.165 476.904 L617.229 479.507 L613.062 483.883 L610.995 485.4 L609.657 486.821 L607.448 488.289 L606.143 489.897 L602.992 492.515 L601.558 493.301 L600.739 494.332 L593.456 500.722 L590.73 502.426 L589.004 504.112 L588.694 505.3 L588.76 504.276 L588.844 504.609 L589.142 504.078 L589.216 504.293 L590.593 504.198 L591.645 503.386 L594.931 502.111 L600.106 498.248 "/></g><g><path fill="none" stroke="#000000" stroke-width="4" stroke-linecap="butt" stroke-linejoin="round" d="M639.642 472.744 L640.577 470.714 L640.869 470.914 L641.027 469.804 L640.919 469.614 L640.641 469.967 L640.746 469.706 L638.089 472.347 L635.87 475.522 L632.394 478.323 L630.063 481.306 L622.777 487.162 L621.03 489.052 L620.31 489.269 L619.001 491.157 L614.461 494.465 L612.964 496.338 L608.587 500.062 L607.931 501.391 L607.046 502.29 L606.58 502.306 L605.185 504.645 L605.006 504.813 L604.811 504.559 L604.634 505.564 L605.737 506.195 L606.018 505.705 L607.21 505.252 L608.57 504.214 "/></g><g><path fill="none" stroke="#000000" stroke-width="4" stroke-linecap="butt" stroke-linejoin="round" d="M648.716 472.127 L649.444 470.516 L650.32 470.244 L652.035 468.369 L653.026 467.883 L653.287 467.348 L653.355 467.859 L653.509 467.608 L653.167 467.545 L652.963 468.268 L649.384 472.476 L648.602 473.802 L648.056 473.804 L647.442 474.34 L646.491 476.556 L645.93 477.147 L644.219 478.311 L639.828 483.077 L636.507 485.29 L635.246 486.967 L630.798 491.52 L627.558 494.458 L623.674 498.73 L622.693 499.35 L620.02 503.429 L619.626 503.593 L620.473 503.448 L621.561 502.704 L621.969 502.907 L622.588 502.649 L623.643 501.28 L624.854 500.498 L625.269 499.725 L625.811 499.32 L626.52 499.337 L631.306 495.266 "/></g><g><path fill="none" stroke="#000000" stroke-width="4" stroke-linecap="butt" stroke-linejoin="round" d="M669.744 467.775 L669.938 466.704 L670.65 466.651 L670.291 466.691 L670.418 467.077 L669.852 468.073 L668.244 470.271 L662.524 476.415 L659.202 478.9 L658.528 479.02 L654.006 483.5 L647.02 488.79 L642.913 492.364 L638.326 495.302 L636.252 497.413 L635.287 498.935 L633.47 499.992 L629.332 504.873 L627.319 506.393 L626.957 507.839 L626.765 507.688 L626.986 507.207 L627.139 507.384 L627.247 506.323 L627.334 507.276 L627.709 507.443 L630.72 506.307 L631.402 506.311 L632.479 504.96 L635.564 502.799 L637.026 502.188 L639.71 500.135 "/></g><g><path fill="none" stroke="#000000" stroke-width="4" stroke-linecap="butt" stroke-linejoin="round" d="M676.038 474.011 L676.325 472.853 L676.665 472.879 L676.167 473.031 L676.274 473.36 L675.307 474.765 L673.87 475.867 L673.391 475.579 L672.906 475.88 L671.947 477.743 L669.263 480.578 L667.78 481.546 L665.389 484.196 L661.826 486.787 L660.65 488.312 L654.022 494.06 L652.791 495.687 L651.589 496.319 L649.723 498.105 L647.166 501.172 L646.277 501.539 L645.208 503.812 L643.362 505.392 L642.114 507.54 L641.879 507.244 L641.766 507.648 L641.465 507.597 L641.452 508.152 L641.622 507.562 L642.427 508.381 L644.352 507.974 L647.8 505.913 L648.544 505.097 L650.029 504.685 L651.381 503.891 L653.51 502.287 "/></g><g><path fill="none" stroke="#000000" stroke-width="4" stroke-linecap="butt" stroke-linejoin="round" d="M688.715 476.769 L689.689 475.245 L690.837 474.548 L691.576 473.176 L691.957 473.375 L692.215 473.137 L692.262 473.359 L692.423 472.946 L693.005 472.861 L692.685 472.722 L692.81 473.211 L692.563 472.874 L692.375 473.015 L692.469 473.694 L691.237 474.233 L688.937 476.939 L685.396 479.147 L682.044 482.491 L680.751 483.007 L677.036 486.83 L672.998 489.142 L669.971 492.467 L666.799 494.659 L658.38 502.884 L657.476 504.731 L656.777 505.057 L656.434 506.269 L656.268 506.107 L657.916 506.054 L660.6 504.568 L661.323 504.68 L664.604 501.847 L665.906 501.256 L668.039 499.578 "/></g><g><path fill="none" stroke="#000000" stroke-width="4" stroke-linecap="butt" stroke-linejoin="round" d="M704.345 470.742 L704.641 470.715 L704.354 470.714 L704.571 471.101 L704.24 470.873 L704.013 472.256 L702.971 473.171 L702.559 472.989 L702.114 474.417 L699.497 477.216 L697.055 478.438 L693.564 481.447 L692.327 481.638 L690.35 484.026 L687.58 485.615 L685.144 487.706 L683.933 489.22 L681.942 490.458 L677.941 493.832 L674.671 497.566 L672.025 499.912 L670.372 502.184 L667.751 504.196 L666.939 505.758 L667.162 505.961 L667.553 504.632 L667.631 505.309 L668.185 505.588 L669.769 504.64 L670.925 504.444 L672.062 503.617 L673.211 503.529 "/></g><g><path fill="none" stroke="#000000" stroke-width="4" stroke-linecap="butt" stroke-linejoin="round" d="M717.202 471.508 L717.334 470.684 L717.424 470.996 L718.045 470.756 L718.184 469.987 L718.229 470.345 L718.46 470.173 L718.625 469.622 L718.19 470.458 L716.697 471.382 L713.674 474.927 L709.75 478.144 L705.69 482.06 L704.472 483.738 L700.529 486.985 L698.859 487.889 L696.391 491.096 L694.777 492.415 L688.696 499.361 L687.995 499.571 L687.594 501.131 L685.612 503.743 L685.921 503.314 L686.368 503.782 L686.551 503.431 L688.88 502.493 L690.582 501.315 "/></g><g><path fill="none" stroke="#000000" stroke-width="4" stroke-linecap="butt" stroke-linejoin="round" d="M729.336 475.086 L729.318 474.409 L729.375 474.621 L729.912 474.212 L729.934 473.18 L729.95 473.811 L729.446 474.476 L726.49 477.601 L723.749 479.932 L722.715 480.348 L717.265 486.098 L714.743 487.949 L711.567 491.32 L710.925 491.407 L710.338 491.948 L707.711 494.92 L703.461 498.416 L701.629 500.794 L697.568 503.276 L696.306 504.957 L695.086 505.909 L693.285 508.808 L692.841 508.311 L692.755 509.107 L693.316 508.58 L694.144 508.957 L697.701 506.729 L698.503 506.756 L701.102 505.5 L701.824 504.573 L704.137 503.451 "/></g><g><path fill="none" stroke="#000000" stroke-width="4" stroke-linecap="butt" stroke-linejoin="round" d="M749.916 470.275 L749.664 469.416 L749.656 469.734 L749.597 469.442 L749.353 469.518 L749.616 469.807 L749.112 469.673 L748.291 470.158 L742.643 476.272 L741.641 476.681 L740.729 477.579 L740.157 477.624 L736.859 480.567 L733.176 484.481 L731.696 485.158 L728.718 487.279 L727.58 489.044 L722.524 492.733 L714.866 499.72 L713.645 501.217 L711.351 503.308 L710.382 503.821 L707.829 507.503 L707.239 507.564 L706.382 508.316 L705.903 509.446 L706.123 509.201 L707.486 509.712 L711.626 507.429 "/></g><g><path fill="none" stroke="#000000" stroke-width="4" stroke-linecap="butt" stroke-linejoin="round" d="M756.456 475.522 L757.89 474.797 L757.93 473.999 L757.705 473.974 L758.227 474.538 L757.702 474.534 L757.577 474.964 L757.321 474.808 L752.376 478.755 L751.061 480.512 L747.573 483.55 L744.829 486.757 L741.365 489.881 L740.299 491.492 L738.507 492.82 L736.758 494.793 L734.828 496.519 L734.267 496.534 L733.239 497.864 L730.147 500.526 L728.679 501.158 L727.732 502.466 L727.452 502.158 L727.175 502.787 L727.57 502.444 L727.584 502.867 L727.599 502.368 L728.012 501.978 L731.672 500.363 L733.491 499.086 "/></g><g><path fill="none" stroke="#000000" stroke-width="4" stroke-linecap="butt" stroke-linejoin="round" d="M773.465 470.116 L773.977 469.201 L774.382 469.264 L774.149 469.684 L774.053 469.275 L774.21 469.685 L772.907 471.093 L771.572 473.575 L769.309 475.878 L768.036 477.701 L766.239 479.435 L765.71 479.474 L763.15 482.876 L761.544 484.447 L759.877 485.694 L756.338 489.399 L754.183 490.968 L753.703 491.892 L749.574 496.45 L747.978 497.776 L744.595 501.543 L743.557 501.988 L741.735 504.309 L740.619 505.056 L739.835 506.212 L739.751 507.019 L739.508 506.164 L739.763 506.418 L740.507 505.88 L741.128 505.904 L742.64 505.047 L743.247 505.155 L743.831 504.793 L744.477 504.082 L749.483 500.816 L751.889 498.483 L752.529 498.376 L756.648 495.297 "/></g><g><path fill="none" stroke="#000000" stroke-width="4" stroke-linecap="butt" stroke-linejoin="round" d="M786.296 472.04 L787.308 471.635 L788.427 469.775 L789.311 468.863 L789.635 468.919 L789.536 468.265 L789.371 468.406 L789.541 468.601 L789.214 468.639 L786.254 472.335 L784.134 475.806 L778.547 481.678 L776.843 483.011 L774.745 486.076 L772.206 488.138 L769.744 490.7 L768.758 492.168 L765.919 493.939 L764.87 495.452 L761.234 498.934 L759.764 500.892 L758.859 501.415 L757.992 502.461 L757.429 502.501 L756.769 503.233 L755.411 503.975 L754.029 506.027 L753.776 505.849 L753.277 506.232 L753.129 506.87 L753.102 506.545 L752.96 506.805 L752.61 506.665 L753.011 506.995 L752.878 506.633 L753.051 507.138 L753.25 506.703 L754.694 506.774 L757.286 504.366 L759.523 503.339 "/></g><g><path fill="none" stroke="#000000" stroke-width="4" stroke-linecap="butt" stroke-linejoin="round" d="M799.242 476.432 L800.252 474.82 L800.595 474.839 L800.364 474.622 L800.227 475.049 L800.437 475.047 L800.094 475.445 L799.084 475.702 L797.232 477.649 L794.717 479.244 L789.804 483.731 L789.02 483.966 L782.937 490.275 L780.505 492.107 L779.249 493.591 L770.275 501.86 L767.742 504.844 L767.02 506.378 L766.684 506.234 L766.43 506.501 L763.899 509.857 L764.1 510.268 L764.419 509.382 L765.279 509.209 L765.752 508.44 L766.359 508.147 L766.96 508.384 L767.458 508.174 L770.176 505.86 "/></g><g><path fill="none" stroke="#000000" stroke-width="4" stroke-linecap="butt" stroke-linejoin="round" d="M816.15 469.509 L816.101 468.714 L816.558 468.256 L816.311 468.094 L816.583 468.325 L816.48 468.636 L816.241 467.763 L816.137 468.661 L811.014 473.262 L810.282 474.888 L794.308 488.919 L792.299 491.341 L786.859 496.111 L782.521 501.362 L780.038 503.722 L779.747 503.375 L779.521 503.542 L777.865 507.049 L778.189 506.622 L778.402 507.065 L779.288 507.066 L781.128 506.465 "/></g><g><path fill="none" stroke="#000000" stroke-width="4" stroke-linecap="butt" stroke-linejoin="round" d="M825.411 473.647 L825.18 472.741 L825.517 472.808 L825.241 472.223 L824.958 473.245 L824.681 472.825 L824.143 473.281 L817.89 479.55 L812.753 483.39 L808.206 487.426 L799.179 496.307 L797.591 497.43 L790.983 503.608 L787.555 507.989 L785.869 509.163 L785.075 510.602 L784.752 510.898 L784.683 510.7 L784.669 511.168 L784.81 510.814 L784.934 511.301 L785.088 510.431 L785.792 509.873 L786.227 510.089 L787.798 509.365 L792.509 506.109 "/></g><g><path fill="none" stroke="#000000" stroke-width="4" stroke-linecap="butt" stroke-linejoin="round" d="M840.426 465.841 L840.14 466.601 L840.16 466.252 L839.757 466.408 L839.237 467.607 L835.508 472.841 L835.094 474.01 L834.149 474.41 L833.288 475.824 L831.121 477.904 L829.106 480.695 L821.277 489.25 L818.615 491.279 L815.415 494.593 L813.192 496.148 L810.623 498.825 L806.679 501.644 L799.942 508.684 L799.604 508.577 L798.881 509.268 L798.879 508.997 L798.701 509.604 L798.99 509.358 L799.108 509.939 L799.256 509.004 L799.882 509.279 L800.189 508.829 L804.954 506.377 L806.762 505.002 "/></g><g><path fill="none" stroke="#000000" stroke-width="4" stroke-linecap="butt" stroke-linejoin="round" d="M850.094 471.833 L849.964 471.36 L850.261 471.677 L849.81 471.788 L849.685 472.398 L845.9 475.131 L842.879 477.775 L841.993 479.02 L840.323 480.149 L838.408 482.571 L835.473 485.002 L828.665 491.92 L827.923 492.224 L826.528 494.344 L821.612 499.842 L816.232 505.213 L815.694 505.431 L814.663 507.002 L812.28 508.698 L811.119 510.88 L811.102 510.411 L810.796 510.448 L811.059 510.737 L811.24 510.07 L811.291 510.401 L811.522 510.092 L812.039 510.315 L816.268 508.939 "/></g><g><path fill="none" stroke="#000000" stroke-width="4" stroke-linecap="butt" stroke-linejoin="round" d="M862.55 473.197 L863.004 472.178 L863.821 471.489 L863.788 470.98 L863.623 471.279 L863.856 471.421 L863.61 471.602 L863.403 471.312 L862.373 473.355 L858.748 477.616 L854.592 481.224 L853.986 481.18 L852.736 483.194 L849.296 486.472 L844.396 491.117 L842.853 492.158 L841.105 494.18 L839.547 494.839 L836.642 498.315 L835.296 499.117 L832.09 501.941 L830.921 503.94 L830.179 503.691 L828.162 505.37 L824.583 509.178 L824.771 509.604 L824.942 508.305 L825.247 508.836 L825.882 508.872 L826.988 507.908 L827.6 508.221 L830.863 506.716 L832.335 505.691 "/></g><g><path fill="none" stroke="#000000" stroke-width="4" stroke-linecap="butt" stroke-linejoin="round" d="M875.713 473.162 L875.777 472.522 L875.718 472.763 L876.419 472.368 L877.029 471.599 L876.954 470.945 L877.207 471.421 L876.915 471.857 L876.767 471.267 L876.827 472.294 L876.694 471.996 L876.125 472.503 L875.501 473.847 L872.548 476.84 L866.002 482.074 L864.116 484.196 L859.736 488.038 L854.042 494.035 L852.352 495.122 L845.854 502.318 L845.328 503.254 L844.726 503.654 L844.2 503.608 L843.123 504.736 L842.645 504.795 L842.152 506.185 L840.8 507.864 L840.449 507.746 L839.757 508.948 L839.891 508.305 L839.91 508.838 L840.568 508.13 L843.61 506.987 L846.868 504.82 L848.405 503.306 "/></g><g><path fill="none" stroke="#000000" stroke-width="4" stroke-linecap="butt" stroke-linejoin="round" d="M885.075 471.461 L885.738 471.33 L885.971 470.901 L886.116 471.185 L885.864 471.176 L885.652 472.124 L885.452 471.623 L884.757 473.496 L882.485 476.714 L881.566 477.266 L880.213 479.225 L878.519 480.657 L875.719 484.223 L874.498 485.053 L870.854 489.538 L866.817 493.108 L862.275 498.156 L861.601 498.353 L858.73 502.353 L854.99 506.019 L854.234 507.441 L853.534 507.654 L852.686 509.143 L852.425 508.944 L851.798 509.476 L851.697 509.145 L851.814 509.909 L852.726 508.625 L855.062 507.854 L858.975 504.707 "/></g><g><path fill="none" stroke="#000000" stroke-width="4" stroke-linecap="butt" stroke-linejoin="round" d="M897.772 473.757 L897.613 472.693 L897.995 473.031 L897.557 472.51 L897.768 472.625 L897.614 471.998 L897.442 472.179 L897.507 471.556 L897.571 472.126 L897.167 472.166 L897.04 472.816 L896.246 472.455 L895.35 473.842 L892.541 475.731 L887.943 480.468 L882.194 485.501 L873.743 494.714 L869.545 498.514 L862.448 505.995 L859.614 509.285 L858.954 510.84 L858.613 510.587 L857.312 511.728 L856.795 513.02 L857.316 512.499 L857.337 512.995 L857.698 512.491 L858.449 512.341 L859.124 511.63 L860.578 511.539 L863.992 509.615 L865.996 508.067 "/></g><g><path fill="none" stroke="#000000" stroke-width="4" stroke-linecap="butt" stroke-linejoin="round" d="M914.355 470.699 L914.524 469.678 L914.652 469.981 L914.684 469.73 L914.073 470.419 L913.931 470.228 L913.575 470.497 L913.259 471.318 L910.306 474.401 L900.182 482.031 L898.029 484.392 L890.758 490.451 L887.167 494.198 L886.529 494.516 L881.439 500.613 L878.705 503.091 L877.912 504.479 L874.33 507.675 L873.331 509.421 L872.195 510.505 L872.178 511.635 L872.458 510.257 L872.57 510.612 L875.237 509.872 L879.821 506.626 "/></g><g><path fill="none" stroke="#000000" stroke-width="4" stroke-linecap="butt" stroke-linejoin="round" d="M928.825 469.031 L928.572 469.655 L928.825 469.62 L928.273 469.408 L927.041 469.881 L925.259 471.394 L923.261 473.585 L922.765 473.75 L922.115 474.912 L917.508 479.345 L916.17 481.061 L910.723 485.796 L905.191 491.281 L903.758 492.03 L902.498 493.162 L901.053 493.763 L900.463 494.911 L898.135 497.506 L896.537 498.737 L893.077 502.403 L891.19 503.695 L889.113 506.228 L884.796 510.363 L884.343 511.51 L884.22 511.097 L883.752 511.7 L883.426 511.677 L883.146 512.325 L883.495 511.732 L884.328 511.895 L884.81 511.239 L887.411 510.063 L890.611 507.377 "/></g><g><path fill="none" stroke="#000000" stroke-width="4" stroke-linecap="butt" stroke-linejoin="round" d="M934.158 473.556 L935.58 471.522 L936.004 471.619 L936.351 470.983 L936.132 470.578 L936.408 470.421 L936.101 470.36 L936.349 470.562 L936.151 470.628 L935.983 470.275 L936.254 470.774 L936.06 470.94 L935.923 470.701 L935.781 471.17 L934.83 471.625 L931.997 474.823 L930.874 475.31 L929.076 476.873 L928.313 476.788 L927.576 477.274 L924.977 480.53 L917.797 487.056 L913.545 491.588 L909.928 494.751 L905.126 499.627 L897.769 505.613 L896.267 507.844 L897.413 507.759 L897.663 507.2 L899.842 506.622 "/></g><g><path fill="none" stroke="#000000" stroke-width="4" stroke-linecap="butt" stroke-linejoin="round" d="M949.805 472.245 L949.744 471.683 L949.67 472.244 L949.674 472.006 L949.292 472.113 L949.242 472.663 L948.618 472.541 L946.056 474.759 L942.791 476.891 L937.289 481.967 L934.76 483.76 L931.884 486.533 L930.617 488.325 L924.62 492.856 L922.313 495.314 L921.577 495.582 L915.689 502.295 L912.886 504.325 L910.984 506.435 L911.01 506.105 L910.745 506.247 L910.303 507.491 L910.084 507.411 L909.975 508.293 L910.506 506.95 L911.579 506.813 L911.947 507.052 L913.601 505.816 "/></g><g><path fill="none" stroke="#000000" stroke-width="4" stroke-linecap="butt" stroke-linejoin="round" d="M960.591 470.06 L960.659 469.592 L960.862 469.899 L960.998 469.711 L960.911 470.231 L960.577 470.145 L959.021 472.412 L957.896 474.654 L952.65 480.194 L948.693 483.739 L946.988 484.766 L946.279 485.824 L942.955 488.884 L938.17 492.736 L935.652 495.625 L934.747 496.002 L931.18 498.808 L929.374 500.908 L927.36 502.596 L924.115 504.774 L922.139 506.98 L921.862 507.721 L920.27 508.134 L920.131 508.694 L920.461 507.941 L920.716 508.195 L920.696 507.962 L921.247 508.013 L924.657 505.21 L928.169 503.099 L928.965 502.261 L931.604 501.039 "/></g><g><path fill="none" stroke="#000000" stroke-width="4" stroke-linecap="butt" stroke-linejoin="round" d="M970.771 471.578 L971.849 470.239 L972.929 469.937 L972.878 470.425 L972.715 470.083 L972.69 470.594 L972.287 470.661 L971.982 471.269 L970.442 472.46 L969.501 473.771 L968.919 473.927 L967.862 475.47 L964.761 478.693 L957.087 485.059 L955.516 486.818 L953.661 487.839 L950.112 491.684 L947.499 493.279 L942.302 499.268 L939.078 501.834 L935.95 505.374 L934.183 506.777 L931.722 509.869 L930.46 510.849 L929.973 510.9 L929.676 512.118 L929.627 511.759 L929.173 511.714 L929.449 512.074 L929.43 511.526 L929.816 511.735 L929.57 511.551 L930.109 511.363 L930.317 510.789 L933.942 507.737 "/></g><g><path fill="none" stroke="#000000" stroke-width="4" stroke-linecap="butt" stroke-linejoin="round" d="M986.347 469.451 L987.599 469.083 L987.521 469.402 L987.297 469.052 L987.436 469.42 L984.362 472.124 L983.561 473.566 L981.858 474.702 L977.925 478.665 L973.388 482.608 L966.594 487.643 L962.07 491.673 L960.255 492.562 L956.583 495.852 L955.719 497.311 L951.713 500.621 L950.469 502.236 L949.652 502.486 L948.897 503.488 L948.581 503.134 L947.424 505.511 L946.619 506.347 L946.556 507.086 L946.845 506.126 L947.063 506.612 L948.513 506.412 L954.219 503.676 "/></g><g><path fill="none" stroke="#000000" stroke-width="4" stroke-linecap="butt" stroke-linejoin="round" d="M998.823 468.495 L998.755 467.844 L998.548 468.6 L998.461 468.404 L997.936 468.809 L997.466 468.717 L995.213 471.777 L992.48 474.543 L984.546 481.124 L980.681 483.697 L973.118 490.795 L970.745 492.515 L967.556 495.817 L962.292 500.261 L961.308 501.645 L959.207 503.237 L956.476 506.14 L956.746 505.691 L957.592 506.095 L959.482 505.38 L960.815 505.418 L961.475 504.706 "/></g><g><path fill="none" stroke="#000000" stroke-width="4" stroke-linecap="butt" stroke-linejoin="round" d="M1011.59 468.201 L1011.41 468.636 L1011.24 468.311 L1010.18 470.313 L1007 473.988 L1003.87 476.888 L1003.39 477.697 L999.997 480.352 L996.696 483.969 L991.292 488.073 L988.27 491.063 L980.395 496.686 L976.828 500.122 L975.636 501.694 L973.803 503.029 L972.9 504.411 L972.347 504.536 L971.236 505.935 L970.876 505.728 L970.574 505.994 L970.367 506.724 L969.36 507.818 L969.628 506.964 L969.836 507.415 L970.706 507.095 L973.995 505.197 "/></g><g><path fill="none" stroke="#000000" stroke-width="4" stroke-linecap="butt" stroke-linejoin="round" d="M1021.89 468.111 L1022.07 467.745 L1021.96 468.605 L1022.01 468.199 L1021.63 468.088 L1021.9 468.364 L1021.57 468.277 L1020.8 469.182 L1019.1 469.672 L1018.79 470.487 L1018.26 470.644 L1017.45 471.586 L1016.13 472.117 L1013.69 474.637 L1010.12 477.272 L1008.39 479.207 L1007.18 479.878 L1004.34 482.914 L1003.11 483.822 L1001.39 486.253 L999.802 487.569 L997.092 490.754 L994.951 492.378 L993.474 494.446 L987.569 500.129 L985.227 502.215 L983.814 502.871 L981.262 504.776 L979.462 507.522 L977.884 508.576 L976.928 509.824 L977.532 510.02 L978.004 509.645 L978.71 509.903 L980.254 509.34 "/></g><g><path fill="none" stroke="#000000" stroke-width="4" stroke-linecap="butt" stroke-linejoin="round" d="M1031.73 473.279 L1031.97 472.029 L1032.77 471.183 L1032.79 470.102 L1032.77 471.016 L1032.96 470.761 L1032.7 470.987 L1032.45 470.775 L1032.49 471.287 L1032.32 471.163 L1027.25 476.334 L1020.98 482.082 L1015.86 485.844 L1011.19 490.143 L1005.44 494.759 L1002.78 497.111 L1001.16 499.138 L999.458 500.066 L993.92 504.785 L993.417 504.109 L992.898 504.518 L992.224 506.397 L990.038 508.049 L990.057 508.53 L989.918 508.129 L990.264 507.312 L990.351 507.939 L990.654 507.376 L993.543 507.125 L994.81 506.129 "/></g><g><path fill="none" stroke="#000000" stroke-width="4" stroke-linecap="butt" stroke-linejoin="round" d="M1040.9 470.306 L1041.31 469.907 L1041.08 470.004 L1041.32 470.356 L1041.36 469.956 L1041.01 469.936 L1041.26 470.324 L1040.88 470.211 L1039.19 473.112 L1036.89 475.338 L1035.85 476.934 L1034.88 477.543 L1034.16 478.906 L1031.98 480.886 L1030.45 482.959 L1024.22 488.421 L1020.77 491.996 L1016.27 495.661 L1012.17 500.048 L1007.93 503.77 L1005.17 506.765 L1004.13 507.336 L1004.03 507.771 L1004.06 507.22 L1004.26 507.654 L1004.35 506.821 L1004.68 507.322 L1006.83 506.891 L1010.22 505.196 "/></g><g><path fill="none" stroke="#000000" stroke-width="4" stroke-linecap="butt" stroke-linejoin="round" d="M1058.48 465.293 L1058.66 464.912 L1058.46 465.311 L1058.69 465.094 L1058.3 465.021 L1058.44 465.413 L1057.99 465.337 L1057.98 465.916 L1057 466.457 L1055.25 469.063 L1053.07 471.236 L1051.37 473.806 L1047.89 477.298 L1044.29 480.193 L1042.72 482.178 L1037.14 486.581 L1032.92 490.707 L1023.05 498.641 L1018.44 503.261 L1014.91 505.854 L1013.64 507.974 L1013.45 507.554 L1013.19 507.605 L1013.04 508.178 L1012.55 508.524 L1012.88 508.425 L1012.68 508.201 L1012.81 508.815 L1013.07 508.888 L1013.21 507.815 L1013.66 508.232 L1015.97 506.867 L1016.65 506.758 "/></g><g><path fill="none" stroke="#000000" stroke-width="4" stroke-linecap="butt" stroke-linejoin="round" d="M1062.42 472.665 L1062.12 471.777 L1062.08 472.565 L1061.11 472.936 L1057.8 475.861 L1052.52 481.764 L1045.99 488.115 L1041.53 491.714 L1038.32 495.043 L1034.17 498.484 L1032.49 500.264 L1030.31 502.136 L1029.67 502.144 L1028.62 503.619 L1027.13 504.458 L1025.23 507.167 L1024.78 507.115 L1024.98 506.722 L1025.34 507.501 L1026.04 506.94 L1028.09 506.55 "/></g><g><path fill="none" stroke="#000000" stroke-width="4" stroke-linecap="butt" stroke-linejoin="round" d="M1074.9 473.558 L1075.17 472.569 L1075.65 472.285 L1075.76 472.614 L1075.49 472.152 L1075.71 472.731 L1075.58 472.406 L1074.82 473.853 L1073.87 474.349 L1070.57 477.644 L1067.18 480.389 L1066.67 480.5 L1064.34 482.732 L1062.6 483.747 L1059.87 486.056 L1054.76 491.326 L1051.25 493.965 L1049.66 496.482 L1047.45 498.125 L1045.05 502.09 L1044.25 502.2 L1042.99 503.423 L1042.51 504.584 L1041.7 505.025 L1042.15 505.168 L1042.13 504.926 L1042.73 504.925 L1044.79 503.87 "/></g><g><path fill="none" stroke="#000000" stroke-width="4" stroke-linecap="butt" stroke-linejoin="round" d="M1088.11 473.311 L1088.03 472.809 L1088.12 473.365 L1088.16 472.868 L1088.09 473.223 L1087.78 473.466 L1087.75 473.19 L1087.92 473.309 L1087.31 473.853 L1086.52 474.21 L1085.06 476.006 L1083.45 476.758 L1081.95 477.995 L1080.38 480.031 L1073.4 485.779 L1070.63 488.748 L1068.76 489.594 L1066.53 492.152 L1063.75 494.287 L1062.48 496.034 L1060.88 497.256 L1059.44 499.112 L1058.83 499.164 L1057.73 500.094 L1054.42 503.661 L1054 504.813 L1053.87 504.555 L1054.16 504.457 L1054.41 504.907 L1054.41 504.654 L1057.57 503.324 "/></g><g><path fill="none" stroke="#000000" stroke-width="4" stroke-linecap="butt" stroke-linejoin="round" d="M1096.78 475.628 L1096.7 475.078 L1096.91 475.553 L1097.01 475.227 L1096.84 475.482 L1096.81 474.858 L1096.72 475.489 L1093.52 477.643 L1089.39 481.882 L1085.81 484.56 L1075.32 493.861 L1073.62 495.746 L1072.51 496.456 L1071.39 498.042 L1069.06 500.209 L1068.21 500.968 L1067.91 501.081 L1067.87 500.689 L1067.89 501.301 L1068.84 500.883 L1069.74 500.984 "/></g><g><path fill="none" stroke="#000000" stroke-width="4" stroke-linecap="butt" stroke-linejoin="round" d="M1098.16 483.468 L1098.1 483.024 L1098.06 483.349 L1098.33 483.391 L1097.87 483.476 L1098.05 483.769 L1097.46 484.481 L1096.66 484.769 L1094.9 487.058 L1089.91 491.974 L1088.64 492.859 L1087.34 494.461 L1086.81 494.799 L1086.33 494.573 L1085.32 496.322 L1083.76 497.806 L1078.11 501.534 L1077.62 501.514 L1076.07 503.459 L1075.96 503.169 L1075.3 503.181 L1074.71 503.858 L1074.81 504.229 "/></g><g><path fill="none" stroke="#000000" stroke-width="4" stroke-linecap="butt" stroke-linejoin="round" d="M1097.76 490.968 L1098.35 491.071 L1098.24 490.797 L1098.3 491.446 L1098.09 491.292 L1097.63 492.158 L1095.2 494.637 L1094.61 494.795 L1094 495.63 L1092.22 496.923 L1091.08 498.462 L1089.01 500.146 L1087.24 501.221 L1086.98 501.082 L1085.77 502.556 L1084.95 502.679 L1084.29 503.662 "/></g>
</svg>